<?xml version="1.0" standalone="no"?>
<!DOCTYPE svg PUBLIC "-//W3C//DTD SVG 1.1//EN" "http://www.w3.org/Graphics/SVG/1.1/DTD/svg11.dtd" >
<svg>
<metadata>
Created by FontForge 20090622 at Wed Dec  9 09:29:51 2015
 By deploy user
Copyright (c) 2012 by Process Type Foundry, LLC. All rights reserved.
</metadata>
<defs>
<font id="Colfax-Regular" horiz-adv-x="569" >
  <font-face 
    font-family="Colfax Regular"
    font-weight="400"
    font-stretch="normal"
    units-per-em="1000"
    panose-1="2 11 3 4 0 0 0 1 0 2"
    ascent="750"
    descent="-250"
    x-height="512"
    cap-height="700"
    bbox="-52 -250 1175 963"
    underline-thickness="36"
    underline-position="-64"
    unicode-range="U+0020-U+FB02"
  />
<missing-glyph horiz-adv-x="714" 
d="M104 0v700h506v-700h-506zM117 12h480v676h-480v-676zM264 232l-25 25l93 93l-93 94l24 25l94 -94l95 94l24 -25l-94 -94l94 -93l-25 -25l-94 93z" />
    <glyph glyph-name=".notdef" horiz-adv-x="714" 
d="M104 0v700h506v-700h-506zM117 12h480v676h-480v-676zM264 232l-25 25l93 93l-93 94l24 25l94 -94l95 94l24 -25l-94 -94l94 -93l-25 -25l-94 93z" />
    <glyph glyph-name=".null" horiz-adv-x="0" 
 />
    <glyph glyph-name="nonmarkingreturn" horiz-adv-x="333" 
 />
    <glyph glyph-name="space" unicode=" " horiz-adv-x="220" 
 />
    <glyph glyph-name="exclam" unicode="!" horiz-adv-x="262" 
d="M111 184l-20 251v265h80v-265l-20 -251h-40zM80 43q0 22 14 35.5t37 13.5t37 -13.5t14 -35.5t-14.5 -35.5t-36.5 -13.5t-36.5 13.5t-14.5 35.5z" />
    <glyph glyph-name="quotedbl" unicode="&#x22;" horiz-adv-x="446" 
d="M295 436v264h65v-264h-65zM86 436v264h65v-264h-65z" />
    <glyph glyph-name="numbersign" unicode="#" horiz-adv-x="679" 
d="M79 445v54h118l23 201h60l-23 -201h206l23 201h60l-23 -201h103v-54h-109l-20 -179h108v-54h-114l-24 -212h-60l24 212h-206l-24 -212h-60l24 212h-107v54h113l20 179h-112zM251 445l-20 -179h206l20 179h-206z" />
    <glyph glyph-name="dollar" unicode="$" horiz-adv-x="595" 
d="M266 -110v112q-90 9 -143 59.5t-53 132.5v18h70v-18q0 -64 41.5 -100t121.5 -36q73 0 114.5 35t41.5 93q0 78 -88 111l-155 59q-68 26 -103.5 63.5t-35.5 101.5q0 75 50.5 122t133.5 55v112h75v-113q81 -10 129.5 -57.5t48.5 -123.5v-26h-70v24q0 59 -39.5 93.5
t-109.5 34.5q-67 0 -106.5 -31t-39.5 -87q0 -41 22.5 -64.5t67.5 -40.5l153 -59q70 -27 104.5 -67.5t34.5 -102.5q0 -77 -53.5 -127.5t-136.5 -60.5v-112h-75z" />
    <glyph glyph-name="percent" unicode="%" horiz-adv-x="849" 
d="M212 321q-69 0 -110 41.5t-41 108.5v87q0 67 41 108.5t110 41.5t110 -41.5t41 -108.5v-87q0 -67 -41 -108.5t-110 -41.5zM212 369q45 0 69.5 26.5t24.5 71.5v95q0 45 -24.5 71.5t-69.5 26.5t-69.5 -26.5t-24.5 -71.5v-95q0 -45 24.5 -71.5t69.5 -26.5zM642 -8
q-69 0 -110 41.5t-41 108.5v87q0 67 41 108.5t110 41.5t110 -41.5t41 -108.5v-87q0 -67 -41 -108.5t-110 -41.5zM642 40q45 0 69.5 26.5t24.5 71.5v95q0 45 -24.5 71.5t-69.5 26.5t-69.5 -26.5t-24.5 -71.5v-95q0 -45 24.5 -71.5t69.5 -26.5zM217 0l363 700h58l-363 -700
h-58z" />
    <glyph glyph-name="ampersand" unicode="&#x26;" horiz-adv-x="693" 
d="M504 517h-63v38q0 45 -33.5 75t-84.5 30q-54 0 -86.5 -25.5t-32.5 -71.5q0 -58 56 -116l276 -286q18 46 18 101v71h64v-73q0 -84 -36 -147l81 -83l-45 -44l-74 76q-78 -76 -222 -76q-107 0 -182 62t-75 161q0 135 145 200l-4 4q-68 72 -68 144t50 114.5t134 42.5
q78 0 130 -44t52 -114v-39zM338 41q107 0 164 65l-254 263q-114 -49 -114 -160q0 -77 55.5 -122.5t148.5 -45.5z" />
    <glyph glyph-name="quotesingle" unicode="'" horiz-adv-x="237" 
d="M86 436v264h65v-264h-65z" />
    <glyph glyph-name="parenleft" unicode="(" horiz-adv-x="309" 
d="M197 782h74q-63 -131 -91 -239t-28 -219t28 -219t91 -239h-74q-121 232 -121 458t121 458z" />
    <glyph glyph-name="parenright" unicode=")" horiz-adv-x="309" 
d="M38 782h74q121 -232 121 -458t-121 -458h-74q63 131 91 239t28 219t-28 219t-91 239z" />
    <glyph glyph-name="asterisk" unicode="*" horiz-adv-x="425" 
d="M346 437l-114 65v-131h-38v131l-115 -65l-19 33l114 65l-114 65l19 33l115 -66v133h38v-132l114 65l19 -33l-114 -65l114 -65z" />
    <glyph glyph-name="plus" unicode="+" horiz-adv-x="606" 
d="M269 126v204h-189v60h189v204h68v-204h189v-60h-189v-204h-68z" />
    <glyph glyph-name="comma" unicode="," horiz-adv-x="238" 
d="M35 -114l48 224h85l-69 -224h-64z" />
    <glyph glyph-name="hyphen" unicode="-" horiz-adv-x="413" 
d="M67 279v67h279v-67h-279z" />
    <glyph glyph-name="period" unicode="." horiz-adv-x="238" 
d="M68 43q0 22 14 35.5t37 13.5t37 -13.5t14 -35.5t-14.5 -35.5t-36.5 -13.5t-36.5 13.5t-14.5 35.5z" />
    <glyph glyph-name="slash" unicode="/" horiz-adv-x="423" 
d="M35 -105l282 855h71l-282 -855h-71z" />
    <glyph glyph-name="zero" unicode="0" horiz-adv-x="630" 
d="M315 -14q-113 0 -179 65.5t-66 167.5v262q0 102 66 167.5t179 65.5t179 -65.5t66 -167.5v-262q0 -102 -66 -167.5t-179 -65.5zM315 49q80 0 124 45.5t44 121.5v268q0 76 -44 121.5t-124 45.5t-124 -45.5t-44 -121.5v-268q0 -76 44 -121.5t124 -45.5z" />
    <glyph glyph-name="one" unicode="1" horiz-adv-x="350" 
d="M177 0v621l-146 -69v70l159 78h64v-700h-77z" />
    <glyph glyph-name="two" unicode="2" horiz-adv-x="597" 
d="M70 0v60l296 311q78 81 78 151q0 58 -40.5 93.5t-102.5 35.5q-68 0 -107.5 -37t-39.5 -104v-16h-73v19q0 94 60.5 147.5t159.5 53.5q97 0 158.5 -52.5t61.5 -139.5q0 -57 -30.5 -104.5t-84.5 -102.5l-247 -252h363v-63h-452z" />
    <glyph glyph-name="three" unicode="3" horiz-adv-x="608" 
d="M110 638v62h408v-63l-224 -245h27q97 0 158.5 -54t61.5 -143q0 -90 -71 -149.5t-172 -59.5q-95 0 -163.5 55t-72.5 150h71q5 -66 50.5 -104.5t115.5 -38.5q75 0 121 41t46 104q0 64 -44 103t-118 39h-95v60l216 243h-315z" />
    <glyph glyph-name="four" unicode="4" horiz-adv-x="612" 
d="M393 0v167h-332v57l233 476h70l-228 -475h257v166h71v-166h97v-58h-97v-167h-71z" />
    <glyph glyph-name="five" unicode="5" horiz-adv-x="624" 
d="M310 -14q-89 0 -155 49.5t-82 136.5h73q16 -56 58 -89.5t106 -33.5q80 0 128.5 48.5t48.5 123.5q0 72 -47 121t-120 49q-99 0 -159 -82h-73l66 391h349v-63h-288l-44 -251q25 30 69 49t95 19q98 0 162.5 -66.5t64.5 -164.5q0 -101 -71.5 -169t-180.5 -68z" />
    <glyph glyph-name="six" unicode="6" horiz-adv-x="600" 
d="M307 700h82l-203 -309v-1q51 62 141 62q95 0 157.5 -65t62.5 -165q0 -96 -69.5 -166t-174.5 -70q-107 0 -175.5 66t-68.5 167q0 89 74 206zM134 218q0 -75 46 -123t122 -48t123 49t47 124t-45 124t-121 49q-74 0 -123 -50t-49 -125z" />
    <glyph glyph-name="seven" unicode="7" horiz-adv-x="559" 
d="M118 0l307 637h-360v63h439v-54l-309 -646h-77z" />
    <glyph glyph-name="eight" unicode="8" horiz-adv-x="630" 
d="M315 -14q-107 0 -175 55.5t-68 144.5q0 74 42 119.5t99 58.5q-112 50 -112 163q0 86 59.5 136.5t154.5 50.5t154.5 -50.5t59.5 -136.5q0 -113 -112 -163q57 -13 99 -58.5t42 -119.5q0 -89 -68 -144.5t-175 -55.5zM315 44q73 0 121 39.5t48 102.5q0 67 -46.5 106
t-122.5 39t-122.5 -39t-46.5 -106q0 -63 48 -102.5t121 -39.5zM173 522q0 -55 40.5 -94t101.5 -39t101.5 39t40.5 94q0 61 -38.5 97.5t-103.5 36.5t-103.5 -36.5t-38.5 -97.5z" />
    <glyph glyph-name="nine" unicode="9" horiz-adv-x="600" 
d="M293 0h-83l197 302v1q-18 -23 -55.5 -39t-78.5 -16q-95 0 -157.5 65.5t-62.5 164.5q0 101 68 168.5t176 67.5q107 0 175.5 -65.5t68.5 -167.5q0 -89 -50 -169zM466 482q0 74 -47.5 122.5t-120.5 48.5q-76 0 -123 -49.5t-47 -124.5q0 -79 44 -125.5t122 -46.5q72 0 122 50
t50 125z" />
    <glyph glyph-name="colon" unicode=":" horiz-adv-x="238" 
d="M68 43q0 22 14 35.5t37 13.5t37 -13.5t14 -35.5t-14.5 -35.5t-36.5 -13.5t-36.5 13.5t-14.5 35.5zM68 374q0 22 14 35.5t37 13.5t37 -13.5t14 -35.5t-14.5 -35.5t-36.5 -13.5t-36.5 13.5t-14.5 35.5z" />
    <glyph glyph-name="semicolon" unicode=";" horiz-adv-x="238" 
d="M30 -114l48 224h85l-69 -224h-64zM78 374q0 22 14 35.5t37 13.5t37 -13.5t14 -35.5t-14.5 -35.5t-36.5 -13.5t-36.5 13.5t-14.5 35.5z" />
    <glyph glyph-name="less" unicode="&#x3c;" horiz-adv-x="591" 
d="M506 116l-446 220v48l446 220v-67l-363 -177l363 -177v-67z" />
    <glyph glyph-name="equal" unicode="=" horiz-adv-x="614" 
d="M90 449v60h434v-60h-434zM90 211v60h434v-60h-434z" />
    <glyph glyph-name="greater" unicode="&#x3e;" horiz-adv-x="591" 
d="M531 336l-446 -220v67l363 177l-363 177v67l446 -220v-48z" />
    <glyph glyph-name="question" unicode="?" horiz-adv-x="507" 
d="M195 175v47q0 65 15 102.5t53 67.5l50 39q35 27 51 52t16 60q0 51 -36 80t-97 29q-62 0 -96.5 -31.5t-34.5 -89.5v-19h-70v20q0 88 54 135t148 47q93 0 150.5 -47.5t57.5 -123.5q0 -88 -79 -148l-53 -41q-37 -29 -49.5 -55t-12.5 -82v-42h-67zM178 43q0 22 14 35.5
t37 13.5t37 -13.5t14 -35.5t-14.5 -35.5t-36.5 -13.5t-36.5 13.5t-14.5 35.5z" />
    <glyph glyph-name="at" unicode="@" horiz-adv-x="950" 
d="M466 -115q-118 0 -209 53t-138 141t-47 195q0 121 51 220.5t151 159.5t230 60q173 0 275.5 -102.5t102.5 -244.5q0 -62 -17.5 -119t-62.5 -100t-110 -43q-48 0 -80 28.5t-38 67.5q-20 -35 -57 -58.5t-85 -23.5q-65 0 -103 42t-38 107q0 18 3 38l5 29q13 78 57 118t110 40
q45 0 76.5 -22.5t43.5 -52.5l12 67h57l-37 -207q-3 -18 -3 -33q0 -43 21 -69.5t63 -26.5q61 0 97 63.5t36 153.5q0 128 -89 215.5t-240 87.5q-169 0 -274 -109.5t-105 -285.5q0 -148 93 -246t255 -98q94 0 210 31l-6 -44q-86 -32 -210 -32zM442 168q45 0 76.5 31.5
t39.5 78.5l6 35q2 10 2 22q0 45 -28.5 77t-72.5 32q-88 0 -107 -114l-4 -23q-4 -22 -4 -39q0 -48 25 -74t67 -26z" />
    <glyph glyph-name="A" unicode="A" horiz-adv-x="680" 
d="M379 700l263 -700h-77l-64 178h-323l-63 -178h-77l263 700h78zM340 629l-140 -389h279z" />
    <glyph glyph-name="B" unicode="B" horiz-adv-x="663" 
d="M91 0v700h289q91 0 141 -48t50 -126q0 -59 -28 -101t-75 -63q63 -14 103.5 -57t40.5 -115q0 -88 -60.5 -139t-164.5 -51h-296zM166 61h215q75 0 115 34.5t40 99.5q0 59 -41 95.5t-113 36.5h-216v-266zM166 388h197q62 0 97 37t35 91q0 55 -35 89t-97 34h-197v-251z" />
    <glyph glyph-name="C" unicode="C" horiz-adv-x="701" 
d="M361 -14q-140 0 -215.5 84.5t-75.5 220.5v118q0 136 75.5 220.5t215.5 84.5q117 0 192 -71t84 -174h-75q-10 78 -61.5 129t-140.5 51q-104 0 -158 -65t-54 -172v-124q0 -107 54 -172t158 -65q89 0 140.5 51t61.5 129h75q-9 -103 -84 -174t-192 -71z" />
    <glyph glyph-name="D" unicode="D" horiz-adv-x="699" 
d="M91 700h263q130 0 203 -74.5t73 -194.5v-162q0 -120 -73 -194.5t-203 -74.5h-263v700zM343 64q101 0 155.5 55.5t54.5 149.5v162q0 94 -54.5 149.5t-155.5 55.5h-175v-572h175z" />
    <glyph glyph-name="E" unicode="E" horiz-adv-x="609" 
d="M91 0v700h462v-65h-384v-248h355v-65h-355v-257h385v-65h-463z" />
    <glyph glyph-name="F" unicode="F" horiz-adv-x="585" 
d="M91 0v700h453v-65h-375v-258h346v-65h-346v-312h-78z" />
    <glyph glyph-name="G" unicode="G" horiz-adv-x="709" 
d="M632 470h-74q-2 77 -56 128t-145 51q-104 0 -156.5 -64.5t-52.5 -174.5v-116q0 -110 52.5 -177.5t161.5 -67.5q95 0 148.5 53t53.5 153v18h-196v65h271v-74q0 -124 -73.5 -201t-204.5 -77q-140 0 -215.5 87.5t-75.5 222.5v111q0 138 75 222.5t211 84.5q125 0 199.5 -69
t76.5 -175z" />
    <glyph glyph-name="H" unicode="H" horiz-adv-x="708" 
d="M91 0v700h78v-314h370v314h78v-700h-78v316h-370v-316h-78z" />
    <glyph glyph-name="I" unicode="I" horiz-adv-x="270" 
d="M96 0v700h78v-700h-78z" />
    <glyph glyph-name="J" unicode="J" horiz-adv-x="589" 
d="M273 -14q-103 0 -165.5 56t-62.5 147v6h74v-6q0 -63 39.5 -100.5t113.5 -37.5q72 0 112 36.5t40 102.5v510h78v-510q0 -90 -63 -147t-166 -57z" />
    <glyph glyph-name="K" unicode="K" horiz-adv-x="612" 
d="M91 0v700h78v-341l316 341h94l-325 -346l336 -354h-94l-327 348v-348h-78z" />
    <glyph glyph-name="L" unicode="L" 
d="M91 0v700h78v-635h359v-65h-437z" />
    <glyph glyph-name="M" unicode="M" horiz-adv-x="790" 
d="M699 700v-700h-74v550l-193 -381h-74l-193 381v-550h-74v700h73l231 -462l231 462h73z" />
    <glyph glyph-name="N" unicode="N" horiz-adv-x="716" 
d="M91 0v700h73l385 -575v575h76v-700h-73l-385 575v-575h-76z" />
    <glyph glyph-name="O" unicode="O" horiz-adv-x="728" 
d="M658 294q0 -134 -76.5 -221t-217.5 -87t-217.5 87t-76.5 221v112q0 134 76.5 221t217.5 87t217.5 -87t76.5 -221v-112zM364 51q107 0 161.5 67t54.5 172v120q0 105 -54.5 172t-161.5 67t-161.5 -67t-54.5 -172v-120q0 -105 54.5 -172t161.5 -67z" />
    <glyph glyph-name="P" unicode="P" horiz-adv-x="639" 
d="M91 0v700h274q108 0 173 -62.5t65 -159.5t-65 -160.5t-173 -63.5h-196v-254h-78zM169 319h189q82 0 124.5 45.5t42.5 113.5t-42.5 112.5t-124.5 44.5h-189v-316z" />
    <glyph glyph-name="Q" unicode="Q" horiz-adv-x="728" 
d="M658 294q0 -83 -31 -151t-91 -109l50 -92l-60 -31l-50 93q-54 -18 -112 -18q-141 0 -217.5 87t-76.5 221v112q0 134 76.5 221t217.5 87t217.5 -87t76.5 -221v-112zM396 153l59 32l48 -89q77 64 77 194v120q0 105 -54.5 172t-161.5 67t-161.5 -67t-54.5 -172v-120
q0 -105 54.5 -172t161.5 -67q52 0 80 12z" />
    <glyph glyph-name="R" unicode="R" horiz-adv-x="676" 
d="M91 0v700h289q111 0 173 -63t62 -160q0 -74 -40.5 -130.5t-110.5 -78.5l152 -268h-89l-142 256h-216v-256h-78zM169 318h201q81 0 124 44t43 115t-44 115.5t-123 44.5h-201v-319z" />
    <glyph glyph-name="S" unicode="S" horiz-adv-x="651" 
d="M330 -14q-114 0 -187.5 57t-73.5 151v18h74v-16q0 -67 50.5 -107.5t136.5 -40.5q87 0 136 36.5t49 102.5q0 88 -100 114l-198 52q-139 36 -139 165q0 92 66 144t176 52q108 0 176.5 -55.5t68.5 -144.5v-17h-73v15q0 63 -46 101.5t-126 38.5q-75 0 -121 -33.5t-46 -94.5
q0 -84 87 -107l203 -54q67 -18 107 -61.5t40 -108.5q0 -94 -73 -150.5t-187 -56.5z" />
    <glyph glyph-name="T" unicode="T" horiz-adv-x="562" 
d="M242 0v635h-214v65h506v-65h-214v-635h-78z" />
    <glyph glyph-name="U" unicode="U" horiz-adv-x="708" 
d="M354 -14q-123 0 -196 70t-73 180v464h78v-471q0 -82 51.5 -130t139.5 -48t139.5 48t51.5 130v471h78v-464q0 -110 -73 -180t-196 -70z" />
    <glyph glyph-name="V" unicode="V" horiz-adv-x="624" 
d="M269 0l-243 700h76l210 -625l210 625h76l-243 -700h-86z" />
    <glyph glyph-name="W" unicode="W" horiz-adv-x="922" 
d="M887 700l-166 -700h-75l-185 615l-185 -615h-75l-166 700h75l132 -596l180 596h78l180 -596l132 596h75z" />
    <glyph glyph-name="X" unicode="X" horiz-adv-x="628" 
d="M354 356l242 -356h-82l-200 296l-200 -296h-82l242 356l-233 344h80l193 -284l193 284h80z" />
    <glyph glyph-name="Y" unicode="Y" horiz-adv-x="604" 
d="M263 0v265l-249 435h82l206 -364l206 364h82l-249 -435v-265h-78z" />
    <glyph glyph-name="Z" unicode="Z" horiz-adv-x="623" 
d="M66 0v65l399 570h-381v65h464v-65l-399 -570h410v-65h-493z" />
    <glyph glyph-name="bracketleft" unicode="[" horiz-adv-x="363" 
d="M86 -134v916h237v-62h-161v-792h161v-62h-237z" />
    <glyph glyph-name="backslash" unicode="\" horiz-adv-x="423" 
d="M106 750l282 -855h-71l-282 855h71z" />
    <glyph glyph-name="bracketright" unicode="]" horiz-adv-x="363" 
d="M276 782v-916h-237v62h161v792h-161v62h237z" />
    <glyph glyph-name="asciicircum" unicode="^" horiz-adv-x="498" 
d="M282 700l161 -278h-75l-119 214l-119 -214h-75l161 278h66z" />
    <glyph glyph-name="underscore" unicode="_" horiz-adv-x="497" 
d="M-1 -118v36h499v-36h-499z" />
    <glyph glyph-name="grave" unicode="`" horiz-adv-x="355" 
d="M189 582l-98 142h93l80 -142h-75z" />
    <glyph glyph-name="a" unicode="a" horiz-adv-x="576" 
d="M501 0h-73v64q-18 -30 -67 -53t-109 -23q-89 0 -141.5 45t-52.5 116q0 74 55.5 117t147.5 43q102 0 164 -64v95q0 54 -34 89t-94 35q-94 0 -128 -77h-70q20 64 72 100.5t127 36.5q93 0 148 -53t55 -131v-340zM268 37q62 0 109.5 32.5t47.5 80.5q0 46 -46.5 77.5
t-106.5 31.5q-65 0 -103.5 -29.5t-38.5 -81.5t38.5 -81.5t99.5 -29.5z" />
    <glyph glyph-name="b" unicode="b" horiz-adv-x="596" 
d="M81 730h76v-294q24 40 68.5 64t102.5 24q96 0 154 -64t58 -165v-78q0 -99 -57.5 -164t-156.5 -65q-61 0 -108 27t-65 65v-80h-72v730zM464 220v72q0 73 -40 121.5t-110 48.5q-66 0 -111.5 -46.5t-45.5 -123.5v-66q0 -77 41.5 -126.5t114.5 -49.5q76 0 113.5 47.5
t37.5 122.5z" />
    <glyph glyph-name="c" unicode="c" horiz-adv-x="560" 
d="M283 -12q-104 0 -165.5 63t-61.5 162v86q0 99 61.5 162t165.5 63q95 0 154.5 -54.5t64.5 -137.5h-68q-8 57 -45 94.5t-105 37.5q-76 0 -115 -44.5t-39 -119.5v-88q0 -75 39 -119.5t115 -44.5q68 0 105 37.5t45 94.5h68q-5 -83 -64.5 -137.5t-154.5 -54.5z" />
    <glyph glyph-name="d" unicode="d" horiz-adv-x="596" 
d="M439 730h76v-730h-72v80q-18 -38 -65 -65t-108 -27q-99 0 -156.5 65t-57.5 164v78q0 101 58 165t154 64q58 0 102.5 -24t68.5 -64v294zM132 292v-72q0 -75 37.5 -122.5t113.5 -47.5q73 0 114.5 49.5t41.5 126.5v66q0 77 -45.5 123.5t-111.5 46.5q-70 0 -110 -48.5
t-40 -121.5z" />
    <glyph glyph-name="e" unicode="e" horiz-adv-x="554" 
d="M282 -12q-101 0 -163.5 60.5t-62.5 162.5v82q0 106 58.5 168.5t164.5 62.5q105 0 161 -62t56 -161v-76h-367v-18q0 -71 38.5 -116t114.5 -45q56 0 92 27t49 72h68q-13 -69 -71 -113t-138 -44zM129 299v-16h296v24q0 72 -37 115.5t-109 43.5q-78 0 -114 -45.5t-36 -121.5z
" />
    <glyph glyph-name="f" unicode="f" horiz-adv-x="352" 
d="M117 0v450h-75v62h75v68q0 75 35.5 112.5t112.5 37.5h72v-62h-66q-41 0 -59.5 -19.5t-18.5 -62.5v-74h126v-62h-126v-450h-76z" />
    <glyph glyph-name="g" unicode="g" horiz-adv-x="594" 
d="M287 -186q-79 0 -140.5 35t-81.5 96h75q41 -71 147 -71q67 0 108.5 35t41.5 93v116q-13 -38 -62 -67.5t-110 -29.5q-96 0 -152.5 60t-56.5 149v85q0 90 56 149.5t154 59.5q66 0 111 -29t63 -68v85h73v-512q0 -80 -64.5 -133t-161.5 -53zM280 83q67 0 112 42t45 113v66
q0 66 -44.5 112t-109.5 46q-75 0 -113.5 -39.5t-38.5 -113.5v-73q0 -73 38 -113t111 -40z" />
    <glyph glyph-name="h" unicode="h" horiz-adv-x="588" 
d="M81 0v730h76v-297q50 91 167 91q86 0 137 -54.5t51 -146.5v-323h-76v312q0 68 -32 107t-99 39q-66 0 -107 -40t-41 -117v-301h-76z" />
    <glyph glyph-name="i" unicode="i" horiz-adv-x="248" 
d="M86 0v512h76v-512h-76zM76 647q0 20 13 33t35 13t35 -13t13 -33t-13 -33t-35 -13t-35 13t-13 33z" />
    <glyph glyph-name="j" unicode="j" horiz-adv-x="248" 
d="M162 512v-568q0 -57 -31.5 -87.5t-90.5 -30.5h-49v61h27q36 0 52 14t16 48v563h76zM76 647q0 20 13 33t35 13t35 -13t13 -33t-13 -33t-35 -13t-35 13t-13 33z" />
    <glyph glyph-name="k" unicode="k" horiz-adv-x="513" 
d="M81 0v730h76v-459l221 241h95l-234 -247l244 -265h-95l-231 258v-258h-76z" />
    <glyph glyph-name="l" unicode="l" horiz-adv-x="248" 
d="M86 0v730h76v-730h-76z" />
    <glyph glyph-name="m" unicode="m" horiz-adv-x="931" 
d="M81 0v512h72v-87q41 99 169 99q56 0 98.5 -26.5t64.5 -73.5q58 100 186 100q84 0 134 -55t50 -146v-323h-76v312q0 67 -32.5 106.5t-94.5 39.5q-66 0 -106 -40t-40 -117v-301h-76v312q0 67 -32.5 106.5t-94.5 39.5q-66 0 -106 -40t-40 -117v-301h-76z" />
    <glyph glyph-name="n" unicode="n" horiz-adv-x="588" 
d="M81 0v512h72v-87q19 45 63 72t108 27q86 0 137 -54.5t51 -146.5v-323h-76v312q0 68 -32 107t-99 39q-66 0 -107 -40t-41 -117v-301h-76z" />
    <glyph glyph-name="o" unicode="o" 
d="M285 -12q-106 0 -167.5 64t-61.5 162v84q0 98 61.5 162t167.5 64t167 -64t61 -162v-84q0 -98 -61 -162t-167 -64zM440 297q0 75 -40.5 120.5t-114.5 45.5t-114.5 -45.5t-40.5 -120.5v-82q0 -75 40.5 -120.5t114.5 -45.5t114.5 45.5t40.5 120.5v82z" />
    <glyph glyph-name="p" unicode="p" horiz-adv-x="596" 
d="M157 -174h-76v686h72v-80q18 38 65 65t108 27q100 0 157 -64t57 -165v-78q0 -101 -58 -165t-154 -64q-58 0 -102.5 24t-68.5 64v-250zM464 220v72q0 75 -37.5 122.5t-113.5 47.5q-73 0 -114.5 -49.5t-41.5 -126.5v-66q0 -77 45.5 -123.5t111.5 -46.5q70 0 110 48.5
t40 121.5z" />
    <glyph glyph-name="q" unicode="q" horiz-adv-x="596" 
d="M515 -174h-76v250q-24 -40 -68.5 -64t-102.5 -24q-96 0 -154 64t-58 165v78q0 100 58 164.5t156 64.5q61 0 108 -27t65 -65v80h72v-686zM132 292v-72q0 -73 40 -121.5t110 -48.5q66 0 111.5 46.5t45.5 123.5v66q0 77 -41.5 126.5t-114.5 49.5q-76 0 -113.5 -47.5
t-37.5 -122.5z" />
    <glyph glyph-name="r" unicode="r" horiz-adv-x="353" 
d="M81 0v512h71v-118q29 121 167 121h12v-71h-15q-74 0 -116.5 -49t-42.5 -144v-251h-76z" />
    <glyph glyph-name="s" unicode="s" horiz-adv-x="526" 
d="M269 -12q-94 0 -153 44t-59 117v5h69v-3q0 -48 40 -77t104 -29q62 0 99 24.5t37 72.5q0 57 -64 71l-152 35q-57 13 -88.5 46.5t-31.5 83.5q0 70 53.5 108t140.5 38q81 0 135.5 -45t54.5 -115v-5h-69v3q0 48 -32.5 76.5t-89.5 28.5q-55 0 -89 -22.5t-34 -64.5
q0 -53 54 -66l157 -37q126 -30 126 -132q0 -68 -59 -112.5t-149 -44.5z" />
    <glyph glyph-name="t" unicode="t" horiz-adv-x="373" 
d="M326 0h-64q-139 0 -139 136v314h-87v62h87v147h76v-147h131v-62h-131v-314q0 -40 17 -57t59 -17h51v-62z" />
    <glyph glyph-name="u" unicode="u" horiz-adv-x="583" 
d="M502 512v-512h-72v87q-19 -45 -63 -72t-108 -27q-84 0 -133.5 54.5t-49.5 146.5v323h76v-312q0 -68 31 -108t95 -40q66 0 107 41t41 118v301h76z" />
    <glyph glyph-name="v" unicode="v" horiz-adv-x="508" 
d="M482 512l-188 -512h-80l-188 512h75l153 -436l153 436h75z" />
    <glyph glyph-name="w" unicode="w" horiz-adv-x="760" 
d="M728 512l-140 -512h-72l-136 432l-136 -432h-72l-140 512h72l108 -421l132 421h72l132 -421l108 421h72z" />
    <glyph glyph-name="x" unicode="x" horiz-adv-x="508" 
d="M293 260l180 -260h-80l-139 204l-139 -204h-80l180 260l-173 252h79l133 -195l133 195h79z" />
    <glyph glyph-name="y" unicode="y" horiz-adv-x="508" 
d="M226 -174h-74l65 174l-191 512h75l156 -435l150 435h75l-189 -512z" />
    <glyph glyph-name="z" unicode="z" horiz-adv-x="499" 
d="M57 0v57l302 395h-290v60h374v-57l-302 -395h306v-60h-390z" />
    <glyph glyph-name="braceleft" unicode="{" horiz-adv-x="425" 
d="M32 355h28q48 0 73 26.5t25 74.5v176q0 71 40 110.5t117 39.5h68v-62h-56q-50 0 -71.5 -23t-21.5 -68v-179q0 -110 -97 -126q97 -16 97 -126v-179q0 -45 21.5 -68t71.5 -23h56v-62h-68q-77 0 -117 39.5t-40 110.5v176q0 48 -25 74.5t-73 26.5h-28v62z" />
    <glyph glyph-name="bar" unicode="|" horiz-adv-x="304" 
d="M120 -150v950h64v-950h-64z" />
    <glyph glyph-name="braceright" unicode="}" horiz-adv-x="425" 
d="M365 355h28v-62h-28q-48 0 -73 -26.5t-25 -74.5v-176q0 -71 -40 -110.5t-117 -39.5h-68v62h56q50 0 71.5 23t21.5 68v179q0 110 97 126q-97 16 -97 126v179q0 45 -21.5 68t-71.5 23h-56v62h68q77 0 117 -39.5t40 -110.5v-176q0 -48 25 -74.5t73 -26.5z" />
    <glyph glyph-name="asciitilde" unicode="~" horiz-adv-x="596" 
d="M65 293q5 150 124 150q43 0 124.5 -49t102.5 -49q16 0 26.5 7t16 23.5t7 25.5t4.5 32l66 -9q-2 -62 -31 -103t-86 -41q-37 0 -118 49t-107 49q-33 0 -45.5 -22t-17.5 -68z" />
    <glyph glyph-name="uni00A0" unicode="&#xa0;" horiz-adv-x="220" 
 />
    <glyph glyph-name="exclamdown" unicode="&#xa1;" horiz-adv-x="262" 
d="M151 516l20 -251v-265h-80v265l20 251h40zM182 657q0 -22 -14 -35.5t-37 -13.5t-37 13.5t-14 35.5t14.5 35.5t36.5 13.5t36.5 -13.5t14.5 -35.5z" />
    <glyph glyph-name="cent" unicode="&#xa2;" horiz-adv-x="571" 
d="M251 0v102q-82 11 -131 67t-49 144v74q0 87 49.5 143t131.5 67v103h75v-103q76 -11 120.5 -56t52.5 -110h-70q-8 47 -44 77t-96 30q-69 0 -107 -40t-38 -112v-72q0 -72 38 -112t107 -40q60 0 96 30t44 77h70q-8 -64 -54.5 -110.5t-119.5 -56.5v-102h-75z" />
    <glyph glyph-name="sterling" unicode="&#xa3;" horiz-adv-x="661" 
d="M73 0v62h121v242h-107v62h107v143q0 100 53.5 152.5t150.5 52.5q95 0 148.5 -52t53.5 -137v-16h-71v15q0 58 -34 93t-96 35q-130 0 -130 -142v-144h208v-62h-208v-242h295v-62h-491z" />
    <glyph glyph-name="currency" unicode="&#xa4;" horiz-adv-x="600" 
d="M300 148q-54 0 -96 22l-55 -84h-76l82 125q-36 45 -36 108v60q0 61 36 108l-82 125h76l55 -85q41 23 96 23t95 -23l56 85h76l-83 -125q37 -46 37 -108v-60q0 -63 -37 -108l83 -125h-76l-56 84q-41 -22 -95 -22zM300 203q56 0 86 31.5t30 81.5v66q0 50 -30 81.5t-86 31.5
t-86 -31.5t-30 -81.5v-66q0 -50 30 -81.5t86 -31.5z" />
    <glyph glyph-name="yen" unicode="&#xa5;" horiz-adv-x="594" 
d="M80 171v58h180v49l-33 70h-147v58h119l-139 294h81l156 -348l156 348h81l-140 -294h120v-58h-147l-33 -70v-49h180v-58h-180v-171h-74v171h-180z" />
    <glyph glyph-name="brokenbar" unicode="&#xa6;" horiz-adv-x="304" 
d="M120 -150v383h64v-383h-64zM184 800v-382h-64v382h64z" />
    <glyph glyph-name="section" unicode="&#xa7;" horiz-adv-x="608" 
d="M302 -128q-91 0 -147 45t-56 120v12h68v-10q0 -50 34.5 -81t100.5 -31q58 0 93.5 25.5t35.5 74.5q0 62 -73 89l-169 67q-113 41 -113 140q0 82 79 135q-41 36 -41 98q0 73 53 115.5t141 42.5q94 0 147.5 -44t53.5 -121v-12h-65v12q0 51 -35 80.5t-100 29.5q-60 0 -93 -26
t-33 -74q0 -35 18.5 -55.5t54.5 -35.5l179 -75q52 -22 77 -54t25 -84q0 -36 -20 -73t-49 -62q32 -35 32 -90q0 -68 -56 -113t-142 -45zM370 176q45 -19 55 -24q45 50 45 99q0 61 -64 88l-162 69q-40 18 -45 20q-56 -43 -56 -100q0 -33 17 -54t57 -36z" />
    <glyph glyph-name="dieresis" unicode="&#xa8;" horiz-adv-x="461" 
d="M82 651q0 20 13 33t35 13t35 -13t13 -33t-13 -33t-35 -13t-35 13t-13 33zM282 651q0 20 13 33t35 13t35 -13t13 -33t-13 -33t-35 -13t-35 13t-13 33z" />
    <glyph glyph-name="copyright" unicode="&#xa9;" horiz-adv-x="862" 
d="M431 -12q-160 0 -260.5 105.5t-100.5 256.5t100.5 256.5t260.5 105.5t260.5 -105.5t100.5 -256.5t-100.5 -256.5t-260.5 -105.5zM431 14q150 0 241 98t91 238t-91 238t-241 98t-241 -98t-91 -238t91 -238t241 -98zM331 321q0 -51 25 -82t75 -31q42 0 65.5 22.5t28.5 58.5
h45q-5 -51 -42.5 -86t-96.5 -35q-70 0 -108 44t-38 109v58q0 65 38 109t108 44q59 0 96.5 -35t42.5 -86h-45q-5 36 -28.5 58.5t-65.5 22.5q-50 0 -75 -31t-25 -82v-58z" />
    <glyph glyph-name="ordfeminine" unicode="&#xaa;" horiz-adv-x="424" 
d="M65 262v45h291v-45h-291zM346 379h-49v40q-10 -18 -42 -33t-67 -15q-55 0 -89.5 29t-34.5 73q0 49 36.5 76.5t94.5 27.5q63 0 99 -38v50q0 35 -20 57t-57 22q-63 0 -80 -49h-46q9 43 43 66.5t84 23.5q56 0 92 -34.5t36 -86.5v-209zM199 407q40 0 68 19t28 48
q0 28 -28.5 48t-66.5 20q-41 0 -63.5 -18t-22.5 -51q0 -31 23.5 -48.5t61.5 -17.5z" />
    <glyph glyph-name="guillemotleft" unicode="&#xab;" horiz-adv-x="614" 
d="M208 60l-172 212l172 212h87l-172 -212l172 -212h-87zM471 60l-172 212l172 212h87l-172 -212l172 -212h-87z" />
    <glyph glyph-name="logicalnot" unicode="&#xac;" horiz-adv-x="586" 
d="M60 330v60h446v-264h-68v204h-378z" />
    <glyph glyph-name="registered" unicode="&#xae;" horiz-adv-x="534" 
d="M50 500q0 88 59.5 150t157.5 62t157.5 -62t59.5 -150t-59.5 -150t-157.5 -62t-157.5 62t-59.5 150zM73 500q0 -82 53.5 -137t140.5 -55t140.5 55t53.5 137t-53.5 137t-140.5 55t-140.5 -55t-53.5 -137zM316 412l-35 65h-50v-65h-31v191h88q30 0 47.5 -18t17.5 -45
q0 -43 -41 -59l40 -69h-36zM231 503h47q44 0 44 37q0 38 -44 38h-47v-75z" />
    <glyph glyph-name="macron" unicode="&#xaf;" horiz-adv-x="485" 
d="M91 617v58h303v-58h-303z" />
    <glyph glyph-name="degree" unicode="&#xb0;" horiz-adv-x="396" 
d="M50 562q0 62 39 105t109 43t109 -43t39 -105t-39 -105t-109 -43t-109 43t-39 105zM198 672q-50 0 -77 -32t-27 -78t27 -78t77 -32t77 32t27 78t-27 78t-77 32z" />
    <glyph glyph-name="plusminus" unicode="&#xb1;" horiz-adv-x="616" 
d="M274 148v193h-189v60h189v193h68v-193h189v-60h-189v-193h-68zM85 0v60h446v-60h-446z" />
    <glyph glyph-name="twosuperior" unicode="&#xb2;" horiz-adv-x="415" 
d="M75 465v43l169 155q39 35 39 71q0 28 -19.5 45.5t-54.5 17.5q-76 0 -76 -70v-7h-53v9q0 54 35.5 85t94.5 31t94.5 -30.5t35.5 -79.5q0 -56 -63 -110l-129 -113h187v-47h-260z" />
    <glyph glyph-name="threesuperior" unicode="&#xb3;" horiz-adv-x="418" 
d="M101 793v44h227v-44l-112 -114h3q53 0 88.5 -27.5t35.5 -76.5q0 -53 -41 -85t-98 -32q-53 0 -91.5 30.5t-42.5 81.5h51q4 -32 27 -50t58 -18q38 0 60 20t22 51t-23 48.5t-64 17.5h-50v41l109 113h-159z" />
    <glyph glyph-name="acute" unicode="&#xb4;" horiz-adv-x="355" 
d="M166 582h-75l81 142h92z" />
    <glyph glyph-name="mu" unicode="&#xb5;" horiz-adv-x="588" 
d="M507 512v-512h-72v87q-46 -99 -171 -99q-64 0 -107 41v-203h-76v686h76v-319q0 -65 32 -103t94 -38q66 0 107 41t41 118v301h76z" />
    <glyph glyph-name="paragraph" unicode="&#xb6;" horiz-adv-x="576" 
d="M425 -174v827h-105v-461q-122 0 -193 67.5t-71 185.5q0 119 69 187t195 68h160v-874h-55z" />
    <glyph glyph-name="periodcentered" unicode="&#xb7;" horiz-adv-x="238" 
d="M68 290q0 22 14 35.5t37 13.5t37 -13.5t14 -35.5t-14.5 -35.5t-36.5 -13.5t-36.5 13.5t-14.5 35.5z" />
    <glyph glyph-name="cedilla" unicode="&#xb8;" horiz-adv-x="349" 
d="M159 -186q-35 0 -66 6v44q27 -6 55 -6q50 0 50 27q0 24 -43 27l-46 3l19 85h48l-8 -46l13 -1q77 -5 77 -65q0 -34 -27 -54t-72 -20z" />
    <glyph glyph-name="onesuperior" unicode="&#xb9;" horiz-adv-x="304" 
d="M147 465v316l-87 -34v50l96 40h48v-372h-57z" />
    <glyph glyph-name="ordmasculine" unicode="&#xba;" horiz-adv-x="440" 
d="M82 262v45h276v-45h-276zM369 517q0 -65 -40.5 -106.5t-108.5 -41.5t-108.5 41.5t-40.5 106.5v44q0 65 40.5 106.5t108.5 41.5t108.5 -41.5t40.5 -106.5v-44zM220 411q48 0 73.5 29.5t25.5 76.5v44q0 47 -25.5 76.5t-73.5 29.5t-73.5 -29.5t-25.5 -76.5v-44
q0 -47 25.5 -76.5t73.5 -29.5z" />
    <glyph glyph-name="guillemotright" unicode="&#xbb;" horiz-adv-x="614" 
d="M578 272l-172 -212h-87l172 212l-172 212h87zM315 272l-172 -212h-87l172 212l-172 212h87z" />
    <glyph glyph-name="onequarter" unicode="&#xbc;" horiz-adv-x="797" 
d="M157 328v316l-87 -34v50l96 40h48v-372h-57zM437 84v44l126 244h54l-122 -242h133v79h53v-79h51v-46h-51v-84h-53v84h-191zM167 0l363 700h58l-363 -700h-58z" />
    <glyph glyph-name="onehalf" unicode="&#xbd;" horiz-adv-x="814" 
d="M484 0v43l169 155q39 35 39 71q0 28 -19.5 45.5t-54.5 17.5q-76 0 -76 -70v-7h-53v9q0 54 35.5 85t94.5 31t94.5 -30.5t35.5 -79.5q0 -32 -16 -56.5t-47 -53.5l-129 -113h187v-47h-260zM167 0l363 700h58l-363 -700h-58zM157 328v316l-87 -34v50l96 40h48v-372h-57z" />
    <glyph glyph-name="threequarters" unicode="&#xbe;" horiz-adv-x="863" 
d="M106 656v44h227v-44l-112 -114h3q53 0 88.5 -27.5t35.5 -76.5q0 -53 -41 -85t-98 -32q-53 0 -91.5 30.5t-42.5 81.5h51q4 -32 27 -50t58 -18q38 0 60 20t22 51t-23 48.5t-64 17.5h-50v41l109 113h-159zM233 0l363 700h58l-363 -700h-58zM503 84v44l126 244h54l-122 -242
h133v79h53v-79h51v-46h-51v-84h-53v84h-191z" />
    <glyph glyph-name="questiondown" unicode="&#xbf;" horiz-adv-x="507" 
d="M312 525v-47q0 -65 -15 -102.5t-53 -67.5l-50 -39q-35 -27 -51 -52t-16 -60q0 -51 36 -80t97 -29q62 0 96.5 31.5t34.5 89.5v19h70v-20q0 -88 -54 -135t-148 -47q-93 0 -150.5 47.5t-57.5 123.5q0 88 79 148l53 41q37 29 49.5 55t12.5 82v42h67zM329 657q0 -22 -14 -35.5
t-37 -13.5t-37 13.5t-14 35.5t14.5 35.5t36.5 13.5t36.5 -13.5t14.5 -35.5z" />
    <glyph glyph-name="Agrave" unicode="&#xc0;" horiz-adv-x="680" 
d="M379 700l263 -700h-77l-64 178h-323l-63 -178h-77l263 700h78zM340 629l-140 -389h279zM293 760l-88 126h92l72 -126h-76z" />
    <glyph glyph-name="Aacute" unicode="&#xc1;" horiz-adv-x="680" 
d="M379 700l263 -700h-77l-64 178h-323l-63 -178h-77l263 700h78zM340 629l-140 -389h279zM390 760h-76l72 126h92z" />
    <glyph glyph-name="Acircumflex" unicode="&#xc2;" horiz-adv-x="680" 
d="M379 700l263 -700h-77l-64 178h-323l-63 -178h-77l263 700h78zM340 629l-140 -389h279zM187 760l116 126h74l116 -126h-74l-79 85l-79 -85h-74z" />
    <glyph glyph-name="Atilde" unicode="&#xc3;" horiz-adv-x="680" 
d="M379 700l263 -700h-77l-64 178h-323l-63 -178h-77l263 700h78zM340 629l-140 -389h279zM205 760l-52 9q17 112 102 112q34 0 98.5 -31t78.5 -31q6 0 11 1.5t8.5 3.5t7 7l5.5 8t5 10.5t4 11l3.5 12.5t3.5 12l51 -15q-12 -49 -34 -77t-63 -28q-27 0 -90 31t-87 31t-35 -17
t-17 -50z" />
    <glyph glyph-name="Adieresis" unicode="&#xc4;" horiz-adv-x="680" 
d="M379 700l263 -700h-77l-64 178h-323l-63 -178h-77l263 700h78zM340 629l-140 -389h279zM181 828q0 20 13 33t35 13t35 -13t13 -33t-13 -33t-35 -13t-35 13t-13 33zM403 828q0 20 13 33t35 13t35 -13t13 -33t-13 -33t-35 -13t-35 13t-13 33z" />
    <glyph glyph-name="Aring" unicode="&#xc5;" horiz-adv-x="680" 
d="M115 0h-77l253 675q-43 22 -43 73q0 36 25 60t67 24t67 -24t25 -60q0 -51 -44 -73l254 -675h-77l-64 178h-323zM340 629l-140 -389h279zM340 700q24 0 37 13t13 35t-13 35t-37 13t-37 -13t-13 -35t13 -35t37 -13z" />
    <glyph glyph-name="AE" unicode="&#xc6;" horiz-adv-x="1041" 
d="M523 0v183h-305l-122 -183h-84l477 700h496v-65h-384v-248h355v-65h-355v-257h385v-65h-463zM260 246h263v394z" />
    <glyph glyph-name="Ccedilla" unicode="&#xc7;" horiz-adv-x="701" 
d="M367 -186q-35 0 -66 6v44q27 -6 55 -6q50 0 50 27q0 24 -43 27l-46 3l16 72q-127 9 -195 92t-68 212v118q0 136 75.5 220.5t215.5 84.5q117 0 192 -71t84 -174h-75q-10 78 -61.5 129t-140.5 51q-104 0 -158 -65t-54 -172v-124q0 -107 54 -172t158 -65q89 0 140.5 51
t61.5 129h75q-9 -99 -78 -168t-178 -76l-5 -33l13 -1q77 -5 77 -65q0 -34 -27 -54t-72 -20z" />
    <glyph glyph-name="Egrave" unicode="&#xc8;" horiz-adv-x="609" 
d="M91 0v700h462v-65h-384v-248h355v-65h-355v-257h385v-65h-463zM290 760l-88 126h92l72 -126h-76z" />
    <glyph glyph-name="Eacute" unicode="&#xc9;" horiz-adv-x="609" 
d="M91 0v700h462v-65h-384v-248h355v-65h-355v-257h385v-65h-463zM353 760h-76l72 126h92z" />
    <glyph glyph-name="Ecircumflex" unicode="&#xca;" horiz-adv-x="609" 
d="M91 0v700h462v-65h-384v-248h355v-65h-355v-257h385v-65h-463zM169 760l116 126h74l116 -126h-74l-79 85l-79 -85h-74z" />
    <glyph glyph-name="Edieresis" unicode="&#xcb;" horiz-adv-x="609" 
d="M91 0v700h462v-65h-384v-248h355v-65h-355v-257h385v-65h-463zM163 828q0 20 13 33t35 13t35 -13t13 -33t-13 -33t-35 -13t-35 13t-13 33zM385 828q0 20 13 33t35 13t35 -13t13 -33t-13 -33t-35 -13t-35 13t-13 33z" />
    <glyph glyph-name="Igrave" unicode="&#xcc;" horiz-adv-x="270" 
d="M96 0v700h78v-700h-78zM96 760l-88 126h92l72 -126h-76z" />
    <glyph glyph-name="Iacute" unicode="&#xcd;" horiz-adv-x="270" 
d="M96 0v700h78v-700h-78zM180 760h-76l72 126h92z" />
    <glyph glyph-name="Icircumflex" unicode="&#xce;" horiz-adv-x="270" 
d="M96 0v700h78v-700h-78zM-18 760l116 126h74l116 -126h-74l-79 85l-79 -85h-74z" />
    <glyph glyph-name="Idieresis" unicode="&#xcf;" horiz-adv-x="270" 
d="M96 0v700h78v-700h-78zM-24 828q0 20 13 33t35 13t35 -13t13 -33t-13 -33t-35 -13t-35 13t-13 33zM198 828q0 20 13 33t35 13t35 -13t13 -33t-13 -33t-35 -13t-35 13t-13 33z" />
    <glyph glyph-name="Eth" unicode="&#xd0;" horiz-adv-x="731" 
d="M39 318v64h84v318h263q130 0 203 -74.5t73 -194.5v-162q0 -120 -73 -194.5t-203 -74.5h-263v318h-84zM375 64q101 0 155.5 55.5t54.5 149.5v162q0 94 -54.5 149.5t-155.5 55.5h-175v-254h184v-64h-184v-254h175z" />
    <glyph glyph-name="Ntilde" unicode="&#xd1;" horiz-adv-x="716" 
d="M226 760l-52 9q17 112 102 112q34 0 98.5 -31t78.5 -31q6 0 11 1.5t8.5 3.5t7 7l5.5 8t5 10.5t4 11l3.5 12.5t3.5 12l51 -15q-12 -49 -34 -77t-63 -28q-27 0 -90 31t-87 31t-35 -17t-17 -50zM91 0v700h73l385 -575v575h76v-700h-73l-385 575v-575h-76z" />
    <glyph glyph-name="Ograve" unicode="&#xd2;" horiz-adv-x="728" 
d="M330 760l-88 126h92l72 -126h-76zM658 294q0 -134 -76.5 -221t-217.5 -87t-217.5 87t-76.5 221v112q0 134 76.5 221t217.5 87t217.5 -87t76.5 -221v-112zM364 51q107 0 161.5 67t54.5 172v120q0 105 -54.5 172t-161.5 67t-161.5 -67t-54.5 -172v-120q0 -105 54.5 -172
t161.5 -67z" />
    <glyph glyph-name="Oacute" unicode="&#xd3;" horiz-adv-x="728" 
d="M658 294q0 -134 -76.5 -221t-217.5 -87t-217.5 87t-76.5 221v112q0 134 76.5 221t217.5 87t217.5 -87t76.5 -221v-112zM364 51q107 0 161.5 67t54.5 172v120q0 105 -54.5 172t-161.5 67t-161.5 -67t-54.5 -172v-120q0 -105 54.5 -172t161.5 -67zM405 760h-76l72 126h92z
" />
    <glyph glyph-name="Ocircumflex" unicode="&#xd4;" horiz-adv-x="728" 
d="M658 294q0 -134 -76.5 -221t-217.5 -87t-217.5 87t-76.5 221v112q0 134 76.5 221t217.5 87t217.5 -87t76.5 -221v-112zM364 51q107 0 161.5 67t54.5 172v120q0 105 -54.5 172t-161.5 67t-161.5 -67t-54.5 -172v-120q0 -105 54.5 -172t161.5 -67zM211 760l116 126h74
l116 -126h-74l-79 85l-79 -85h-74z" />
    <glyph glyph-name="Otilde" unicode="&#xd5;" horiz-adv-x="728" 
d="M658 294q0 -134 -76.5 -221t-217.5 -87t-217.5 87t-76.5 221v112q0 134 76.5 221t217.5 87t217.5 -87t76.5 -221v-112zM364 51q107 0 161.5 67t54.5 172v120q0 105 -54.5 172t-161.5 67t-161.5 -67t-54.5 -172v-120q0 -105 54.5 -172t161.5 -67zM229 760l-52 9
q17 112 102 112q34 0 98.5 -31t78.5 -31q6 0 11 1.5t8.5 3.5t7 7l5.5 8t5 10.5t4 11l3.5 12.5t3.5 12l51 -15q-12 -49 -34 -77t-63 -28q-27 0 -90 31t-87 31t-35 -17t-17 -50z" />
    <glyph glyph-name="Odieresis" unicode="&#xd6;" horiz-adv-x="728" 
d="M658 294q0 -134 -76.5 -221t-217.5 -87t-217.5 87t-76.5 221v112q0 134 76.5 221t217.5 87t217.5 -87t76.5 -221v-112zM364 51q107 0 161.5 67t54.5 172v120q0 105 -54.5 172t-161.5 67t-161.5 -67t-54.5 -172v-120q0 -105 54.5 -172t161.5 -67zM205 828q0 20 13 33
t35 13t35 -13t13 -33t-13 -33t-35 -13t-35 13t-13 33zM427 828q0 20 13 33t35 13t35 -13t13 -33t-13 -33t-35 -13t-35 13t-13 33z" />
    <glyph glyph-name="multiply" unicode="&#xd7;" horiz-adv-x="574" 
d="M80 198l162 161l-162 162l46 45l161 -162l162 162l45 -45l-162 -162l162 -161l-45 -45l-162 161l-161 -161z" />
    <glyph glyph-name="Oslash" unicode="&#xd8;" horiz-adv-x="728" 
d="M658 294q0 -134 -76.5 -221t-217.5 -87q-103 0 -175 50l-56 -86h-63l79 120q-79 85 -79 224v112q0 134 76.5 221t217.5 87q101 0 174 -50l57 86h63l-79 -121q79 -85 79 -223v-112zM364 51q107 0 161.5 67t54.5 172v120q0 94 -43 156l-310 -472q54 -43 137 -43zM148 290
q0 -95 42 -156l310 472q-54 43 -136 43q-107 0 -161.5 -67t-54.5 -172v-120z" />
    <glyph glyph-name="Ugrave" unicode="&#xd9;" horiz-adv-x="708" 
d="M325 760l-88 126h92l72 -126h-76zM354 -14q-123 0 -196 70t-73 180v464h78v-471q0 -82 51.5 -130t139.5 -48t139.5 48t51.5 130v471h78v-464q0 -110 -73 -180t-196 -70z" />
    <glyph glyph-name="Uacute" unicode="&#xda;" horiz-adv-x="708" 
d="M354 -14q-123 0 -196 70t-73 180v464h78v-471q0 -82 51.5 -130t139.5 -48t139.5 48t51.5 130v471h78v-464q0 -110 -73 -180t-196 -70zM387 760h-76l72 126h92z" />
    <glyph glyph-name="Ucircumflex" unicode="&#xdb;" horiz-adv-x="708" 
d="M201 760l116 126h74l116 -126h-74l-79 85l-79 -85h-74zM354 -14q-123 0 -196 70t-73 180v464h78v-471q0 -82 51.5 -130t139.5 -48t139.5 48t51.5 130v471h78v-464q0 -110 -73 -180t-196 -70z" />
    <glyph glyph-name="Udieresis" unicode="&#xdc;" horiz-adv-x="708" 
d="M354 -14q-123 0 -196 70t-73 180v464h78v-471q0 -82 51.5 -130t139.5 -48t139.5 48t51.5 130v471h78v-464q0 -110 -73 -180t-196 -70zM194 828q0 20 13 33t35 13t35 -13t13 -33t-13 -33t-35 -13t-35 13t-13 33zM416 828q0 20 13 33t35 13t35 -13t13 -33t-13 -33t-35 -13
t-35 13t-13 33z" />
    <glyph glyph-name="Yacute" unicode="&#xdd;" horiz-adv-x="604" 
d="M263 0v265l-249 435h82l206 -364l206 364h82l-249 -435v-265h-78zM336 760h-76l72 126h92z" />
    <glyph glyph-name="Thorn" unicode="&#xde;" horiz-adv-x="639" 
d="M91 0v700h78v-115h196q108 0 173 -62.5t65 -159.5t-65 -160.5t-173 -63.5h-196v-139h-78zM169 204h189q82 0 124.5 45.5t42.5 113.5t-42.5 112.5t-124.5 44.5h-189v-316z" />
    <glyph glyph-name="germandbls" unicode="&#xdf;" horiz-adv-x="602" 
d="M81 0v534q0 98 58 149t156 51q97 0 157 -53.5t60 -136.5q0 -58 -30.5 -104t-80.5 -68q69 -14 110 -59.5t41 -118.5q0 -86 -60.5 -140t-158.5 -54h-38v62h34q68 0 108 36t40 100q0 63 -43 99t-113 36h-26v62q67 2 104.5 44t37.5 100q0 59 -38.5 96.5t-103.5 37.5
q-63 0 -100.5 -33.5t-37.5 -102.5v-537h-76z" />
    <glyph glyph-name="agrave" unicode="&#xe0;" horiz-adv-x="576" 
d="M501 0h-73v64q-18 -30 -67 -53t-109 -23q-89 0 -141.5 45t-52.5 116q0 74 55.5 117t147.5 43q102 0 164 -64v95q0 54 -34 89t-94 35q-94 0 -128 -77h-70q20 64 72 100.5t127 36.5q93 0 148 -53t55 -131v-340zM268 37q62 0 109.5 32.5t47.5 80.5q0 46 -46.5 77.5
t-106.5 31.5q-65 0 -103.5 -29.5t-38.5 -81.5t38.5 -81.5t99.5 -29.5zM267 582l-98 142h93l80 -142h-75z" />
    <glyph glyph-name="aacute" unicode="&#xe1;" horiz-adv-x="576" 
d="M501 0h-73v64q-18 -30 -67 -53t-109 -23q-89 0 -141.5 45t-52.5 116q0 74 55.5 117t147.5 43q102 0 164 -64v95q0 54 -34 89t-94 35q-94 0 -128 -77h-70q20 64 72 100.5t127 36.5q93 0 148 -53t55 -131v-340zM268 37q62 0 109.5 32.5t47.5 80.5q0 46 -46.5 77.5
t-106.5 31.5q-65 0 -103.5 -29.5t-38.5 -81.5t38.5 -81.5t99.5 -29.5zM335 582h-75l81 142h92z" />
    <glyph glyph-name="acircumflex" unicode="&#xe2;" horiz-adv-x="576" 
d="M501 0h-73v64q-18 -30 -67 -53t-109 -23q-89 0 -141.5 45t-52.5 116q0 74 55.5 117t147.5 43q102 0 164 -64v95q0 54 -34 89t-94 35q-94 0 -128 -77h-70q20 64 72 100.5t127 36.5q93 0 148 -53t55 -131v-340zM268 37q62 0 109.5 32.5t47.5 80.5q0 46 -46.5 77.5
t-106.5 31.5q-65 0 -103.5 -29.5t-38.5 -81.5t38.5 -81.5t99.5 -29.5zM161 582l110 142h74l110 -142h-71l-76 99l-76 -99h-71z" />
    <glyph glyph-name="atilde" unicode="&#xe3;" horiz-adv-x="576" 
d="M501 0h-73v64q-18 -30 -67 -53t-109 -23q-89 0 -141.5 45t-52.5 116q0 74 55.5 117t147.5 43q102 0 164 -64v95q0 54 -34 89t-94 35q-94 0 -128 -77h-70q20 64 72 100.5t127 36.5q93 0 148 -53t55 -131v-340zM268 37q62 0 109.5 32.5t47.5 80.5q0 46 -46.5 77.5
t-106.5 31.5q-65 0 -103.5 -29.5t-38.5 -81.5t38.5 -81.5t99.5 -29.5zM181 583l-50 10q19 111 99 111q32 0 89 -31t70 -31q5 0 9.5 1t8.5 4l6.5 5t5.5 7t4.5 8t3.5 10t3 10t3 10.5t3 10.5l50 -11q-13 -51 -33.5 -80t-61.5 -29q-25 0 -80.5 31t-78.5 31q-16 0 -27 -11.5
t-14.5 -21.5t-9.5 -34z" />
    <glyph glyph-name="adieresis" unicode="&#xe4;" horiz-adv-x="576" 
d="M501 0h-73v64q-18 -30 -67 -53t-109 -23q-89 0 -141.5 45t-52.5 116q0 74 55.5 117t147.5 43q102 0 164 -64v95q0 54 -34 89t-94 35q-94 0 -128 -77h-70q20 64 72 100.5t127 36.5q93 0 148 -53t55 -131v-340zM268 37q62 0 109.5 32.5t47.5 80.5q0 46 -46.5 77.5
t-106.5 31.5q-65 0 -103.5 -29.5t-38.5 -81.5t38.5 -81.5t99.5 -29.5zM157 651q0 20 13 33t35 13t35 -13t13 -33t-13 -33t-35 -13t-35 13t-13 33zM357 651q0 20 13 33t35 13t35 -13t13 -33t-13 -33t-35 -13t-35 13t-13 33z" />
    <glyph glyph-name="aring" unicode="&#xe5;" horiz-adv-x="576" 
d="M501 0h-73v64q-18 -30 -67 -53t-109 -23q-89 0 -141.5 45t-52.5 116q0 74 55.5 117t147.5 43q102 0 164 -64v95q0 54 -34 89t-94 35q-94 0 -128 -77h-70q20 64 72 100.5t127 36.5q93 0 148 -53t55 -131v-340zM268 37q62 0 109.5 32.5t47.5 80.5q0 46 -46.5 77.5
t-106.5 31.5q-65 0 -103.5 -29.5t-38.5 -81.5t38.5 -81.5t99.5 -29.5zM312 582q-42 0 -67 24t-25 60t25 60t67 24t67 -24t25 -60t-25 -60t-67 -24zM312 618q24 0 37 13t13 35t-13 35t-37 13t-37 -13t-13 -35t13 -35t37 -13z" />
    <glyph glyph-name="ae" unicode="&#xe6;" horiz-adv-x="926" 
d="M654 -12q-60 0 -111.5 28t-78.5 72q-22 -38 -76 -69t-124 -31q-93 0 -149.5 45t-56.5 117t56.5 116t146.5 44q55 0 98.5 -19.5t65.5 -42.5v86q0 57 -34.5 93.5t-94.5 36.5q-98 0 -130 -79h-70q18 69 71 104t130 35q115 0 171 -87q61 87 183 87q105 0 161 -62t56 -161v-76
h-367v-18q0 -71 38.5 -116t114.5 -45q56 0 92 27t49 72h68q-13 -69 -71 -113t-138 -44zM270 38q62 0 108.5 32.5t46.5 79.5q0 45 -45.5 77.5t-106.5 32.5q-65 0 -104 -30t-39 -81q0 -49 37 -80t103 -31zM501 306v-23h296v24q0 72 -37 115.5t-109 43.5q-146 0 -150 -160z" />
    <glyph glyph-name="ccedilla" unicode="&#xe7;" horiz-adv-x="560" 
d="M285 -186q-35 0 -66 6v44q27 -6 55 -6q50 0 50 27q0 24 -43 27l-46 3l16 75q-91 9 -143 70.5t-52 152.5v86q0 99 61.5 162t165.5 63q95 0 154.5 -54.5t64.5 -137.5h-68q-8 57 -45 94.5t-105 37.5q-76 0 -115 -44.5t-39 -119.5v-88q0 -75 39 -119.5t115 -44.5
q68 0 105 37.5t45 94.5h68q-5 -79 -59.5 -132.5t-142.5 -58.5l-6 -35l13 -1q77 -5 77 -65q0 -34 -27 -54t-72 -20z" />
    <glyph glyph-name="egrave" unicode="&#xe8;" horiz-adv-x="554" 
d="M282 -12q-101 0 -163.5 60.5t-62.5 162.5v82q0 106 58.5 168.5t164.5 62.5q105 0 161 -62t56 -161v-76h-367v-18q0 -71 38.5 -116t114.5 -45q56 0 92 27t49 72h68q-13 -69 -71 -113t-138 -44zM129 299v-16h296v24q0 72 -37 115.5t-109 43.5q-78 0 -114 -45.5t-36 -121.5z
M242 582l-98 142h93l80 -142h-75z" />
    <glyph glyph-name="eacute" unicode="&#xe9;" horiz-adv-x="554" 
d="M312 582h-75l81 142h92zM282 -12q-101 0 -163.5 60.5t-62.5 162.5v82q0 106 58.5 168.5t164.5 62.5q105 0 161 -62t56 -161v-76h-367v-18q0 -71 38.5 -116t114.5 -45q56 0 92 27t49 72h68q-13 -69 -71 -113t-138 -44zM129 299v-16h296v24q0 72 -37 115.5t-109 43.5
q-78 0 -114 -45.5t-36 -121.5z" />
    <glyph glyph-name="ecircumflex" unicode="&#xea;" horiz-adv-x="554" 
d="M135 582l110 142h74l110 -142h-71l-76 99l-76 -99h-71zM282 -12q-101 0 -163.5 60.5t-62.5 162.5v82q0 106 58.5 168.5t164.5 62.5q105 0 161 -62t56 -161v-76h-367v-18q0 -71 38.5 -116t114.5 -45q56 0 92 27t49 72h68q-13 -69 -71 -113t-138 -44zM129 299v-16h296v24
q0 72 -37 115.5t-109 43.5q-78 0 -114 -45.5t-36 -121.5z" />
    <glyph glyph-name="edieresis" unicode="&#xeb;" horiz-adv-x="554" 
d="M136 651q0 20 13 33t35 13t35 -13t13 -33t-13 -33t-35 -13t-35 13t-13 33zM336 651q0 20 13 33t35 13t35 -13t13 -33t-13 -33t-35 -13t-35 13t-13 33zM282 -12q-101 0 -163.5 60.5t-62.5 162.5v82q0 106 58.5 168.5t164.5 62.5q105 0 161 -62t56 -161v-76h-367v-18
q0 -71 38.5 -116t114.5 -45q56 0 92 27t49 72h68q-13 -69 -71 -113t-138 -44zM129 299v-16h296v24q0 72 -37 115.5t-109 43.5q-78 0 -114 -45.5t-36 -121.5z" />
    <glyph glyph-name="igrave" unicode="&#xec;" horiz-adv-x="248" 
d="M86 0v512h76v-512h-76zM83 582l-98 142h93l80 -142h-75z" />
    <glyph glyph-name="iacute" unicode="&#xed;" horiz-adv-x="248" 
d="M169 582h-75l81 142h92zM86 0v512h76v-512h-76z" />
    <glyph glyph-name="icircumflex" unicode="&#xee;" horiz-adv-x="248" 
d="M-23 582l110 142h74l110 -142h-71l-76 99l-76 -99h-71zM86 0v512h76v-512h-76z" />
    <glyph glyph-name="idieresis" unicode="&#xef;" horiz-adv-x="248" 
d="M-24 651q0 20 13 33t35 13t35 -13t13 -33t-13 -33t-35 -13t-35 13t-13 33zM176 651q0 20 13 33t35 13t35 -13t13 -33t-13 -33t-35 -13t-35 13t-13 33zM86 0v512h76v-512h-76z" />
    <glyph glyph-name="eth" unicode="&#xf0;" horiz-adv-x="570" 
d="M151 552l-18 52l120 38q-46 37 -125 88h96q52 -27 99 -65l112 36l18 -51l-84 -27q145 -150 145 -327v-78q0 -98 -64 -165t-168 -67q-98 0 -162 63t-64 160v64q0 106 56.5 167.5t154.5 61.5q110 0 159 -76q-50 112 -124 175zM283 47q73 0 115 45t42 117v67
q0 74 -45.5 121.5t-109.5 47.5q-73 0 -114 -45.5t-41 -125.5v-71q0 -70 43.5 -113t109.5 -43z" />
    <glyph glyph-name="ntilde" unicode="&#xf1;" horiz-adv-x="588" 
d="M81 0v512h72v-87q19 45 63 72t108 27q86 0 137 -54.5t51 -146.5v-323h-76v312q0 68 -32 107t-99 39q-66 0 -107 -40t-41 -117v-301h-76zM173 583l-50 10q19 111 99 111q32 0 89 -31t70 -31q5 0 9.5 1t8.5 4l6.5 5t5.5 7t4.5 8t3.5 10t3 10t3 10.5t3 10.5l50 -11
q-13 -51 -33.5 -80t-61.5 -29q-25 0 -80.5 31t-78.5 31q-16 0 -27 -11.5t-14.5 -21.5t-9.5 -34z" />
    <glyph glyph-name="ograve" unicode="&#xf2;" 
d="M285 -12q-106 0 -167.5 64t-61.5 162v84q0 98 61.5 162t167.5 64t167 -64t61 -162v-84q0 -98 -61 -162t-167 -64zM440 297q0 75 -40.5 120.5t-114.5 45.5t-114.5 -45.5t-40.5 -120.5v-82q0 -75 40.5 -120.5t114.5 -45.5t114.5 45.5t40.5 120.5v82zM247 582l-98 142h93
l80 -142h-75z" />
    <glyph glyph-name="oacute" unicode="&#xf3;" 
d="M329 582h-75l81 142h92zM285 -12q-106 0 -167.5 64t-61.5 162v84q0 98 61.5 162t167.5 64t167 -64t61 -162v-84q0 -98 -61 -162t-167 -64zM440 297q0 75 -40.5 120.5t-114.5 45.5t-114.5 -45.5t-40.5 -120.5v-82q0 -75 40.5 -120.5t114.5 -45.5t114.5 45.5t40.5 120.5v82
z" />
    <glyph glyph-name="ocircumflex" unicode="&#xf4;" 
d="M137 582l110 142h74l110 -142h-71l-76 99l-76 -99h-71zM285 -12q-106 0 -167.5 64t-61.5 162v84q0 98 61.5 162t167.5 64t167 -64t61 -162v-84q0 -98 -61 -162t-167 -64zM440 297q0 75 -40.5 120.5t-114.5 45.5t-114.5 -45.5t-40.5 -120.5v-82q0 -75 40.5 -120.5
t114.5 -45.5t114.5 45.5t40.5 120.5v82z" />
    <glyph glyph-name="otilde" unicode="&#xf5;" 
d="M285 -12q-106 0 -167.5 64t-61.5 162v84q0 98 61.5 162t167.5 64t167 -64t61 -162v-84q0 -98 -61 -162t-167 -64zM440 297q0 75 -40.5 120.5t-114.5 45.5t-114.5 -45.5t-40.5 -120.5v-82q0 -75 40.5 -120.5t114.5 -45.5t114.5 45.5t40.5 120.5v82zM166 583l-50 10
q19 111 99 111q32 0 89 -31t70 -31q5 0 9.5 1t8.5 4l6.5 5t5.5 7t4.5 8t3.5 10t3 10t3 10.5t3 10.5l50 -11q-13 -51 -33.5 -80t-61.5 -29q-25 0 -80.5 31t-78.5 31q-16 0 -27 -11.5t-14.5 -21.5t-9.5 -34z" />
    <glyph glyph-name="odieresis" unicode="&#xf6;" 
d="M136 651q0 20 13 33t35 13t35 -13t13 -33t-13 -33t-35 -13t-35 13t-13 33zM336 651q0 20 13 33t35 13t35 -13t13 -33t-13 -33t-35 -13t-35 13t-13 33zM285 -12q-106 0 -167.5 64t-61.5 162v84q0 98 61.5 162t167.5 64t167 -64t61 -162v-84q0 -98 -61 -162t-167 -64z
M440 297q0 75 -40.5 120.5t-114.5 45.5t-114.5 -45.5t-40.5 -120.5v-82q0 -75 40.5 -120.5t114.5 -45.5t114.5 45.5t40.5 120.5v82z" />
    <glyph glyph-name="divide" unicode="&#xf7;" horiz-adv-x="594" 
d="M80 328v64h434v-64h-434zM247 553q0 21 14 34.5t36 13.5t36 -13.5t14 -34.5t-14.5 -34.5t-35.5 -13.5t-35.5 13.5t-14.5 34.5zM247 167q0 21 14 34.5t36 13.5t36 -13.5t14 -34.5t-14.5 -34.5t-35.5 -13.5t-35.5 13.5t-14.5 34.5z" />
    <glyph glyph-name="oslash" unicode="&#xf8;" 
d="M285 -12q-71 0 -126 31l-45 -69h-58l64 99q-64 62 -64 165v84q0 98 61.5 162t167.5 64q71 0 124 -31l46 70h58l-65 -100q65 -63 65 -165v-84q0 -98 -61 -162t-167 -64zM440 297q0 65 -30 107l-216 -330q38 -25 91 -25q74 0 114.5 45.5t40.5 120.5v82zM130 215
q0 -66 29 -107l215 331q-38 24 -89 24q-74 0 -114.5 -45.5t-40.5 -120.5v-82z" />
    <glyph glyph-name="ugrave" unicode="&#xf9;" horiz-adv-x="584" 
d="M503 512v-512h-72v87q-19 -45 -63 -72t-108 -27q-84 0 -133.5 54.5t-49.5 146.5v323h76v-312q0 -68 31 -108t95 -40q66 0 107 41t41 118v301h76zM276 582l-98 142h93l80 -142h-75z" />
    <glyph glyph-name="uacute" unicode="&#xfa;" horiz-adv-x="584" 
d="M319 582h-75l81 142h92zM503 512v-512h-72v87q-19 -45 -63 -72t-108 -27q-84 0 -133.5 54.5t-49.5 146.5v323h76v-312q0 -68 31 -108t95 -40q66 0 107 41t41 118v301h76z" />
    <glyph glyph-name="ucircumflex" unicode="&#xfb;" horiz-adv-x="584" 
d="M154 582l110 142h74l110 -142h-71l-76 99l-76 -99h-71zM503 512v-512h-72v87q-19 -45 -63 -72t-108 -27q-84 0 -133.5 54.5t-49.5 146.5v323h76v-312q0 -68 31 -108t95 -40q66 0 107 41t41 118v301h76z" />
    <glyph glyph-name="udieresis" unicode="&#xfc;" horiz-adv-x="584" 
d="M152 651q0 20 13 33t35 13t35 -13t13 -33t-13 -33t-35 -13t-35 13t-13 33zM352 651q0 20 13 33t35 13t35 -13t13 -33t-13 -33t-35 -13t-35 13t-13 33zM503 512v-512h-72v87q-19 -45 -63 -72t-108 -27q-84 0 -133.5 54.5t-49.5 146.5v323h76v-312q0 -68 31 -108t95 -40
q66 0 107 41t41 118v301h76z" />
    <glyph glyph-name="yacute" unicode="&#xfd;" horiz-adv-x="508" 
d="M226 -174h-74l65 174l-191 512h75l156 -435l150 435h75l-189 -512zM285 582h-75l81 142h92z" />
    <glyph glyph-name="thorn" unicode="&#xfe;" horiz-adv-x="596" 
d="M157 -174h-76v904h76v-290q20 35 66 59.5t103 24.5q100 0 157 -64t57 -165v-78q0 -101 -58 -165t-154 -64q-58 0 -102.5 24t-68.5 64v-250zM464 220v72q0 75 -37.5 122.5t-113.5 47.5q-73 0 -114.5 -49.5t-41.5 -126.5v-66q0 -77 45.5 -123.5t111.5 -46.5q70 0 110 48.5
t40 121.5z" />
    <glyph glyph-name="ydieresis" unicode="&#xff;" horiz-adv-x="508" 
d="M226 -174h-74l65 174l-191 512h75l156 -435l150 435h75l-189 -512zM109 651q0 20 13 33t35 13t35 -13t13 -33t-13 -33t-35 -13t-35 13t-13 33zM309 651q0 20 13 33t35 13t35 -13t13 -33t-13 -33t-35 -13t-35 13t-13 33z" />
    <glyph glyph-name="Amacron" unicode="&#x100;" horiz-adv-x="680" 
d="M379 700l263 -700h-77l-64 178h-323l-63 -178h-77l263 700h78zM340 629l-140 -389h279zM179 796v59h322v-59h-322z" />
    <glyph glyph-name="amacron" unicode="&#x101;" horiz-adv-x="576" 
d="M501 0h-73v64q-18 -30 -67 -53t-109 -23q-89 0 -141.5 45t-52.5 116q0 74 55.5 117t147.5 43q102 0 164 -64v95q0 54 -34 89t-94 35q-94 0 -128 -77h-70q20 64 72 100.5t127 36.5q93 0 148 -53t55 -131v-340zM268 37q62 0 109.5 32.5t47.5 80.5q0 46 -46.5 77.5
t-106.5 31.5q-65 0 -103.5 -29.5t-38.5 -81.5t38.5 -81.5t99.5 -29.5zM152 617v58h303v-58h-303z" />
    <glyph glyph-name="Abreve" unicode="&#x102;" horiz-adv-x="680" 
d="M379 700l263 -700h-77l-64 178h-323l-63 -178h-77l263 700h78zM340 629l-140 -389h279zM340 760q-74 0 -117.5 34.5t-43.5 91.5h59q0 -35 26.5 -56.5t75.5 -21.5t75.5 21.5t26.5 56.5h59q0 -57 -43.5 -91.5t-117.5 -34.5z" />
    <glyph glyph-name="abreve" unicode="&#x103;" horiz-adv-x="576" 
d="M501 0h-73v64q-18 -30 -67 -53t-109 -23q-89 0 -141.5 45t-52.5 116q0 74 55.5 117t147.5 43q102 0 164 -64v95q0 54 -34 89t-94 35q-94 0 -128 -77h-70q20 64 72 100.5t127 36.5q93 0 148 -53t55 -131v-340zM268 37q62 0 109.5 32.5t47.5 80.5q0 46 -46.5 77.5
t-106.5 31.5q-65 0 -103.5 -29.5t-38.5 -81.5t38.5 -81.5t99.5 -29.5zM309 582q-72 0 -114 39t-42 103h56q0 -44 25 -69.5t75 -25.5t75 25.5t25 69.5h56q0 -64 -42 -103t-114 -39z" />
    <glyph glyph-name="Aogonek" unicode="&#x104;" horiz-adv-x="680" 
d="M580 -186q-40 0 -65 21.5t-25 59.5q0 67 75 105l-64 178h-323l-63 -178h-77l263 700h78l263 -700q-27 -17 -41.5 -27t-29.5 -30t-15 -40q0 -36 50 -36q19 0 32 3v-49q-30 -7 -58 -7zM340 629l-140 -389h279z" />
    <glyph glyph-name="aogonek" unicode="&#x105;" horiz-adv-x="576" 
d="M428 64q-18 -30 -67 -53t-109 -23q-89 0 -141.5 45t-52.5 116q0 74 55.5 117t147.5 43q102 0 164 -64v95q0 54 -34 89t-94 35q-94 0 -128 -77h-70q20 64 72 100.5t127 36.5q93 0 148 -53t55 -131v-340q-83 -49 -83 -97q0 -36 50 -36q18 0 32 3v-49q-30 -7 -58 -7
q-42 0 -66 21t-24 58q0 65 76 107v64zM268 37q62 0 109.5 32.5t47.5 80.5q0 46 -46.5 77.5t-106.5 31.5q-65 0 -103.5 -29.5t-38.5 -81.5t38.5 -81.5t99.5 -29.5z" />
    <glyph glyph-name="Cacute" unicode="&#x106;" horiz-adv-x="701" 
d="M361 -14q-140 0 -215.5 84.5t-75.5 220.5v118q0 136 75.5 220.5t215.5 84.5q117 0 192 -71t84 -174h-75q-10 78 -61.5 129t-140.5 51q-104 0 -158 -65t-54 -172v-124q0 -107 54 -172t158 -65q89 0 140.5 51t61.5 129h75q-9 -103 -84 -174t-192 -71zM397 760h-76l72 126
h92z" />
    <glyph glyph-name="cacute" unicode="&#x107;" horiz-adv-x="560" 
d="M318 582h-75l81 142h92zM283 -12q-104 0 -165.5 63t-61.5 162v86q0 99 61.5 162t165.5 63q95 0 154.5 -54.5t64.5 -137.5h-68q-8 57 -45 94.5t-105 37.5q-76 0 -115 -44.5t-39 -119.5v-88q0 -75 39 -119.5t115 -44.5q68 0 105 37.5t45 94.5h68q-5 -83 -64.5 -137.5
t-154.5 -54.5z" />
    <glyph glyph-name="Ccircumflex" unicode="&#x108;" horiz-adv-x="701" 
d="M361 -14q-140 0 -215.5 84.5t-75.5 220.5v118q0 136 75.5 220.5t215.5 84.5q117 0 192 -71t84 -174h-75q-10 78 -61.5 129t-140.5 51q-104 0 -158 -65t-54 -172v-124q0 -107 54 -172t158 -65q89 0 140.5 51t61.5 129h75q-9 -103 -84 -174t-192 -71zM211 760l116 126h74
l116 -126h-74l-79 85l-79 -85h-74z" />
    <glyph glyph-name="ccircumflex" unicode="&#x109;" horiz-adv-x="560" 
d="M139 582l110 142h74l110 -142h-71l-76 99l-76 -99h-71zM283 -12q-104 0 -165.5 63t-61.5 162v86q0 99 61.5 162t165.5 63q95 0 154.5 -54.5t64.5 -137.5h-68q-8 57 -45 94.5t-105 37.5q-76 0 -115 -44.5t-39 -119.5v-88q0 -75 39 -119.5t115 -44.5q68 0 105 37.5t45 94.5
h68q-5 -83 -64.5 -137.5t-154.5 -54.5z" />
    <glyph glyph-name="Cdotaccent" unicode="&#x10a;" horiz-adv-x="701" 
d="M315 822q0 20 13 33t35 13t35 -13t13 -33t-13 -33t-35 -13t-35 13t-13 33zM361 -14q-140 0 -215.5 84.5t-75.5 220.5v118q0 136 75.5 220.5t215.5 84.5q117 0 192 -71t84 -174h-75q-10 78 -61.5 129t-140.5 51q-104 0 -158 -65t-54 -172v-124q0 -107 54 -172t158 -65
q89 0 140.5 51t61.5 129h75q-9 -103 -84 -174t-192 -71z" />
    <glyph glyph-name="cdotaccent" unicode="&#x10b;" horiz-adv-x="560" 
d="M283 -12q-104 0 -165.5 63t-61.5 162v86q0 99 61.5 162t165.5 63q95 0 154.5 -54.5t64.5 -137.5h-68q-8 57 -45 94.5t-105 37.5q-76 0 -115 -44.5t-39 -119.5v-88q0 -75 39 -119.5t115 -44.5q68 0 105 37.5t45 94.5h68q-5 -83 -64.5 -137.5t-154.5 -54.5zM240 647
q0 20 13 33t35 13t35 -13t13 -33t-13 -33t-35 -13t-35 13t-13 33z" />
    <glyph glyph-name="Ccaron" unicode="&#x10c;" horiz-adv-x="701" 
d="M361 -14q-140 0 -215.5 84.5t-75.5 220.5v118q0 136 75.5 220.5t215.5 84.5q117 0 192 -71t84 -174h-75q-10 78 -61.5 129t-140.5 51q-104 0 -158 -65t-54 -172v-124q0 -107 54 -172t158 -65q89 0 140.5 51t61.5 129h75q-9 -103 -84 -174t-192 -71zM325 760l-116 126h74
l79 -85l79 85h74l-116 -126h-74z" />
    <glyph glyph-name="ccaron" unicode="&#x10d;" horiz-adv-x="560" 
d="M250 582l-110 142h71l76 -99l76 99h71l-110 -142h-74zM283 -12q-104 0 -165.5 63t-61.5 162v86q0 99 61.5 162t165.5 63q95 0 154.5 -54.5t64.5 -137.5h-68q-8 57 -45 94.5t-105 37.5q-76 0 -115 -44.5t-39 -119.5v-88q0 -75 39 -119.5t115 -44.5q68 0 105 37.5t45 94.5
h68q-5 -83 -64.5 -137.5t-154.5 -54.5z" />
    <glyph glyph-name="Dcaron" unicode="&#x10e;" horiz-adv-x="699" 
d="M91 700h263q130 0 203 -74.5t73 -194.5v-162q0 -120 -73 -194.5t-203 -74.5h-263v700zM343 64q101 0 155.5 55.5t54.5 149.5v162q0 94 -54.5 149.5t-155.5 55.5h-175v-572h175zM300 760l-116 126h74l79 -85l79 85h74l-116 -126h-74z" />
    <glyph glyph-name="dcaron" unicode="&#x10f;" horiz-adv-x="743" 
d="M620 534l40 196h82l-60 -196h-62zM439 730h76v-730h-72v80q-18 -38 -65 -65t-108 -27q-99 0 -156.5 65t-57.5 164v78q0 101 58 165t154 64q58 0 102.5 -24t68.5 -64v294zM132 292v-72q0 -75 37.5 -122.5t113.5 -47.5q73 0 114.5 49.5t41.5 126.5v66q0 77 -45.5 123.5
t-111.5 46.5q-70 0 -110 -48.5t-40 -121.5z" />
    <glyph glyph-name="Dcroat" unicode="&#x110;" horiz-adv-x="731" 
d="M39 318v64h84v318h263q130 0 203 -74.5t73 -194.5v-162q0 -120 -73 -194.5t-203 -74.5h-263v318h-84zM375 64q101 0 155.5 55.5t54.5 149.5v162q0 94 -54.5 149.5t-155.5 55.5h-175v-254h184v-64h-184v-254h175z" />
    <glyph glyph-name="dcroat" unicode="&#x111;" horiz-adv-x="618" 
d="M307 586v56h132v88h76v-88h77v-56h-77v-586h-72v80q-18 -38 -65 -65t-108 -27q-99 0 -156.5 65t-57.5 164v78q0 101 58 165t154 64q58 0 102.5 -24t68.5 -64v150h-132zM132 292v-72q0 -75 37.5 -122.5t113.5 -47.5q73 0 114.5 49.5t41.5 126.5v66q0 77 -45.5 123.5
t-111.5 46.5q-70 0 -110 -48.5t-40 -121.5z" />
    <glyph glyph-name="Emacron" unicode="&#x112;" horiz-adv-x="609" 
d="M91 0v700h462v-65h-384v-248h355v-65h-355v-257h385v-65h-463zM163 796v59h322v-59h-322z" />
    <glyph glyph-name="emacron" unicode="&#x113;" horiz-adv-x="554" 
d="M282 -12q-101 0 -163.5 60.5t-62.5 162.5v82q0 106 58.5 168.5t164.5 62.5q105 0 161 -62t56 -161v-76h-367v-18q0 -71 38.5 -116t114.5 -45q56 0 92 27t49 72h68q-13 -69 -71 -113t-138 -44zM129 299v-16h296v24q0 72 -37 115.5t-109 43.5q-78 0 -114 -45.5t-36 -121.5z
M132 617v58h303v-58h-303z" />
    <glyph glyph-name="Ebreve" unicode="&#x114;" horiz-adv-x="609" 
d="M91 0v700h462v-65h-384v-248h355v-65h-355v-257h385v-65h-463zM330 760q-74 0 -117.5 34.5t-43.5 91.5h59q0 -35 26.5 -56.5t75.5 -21.5t75.5 21.5t26.5 56.5h59q0 -57 -43.5 -91.5t-117.5 -34.5z" />
    <glyph glyph-name="ebreve" unicode="&#x115;" horiz-adv-x="554" 
d="M282 -12q-101 0 -163.5 60.5t-62.5 162.5v82q0 106 58.5 168.5t164.5 62.5q105 0 161 -62t56 -161v-76h-367v-18q0 -71 38.5 -116t114.5 -45q56 0 92 27t49 72h68q-13 -69 -71 -113t-138 -44zM129 299v-16h296v24q0 72 -37 115.5t-109 43.5q-78 0 -114 -45.5t-36 -121.5z
M284 582q-72 0 -114 39t-42 103h56q0 -44 25 -69.5t75 -25.5t75 25.5t25 69.5h56q0 -64 -42 -103t-114 -39z" />
    <glyph glyph-name="Edotaccent" unicode="&#x116;" horiz-adv-x="609" 
d="M278 822q0 20 13 33t35 13t35 -13t13 -33t-13 -33t-35 -13t-35 13t-13 33zM91 0v700h462v-65h-384v-248h355v-65h-355v-257h385v-65h-463z" />
    <glyph glyph-name="edotaccent" unicode="&#x117;" horiz-adv-x="554" 
d="M282 -12q-101 0 -163.5 60.5t-62.5 162.5v82q0 106 58.5 168.5t164.5 62.5q105 0 161 -62t56 -161v-76h-367v-18q0 -71 38.5 -116t114.5 -45q56 0 92 27t49 72h68q-13 -69 -71 -113t-138 -44zM129 299v-16h296v24q0 72 -37 115.5t-109 43.5q-78 0 -114 -45.5t-36 -121.5z
M232 647q0 20 13 33t35 13t35 -13t13 -33t-13 -33t-35 -13t-35 13t-13 33z" />
    <glyph glyph-name="Eogonek" unicode="&#x118;" horiz-adv-x="609" 
d="M91 0v700h462v-65h-384v-248h355v-65h-355v-257h385v-65q-83 -49 -83 -97q0 -36 50 -36q19 0 32 3v-49q-30 -7 -58 -7q-42 0 -66 21t-24 58q0 69 77 107h-391z" />
    <glyph glyph-name="eogonek" unicode="&#x119;" horiz-adv-x="554" 
d="M282 -12q-101 0 -163.5 60.5t-62.5 162.5v82q0 106 58.5 168.5t164.5 62.5q105 0 161 -62t56 -161v-76h-367v-18q0 -71 38.5 -116t114.5 -45q56 0 92 27t49 72h68q-11 -62 -64 -107q-22 -19 -28.5 -25t-24 -23.5t-23.5 -28t-12.5 -26.5t-6.5 -32q0 -36 50 -36q18 0 32 3
v-49q-30 -7 -58 -7q-41 0 -65.5 21.5t-24.5 59.5q0 31 18.5 57.5t41.5 39.5q-28 -4 -44 -4zM129 299v-16h296v24q0 72 -37 115.5t-109 43.5q-78 0 -114 -45.5t-36 -121.5z" />
    <glyph glyph-name="Ecaron" unicode="&#x11a;" horiz-adv-x="609" 
d="M91 0v700h462v-65h-384v-248h355v-65h-355v-257h385v-65h-463zM294 760l-116 126h74l79 -85l79 85h74l-116 -126h-74z" />
    <glyph glyph-name="ecaron" unicode="&#x11b;" horiz-adv-x="554" 
d="M247 582l-110 142h71l76 -99l76 99h71l-110 -142h-74zM282 -12q-101 0 -163.5 60.5t-62.5 162.5v82q0 106 58.5 168.5t164.5 62.5q105 0 161 -62t56 -161v-76h-367v-18q0 -71 38.5 -116t114.5 -45q56 0 92 27t49 72h68q-13 -69 -71 -113t-138 -44zM129 299v-16h296v24
q0 72 -37 115.5t-109 43.5q-78 0 -114 -45.5t-36 -121.5z" />
    <glyph glyph-name="Gcircumflex" unicode="&#x11c;" horiz-adv-x="709" 
d="M205 760l116 126h74l116 -126h-74l-79 85l-79 -85h-74zM632 470h-74q-2 77 -56 128t-145 51q-104 0 -156.5 -64.5t-52.5 -174.5v-116q0 -110 52.5 -177.5t161.5 -67.5q95 0 148.5 53t53.5 153v18h-196v65h271v-74q0 -124 -73.5 -201t-204.5 -77q-140 0 -215.5 87.5
t-75.5 222.5v111q0 138 75 222.5t211 84.5q125 0 199.5 -69t76.5 -175z" />
    <glyph glyph-name="gcircumflex" unicode="&#x11d;" horiz-adv-x="594" 
d="M152 582l110 142h74l110 -142h-71l-76 99l-76 -99h-71zM287 -186q-79 0 -140.5 35t-81.5 96h75q41 -71 147 -71q67 0 108.5 35t41.5 93v116q-13 -38 -62 -67.5t-110 -29.5q-96 0 -152.5 60t-56.5 149v85q0 90 56 149.5t154 59.5q66 0 111 -29t63 -68v85h73v-512
q0 -80 -64.5 -133t-161.5 -53zM280 83q67 0 112 42t45 113v66q0 66 -44.5 112t-109.5 46q-75 0 -113.5 -39.5t-38.5 -113.5v-73q0 -73 38 -113t111 -40z" />
    <glyph glyph-name="Gbreve" unicode="&#x11e;" horiz-adv-x="709" 
d="M357 760q-74 0 -117.5 34.5t-43.5 91.5h59q0 -35 26.5 -56.5t75.5 -21.5t75.5 21.5t26.5 56.5h59q0 -57 -43.5 -91.5t-117.5 -34.5zM632 470h-74q-2 77 -56 128t-145 51q-104 0 -156.5 -64.5t-52.5 -174.5v-116q0 -110 52.5 -177.5t161.5 -67.5q95 0 148.5 53t53.5 153
v18h-196v65h271v-74q0 -124 -73.5 -201t-204.5 -77q-140 0 -215.5 87.5t-75.5 222.5v111q0 138 75 222.5t211 84.5q125 0 199.5 -69t76.5 -175z" />
    <glyph glyph-name="gbreve" unicode="&#x11f;" horiz-adv-x="594" 
d="M287 -186q-79 0 -140.5 35t-81.5 96h75q41 -71 147 -71q67 0 108.5 35t41.5 93v116q-13 -38 -62 -67.5t-110 -29.5q-96 0 -152.5 60t-56.5 149v85q0 90 56 149.5t154 59.5q66 0 111 -29t63 -68v85h73v-512q0 -80 -64.5 -133t-161.5 -53zM280 83q67 0 112 42t45 113v66
q0 66 -44.5 112t-109.5 46q-75 0 -113.5 -39.5t-38.5 -113.5v-73q0 -73 38 -113t111 -40zM301 582q-72 0 -114 39t-42 103h56q0 -44 25 -69.5t75 -25.5t75 25.5t25 69.5h56q0 -64 -42 -103t-114 -39z" />
    <glyph glyph-name="Gdotaccent" unicode="&#x120;" horiz-adv-x="709" 
d="M306 822q0 20 13 33t35 13t35 -13t13 -33t-13 -33t-35 -13t-35 13t-13 33zM632 470h-74q-2 77 -56 128t-145 51q-104 0 -156.5 -64.5t-52.5 -174.5v-116q0 -110 52.5 -177.5t161.5 -67.5q95 0 148.5 53t53.5 153v18h-196v65h271v-74q0 -124 -73.5 -201t-204.5 -77
q-140 0 -215.5 87.5t-75.5 222.5v111q0 138 75 222.5t211 84.5q125 0 199.5 -69t76.5 -175z" />
    <glyph glyph-name="gdotaccent" unicode="&#x121;" horiz-adv-x="594" 
d="M287 -186q-79 0 -140.5 35t-81.5 96h75q41 -71 147 -71q67 0 108.5 35t41.5 93v116q-13 -38 -62 -67.5t-110 -29.5q-96 0 -152.5 60t-56.5 149v85q0 90 56 149.5t154 59.5q66 0 111 -29t63 -68v85h73v-512q0 -80 -64.5 -133t-161.5 -53zM280 83q67 0 112 42t45 113v66
q0 66 -44.5 112t-109.5 46q-75 0 -113.5 -39.5t-38.5 -113.5v-73q0 -73 38 -113t111 -40zM247 647q0 20 13 33t35 13t35 -13t13 -33t-13 -33t-35 -13t-35 13t-13 33z" />
    <glyph glyph-name="Gcommaaccent" unicode="&#x122;" horiz-adv-x="709" 
d="M290 -250l38 170h85l-60 -170h-63zM632 470h-74q-2 77 -56 128t-145 51q-104 0 -156.5 -64.5t-52.5 -174.5v-116q0 -110 52.5 -177.5t161.5 -67.5q95 0 148.5 53t53.5 153v18h-196v65h271v-74q0 -124 -73.5 -201t-204.5 -77q-140 0 -215.5 87.5t-75.5 222.5v111
q0 138 75 222.5t211 84.5q125 0 199.5 -69t76.5 -175z" />
    <glyph glyph-name="gcommaaccent" unicode="&#x123;" horiz-adv-x="594" 
d="M249 582l53 142h74l-35 -142h-92zM287 -186q-79 0 -140.5 35t-81.5 96h75q41 -71 147 -71q67 0 108.5 35t41.5 93v116q-13 -38 -62 -67.5t-110 -29.5q-96 0 -152.5 60t-56.5 149v85q0 90 56 149.5t154 59.5q66 0 111 -29t63 -68v85h73v-512q0 -80 -64.5 -133t-161.5 -53z
M280 83q67 0 112 42t45 113v66q0 66 -44.5 112t-109.5 46q-75 0 -113.5 -39.5t-38.5 -113.5v-73q0 -73 38 -113t111 -40z" />
    <glyph glyph-name="Hcircumflex" unicode="&#x124;" horiz-adv-x="708" 
d="M91 0v700h78v-314h370v314h78v-700h-78v316h-370v-316h-78zM201 760l116 126h74l116 -126h-74l-79 85l-79 -85h-74z" />
    <glyph glyph-name="hcircumflex" unicode="&#x125;" horiz-adv-x="588" 
d="M81 0v730h76v-297q50 91 167 91q86 0 137 -54.5t51 -146.5v-323h-76v312q0 68 -32 107t-99 39q-66 0 -107 -40t-41 -117v-301h-76zM-33 780l116 126h74l116 -126h-74l-79 85l-79 -85h-74z" />
    <glyph glyph-name="Hbar" unicode="&#x126;" horiz-adv-x="771" 
d="M39 518v47h83v135h78v-135h370v135h78v-135h84v-47h-84v-518h-78v316h-370v-316h-78v518h-83zM200 386h370v132h-370v-132z" />
    <glyph glyph-name="hbar" unicode="&#x127;" horiz-adv-x="610" 
d="M26 586v56h77v88h76v-88h132v-56h-132v-153q50 91 167 91q86 0 137 -54.5t51 -146.5v-323h-76v312q0 68 -32 107t-99 39q-66 0 -107 -40t-41 -117v-301h-76v586h-77z" />
    <glyph glyph-name="Itilde" unicode="&#x128;" horiz-adv-x="270" 
d="M96 0v700h78v-700h-78zM0 760l-52 9q17 112 102 112q34 0 98.5 -31t78.5 -31q6 0 11 1.5t8.5 3.5t7 7l5.5 8t5 10.5t4 11l3.5 12.5t3.5 12l51 -15q-12 -49 -34 -77t-63 -28q-27 0 -90 31t-87 31t-35 -17t-17 -50z" />
    <glyph glyph-name="itilde" unicode="&#x129;" horiz-adv-x="248" 
d="M86 0v512h76v-512h-76zM-2 583l-50 10q19 111 99 111q32 0 89 -31t70 -31q5 0 9.5 1t8.5 4l6.5 5t5.5 7t4.5 8t3.5 10t3 10t3 10.5t3 10.5l50 -11q-13 -51 -33.5 -80t-61.5 -29q-25 0 -80.5 31t-78.5 31q-16 0 -27 -11.5t-14.5 -21.5t-9.5 -34z" />
    <glyph glyph-name="uni012A" unicode="&#x12a;" horiz-adv-x="270" 
d="M96 0v700h78v-700h-78zM-26 796v59h322v-59h-322z" />
    <glyph glyph-name="imacron" unicode="&#x12b;" horiz-adv-x="248" 
d="M86 0v512h76v-512h-76zM-27 617v58h303v-58h-303z" />
    <glyph glyph-name="Ibreve" unicode="&#x12c;" horiz-adv-x="270" 
d="M96 0v700h78v-700h-78zM135 760q-74 0 -117.5 34.5t-43.5 91.5h59q0 -35 26.5 -56.5t75.5 -21.5t75.5 21.5t26.5 56.5h59q0 -57 -43.5 -91.5t-117.5 -34.5z" />
    <glyph glyph-name="uni012D" unicode="&#x12d;" horiz-adv-x="248" 
d="M86 0v512h76v-512h-76zM124 582q-72 0 -114 39t-42 103h56q0 -44 25 -69.5t75 -25.5t75 25.5t25 69.5h56q0 -64 -42 -103t-114 -39z" />
    <glyph glyph-name="Iogonek" unicode="&#x12e;" horiz-adv-x="270" 
d="M134 -186q-42 0 -65 23t-23 62q0 53 50 101v700h78v-700q-22 -21 -31 -30.5t-19.5 -28.5t-10.5 -38q0 -36 42 -36q11 0 18 1v-50q-20 -4 -39 -4z" />
    <glyph glyph-name="iogonek" unicode="&#x12f;" horiz-adv-x="248" 
d="M122 -186q-42 0 -65 23t-23 62q0 55 52 101v512h76v-512l-31 -31t-19.5 -28t-10.5 -38q0 -36 42 -36q11 0 18 1v-50q-20 -4 -39 -4zM76 647q0 20 13 33t35 13t35 -13t13 -33t-13 -33t-35 -13t-35 13t-13 33z" />
    <glyph glyph-name="Idotaccent" unicode="&#x130;" horiz-adv-x="270" 
d="M96 0v700h78v-700h-78zM87 822q0 20 13 33t35 13t35 -13t13 -33t-13 -33t-35 -13t-35 13t-13 33z" />
    <glyph glyph-name="dotlessi" unicode="&#x131;" horiz-adv-x="248" 
d="M86 0v512h76v-512h-76z" />
    <glyph glyph-name="IJ" unicode="&#x132;" horiz-adv-x="859" 
d="M96 0v700h78v-700h-78zM543 -14q-103 0 -165.5 56t-62.5 147v6h74v-6q0 -63 39.5 -100.5t113.5 -37.5q72 0 112 36.5t40 102.5v510h78v-510q0 -90 -63 -147t-166 -57z" />
    <glyph glyph-name="ij" unicode="&#x133;" horiz-adv-x="496" 
d="M86 0v512h76v-512h-76zM76 647q0 20 13 33t35 13t35 -13t13 -33t-13 -33t-35 -13t-35 13t-13 33zM410 512v-568q0 -57 -31.5 -87.5t-90.5 -30.5h-49v61h27q36 0 52 14t16 48v563h76zM324 647q0 20 13 33t35 13t35 -13t13 -33t-13 -33t-35 -13t-35 13t-13 33z" />
    <glyph glyph-name="Jcircumflex" unicode="&#x134;" horiz-adv-x="589" 
d="M273 -14q-103 0 -165.5 56t-62.5 147v6h74v-6q0 -63 39.5 -100.5t113.5 -37.5q72 0 112 36.5t40 102.5v510h78v-510q0 -90 -63 -147t-166 -57zM309 760l116 126h74l116 -126h-74l-79 85l-79 -85h-74z" />
    <glyph glyph-name="jcircumflex" unicode="&#x135;" horiz-adv-x="248" 
d="M162 512v-568q0 -57 -31.5 -87.5t-90.5 -30.5h-49v61h27q36 0 52 14t16 48v563h76zM-23 582l110 142h74l110 -142h-71l-76 99l-76 -99h-71z" />
    <glyph glyph-name="Kcommaaccent" unicode="&#x136;" horiz-adv-x="612" 
d="M91 0v700h78v-341l316 341h94l-325 -346l336 -354h-94l-327 348v-348h-78zM256 -250l38 170h85l-60 -170h-63z" />
    <glyph glyph-name="kcommaaccent" unicode="&#x137;" horiz-adv-x="513" 
d="M81 0v730h76v-459l221 241h95l-234 -247l244 -265h-95l-231 258v-258h-76zM195 -250l38 170h85l-60 -170h-63z" />
    <glyph glyph-name="kgreenlandic" unicode="&#x138;" horiz-adv-x="513" 
d="M81 0v512h76v-241l221 241h95l-235 -247l245 -265h-95l-231 258v-258h-76z" />
    <glyph glyph-name="Lacute" unicode="&#x139;" 
d="M173 760h-76l72 126h92zM91 0v700h78v-635h359v-65h-437z" />
    <glyph glyph-name="lacute" unicode="&#x13a;" horiz-adv-x="248" 
d="M164 791h-71l60 112h89zM86 0v730h76v-730h-76z" />
    <glyph glyph-name="Lcommaaccent" unicode="&#x13b;" 
d="M236 -250l38 170h85l-60 -170h-63zM91 0v700h78v-635h359v-65h-437z" />
    <glyph glyph-name="lcommaaccent" unicode="&#x13c;" horiz-adv-x="248" 
d="M41 -250l38 170h85l-60 -170h-63zM86 0v730h76v-730h-76z" />
    <glyph glyph-name="Lcaron" unicode="&#x13d;" 
d="M330 504l40 196h82l-60 -196h-62zM91 0v700h78v-635h359v-65h-437z" />
    <glyph glyph-name="lcaron" unicode="&#x13e;" horiz-adv-x="381" 
d="M267 534l40 196h82l-60 -196h-62zM86 0v730h76v-730h-76z" />
    <glyph glyph-name="Ldot" unicode="&#x13f;" 
d="M91 0v700h78v-635h359v-65h-437zM310 347q0 22 14 35.5t37 13.5t37 -13.5t14 -35.5t-14.5 -35.5t-36.5 -13.5t-36.5 13.5t-14.5 35.5z" />
    <glyph glyph-name="ldot" unicode="&#x140;" horiz-adv-x="371" 
d="M86 0v730h76v-730h-76zM251 300q0 22 14 35.5t37 13.5t37 -13.5t14 -35.5t-14.5 -35.5t-36.5 -13.5t-36.5 13.5t-14.5 35.5z" />
    <glyph glyph-name="Lslash" unicode="&#x141;" horiz-adv-x="584" 
d="M20 251v70l86 52v327h78v-280l167 102v-70l-167 -102v-285h359v-65h-437v303z" />
    <glyph glyph-name="lslash" unicode="&#x142;" horiz-adv-x="260" 
d="M32 273v72l58 50v335h76v-270l71 62v-72l-71 -62v-388h-76v323z" />
    <glyph glyph-name="Nacute" unicode="&#x143;" horiz-adv-x="716" 
d="M379 760h-76l72 126h92zM91 0v700h73l385 -575v575h76v-700h-73l-385 575v-575h-76z" />
    <glyph glyph-name="nacute" unicode="&#x144;" horiz-adv-x="588" 
d="M329 582h-75l81 142h92zM81 0v512h72v-87q19 45 63 72t108 27q86 0 137 -54.5t51 -146.5v-323h-76v312q0 68 -32 107t-99 39q-66 0 -107 -40t-41 -117v-301h-76z" />
    <glyph glyph-name="Ncommaaccent" unicode="&#x145;" horiz-adv-x="716" 
d="M286 -250l38 170h85l-60 -170h-63zM91 0v700h73l385 -575v575h76v-700h-73l-385 575v-575h-76z" />
    <glyph glyph-name="ncommaaccent" unicode="&#x146;" horiz-adv-x="588" 
d="M229 -250l38 170h85l-60 -170h-63zM81 0v512h72v-87q19 45 63 72t108 27q86 0 137 -54.5t51 -146.5v-323h-76v312q0 68 -32 107t-99 39q-66 0 -107 -40t-41 -117v-301h-76z" />
    <glyph glyph-name="Ncaron" unicode="&#x147;" horiz-adv-x="716" 
d="M91 0v700h73l385 -575v575h76v-700h-73l-385 575v-575h-76zM321 760l-116 126h74l79 -85l79 85h74l-116 -126h-74z" />
    <glyph glyph-name="ncaron" unicode="&#x148;" horiz-adv-x="588" 
d="M258 582l-110 142h71l76 -99l76 99h71l-110 -142h-74zM81 0v512h72v-87q19 45 63 72t108 27q86 0 137 -54.5t51 -146.5v-323h-76v312q0 68 -32 107t-99 39q-66 0 -107 -40t-41 -117v-301h-76z" />
    <glyph glyph-name="napostrophe" unicode="&#x149;" horiz-adv-x="706" 
d="M18 534l40 196h82l-60 -196h-62zM198 0v512h72v-87q19 45 63 72t108 27q86 0 137 -54.5t51 -146.5v-323h-76v312q0 68 -32 107t-99 39q-66 0 -107 -40t-41 -117v-301h-76z" />
    <glyph glyph-name="Eng" unicode="&#x14a;" horiz-adv-x="716" 
d="M91 0v700h73l385 -575v575h76v-707q0 -79 -44 -123t-131 -44h-42v63h26q60 0 87.5 26t27.5 81v8l-382 571v-575h-76z" />
    <glyph glyph-name="eng" unicode="&#x14b;" horiz-adv-x="588" 
d="M81 0v512h72v-87q19 45 63 72t108 27q86 0 137 -54.5t51 -146.5v-336q0 -76 -47 -118.5t-132 -42.5h-20v61h21q102 0 102 101v324q0 68 -32 107t-99 39q-66 0 -107 -40t-41 -117v-301h-76z" />
    <glyph glyph-name="Omacron" unicode="&#x14c;" horiz-adv-x="728" 
d="M658 294q0 -134 -76.5 -221t-217.5 -87t-217.5 87t-76.5 221v112q0 134 76.5 221t217.5 87t217.5 -87t76.5 -221v-112zM364 51q107 0 161.5 67t54.5 172v120q0 105 -54.5 172t-161.5 67t-161.5 -67t-54.5 -172v-120q0 -105 54.5 -172t161.5 -67zM203 796v59h322v-59h-322
z" />
    <glyph glyph-name="omacron" unicode="&#x14d;" 
d="M133 617v58h303v-58h-303zM285 -12q-106 0 -167.5 64t-61.5 162v84q0 98 61.5 162t167.5 64t167 -64t61 -162v-84q0 -98 -61 -162t-167 -64zM440 297q0 75 -40.5 120.5t-114.5 45.5t-114.5 -45.5t-40.5 -120.5v-82q0 -75 40.5 -120.5t114.5 -45.5t114.5 45.5t40.5 120.5
v82z" />
    <glyph glyph-name="Obreve" unicode="&#x14e;" horiz-adv-x="728" 
d="M658 294q0 -134 -76.5 -221t-217.5 -87t-217.5 87t-76.5 221v112q0 134 76.5 221t217.5 87t217.5 -87t76.5 -221v-112zM364 51q107 0 161.5 67t54.5 172v120q0 105 -54.5 172t-161.5 67t-161.5 -67t-54.5 -172v-120q0 -105 54.5 -172t161.5 -67zM364 760
q-74 0 -117.5 34.5t-43.5 91.5h59q0 -35 26.5 -56.5t75.5 -21.5t75.5 21.5t26.5 56.5h59q0 -57 -43.5 -91.5t-117.5 -34.5z" />
    <glyph glyph-name="obreve" unicode="&#x14f;" 
d="M285 -12q-106 0 -167.5 64t-61.5 162v84q0 98 61.5 162t167.5 64t167 -64t61 -162v-84q0 -98 -61 -162t-167 -64zM440 297q0 75 -40.5 120.5t-114.5 45.5t-114.5 -45.5t-40.5 -120.5v-82q0 -75 40.5 -120.5t114.5 -45.5t114.5 45.5t40.5 120.5v82zM284 582q-72 0 -114 39
t-42 103h56q0 -44 25 -69.5t75 -25.5t75 25.5t25 69.5h56q0 -64 -42 -103t-114 -39z" />
    <glyph glyph-name="Ohungarumlaut" unicode="&#x150;" horiz-adv-x="728" 
d="M298 760h-68l53 126h81zM508 760h-68l53 126h81zM658 294q0 -134 -76.5 -221t-217.5 -87t-217.5 87t-76.5 221v112q0 134 76.5 221t217.5 87t217.5 -87t76.5 -221v-112zM364 51q107 0 161.5 67t54.5 172v120q0 105 -54.5 172t-161.5 67t-161.5 -67t-54.5 -172v-120
q0 -105 54.5 -172t161.5 -67z" />
    <glyph glyph-name="ohungarumlaut" unicode="&#x151;" 
d="M235 582h-69l62 142h82zM419 582h-69l62 142h82zM285 -12q-106 0 -167.5 64t-61.5 162v84q0 98 61.5 162t167.5 64t167 -64t61 -162v-84q0 -98 -61 -162t-167 -64zM440 297q0 75 -40.5 120.5t-114.5 45.5t-114.5 -45.5t-40.5 -120.5v-82q0 -75 40.5 -120.5t114.5 -45.5
t114.5 45.5t40.5 120.5v82z" />
    <glyph glyph-name="OE" unicode="&#x152;" horiz-adv-x="1068" 
d="M379 0q-151 0 -230 85t-79 222v86q0 137 79 222t230 85h633v-65h-384v-248h355v-65h-355v-257h385v-65h-634zM148 304q0 -106 58 -172.5t173 -66.5h171v570h-171q-115 0 -173 -66.5t-58 -172.5v-92z" />
    <glyph glyph-name="oe" unicode="&#x153;" horiz-adv-x="938" 
d="M285 -12q-106 0 -167.5 64t-61.5 162v84q0 98 61.5 162t167.5 64q132 0 190 -94q57 94 188 94q105 0 161 -62t56 -161v-76h-367v-21q1 -70 39 -114t114 -44q56 0 92 27t49 72h68q-13 -69 -71 -113t-138 -44q-64 0 -117 26.5t-74 69.5q-22 -41 -74 -68.5t-116 -27.5z
M440 208v95q-2 72 -42.5 116t-112.5 44q-74 0 -114.5 -45.5t-40.5 -120.5v-82q0 -75 40.5 -120.5t114.5 -45.5q72 0 112.5 43.5t42.5 115.5zM513 299v-16h296v24q0 72 -37 115.5t-109 43.5q-78 0 -114 -45.5t-36 -121.5z" />
    <glyph glyph-name="Racute" unicode="&#x154;" horiz-adv-x="676" 
d="M91 0v700h289q111 0 173 -63t62 -160q0 -74 -40.5 -130.5t-110.5 -78.5l152 -268h-89l-142 256h-216v-256h-78zM169 318h201q81 0 124 44t43 115t-44 115.5t-123 44.5h-201v-319zM352 760h-76l72 126h92z" />
    <glyph glyph-name="racute" unicode="&#x155;" horiz-adv-x="353" 
d="M228 582h-75l81 142h92zM81 0v512h71v-118q29 121 167 121h12v-71h-15q-74 0 -116.5 -49t-42.5 -144v-251h-76z" />
    <glyph glyph-name="Rcommaaccent" unicode="&#x156;" horiz-adv-x="676" 
d="M266 -250l38 170h85l-60 -170h-63zM91 0v700h289q111 0 173 -63t62 -160q0 -74 -40.5 -130.5t-110.5 -78.5l152 -268h-89l-142 256h-216v-256h-78zM169 318h201q81 0 124 44t43 115t-44 115.5t-123 44.5h-201v-319z" />
    <glyph glyph-name="rcommaaccent" unicode="&#x157;" horiz-adv-x="353" 
d="M35 -250l38 170h85l-60 -170h-63zM81 0v512h71v-118q29 121 167 121h12v-71h-15q-74 0 -116.5 -49t-42.5 -144v-251h-76z" />
    <glyph glyph-name="Rcaron" unicode="&#x158;" horiz-adv-x="676" 
d="M91 0v700h289q111 0 173 -63t62 -160q0 -74 -40.5 -130.5t-110.5 -78.5l152 -268h-89l-142 256h-216v-256h-78zM169 318h201q81 0 124 44t43 115t-44 115.5t-123 44.5h-201v-319zM300 760l-116 126h74l79 -85l79 85h74l-116 -126h-74z" />
    <glyph glyph-name="rcaron" unicode="&#x159;" horiz-adv-x="353" 
d="M177 582l-110 142h71l76 -99l76 99h71l-110 -142h-74zM81 0v512h71v-118q29 121 167 121h12v-71h-15q-74 0 -116.5 -49t-42.5 -144v-251h-76z" />
    <glyph glyph-name="Sacute" unicode="&#x15a;" horiz-adv-x="651" 
d="M330 -14q-114 0 -187.5 57t-73.5 151v18h74v-16q0 -67 50.5 -107.5t136.5 -40.5q87 0 136 36.5t49 102.5q0 88 -100 114l-198 52q-139 36 -139 165q0 92 66 144t176 52q108 0 176.5 -55.5t68.5 -144.5v-17h-73v15q0 63 -46 101.5t-126 38.5q-75 0 -121 -33.5t-46 -94.5
q0 -84 87 -107l203 -54q67 -18 107 -61.5t40 -108.5q0 -94 -73 -150.5t-187 -56.5zM356 760h-76l72 126h92z" />
    <glyph glyph-name="sacute" unicode="&#x15b;" horiz-adv-x="526" 
d="M298 582h-75l81 142h92zM269 -12q-94 0 -153 44t-59 117v5h69v-3q0 -48 40 -77t104 -29q62 0 99 24.5t37 72.5q0 57 -64 71l-152 35q-57 13 -88.5 46.5t-31.5 83.5q0 70 53.5 108t140.5 38q81 0 135.5 -45t54.5 -115v-5h-69v3q0 48 -32.5 76.5t-89.5 28.5
q-55 0 -89 -22.5t-34 -64.5q0 -53 54 -66l157 -37q126 -30 126 -132q0 -68 -59 -112.5t-149 -44.5z" />
    <glyph glyph-name="Scircumflex" unicode="&#x15c;" horiz-adv-x="651" 
d="M330 -14q-114 0 -187.5 57t-73.5 151v18h74v-16q0 -67 50.5 -107.5t136.5 -40.5q87 0 136 36.5t49 102.5q0 88 -100 114l-198 52q-139 36 -139 165q0 92 66 144t176 52q108 0 176.5 -55.5t68.5 -144.5v-17h-73v15q0 63 -46 101.5t-126 38.5q-75 0 -121 -33.5t-46 -94.5
q0 -84 87 -107l203 -54q67 -18 107 -61.5t40 -108.5q0 -94 -73 -150.5t-187 -56.5zM180 760l116 126h74l116 -126h-74l-79 85l-79 -85h-74z" />
    <glyph glyph-name="scircumflex" unicode="&#x15d;" horiz-adv-x="526" 
d="M121 582l110 142h74l110 -142h-71l-76 99l-76 -99h-71zM269 -12q-94 0 -153 44t-59 117v5h69v-3q0 -48 40 -77t104 -29q62 0 99 24.5t37 72.5q0 57 -64 71l-152 35q-57 13 -88.5 46.5t-31.5 83.5q0 70 53.5 108t140.5 38q81 0 135.5 -45t54.5 -115v-5h-69v3
q0 48 -32.5 76.5t-89.5 28.5q-55 0 -89 -22.5t-34 -64.5q0 -53 54 -66l157 -37q126 -30 126 -132q0 -68 -59 -112.5t-149 -44.5z" />
    <glyph glyph-name="Scedilla" unicode="&#x15e;" horiz-adv-x="651" 
d="M340 -186q-34 0 -66 6v44q27 -6 55 -6q50 0 50 27q0 24 -43 27l-46 3l16 72q-105 6 -171 62t-66 145v18h74v-16q0 -67 50.5 -107.5t136.5 -40.5q87 0 136 36.5t49 102.5q0 88 -100 114l-198 52q-139 36 -139 165q0 92 66 144t176 52q108 0 176.5 -55.5t68.5 -144.5v-17
h-73v15q0 63 -46 101.5t-126 38.5q-75 0 -121 -33.5t-46 -94.5q0 -84 87 -107l203 -54q67 -18 107 -61.5t40 -108.5q0 -89 -65.5 -144.5t-170.5 -61.5l-5 -33l13 -1q77 -5 77 -65q0 -34 -27 -54t-72 -20z" />
    <glyph glyph-name="Scedilla" unicode="&#xf6c1;" horiz-adv-x="651" 
d="M340 -186q-34 0 -66 6v44q27 -6 55 -6q50 0 50 27q0 24 -43 27l-46 3l16 72q-105 6 -171 62t-66 145v18h74v-16q0 -67 50.5 -107.5t136.5 -40.5q87 0 136 36.5t49 102.5q0 88 -100 114l-198 52q-139 36 -139 165q0 92 66 144t176 52q108 0 176.5 -55.5t68.5 -144.5v-17
h-73v15q0 63 -46 101.5t-126 38.5q-75 0 -121 -33.5t-46 -94.5q0 -84 87 -107l203 -54q67 -18 107 -61.5t40 -108.5q0 -89 -65.5 -144.5t-170.5 -61.5l-5 -33l13 -1q77 -5 77 -65q0 -34 -27 -54t-72 -20z" />
    <glyph glyph-name="scedilla" unicode="&#x15f;" horiz-adv-x="526" 
d="M275 -186q-35 0 -66 6v44q27 -6 55 -6q50 0 50 27q0 24 -43 27l-46 3l16 74q-83 7 -133.5 49.5t-50.5 110.5v5h69v-3q0 -48 40 -77t104 -29q62 0 99 24.5t37 72.5q0 57 -64 71l-152 35q-57 13 -88.5 46.5t-31.5 83.5q0 70 53.5 108t140.5 38q81 0 135.5 -45t54.5 -115v-5
h-69v3q0 48 -32.5 76.5t-89.5 28.5q-55 0 -89 -22.5t-34 -64.5q0 -53 54 -66l157 -37q126 -30 126 -132q0 -64 -52.5 -107.5t-134.5 -48.5l-6 -35l13 -1q77 -5 77 -65q0 -34 -27 -54t-72 -20z" />
    <glyph glyph-name="scedilla" unicode="&#xf6c2;" horiz-adv-x="526" 
d="M275 -186q-35 0 -66 6v44q27 -6 55 -6q50 0 50 27q0 24 -43 27l-46 3l16 74q-83 7 -133.5 49.5t-50.5 110.5v5h69v-3q0 -48 40 -77t104 -29q62 0 99 24.5t37 72.5q0 57 -64 71l-152 35q-57 13 -88.5 46.5t-31.5 83.5q0 70 53.5 108t140.5 38q81 0 135.5 -45t54.5 -115v-5
h-69v3q0 48 -32.5 76.5t-89.5 28.5q-55 0 -89 -22.5t-34 -64.5q0 -53 54 -66l157 -37q126 -30 126 -132q0 -64 -52.5 -107.5t-134.5 -48.5l-6 -35l13 -1q77 -5 77 -65q0 -34 -27 -54t-72 -20z" />
    <glyph glyph-name="Scaron" unicode="&#x160;" horiz-adv-x="651" 
d="M330 -14q-114 0 -187.5 57t-73.5 151v18h74v-16q0 -67 50.5 -107.5t136.5 -40.5q87 0 136 36.5t49 102.5q0 88 -100 114l-198 52q-139 36 -139 165q0 92 66 144t176 52q108 0 176.5 -55.5t68.5 -144.5v-17h-73v15q0 63 -46 101.5t-126 38.5q-75 0 -121 -33.5t-46 -94.5
q0 -84 87 -107l203 -54q67 -18 107 -61.5t40 -108.5q0 -94 -73 -150.5t-187 -56.5zM293 760l-116 126h74l79 -85l79 85h74l-116 -126h-74z" />
    <glyph glyph-name="scaron" unicode="&#x161;" horiz-adv-x="526" 
d="M228 582l-110 142h71l76 -99l76 99h71l-110 -142h-74zM269 -12q-94 0 -153 44t-59 117v5h69v-3q0 -48 40 -77t104 -29q62 0 99 24.5t37 72.5q0 57 -64 71l-152 35q-57 13 -88.5 46.5t-31.5 83.5q0 70 53.5 108t140.5 38q81 0 135.5 -45t54.5 -115v-5h-69v3
q0 48 -32.5 76.5t-89.5 28.5q-55 0 -89 -22.5t-34 -64.5q0 -53 54 -66l157 -37q126 -30 126 -132q0 -68 -59 -112.5t-149 -44.5z" />
    <glyph glyph-name="Tcommaaccent" unicode="&#x162;" horiz-adv-x="563" 
d="M196 -250l38 170h85l-60 -170h-63zM242 0v635h-214v65h506v-65h-214v-635h-78z" />
    <glyph glyph-name="Tcommaaccent" unicode="&#x21a;" horiz-adv-x="563" 
d="M196 -250l38 170h85l-60 -170h-63zM242 0v635h-214v65h506v-65h-214v-635h-78z" />
    <glyph glyph-name="tcommaaccent" unicode="&#x163;" horiz-adv-x="373" 
d="M144 -250l38 170h85l-60 -170h-63zM326 0h-64q-139 0 -139 136v314h-87v62h87v147h76v-147h131v-62h-131v-314q0 -40 17 -57t59 -17h51v-62z" />
    <glyph glyph-name="tcommaaccent" unicode="&#x21b;" horiz-adv-x="373" 
d="M144 -250l38 170h85l-60 -170h-63zM326 0h-64q-139 0 -139 136v314h-87v62h87v147h76v-147h131v-62h-131v-314q0 -40 17 -57t59 -17h51v-62z" />
    <glyph glyph-name="Tcaron" unicode="&#x164;" horiz-adv-x="563" 
d="M242 0v635h-214v65h506v-65h-214v-635h-78zM244 760l-116 126h74l79 -85l79 85h74l-116 -126h-74z" />
    <glyph glyph-name="tcaron" unicode="&#x165;" horiz-adv-x="373" 
d="M272 590l26 140h76l-41 -140h-61zM326 0h-64q-139 0 -139 136v314h-87v62h87v147h76v-147h131v-62h-131v-314q0 -40 17 -57t59 -17h51v-62z" />
    <glyph glyph-name="Tbar" unicode="&#x166;" horiz-adv-x="562" 
d="M94 304v62h148v269h-214v65h506v-65h-214v-269h148v-62h-148v-304h-78v304h-148z" />
    <glyph glyph-name="tbar" unicode="&#x167;" horiz-adv-x="373" 
d="M36 239v56h87v155h-87v62h87v147h76v-147h131v-62h-131v-155h112v-56h-112v-103q0 -40 17 -57t59 -17h51v-62h-64q-139 0 -139 136v103h-87z" />
    <glyph glyph-name="Utilde" unicode="&#x168;" horiz-adv-x="708" 
d="M354 -14q-123 0 -196 70t-73 180v464h78v-471q0 -82 51.5 -130t139.5 -48t139.5 48t51.5 130v471h78v-464q0 -110 -73 -180t-196 -70zM220 760l-52 9q17 112 102 112q34 0 98.5 -31t78.5 -31q6 0 11 1.5t8.5 3.5t7 7l5.5 8t5 10.5t4 11l3.5 12.5t3.5 12l51 -15
q-12 -49 -34 -77t-63 -28q-27 0 -90 31t-87 31t-35 -17t-17 -50z" />
    <glyph glyph-name="utilde" unicode="&#x169;" horiz-adv-x="584" 
d="M503 512v-512h-72v87q-19 -45 -63 -72t-108 -27q-84 0 -133.5 54.5t-49.5 146.5v323h76v-312q0 -68 31 -108t95 -40q66 0 107 41t41 118v301h76zM178 583l-50 10q19 111 99 111q32 0 89 -31t70 -31q5 0 9.5 1t8.5 4l6.5 5t5.5 7t4.5 8t3.5 10t3 10t3 10.5t3 10.5l50 -11
q-13 -51 -33.5 -80t-61.5 -29q-25 0 -80.5 31t-78.5 31q-16 0 -27 -11.5t-14.5 -21.5t-9.5 -34z" />
    <glyph glyph-name="Umacron" unicode="&#x16a;" horiz-adv-x="708" 
d="M354 -14q-123 0 -196 70t-73 180v464h78v-471q0 -82 51.5 -130t139.5 -48t139.5 48t51.5 130v471h78v-464q0 -110 -73 -180t-196 -70zM193 796v59h322v-59h-322z" />
    <glyph glyph-name="umacron" unicode="&#x16b;" horiz-adv-x="584" 
d="M503 512v-512h-72v87q-19 -45 -63 -72t-108 -27q-84 0 -133.5 54.5t-49.5 146.5v323h76v-312q0 -68 31 -108t95 -40q66 0 107 41t41 118v301h76zM147 617v58h303v-58h-303z" />
    <glyph glyph-name="Ubreve" unicode="&#x16c;" horiz-adv-x="708" 
d="M354 -14q-123 0 -196 70t-73 180v464h78v-471q0 -82 51.5 -130t139.5 -48t139.5 48t51.5 130v471h78v-464q0 -110 -73 -180t-196 -70zM354 760q-74 0 -117.5 34.5t-43.5 91.5h59q0 -35 26.5 -56.5t75.5 -21.5t75.5 21.5t26.5 56.5h59q0 -57 -43.5 -91.5t-117.5 -34.5z
" />
    <glyph glyph-name="ubreve" unicode="&#x16d;" horiz-adv-x="584" 
d="M503 512v-512h-72v87q-19 -45 -63 -72t-108 -27q-84 0 -133.5 54.5t-49.5 146.5v323h76v-312q0 -68 31 -108t95 -40q66 0 107 41t41 118v301h76zM298 582q-72 0 -114 39t-42 103h56q0 -44 25 -69.5t75 -25.5t75 25.5t25 69.5h56q0 -64 -42 -103t-114 -39z" />
    <glyph glyph-name="Uring" unicode="&#x16e;" horiz-adv-x="708" 
d="M354 760q-42 0 -67 24t-25 60t25 60t67 24t67 -24t25 -60t-25 -60t-67 -24zM354 796q24 0 37 13t13 35t-13 35t-37 13t-37 -13t-13 -35t13 -35t37 -13zM354 -14q-123 0 -196 70t-73 180v464h78v-471q0 -82 51.5 -130t139.5 -48t139.5 48t51.5 130v471h78v-464
q0 -110 -73 -180t-196 -70z" />
    <glyph glyph-name="uring" unicode="&#x16f;" horiz-adv-x="584" 
d="M303 582q-42 0 -67 24t-25 60t25 60t67 24t67 -24t25 -60t-25 -60t-67 -24zM303 618q23 0 36.5 13t13.5 35t-13.5 35t-36.5 13t-36.5 -13t-13.5 -35t13.5 -35t36.5 -13zM503 512v-512h-72v87q-19 -45 -63 -72t-108 -27q-84 0 -133.5 54.5t-49.5 146.5v323h76v-312
q0 -68 31 -108t95 -40q66 0 107 41t41 118v301h76z" />
    <glyph glyph-name="Uhungarumlaut" unicode="&#x170;" horiz-adv-x="708" 
d="M277 760h-68l53 126h81zM487 760h-68l53 126h81zM354 -14q-123 0 -196 70t-73 180v464h78v-471q0 -82 51.5 -130t139.5 -48t139.5 48t51.5 130v471h78v-464q0 -110 -73 -180t-196 -70z" />
    <glyph glyph-name="uhungarumlaut" unicode="&#x171;" horiz-adv-x="584" 
d="M503 512v-512h-72v87q-19 -45 -63 -72t-108 -27q-84 0 -133.5 54.5t-49.5 146.5v323h76v-312q0 -68 31 -108t95 -40q66 0 107 41t41 118v301h76zM242 582h-69l62 142h82zM426 582h-69l62 142h82z" />
    <glyph glyph-name="Uogonek" unicode="&#x172;" horiz-adv-x="708" 
d="M354 -14q-123 0 -196 70t-73 180v464h78v-471q0 -82 51.5 -130t139.5 -48t139.5 48t51.5 130v471h78v-464q0 -142 -116 -212q-33 -20 -53 -34t-40.5 -38.5t-20.5 -48.5q0 -36 50 -36q19 0 32 3v-49q-30 -7 -58 -7q-42 0 -66 21t-24 58q0 52 57 94q-10 -1 -30 -1z" />
    <glyph glyph-name="uogonek" unicode="&#x173;" horiz-adv-x="584" 
d="M503 512v-512q-83 -49 -83 -97q0 -36 50 -36q18 0 32 3v-49q-30 -7 -58 -7q-42 0 -66 21t-24 58q0 61 77 107v87q-19 -45 -63 -72t-108 -27q-84 0 -133.5 54.5t-49.5 146.5v323h76v-312q0 -68 31 -108t95 -40q66 0 107 41t41 118v301h76z" />
    <glyph glyph-name="Wcircumflex" unicode="&#x174;" horiz-adv-x="922" 
d="M307 760l116 126h74l116 -126h-74l-79 85l-79 -85h-74zM887 700l-166 -700h-75l-185 615l-185 -615h-75l-166 700h75l132 -596l180 596h78l180 -596l132 596h75z" />
    <glyph glyph-name="wcircumflex" unicode="&#x175;" horiz-adv-x="760" 
d="M233 582l110 142h74l110 -142h-71l-76 99l-76 -99h-71zM728 512l-140 -512h-72l-136 432l-136 -432h-72l-140 512h72l108 -421l132 421h72l132 -421l108 421h72z" />
    <glyph glyph-name="Ycircumflex" unicode="&#x176;" horiz-adv-x="604" 
d="M263 0v265l-249 435h82l206 -364l206 364h82l-249 -435v-265h-78zM149 760l116 126h74l116 -126h-74l-79 85l-79 -85h-74z" />
    <glyph glyph-name="ycircumflex" unicode="&#x177;" horiz-adv-x="508" 
d="M226 -174h-74l65 174l-191 512h75l156 -435l150 435h75l-189 -512zM113 582l110 142h74l110 -142h-71l-76 99l-76 -99h-71z" />
    <glyph glyph-name="Ydieresis" unicode="&#x178;" horiz-adv-x="604" 
d="M263 0v265l-249 435h82l206 -364l206 364h82l-249 -435v-265h-78zM142 828q0 20 13 33t35 13t35 -13t13 -33t-13 -33t-35 -13t-35 13t-13 33zM364 828q0 20 13 33t35 13t35 -13t13 -33t-13 -33t-35 -13t-35 13t-13 33z" />
    <glyph glyph-name="Zacute" unicode="&#x179;" horiz-adv-x="623" 
d="M66 0v65l399 570h-381v65h464v-65l-399 -570h410v-65h-493zM343 760h-76l72 126h92z" />
    <glyph glyph-name="zacute" unicode="&#x17a;" horiz-adv-x="499" 
d="M281 582h-75l81 142h92zM57 0v57l302 395h-290v60h374v-57l-302 -395h306v-60h-390z" />
    <glyph glyph-name="Zdotaccent" unicode="&#x17b;" horiz-adv-x="623" 
d="M270 822q0 20 13 33t35 13t35 -13t13 -33t-13 -33t-35 -13t-35 13t-13 33zM66 0v65l399 570h-381v65h464v-65l-399 -570h410v-65h-493z" />
    <glyph glyph-name="zdotaccent" unicode="&#x17c;" horiz-adv-x="499" 
d="M57 0v57l302 395h-290v60h374v-57l-302 -395h306v-60h-390zM214 647q0 20 13 33t35 13t35 -13t13 -33t-13 -33t-35 -13t-35 13t-13 33z" />
    <glyph glyph-name="Zcaron" unicode="&#x17d;" horiz-adv-x="623" 
d="M66 0v65l399 570h-381v65h464v-65l-399 -570h410v-65h-493zM286 760l-116 126h74l79 -85l79 85h74l-116 -126h-74z" />
    <glyph glyph-name="zcaron" unicode="&#x17e;" horiz-adv-x="499" 
d="M226 582l-110 142h71l76 -99l76 99h71l-110 -142h-74zM57 0v57l302 395h-290v60h374v-57l-302 -395h306v-60h-390z" />
    <glyph glyph-name="florin" unicode="&#x192;" horiz-adv-x="465" 
d="M30 -174v62h51q39 0 56.5 17.5t21.5 58.5l34 387h-96v62h101l14 158q11 129 131 129h82v-62h-66q-37 0 -52.5 -17.5t-19.5 -58.5l-13 -149h116v-62h-121l-35 -394q-12 -131 -139 -131h-65z" />
    <glyph glyph-name="Aringacute" unicode="&#x1fa;" horiz-adv-x="680" 
d="M432 747q0 -50 -44 -72l254 -675h-77l-64 178h-323l-63 -178h-77l253 675q-43 22 -43 72q0 35 25 59t67 24t67 -24t25 -59zM340 629l-140 -389h279zM391 861h-77l56 102h92zM340 700q24 0 37 13t13 34t-13 34t-37 13t-37 -13t-13 -34t13 -34t37 -13z" />
    <glyph glyph-name="aringacute" unicode="&#x1fb;" horiz-adv-x="576" 
d="M358 767h-77l56 102h92zM311 567q-42 0 -67 24t-25 59t25 59t67 24t67 -24t25 -59t-25 -59t-67 -24zM311 603q24 0 37 13t13 34t-13 34t-37 13t-37 -13t-13 -34t13 -34t37 -13zM501 0h-73v64q-18 -30 -67 -53t-109 -23q-89 0 -141.5 45t-52.5 116q0 74 55.5 117t147.5 43
q102 0 164 -64v95q0 54 -34 89t-94 35q-94 0 -128 -77h-70q20 64 72 100.5t127 36.5q93 0 148 -53t55 -131v-340zM268 37q62 0 109.5 32.5t47.5 80.5q0 46 -46.5 77.5t-106.5 31.5q-65 0 -103.5 -29.5t-38.5 -81.5t38.5 -81.5t99.5 -29.5z" />
    <glyph glyph-name="AEacute" unicode="&#x1fc;" horiz-adv-x="1041" 
d="M601 760h-76l72 126h92zM523 0v183h-305l-122 -183h-84l477 700h496v-65h-384v-248h355v-65h-355v-257h385v-65h-463zM260 246h263v394z" />
    <glyph glyph-name="aeacute" unicode="&#x1fd;" horiz-adv-x="930" 
d="M511 582h-75l81 142h92zM654 -12q-60 0 -111.5 28t-78.5 72q-22 -38 -76 -69t-124 -31q-93 0 -149.5 45t-56.5 117t56.5 116t146.5 44q55 0 98.5 -19.5t65.5 -42.5v86q0 57 -34.5 93.5t-94.5 36.5q-98 0 -130 -79h-70q18 69 71 104t130 35q115 0 171 -87q61 87 183 87
q105 0 161 -62t56 -161v-76h-367v-18q0 -71 38.5 -116t114.5 -45q56 0 92 27t49 72h68q-13 -69 -71 -113t-138 -44zM270 38q62 0 108.5 32.5t46.5 79.5q0 45 -45.5 77.5t-106.5 32.5q-65 0 -104 -30t-39 -81q0 -49 37 -80t103 -31zM501 306v-23h296v24q0 72 -37 115.5
t-109 43.5q-146 0 -150 -160z" />
    <glyph glyph-name="Oslashacute" unicode="&#x1fe;" horiz-adv-x="728" 
d="M395 760h-76l72 126h92zM658 294q0 -134 -76.5 -221t-217.5 -87q-103 0 -175 50l-56 -86h-63l79 120q-79 85 -79 224v112q0 134 76.5 221t217.5 87q101 0 174 -50l57 86h63l-79 -121q79 -85 79 -223v-112zM364 51q107 0 161.5 67t54.5 172v120q0 94 -43 156l-310 -472
q54 -43 137 -43zM148 290q0 -95 42 -156l310 472q-54 43 -136 43q-107 0 -161.5 -67t-54.5 -172v-120z" />
    <glyph glyph-name="oslashacute" unicode="&#x1ff;" 
d="M317 582h-75l81 142h92zM285 -12q-71 0 -126 31l-45 -69h-58l64 99q-64 62 -64 165v84q0 98 61.5 162t167.5 64q71 0 124 -31l46 70h58l-65 -100q65 -63 65 -165v-84q0 -98 -61 -162t-167 -64zM440 297q0 65 -30 107l-216 -330q38 -25 91 -25q74 0 114.5 45.5t40.5 120.5
v82zM130 215q0 -66 29 -107l215 331q-38 24 -89 24q-74 0 -114.5 -45.5t-40.5 -120.5v-82z" />
    <glyph glyph-name="Scommaaccent" unicode="&#x218;" horiz-adv-x="651" 
d="M330 -14q-114 0 -187.5 57t-73.5 151v18h74v-16q0 -67 50.5 -107.5t136.5 -40.5q87 0 136 36.5t49 102.5q0 88 -100 114l-198 52q-139 36 -139 165q0 92 66 144t176 52q108 0 176.5 -55.5t68.5 -144.5v-17h-73v15q0 63 -46 101.5t-126 38.5q-75 0 -121 -33.5t-46 -94.5
q0 -84 87 -107l203 -54q67 -18 107 -61.5t40 -108.5q0 -94 -73 -150.5t-187 -56.5zM254 -250l38 170h85l-60 -170h-63z" />
    <glyph glyph-name="scommaaccent" unicode="&#x219;" horiz-adv-x="526" 
d="M269 -12q-94 0 -153 44t-59 117v5h69v-3q0 -48 40 -77t104 -29q62 0 99 24.5t37 72.5q0 57 -64 71l-152 35q-57 13 -88.5 46.5t-31.5 83.5q0 70 53.5 108t140.5 38q81 0 135.5 -45t54.5 -115v-5h-69v3q0 48 -32.5 76.5t-89.5 28.5q-55 0 -89 -22.5t-34 -64.5
q0 -53 54 -66l157 -37q126 -30 126 -132q0 -68 -59 -112.5t-149 -44.5zM190 -250l38 170h85l-60 -170h-63z" />
    <glyph glyph-name="circumflex" unicode="&#x2c6;" horiz-adv-x="476" 
d="M91 582l110 142h74l110 -142h-71l-76 99l-76 -99h-71z" />
    <glyph glyph-name="caron" unicode="&#x2c7;" horiz-adv-x="476" 
d="M201 582l-110 142h71l76 -99l76 99h71l-110 -142h-74z" />
    <glyph glyph-name="breve" unicode="&#x2d8;" horiz-adv-x="494" 
d="M247 582q-72 0 -114 39t-42 103h56q0 -44 25 -69.5t75 -25.5t75 25.5t25 69.5h56q0 -64 -42 -103t-114 -39z" />
    <glyph glyph-name="dotaccent" unicode="&#x2d9;" horiz-adv-x="258" 
d="M81 647q0 20 13 33t35 13t35 -13t13 -33t-13 -33t-35 -13t-35 13t-13 33z" />
    <glyph glyph-name="ring" unicode="&#x2da;" horiz-adv-x="366" 
d="M183 582q-42 0 -67 24t-25 60t25 60t67 24t67 -24t25 -60t-25 -60t-67 -24zM183 618q23 0 36.5 13t13.5 35t-13.5 35t-36.5 13t-36.5 -13t-13.5 -35t13.5 -35t36.5 -13z" />
    <glyph glyph-name="ogonek" unicode="&#x2db;" horiz-adv-x="331" 
d="M181 -186q-42 0 -66 21t-24 58q0 61 77 107h72q-83 -49 -83 -97q0 -36 50 -36q19 0 32 3v-49q-30 -7 -58 -7z" />
    <glyph glyph-name="tilde" unicode="&#x2dc;" horiz-adv-x="537" 
d="M141 583l-50 10q19 111 99 111q32 0 89 -31t70 -31q5 0 9.5 1t8.5 4l6.5 5t5.5 7t4.5 8t3.5 10t3 10t3 10.5t3 10.5l50 -11q-13 -51 -33.5 -80t-61.5 -29q-25 0 -80.5 31t-78.5 31q-16 0 -27 -11.5t-14.5 -21.5t-9.5 -34z" />
    <glyph glyph-name="hungarumlaut" unicode="&#x2dd;" horiz-adv-x="510" 
d="M160 582h-69l62 142h82zM344 582h-69l62 142h82z" />
    <glyph glyph-name="uni0312" unicode="&#x312;" horiz-adv-x="309" 
d="M91 582l53 142h74l-35 -142h-92z" />
    <glyph glyph-name="uni0315" unicode="&#x315;" horiz-adv-x="304" 
d="M91 534l40 196h82l-60 -196h-62z" />
    <glyph glyph-name="uni0326" unicode="&#x326;" horiz-adv-x="305" 
d="M91 -250l38 170h85l-60 -170h-63z" />
    <glyph glyph-name="Omega" unicode="&#x3a9;" horiz-adv-x="734" 
d="M651 63v-63h-186v63q52 53 84.5 128t32.5 156v49q0 120 -54 187t-161 67t-161 -67t-54 -187v-49q0 -81 32.5 -156t84.5 -128v-63h-186v63h107q-48 51 -81 128.5t-33 158.5v49q0 142 75 228.5t216 86.5t216 -86.5t75 -228.5v-49q0 -81 -33 -158.5t-81 -128.5h107z" />
    <glyph glyph-name="pi" unicode="&#x3c0;" horiz-adv-x="731" 
d="M170 0v450h-109v62h609v-62h-132v-309q0 -42 16.5 -60.5t57.5 -18.5h55v-62h-72q-133 0 -133 139v311h-216v-450h-76z" />
    <glyph glyph-name="Wgrave" unicode="&#x1e80;" horiz-adv-x="922" 
d="M416 760l-88 126h92l72 -126h-76zM887 700l-166 -700h-75l-185 615l-185 -615h-75l-166 700h75l132 -596l180 596h78l180 -596l132 596h75z" />
    <glyph glyph-name="wgrave" unicode="&#x1e81;" horiz-adv-x="760" 
d="M728 512l-140 -512h-72l-136 432l-136 -432h-72l-140 512h72l108 -421l132 421h72l132 -421l108 421h72zM338 582l-98 142h93l80 -142h-75z" />
    <glyph glyph-name="Wacute" unicode="&#x1e82;" horiz-adv-x="922" 
d="M508 760h-76l72 126h92zM887 700l-166 -700h-75l-185 615l-185 -615h-75l-166 700h75l132 -596l180 596h78l180 -596l132 596h75z" />
    <glyph glyph-name="wacute" unicode="&#x1e83;" horiz-adv-x="760" 
d="M430 582h-75l81 142h92zM728 512l-140 -512h-72l-136 432l-136 -432h-72l-140 512h72l108 -421l132 421h72l132 -421l108 421h72z" />
    <glyph glyph-name="Wdieresis" unicode="&#x1e84;" horiz-adv-x="922" 
d="M887 700l-166 -700h-75l-185 615l-185 -615h-75l-166 700h75l132 -596l180 596h78l180 -596l132 596h75zM301 828q0 20 13 33t35 13t35 -13t13 -33t-13 -33t-35 -13t-35 13t-13 33zM523 828q0 20 13 33t35 13t35 -13t13 -33t-13 -33t-35 -13t-35 13t-13 33z" />
    <glyph glyph-name="wdieresis" unicode="&#x1e85;" horiz-adv-x="760" 
d="M232 651q0 20 13 33t35 13t35 -13t13 -33t-13 -33t-35 -13t-35 13t-13 33zM432 651q0 20 13 33t35 13t35 -13t13 -33t-13 -33t-35 -13t-35 13t-13 33zM728 512l-140 -512h-72l-136 432l-136 -432h-72l-140 512h72l108 -421l132 421h72l132 -421l108 421h72z" />
    <glyph glyph-name="Ygrave" unicode="&#x1ef2;" horiz-adv-x="604" 
d="M263 0v265l-249 435h82l206 -364l206 364h82l-249 -435v-265h-78zM262 760l-88 126h92l72 -126h-76z" />
    <glyph glyph-name="ygrave" unicode="&#x1ef3;" horiz-adv-x="508" 
d="M226 -174h-74l65 174l-191 512h75l156 -435l150 435h75l-189 -512zM224 582l-98 142h93l80 -142h-75z" />
    <glyph glyph-name="endash" unicode="&#x2013;" horiz-adv-x="612" 
d="M67 279v67h478v-67h-478z" />
    <glyph glyph-name="emdash" unicode="&#x2014;" horiz-adv-x="911" 
d="M67 279v67h777v-67h-777z" />
    <glyph glyph-name="quoteleft" unicode="&#x2018;" horiz-adv-x="228" 
d="M45 476l69 224h64l-48 -224h-85z" />
    <glyph glyph-name="quoteright" unicode="&#x2019;" horiz-adv-x="228" 
d="M50 476l48 224h85l-69 -224h-64z" />
    <glyph glyph-name="quotesinglbase" unicode="&#x201a;" horiz-adv-x="238" 
d="M35 -114l48 224h85l-69 -224h-64z" />
    <glyph glyph-name="quotedblleft" unicode="&#x201c;" horiz-adv-x="435" 
d="M252 476l69 224h64l-48 -224h-85zM45 476l69 224h64l-48 -224h-85z" />
    <glyph glyph-name="quotedblright" unicode="&#x201d;" horiz-adv-x="435" 
d="M50 476l48 224h85l-69 -224h-64zM257 476l48 224h85l-69 -224h-64z" />
    <glyph glyph-name="quotedblbase" unicode="&#x201e;" horiz-adv-x="445" 
d="M35 -114l48 224h85l-69 -224h-64zM242 -114l48 224h85l-69 -224h-64z" />
    <glyph glyph-name="dagger" unicode="&#x2020;" horiz-adv-x="492" 
d="M215 -100v569h-144v52h144v179h62v-179h144v-52h-144v-569h-62z" />
    <glyph glyph-name="daggerdbl" unicode="&#x2021;" horiz-adv-x="502" 
d="M220 131v338h-144v52h144v179h62v-179h144v-52h-144v-338h144v-52h-144v-179h-62v179h-144v52h144z" />
    <glyph glyph-name="bullet" unicode="&#x2022;" horiz-adv-x="418" 
d="M209 472q54 0 86 -32.5t32 -83.5t-32 -83.5t-86 -32.5t-86 32.5t-32 83.5t32 83.5t86 32.5z" />
    <glyph glyph-name="ellipsis" unicode="&#x2026;" horiz-adv-x="714" 
d="M68 43q0 22 14 35.5t37 13.5t37 -13.5t14 -35.5t-14.5 -35.5t-36.5 -13.5t-36.5 13.5t-14.5 35.5zM306 43q0 22 14 35.5t37 13.5t37 -13.5t14 -35.5t-14.5 -35.5t-36.5 -13.5t-36.5 13.5t-14.5 35.5zM544 43q0 22 14 35.5t37 13.5t37 -13.5t14 -35.5t-14.5 -35.5
t-36.5 -13.5t-36.5 13.5t-14.5 35.5z" />
    <glyph glyph-name="perthousand" unicode="&#x2030;" horiz-adv-x="1231" 
d="M212 321q-69 0 -110 41.5t-41 108.5v87q0 67 41 108.5t110 41.5t110 -41.5t41 -108.5v-87q0 -67 -41 -108.5t-110 -41.5zM212 369q45 0 69.5 26.5t24.5 71.5v95q0 45 -24.5 71.5t-69.5 26.5t-69.5 -26.5t-24.5 -71.5v-95q0 -45 24.5 -71.5t69.5 -26.5zM642 -8
q-69 0 -110 41.5t-41 108.5v87q0 67 41 108.5t110 41.5t110 -41.5t41 -108.5v-87q0 -67 -41 -108.5t-110 -41.5zM642 40q45 0 69.5 26.5t24.5 71.5v95q0 45 -24.5 71.5t-69.5 26.5t-69.5 -26.5t-24.5 -71.5v-95q0 -45 24.5 -71.5t69.5 -26.5zM217 0l363 700h58l-363 -700
h-58zM1024 -8q-69 0 -110 41.5t-41 108.5v87q0 67 41 108.5t110 41.5t110 -41.5t41 -108.5v-87q0 -67 -41 -108.5t-110 -41.5zM1024 40q45 0 69.5 26.5t24.5 71.5v95q0 45 -24.5 71.5t-69.5 26.5t-69.5 -26.5t-24.5 -71.5v-95q0 -45 24.5 -71.5t69.5 -26.5z" />
    <glyph glyph-name="guilsinglleft" unicode="&#x2039;" horiz-adv-x="351" 
d="M208 60l-172 212l172 212h87l-172 -212l172 -212h-87z" />
    <glyph glyph-name="guilsinglright" unicode="&#x203a;" horiz-adv-x="351" 
d="M315 272l-172 -212h-87l172 212l-172 212h87z" />
    <glyph glyph-name="fraction" unicode="&#x2044;" horiz-adv-x="371" 
d="M-25 0l363 700h58l-363 -700h-58z" />
    <glyph glyph-name="Euro" unicode="&#x20ac;" horiz-adv-x="670" 
d="M46 411v56h85v15q0 102 63 167t176 65q104 0 167 -61.5t67 -155.5h-68q-5 69 -49 113t-116 44q-81 0 -123.5 -45t-42.5 -124v-18h200v-56h-200v-122h200v-56h-200v-18q0 -79 42.5 -124t123.5 -45q72 0 116 44t49 113h68q-4 -94 -67 -155.5t-167 -61.5q-113 0 -176 65
t-63 167v15h-85v56h85v122h-85z" />
    <glyph glyph-name="published" unicode="&#x2117;" horiz-adv-x="862" 
d="M463 295h-94v-124h-46v354h140q55 0 88.5 -32.5t33.5 -82.5q0 -51 -33.5 -83t-88.5 -32zM369 333h86q41 0 62.5 21.5t21.5 54.5t-21.5 55.5t-62.5 22.5h-86v-154zM431 -12q-160 0 -260.5 105.5t-100.5 256.5t100.5 256.5t260.5 105.5t260.5 -105.5t100.5 -256.5
t-100.5 -256.5t-260.5 -105.5zM431 14q150 0 241 98t91 238t-91 238t-241 98t-241 -98t-91 -238t91 -238t241 -98z" />
    <glyph glyph-name="trademark" unicode="&#x2122;" horiz-adv-x="654" 
d="M142 412v255h-89v33h218v-33h-89v-255h-40zM326 412v288h37l92 -181l91 181h37v-288h-38v215l-71 -140h-39l-71 140v-215h-38z" />
    <glyph glyph-name="partialdiff" unicode="&#x2202;" horiz-adv-x="588" 
d="M289 -14q-104 0 -167 65t-63 160v31q0 98 59.5 160t158.5 62q64 0 111 -26t65 -60q-37 259 -316 259h-16v63h21q83 0 149 -22t109.5 -59.5t72.5 -92t41.5 -117t12.5 -135.5v-46q0 -100 -66 -171t-172 -71zM291 45q72 0 117 46.5t45 118.5v35q0 67 -46.5 113.5
t-113.5 46.5q-74 0 -117 -44t-43 -118v-36q0 -75 43.5 -118.5t114.5 -43.5z" />
    <glyph glyph-name="Delta" unicode="&#x2206;" horiz-adv-x="670" 
d="M371 700l239 -643v-57h-550v57l239 643h72zM131 62h408l-204 569z" />
    <glyph glyph-name="product" unicode="&#x220f;" horiz-adv-x="801" 
d="M189 -174v812h-133v62h689v-62h-133v-812h-76v812h-271v-812h-76z" />
    <glyph glyph-name="summation" unicode="&#x2211;" horiz-adv-x="610" 
d="M76 -174v62l238 375l-238 375v62h468v-62h-386l235 -375l-235 -375h386v-62h-468z" />
    <glyph glyph-name="minus" unicode="&#x2212;" horiz-adv-x="598" 
d="M80 329v62h438v-62h-438z" />
    <glyph glyph-name="radical" unicode="&#x221a;" horiz-adv-x="706" 
d="M327 -100l-131 367h-131v66h179l126 -364l196 781h70l-218 -850h-91z" />
    <glyph glyph-name="infinity" unicode="&#x221e;" horiz-adv-x="884" 
d="M814 360q0 -78 -48.5 -125.5t-124.5 -47.5q-68 0 -121 34.5t-78 81.5q-25 -47 -78 -81.5t-121 -34.5q-76 0 -124.5 47.5t-48.5 125.5t48.5 125.5t124.5 47.5q68 0 121 -34.5t78 -81.5q25 47 78 81.5t121 34.5q76 0 124.5 -47.5t48.5 -125.5zM631 474q-101 0 -155 -114
q54 -114 155 -114q53 0 85 31t32 83t-32 83t-85 31zM253 474q-53 0 -85 -31t-32 -83t32 -83t85 -31q101 0 155 114q-54 114 -155 114z" />
    <glyph glyph-name="integral" unicode="&#x222b;" horiz-adv-x="438" 
d="M251 -27q0 -147 -144 -147h-51v62h35q47 0 66.5 17.5t19.5 62.5v585q0 147 144 147h51v-62h-35q-47 0 -66.5 -17.5t-19.5 -62.5v-585z" />
    <glyph glyph-name="approxequal" unicode="&#x2248;" horiz-adv-x="612" 
d="M421 196q-41 0 -115 36q-68 33 -99 33q-28 0 -47.5 -13t-43.5 -39l-41 38q30 36 60.5 54.5t74.5 18.5q47 0 115 -36q55 -29 81 -32q7 -1 15 -1q48 0 85 39l36 -38q-50 -60 -121 -60zM421 397q-41 0 -115 36q-68 33 -99 33q-28 0 -47.5 -13t-43.5 -39l-41 38
q30 36 60.5 54.5t74.5 18.5q47 0 115 -36q55 -29 81 -32q7 -1 15 -1q48 0 85 39l36 -38q-50 -60 -121 -60z" />
    <glyph glyph-name="notequal" unicode="&#x2260;" horiz-adv-x="624" 
d="M95 449v60h258l61 122h67l-61 -122h109v-60h-139l-89 -178h228v-60h-258l-61 -122h-66l61 122h-110v60h140l88 178h-228z" />
    <glyph glyph-name="lessequal" unicode="&#x2264;" horiz-adv-x="611" 
d="M521 163l-446 186v60l446 185v-67l-359 -148l359 -149v-67zM75 0v63h446v-63h-446z" />
    <glyph glyph-name="greaterequal" unicode="&#x2265;" horiz-adv-x="611" 
d="M536 349l-446 -186v67l359 149l-359 148v67l446 -185v-60zM536 63v-63h-446v63h446z" />
    <glyph glyph-name="lozenge" unicode="&#x25ca;" horiz-adv-x="616" 
d="M571 350l-230 -350h-66l-230 350l230 350h66zM308 62l185 288l-185 288l-185 -288z" />
    <glyph glyph-name="apple" unicode="&#xf8ff;" horiz-adv-x="853" 
d="M111 163v362q0 74 50.5 124.5t124.5 50.5h350q74 0 124.5 -50t50.5 -124t-50.5 -124t-124.5 -50h-175v-189q0 -74 -50.5 -124.5t-124.5 -50.5t-124.5 50.5t-50.5 124.5z" />
    <glyph glyph-name="fi" unicode="&#xfb01;" horiz-adv-x="600" 
d="M117 0v450h-75v62h75v68q0 75 35.5 112.5t112.5 37.5h72v-62h-66q-41 0 -59.5 -19.5t-18.5 -62.5v-74h126v-62h-126v-450h-76zM438 0v512h76v-512h-76zM428 647q0 20 13 33t35 13t35 -13t13 -33t-13 -33t-35 -13t-35 13t-13 33z" />
    <glyph glyph-name="fl" unicode="&#xfb02;" horiz-adv-x="600" 
d="M117 0v450h-75v62h75v68q0 75 35.5 112.5t112.5 37.5h72v-62h-66q-41 0 -59.5 -19.5t-18.5 -62.5v-74h126v-62h-126v-450h-76zM438 0v730h76v-730h-76z" />
    <glyph glyph-name="acute.case" horiz-adv-x="346" 
d="M167 760h-76l72 126h92z" />
    <glyph glyph-name="breve.case" horiz-adv-x="504" 
d="M252 760q-74 0 -117.5 34.5t-43.5 91.5h59q0 -35 26.5 -56.5t75.5 -21.5t75.5 21.5t26.5 56.5h59q0 -57 -43.5 -91.5t-117.5 -34.5z" />
    <glyph glyph-name="caron.case" horiz-adv-x="488" 
d="M207 760l-116 126h74l79 -85l79 85h74l-116 -126h-74z" />
    <glyph glyph-name="circumflex.case" horiz-adv-x="488" 
d="M91 760l116 126h74l116 -126h-74l-79 85l-79 -85h-74z" />
    <glyph glyph-name="dieresis.case" horiz-adv-x="478" 
d="M80 828q0 20 13 33t35 13t35 -13t13 -33t-13 -33t-35 -13t-35 13t-13 33zM302 828q0 20 13 33t35 13t35 -13t13 -33t-13 -33t-35 -13t-35 13t-13 33z" />
    <glyph glyph-name="dotaccent.case" horiz-adv-x="258" 
d="M81 822q0 20 13 33t35 13t35 -13t13 -33t-13 -33t-35 -13t-35 13t-13 33z" />
    <glyph glyph-name="grave.case" horiz-adv-x="346" 
d="M179 760l-88 126h92l72 -126h-76z" />
    <glyph glyph-name="hungarumlaut.case" horiz-adv-x="526" 
d="M159 760h-68l53 126h81zM369 760h-68l53 126h81z" />
    <glyph glyph-name="macron.case" horiz-adv-x="504" 
d="M91 796v59h322v-59h-322z" />
    <glyph glyph-name="ring.case" horiz-adv-x="366" 
d="M183 760q-42 0 -67 24t-25 60t25 60t67 24t67 -24t25 -60t-25 -60t-67 -24zM183 796q23 0 36.5 13t13.5 35t-13.5 35t-36.5 13t-36.5 -13t-13.5 -35t13.5 -35t36.5 -13z" />
    <glyph glyph-name="tilde.case" horiz-adv-x="560" 
d="M143 760l-52 9q17 112 102 112q34 0 98.5 -31t78.5 -31q6 0 11 1.5t8.5 3.5t7 7l5.5 8t5 10.5t4 11l3.5 12.5t3.5 12l51 -15q-12 -49 -34 -77t-63 -28q-27 0 -90 31t-87 31t-35 -17t-17 -50z" />
    <glyph glyph-name="J.salt" horiz-adv-x="606" 
d="M290 -14q-104 0 -167 55t-63 146v7h74v-8q0 -63 42 -99t113 -36q73 0 112.5 36.5t39.5 102.5v446h-329v64h407v-512q0 -88 -63.5 -145t-165.5 -57z" />
    <glyph glyph-name="IJ.salt" horiz-adv-x="876" 
d="M96 0v700h78v-700h-78zM560 -14q-104 0 -167 55t-63 146v7h74v-8q0 -63 42 -99t113 -36q73 0 112.5 36.5t39.5 102.5v446h-329v64h407v-512q0 -88 -63.5 -145t-165.5 -57z" />
    <glyph glyph-name="Jcircumflex.salt" horiz-adv-x="605" 
d="M177 760l116 126h74l116 -126h-74l-79 85l-79 -85h-74zM289 -14q-104 0 -167 55t-63 146v7h74v-8q0 -63 42 -99t113 -36q73 0 112.5 36.5t39.5 102.5v446h-329v64h407v-512q0 -88 -63.5 -145t-165.5 -57z" />
    <glyph glyph-name="ornm01.ornm" horiz-adv-x="1044" 
d="M101 319v62h555v-62h-555zM535 700h88l350 -350l-350 -350h-88l350 350z" />
    <glyph glyph-name="ornm02.ornm" horiz-adv-x="1044" 
d="M71 350l350 350h88l-350 -350l350 -350h-88zM388 381h555v-62h-555v62z" />
    <glyph glyph-name="ornm03.ornm" horiz-adv-x="863" 
d="M665 638h-494l62 62h499v-494l-67 -63v495zM526 452l-379 -379l-46 47l378 379z" />
    <glyph glyph-name="ornm04.ornm" horiz-adv-x="863" 
d="M762 120l-47 -47l-379 379l48 47zM629 700l63 -62h-495v-495l-66 63v494h498z" />
    <glyph glyph-name="ornm05.ornm" horiz-adv-x="863" 
d="M101 580l46 47l379 -379l-47 -47zM233 0l-62 62h494v495l67 -63v-494h-499z" />
    <glyph glyph-name="ornm06.ornm" horiz-adv-x="863" 
d="M197 62h495l-63 -62h-498v494l66 63v-495zM336 248l379 379l47 -47l-378 -379z" />
    <glyph glyph-name="ornm07.ornm" horiz-adv-x="902" 
d="M485 -141h-68v536h68v-536zM801 364v-88l-350 350l-350 -350v88l350 350z" />
    <glyph glyph-name="ornm08.ornm" horiz-adv-x="902" 
d="M451 -66l350 350v-88l-350 -350l-350 350v88zM417 165v535h68v-535h-68z" />
    <glyph glyph-name="ornm09.ornm" horiz-adv-x="914" 
d="M91 267v62h446v-62h-446zM488 575h88l277 -277l-277 -277h-88l277 277z" />
    <glyph glyph-name="ornm10.ornm" horiz-adv-x="914" 
d="M61 298l277 277h88l-277 -277l277 -277h-88zM377 329h446v-62h-446v62z" />
    <glyph glyph-name="ornm11.ornm" horiz-adv-x="774" 
d="M134 -47l-43 43l315 315l43 -43zM197 452l62 60h394v-390l-64 -62v392h-392z" />
    <glyph glyph-name="ornm12.ornm" horiz-adv-x="774" 
d="M121 512h394l62 -60h-392v-392l-64 62v390zM368 311l315 -315l-43 -43l-315 315z" />
    <glyph glyph-name="ornm13.ornm" horiz-adv-x="774" 
d="M653 0h-394l-62 59h392v393l64 -63v-389zM406 201l-315 315l43 43l315 -315z" />
    <glyph glyph-name="ornm14.ornm" horiz-adv-x="774" 
d="M640 559l43 -43l-315 -315l-43 43zM577 59l-62 -59h-394v389l64 63v-393h392z" />
    <glyph glyph-name="ornm15.ornm" horiz-adv-x="756" 
d="M378 598l277 -278v-88l-277 278l-277 -278v88zM411 281v-409h-66v409h66z" />
    <glyph glyph-name="ornm16.ornm" horiz-adv-x="756" 
d="M345 588h66v-410h-66v410zM655 227v-88l-277 -277l-277 277v88l277 -277z" />
    <glyph glyph-name="ornm17.ornm" horiz-adv-x="786" 
d="M257 742h21q8 -7 12.5 -21t7 -33t3.5 -24q9 -5 40 -12t41 -17q21 14 44.5 14t46.5 -10q-5 -8 -3.5 -10t13.5 -2q0 -13 6 -23q2 1 7.5 9.5t15.5 4.5q7 -6 24.5 -17.5t24.5 -19.5q15 0 32 11.5t24 13.5q5 -16 37.5 -14.5t43.5 -10.5q3 0 11.5 1t15.5 1t11 -2
q-15 -17 -50 -30t-45 -20q-13 -8 -23.5 -19.5t-21.5 -26.5t-19 -24q-5 -5 -35 -28.5t-39 -39.5q0 -9 3 -31t2 -36q-5 -5 -19.5 -14t-22 -18.5t-8.5 -23.5q19 -21 20 -26q-10 -14 -10 -40t-2 -45q7 -5 33.5 -22.5t42 -31t25.5 -30.5q13 12 27.5 4t18.5 -21q-5 -24 -2 -58
h-481q0 159 6 233q-27 15 -35 41q2 2 13.5 10.5t12.5 17.5q5 19 -5 51.5t-11 39.5q-2 16 0 59.5t-2 63.5q-1 14 -11.5 39.5t-11.5 35.5q-1 14 2 38.5t2 41.5t-10 29q29 1 88.5 -1.5t86.5 -0.5q3 4 3.5 11t-0.5 18t-1 15z" />
    <glyph glyph-name="ornm18.ornm" horiz-adv-x="925" 
d="M69 111q-6 -1 -8 4.5t3 8.5q41 12 66 34l16 15q17 24 28 52q2 7 6 17.5t6.5 18t3.5 14.5l-2 58q-3 36 -3 41q0 31 11.5 54.5t34.5 39t33 20.5t32 14q69 23 138 23q23 0 69 -4l60 -4q9 0 21 2q6 1 11.5 6.5t9.5 12t8 16t6.5 16l5.5 15t3 9.5q9 32 41 68q1 2 2.5 18t4.5 20
q4 1 15 0t13 -2q3 0 28 -5q12 0 14 -3q2 -1 4.5 -5t5.5 -6q8 -1 12 -6q1 -3 13 -15q8 -8 8 -16q0 -5 25 -21q5 -4 11 -7.5t13 -8l12 -7.5q17 -8 14 -18q-3 -7 -20 -12.5t-27 -5.5q-9 0 -24 3q-40 10 -55 1q-3 -1 -8.5 -13t-6.5 -17q-3 -31 -7 -50q-5 -21 -14.5 -51.5
t-10.5 -36.5q-1 -5 -2.5 -16.5t-3.5 -22t-5 -19.5q-18 -31 -19 -34q-5 -7 -13 -55t-10 -73q-5 -46 -3 -109q0 -8 9.5 -20t17.5 -11q5 0 9 -1.5t5 -2.5l2 -2q2 -2 1.5 -9t-3.5 -8l-4 -2l-20 1l6 -6q1 -2 0 -4l-4 -4h-42q-5 2 -12 15q0 1 -2 9t-4 18t-3 13q-2 4 -6 7t-4 5
t1.5 13t1.5 24q0 2 -3 5t-5 7q-1 3 -1 23v44t-1 34q0 4 -2.5 25.5t-2.5 29.5q-2 8 0.5 15.5t2.5 8.5q-1 3 -3 4t-5 1h-6.5t-8 -0.5t-7.5 -0.5q-49 0 -95 34q-12 9 -26.5 25.5t-25.5 26.5t-22 10q-26 0 -41 -17q-8 -7 -16 -35q-1 -4 -1 -21q-1 -13 -10 -48q-3 -12 -14 -43
q-2 -6 -8.5 -15.5l-11.5 -16.5l-5 -6q-4 -5 -10.5 -11.5t-10.5 -11t-4 -7.5q-3 -4 -5.5 -11.5t-3.5 -12.5l-1 -5q-1 -54 0 -62q0 -6 1.5 -10.5t1.5 -5.5q3 -2 7 -5t7 -5q12 -3 13 -6q2 -12 -4 -14h-26q-7 2 -14 7l-10 9q-1 1 -2.5 16l-3 31.5t-1.5 17.5v4q-1 4 -1.5 9.5
t-0.5 12.5v14t1 13q0 9 -3 9q-2 0 -5 -5t-9 -12t-8 -10q-2 -4 -11.5 -35t-10.5 -39v-41l8 -8q8 -3 8 -10t-7 -12h-19q-8 0 -19 14q-3 6 0 51q0 4 1 14.5t1 18.5q0 22 2 38q-28 -20 -58 -23z" />
    </font>
</defs>
</svg>
