<?xml version="1.0" standalone="no"?>
<!DOCTYPE svg PUBLIC "-//W3C//DTD SVG 1.1//EN" "http://www.w3.org/Graphics/SVG/1.1/DTD/svg11.dtd" >
<svg>
<metadata>
Created by FontForge 20090622 at Wed Dec  9 09:40:42 2015
 By deploy user
Copyright (c) 2012 by Process Type Foundry, LLC. All rights reserved.
</metadata>
<defs>
<font id="Colfax-Medium" horiz-adv-x="276" >
  <font-face 
    font-family="Colfax Medium"
    font-weight="500"
    font-stretch="normal"
    units-per-em="1000"
    panose-1="2 11 3 4 0 0 0 1 0 2"
    ascent="750"
    descent="-250"
    x-height="520"
    cap-height="700"
    bbox="-62 -250 1237 965"
    underline-thickness="72"
    underline-position="-28"
    unicode-range="U+0020-U+FB02"
  />
<missing-glyph horiz-adv-x="686" 
d="M257 220l-44 44l87 86l-87 88l43 43l87 -87l89 87l43 -43l-88 -88l88 -86l-44 -44l-88 87zM107 16h472v668h-472v-668zM90 0v700h506v-700h-506z" />
    <glyph glyph-name=".notdef" horiz-adv-x="686" 
d="M257 220l-44 44l87 86l-87 88l43 43l87 -87l89 87l43 -43l-88 -88l88 -86l-44 -44l-88 87zM107 16h472v668h-472v-668zM90 0v700h506v-700h-506z" />
    <glyph glyph-name=".null" horiz-adv-x="0" 
 />
    <glyph glyph-name="nonmarkingreturn" horiz-adv-x="333" 
 />
    <glyph glyph-name="space" unicode=" " horiz-adv-x="220" 
 />
    <glyph glyph-name="exclam" unicode="!" horiz-adv-x="296" 
d="M110 202l-33 221v277h142v-277l-33 -221h-76zM70 70q0 35 21.5 56.5t56.5 21.5t56.5 -21.5t21.5 -56.5t-21.5 -56.5t-56.5 -21.5t-56.5 21.5t-21.5 56.5z" />
    <glyph glyph-name="quotedbl" unicode="&#x22;" horiz-adv-x="487" 
d="M297 420v280h118v-280h-118zM72 420v280h118v-280h-118z" />
    <glyph glyph-name="numbersign" unicode="#" horiz-adv-x="677" 
d="M385 0l21 192h-162l-21 -192h-104l21 192h-100v92h110l16 143h-105v92h115l20 181h104l-20 -181h162l20 181h104l-20 -181h96v-92h-106l-16 -143h101v-92h-111l-21 -192h-104zM270 427l-16 -143h162l16 143h-162z" />
    <glyph glyph-name="dollar" unicode="$" horiz-adv-x="590" 
d="M233 -110v116q-85 15 -132.5 68t-47.5 134v16h130v-16q0 -50 30.5 -76t86.5 -26q51 0 81.5 24.5t30.5 67.5q0 31 -15.5 50t-49.5 31l-133 48q-80 28 -118 67t-38 112q0 77 46.5 125t124.5 63v116h134v-117q76 -16 120 -65t44 -124v-21h-129v18q0 43 -27 67t-78 24
q-47 0 -74.5 -20.5t-27.5 -58.5q0 -28 16.5 -44t48.5 -28l128 -46q78 -29 119.5 -71t41.5 -116q0 -77 -49 -131t-129 -71v-116h-134z" />
    <glyph glyph-name="percent" unicode="%" horiz-adv-x="884" 
d="M214 0l360 700h101l-360 -700h-101zM373 553v-81q0 -71 -44 -114t-120 -43t-120 43t-44 114v81q0 71 44 114t120 43t120 -43t44 -114zM277 464v97q0 31 -18 49.5t-50 18.5t-50 -18.5t-18 -49.5v-97q0 -31 18 -49.5t50 -18.5t50 18.5t18 49.5zM844 228v-81q0 -71 -44 -114
t-120 -43t-120 43t-44 114v81q0 71 44 114t120 43t120 -43t44 -114zM748 139v97q0 31 -18 49.5t-50 18.5t-50 -18.5t-18 -49.5v-97q0 -31 18 -49.5t50 -18.5t50 18.5t18 49.5z" />
    <glyph glyph-name="ampersand" unicode="&#x26;" horiz-adv-x="688" 
d="M673 68l-80 -82l-70 69q-75 -69 -201 -69q-122 0 -197 60.5t-75 162.5q0 131 124 196q-61 67 -61 138q0 76 54.5 123.5t143.5 47.5q91 0 144 -47t53 -122v-41h-113v40q0 33 -21.5 55t-61.5 22q-38 0 -60.5 -20t-22.5 -55q0 -36 49 -83l221 -221q1 10 1 29v80h108v-85
q0 -60 -20 -114zM328 81q82 0 125 45l-211 211q-72 -50 -72 -127q0 -60 44.5 -94.5t113.5 -34.5z" />
    <glyph glyph-name="quotesingle" unicode="'" horiz-adv-x="262" 
d="M72 420v280h118v-280h-118z" />
    <glyph glyph-name="parenleft" unicode="(" horiz-adv-x="333" 
d="M187 782h131q-59 -137 -86.5 -244.5t-27.5 -213.5t27.5 -213.5t86.5 -244.5h-131q-122 229 -122 458t122 458z" />
    <glyph glyph-name="parenright" unicode=")" horiz-adv-x="333" 
d="M15 782h131q122 -229 122 -458t-122 -458h-131q59 137 86.5 244.5t27.5 213.5t-27.5 213.5t-86.5 244.5z" />
    <glyph glyph-name="asterisk" unicode="*" horiz-adv-x="442" 
d="M84 413l-29 50l108 62l-108 63l29 50l109 -63v125h57v-125l108 63l29 -50l-108 -63l108 -62l-29 -50l-108 62v-124h-57v125z" />
    <glyph glyph-name="plus" unicode="+" horiz-adv-x="602" 
d="M238 118v185h-168v114h168v185h126v-185h168v-114h-168v-185h-126z" />
    <glyph glyph-name="comma" unicode="," horiz-adv-x="250" 
d="M15 -129l50 265h145l-90 -265h-105z" />
    <glyph glyph-name="hyphen" unicode="-" horiz-adv-x="409" 
d="M55 259v122h299v-122h-299z" />
    <glyph glyph-name="period" unicode="." horiz-adv-x="256" 
d="M50 70q0 35 21.5 56.5t56.5 21.5t56.5 -21.5t21.5 -56.5t-21.5 -56.5t-56.5 -21.5t-56.5 21.5t-21.5 56.5z" />
    <glyph glyph-name="slash" unicode="/" horiz-adv-x="474" 
d="M30 -105l282 855h132l-282 -855h-132z" />
    <glyph glyph-name="zero" unicode="0" horiz-adv-x="640" 
d="M320 -14q-120 0 -192 68t-72 176v240q0 108 72 176t192 68t192 -68t72 -176v-240q0 -108 -72 -176t-192 -68zM446 228v244q0 63 -33.5 96t-92.5 33t-92.5 -33t-33.5 -96v-244q0 -63 33.5 -96t92.5 -33t92.5 33t33.5 96z" />
    <glyph glyph-name="one" unicode="1" horiz-adv-x="394" 
d="M174 0v560l-149 -55v122l173 73h114v-700h-138z" />
    <glyph glyph-name="two" unicode="2" horiz-adv-x="602" 
d="M52 0v105l285 280q65 65 65 122q0 43 -28.5 68.5t-73.5 25.5q-50 0 -77 -28t-27 -79v-14h-131v20q0 103 62.5 158.5t171.5 55.5q108 0 174.5 -56.5t66.5 -149.5q0 -48 -23 -93t-46.5 -70t-67.5 -65l-182 -167h315v-113h-484z" />
    <glyph glyph-name="three" unicode="3" horiz-adv-x="611" 
d="M88 590v110h440v-111l-179 -179q90 -4 148.5 -56.5t58.5 -146.5q0 -95 -75.5 -158t-183.5 -63q-106 0 -178 57.5t-74 161.5h128q4 -50 37.5 -79t87.5 -29q55 0 88.5 31t33.5 76q0 47 -31.5 74t-89.5 27h-103v111l164 174h-272z" />
    <glyph glyph-name="four" unicode="4" horiz-adv-x="618" 
d="M365 0v150h-320v102l211 448h125l-202 -444h186v145h127v-145h89v-106h-89v-150h-127z" />
    <glyph glyph-name="five" unicode="5" horiz-adv-x="624" 
d="M307 -14q-97 0 -167.5 52t-83.5 148h131q9 -40 40.5 -64t79.5 -24q60 0 96 36.5t36 93.5q0 55 -35 91t-93 36q-80 0 -116 -61h-127l66 406h375v-110h-266l-29 -168q47 44 132 44q99 0 163.5 -64t64.5 -170q0 -104 -75.5 -175t-191.5 -71z" />
    <glyph glyph-name="six" unicode="6" horiz-adv-x="614" 
d="M298 700h147l-195 -268q33 32 103 32q93 0 156.5 -64t63.5 -170q0 -102 -76 -173t-187 -71q-120 0 -191 68.5t-71 176.5q0 109 74 215zM184 227q0 -58 33.5 -95t93.5 -37q56 0 91.5 38.5t35.5 94.5q0 58 -33.5 94.5t-92.5 36.5q-57 0 -92.5 -37t-35.5 -95z" />
    <glyph glyph-name="seven" unicode="7" horiz-adv-x="548" 
d="M77 0l289 587h-316v113h458v-98l-290 -602h-141z" />
    <glyph glyph-name="eight" unicode="8" horiz-adv-x="634" 
d="M317 -14q-115 0 -187 58t-72 152q0 120 116 169q-88 47 -88 155q0 91 65 142.5t166 51.5t166 -51.5t65 -142.5q0 -108 -88 -155q116 -49 116 -169q0 -94 -72 -152t-187 -58zM317 91q58 0 91.5 27t33.5 78q0 52 -34 80t-91 28t-91 -28t-34 -80q0 -51 33.5 -78t91.5 -27z
M217 510q0 -44 27.5 -72t72.5 -28t72.5 28t27.5 72q0 47 -26.5 73.5t-73.5 26.5t-73.5 -26.5t-26.5 -73.5z" />
    <glyph glyph-name="nine" unicode="9" horiz-adv-x="614" 
d="M322 0h-150l181 264q-28 -28 -92 -28q-93 0 -156.5 64.5t-63.5 169.5q0 107 72.5 175.5t188.5 68.5q119 0 191.5 -67t72.5 -176q0 -108 -58 -194zM430 473q0 58 -34 95t-93 37q-57 0 -92 -37t-35 -96t33.5 -95t92.5 -36q58 0 93 38t35 94z" />
    <glyph glyph-name="colon" unicode=":" horiz-adv-x="256" 
d="M50 382q0 35 21.5 56.5t56.5 21.5t56.5 -21.5t21.5 -56.5t-21.5 -56.5t-56.5 -21.5t-56.5 21.5t-21.5 56.5zM50 70q0 35 21.5 56.5t56.5 21.5t56.5 -21.5t21.5 -56.5t-21.5 -56.5t-56.5 -21.5t-56.5 21.5t-21.5 56.5z" />
    <glyph glyph-name="semicolon" unicode=";" horiz-adv-x="256" 
d="M-2 -129l50 265h145l-90 -265h-105zM45 382q0 35 21.5 56.5t56.5 21.5t56.5 -21.5t21.5 -56.5t-21.5 -56.5t-56.5 -21.5t-56.5 21.5t-21.5 56.5z" />
    <glyph glyph-name="less" unicode="&#x3c;" horiz-adv-x="577" 
d="M50 404l462 208v-124l-300 -128l300 -128v-124l-462 208v88z" />
    <glyph glyph-name="equal" unicode="=" horiz-adv-x="618" 
d="M80 181v110h458v-110h-458zM80 429v110h458v-110h-458z" />
    <glyph glyph-name="greater" unicode="&#x3e;" horiz-adv-x="577" 
d="M65 612l462 -208v-88l-462 -208v124l300 128l-300 128v124z" />
    <glyph glyph-name="question" unicode="?" horiz-adv-x="504" 
d="M177 210v46q0 108 63 155l46 34q32 23 46 40.5t14 44.5q0 34 -26.5 54t-70.5 20q-99 0 -99 -87v-23h-125v25q0 97 61.5 146t165.5 49q102 0 166 -50.5t64 -133.5q0 -91 -78 -148l-51 -37q-31 -23 -43 -43.5t-12 -62.5v-29h-121zM162 70q0 35 21.5 56.5t56.5 21.5
t56.5 -21.5t21.5 -56.5t-21.5 -56.5t-56.5 -21.5t-56.5 21.5t-21.5 56.5z" />
    <glyph glyph-name="at" unicode="@" horiz-adv-x="932" 
d="M566 494h100l-39 -222q-3 -15 -3 -28q0 -35 18 -54.5t49 -19.5q37 0 62 33t34 74.5t9 86.5q0 124 -81.5 199t-223.5 75q-161 0 -255 -103.5t-94 -267.5q0 -137 85 -223t236 -86q95 0 174 21l-10 -76q-79 -23 -175 -23q-183 0 -291.5 110t-108.5 277q0 192 119 319.5
t325 127.5q177 0 283 -98t106 -247q0 -114 -50.5 -193t-147.5 -79q-51 0 -89 22t-48 61q-13 -28 -49.5 -49t-82.5 -21q-68 0 -111.5 44.5t-43.5 114.5q0 19 3 38l6 33q14 75 58 116.5t114 41.5q78 0 113 -57zM373 329l-5 -29q-3 -21 -3 -27q0 -36 19 -58t53 -22t57 23.5
t31 67.5l5 28q2 10 2 24q0 35 -19.5 57t-56.5 22q-68 0 -83 -86z" />
    <glyph glyph-name="A" unicode="A" horiz-adv-x="690" 
d="M416 700l251 -700h-139l-47 147h-272l-47 -147h-139l251 700h142zM345 574l-101 -316h201z" />
    <glyph glyph-name="B" unicode="B" horiz-adv-x="663" 
d="M77 0v700h314q91 0 145.5 -49t54.5 -128q0 -111 -88 -161q57 -12 93.5 -54.5t36.5 -110.5q0 -88 -66 -142.5t-171 -54.5h-319zM213 110h176q50 0 77 25.5t27 70.5q0 44 -28 69.5t-77 25.5h-175v-191zM213 410h147q43 0 67 25.5t24 67.5q0 40 -24.5 63.5t-67.5 23.5h-146
v-180z" />
    <glyph glyph-name="C" unicode="C" horiz-adv-x="706" 
d="M362 -14q-152 0 -229 86.5t-77 227.5v100q0 141 77 227.5t229 86.5q129 0 208.5 -76t84.5 -187h-130q-7 64 -48 106t-115 42q-84 0 -125.5 -52t-41.5 -140v-114q0 -88 41.5 -140t125.5 -52q74 0 115 42t48 106h130q-5 -111 -84.5 -187t-208.5 -76z" />
    <glyph glyph-name="D" unicode="D" horiz-adv-x="703" 
d="M77 700h284q137 0 212 -76t75 -199v-150q0 -123 -75 -199t-212 -76h-284v700zM509 274v152q0 77 -44 118.5t-128 41.5h-121v-472h121q84 0 128 41.5t44 118.5z" />
    <glyph glyph-name="E" unicode="E" horiz-adv-x="618" 
d="M77 0v700h490v-116h-350v-171h320v-117h-320v-180h351v-116h-491z" />
    <glyph glyph-name="F" unicode="F" horiz-adv-x="591" 
d="M77 0v700h479v-116h-339v-185h309v-116h-309v-283h-140z" />
    <glyph glyph-name="G" unicode="G" horiz-adv-x="715" 
d="M652 462h-133q-2 58 -43 97.5t-113 39.5q-83 0 -125.5 -51t-42.5 -141v-110q0 -93 41 -146t128 -53q74 0 116 40t42 100v10h-157v114h294v-91q0 -127 -81.5 -206t-215.5 -79q-149 0 -227.5 88t-78.5 226v102q0 143 80.5 227.5t222.5 84.5q133 0 211.5 -70.5t81.5 -181.5z
" />
    <glyph glyph-name="H" unicode="H" horiz-adv-x="721" 
d="M77 0v700h140v-287h287v287h140v-700h-140v289h-287v-289h-140z" />
    <glyph glyph-name="I" unicode="I" horiz-adv-x="304" 
d="M82 0v700h140v-700h-140z" />
    <glyph glyph-name="J" unicode="J" horiz-adv-x="608" 
d="M283 -14q-114 0 -180.5 59t-66.5 160v10h133v-9q0 -48 30 -76t84 -28t82.5 28t28.5 76v494h140v-494q0 -98 -69.5 -159t-181.5 -61z" />
    <glyph glyph-name="K" unicode="K" horiz-adv-x="651" 
d="M77 0v700h140v-336l247 336h163l-263 -347l271 -353h-165l-253 343v-343h-140z" />
    <glyph glyph-name="L" unicode="L" horiz-adv-x="580" 
d="M77 0v700h140v-584h322v-116h-462z" />
    <glyph glyph-name="M" unicode="M" horiz-adv-x="808" 
d="M731 700v-700h-134v430l-131 -260h-124l-131 260v-430h-134v700h129l198 -400l198 400h129z" />
    <glyph glyph-name="N" unicode="N" horiz-adv-x="729" 
d="M77 0v700h133l305 -466v466h137v-700h-133l-305 466v-466h-137z" />
    <glyph glyph-name="O" unicode="O" horiz-adv-x="736" 
d="M680 401v-102q0 -139 -81 -226t-231 -87q-149 0 -230.5 87t-81.5 226v102q0 139 81.5 226t230.5 87q150 0 231 -87t81 -226zM368 102q85 0 128.5 51.5t43.5 138.5v116q0 87 -43.5 138.5t-128.5 51.5t-128.5 -51.5t-43.5 -138.5v-116q0 -87 43.5 -138.5t128.5 -51.5z" />
    <glyph glyph-name="P" unicode="P" horiz-adv-x="652" 
d="M77 0v700h291q120 0 190 -64.5t70 -170.5t-71.5 -172.5t-188.5 -66.5h-151v-226h-140zM217 341h142q64 0 96.5 34.5t32.5 89.5q0 54 -32.5 87t-96.5 33h-142v-244z" />
    <glyph glyph-name="Q" unicode="Q" horiz-adv-x="736" 
d="M680 401v-102q0 -159 -100 -244l52 -78l-98 -64l-57 87q-51 -14 -109 -14q-149 0 -230.5 87t-81.5 226v102q0 139 81.5 226t230.5 87q150 0 231 -87t81 -226zM368 102q22 0 40 3l-55 85l97 60l56 -84q34 47 34 126v116q0 87 -43.5 138.5t-128.5 51.5t-128.5 -51.5
t-43.5 -138.5v-116q0 -87 43.5 -138.5t128.5 -51.5z" />
    <glyph glyph-name="R" unicode="R" horiz-adv-x="698" 
d="M492 0l-128 224h-147v-224h-140v700h316q120 0 186.5 -66t66.5 -172q0 -74 -36.5 -131t-101.5 -85l146 -246h-162zM217 337h159q63 0 96.5 34.5t33.5 91.5t-33.5 90t-96.5 33h-159v-249z" />
    <glyph glyph-name="S" unicode="S" horiz-adv-x="654" 
d="M329 -14q-125 0 -199.5 57.5t-74.5 159.5v18h134v-15q0 -50 38 -81t107 -31q63 0 100 27t37 75q0 62 -66 79l-183 47q-81 21 -118.5 62.5t-37.5 118.5q0 98 69.5 154.5t187.5 56.5q115 0 184 -58t69 -151v-17h-129v14q0 47 -31 75.5t-93 28.5q-57 0 -89.5 -23t-32.5 -68
q0 -59 60 -74l192 -51q153 -40 153 -183q0 -99 -78.5 -160t-198.5 -61z" />
    <glyph glyph-name="T" unicode="T" horiz-adv-x="588" 
d="M224 0v584h-198v116h536v-116h-198v-584h-140z" />
    <glyph glyph-name="U" unicode="U" horiz-adv-x="720" 
d="M360 -14q-134 0 -211 73t-77 193v448h139v-454q0 -68 40.5 -106t108.5 -38t108 38t40 106v454h140v-448q0 -120 -77 -193t-211 -73z" />
    <glyph glyph-name="V" unicode="V" horiz-adv-x="666" 
d="M644 700l-232 -700h-158l-232 700h143l168 -547l168 547h143z" />
    <glyph glyph-name="W" unicode="W" horiz-adv-x="966" 
d="M551 700l146 -506l101 506h138l-165 -700h-135l-153 539l-153 -539h-135l-165 700h138l101 -506l146 506h136z" />
    <glyph glyph-name="X" unicode="X" horiz-adv-x="668" 
d="M406 357l232 -357h-147l-157 245l-157 -245h-147l232 357l-222 343h144l150 -233l150 233h144z" />
    <glyph glyph-name="Y" unicode="Y" horiz-adv-x="636" 
d="M388 252v-252h-140v252l-240 448h152l158 -312l158 312h152z" />
    <glyph glyph-name="Z" unicode="Z" horiz-adv-x="624" 
d="M55 0v116l351 468h-336v116h493v-116l-351 -468h360v-116h-517z" />
    <glyph glyph-name="bracketleft" unicode="[" horiz-adv-x="382" 
d="M75 -134v916h282v-112h-146v-692h146v-112h-282z" />
    <glyph glyph-name="backslash" unicode="\" horiz-adv-x="474" 
d="M162 750l282 -855h-132l-282 855h132z" />
    <glyph glyph-name="bracketright" unicode="]" horiz-adv-x="382" 
d="M307 782v-916h-282v112h146v692h-146v112h282z" />
    <glyph glyph-name="asciicircum" unicode="^" horiz-adv-x="532" 
d="M324 700l168 -286h-131l-95 175l-95 -175h-131l168 286h116z" />
    <glyph glyph-name="underscore" unicode="_" horiz-adv-x="518" 
d="M-1 -136v72h520v-72h-520z" />
    <glyph glyph-name="grave" unicode="`" horiz-adv-x="395" 
d="M181 579l-104 154h168l73 -154h-137z" />
    <glyph glyph-name="a" unicode="a" horiz-adv-x="585" 
d="M242 -12q-89 0 -143 43.5t-54 118.5q0 82 56.5 123.5t153.5 41.5q79 0 132 -44v71q0 37 -24.5 60.5t-65.5 23.5q-65 0 -90 -49h-126q22 75 80 115t143 40q98 0 158.5 -55t60.5 -145v-332h-131v48q-18 -26 -61 -43t-89 -17zM277 78q45 0 77.5 22t32.5 55q0 34 -29.5 53.5
t-76.5 19.5q-49 0 -76.5 -19t-27.5 -55q0 -35 28 -55.5t72 -20.5z" />
    <glyph glyph-name="b" unicode="b" horiz-adv-x="614" 
d="M351 -12q-54 0 -94.5 20.5t-59.5 53.5v-62h-130v730h136v-268q50 70 149 70q101 0 159.5 -65.5t58.5 -163.5v-86q0 -97 -59 -163t-160 -66zM318 98q57 0 86.5 35t29.5 90v74q0 56 -30.5 90.5t-86.5 34.5q-49 0 -81.5 -33t-32.5 -90v-76q0 -55 32 -90t83 -35z" />
    <glyph glyph-name="c" unicode="c" horiz-adv-x="571" 
d="M290 -12q-115 0 -180.5 65t-65.5 170v74q0 105 65.5 170t180.5 65q103 0 168.5 -58t68.5 -148h-124q-5 42 -32 69t-78 27q-56 0 -84.5 -32.5t-28.5 -87.5v-84q0 -55 28.5 -87.5t84.5 -32.5q51 0 78 27t32 69h124q-3 -90 -68.5 -148t-168.5 -58z" />
    <glyph glyph-name="d" unicode="d" horiz-adv-x="614" 
d="M263 -12q-101 0 -160 66t-59 163v86q0 98 58.5 163.5t159.5 65.5q98 0 149 -68v266h136v-730h-130v62q-21 -32 -61 -53t-93 -21zM296 98q51 0 83 35t32 90v76q0 57 -32.5 90t-81.5 33q-56 0 -86.5 -34.5t-30.5 -90.5v-74q0 -55 29.5 -90t86.5 -35z" />
    <glyph glyph-name="e" unicode="e" horiz-adv-x="560" 
d="M286 -12q-111 0 -176.5 61.5t-65.5 170.5v71q0 109 63 175t177 66q111 0 171.5 -64.5t60.5 -163.5v-91h-340v-13q0 -50 27 -82t83 -32q41 0 69 18.5t38 47.5h119q-14 -72 -77 -118t-149 -46zM176 314v-5h215v13q0 51 -27 82.5t-80 31.5q-56 0 -82 -33t-26 -89z" />
    <glyph glyph-name="f" unicode="f" horiz-adv-x="363" 
d="M97 0v410h-66v110h66v48q0 84 40 123t121 39h90v-108h-59q-30 0 -43 -11.5t-13 -41.5v-49h105v-110h-105v-410h-136z" />
    <glyph glyph-name="g" unicode="g" horiz-adv-x="610" 
d="M294 -186q-94 0 -161.5 41.5t-82.5 113.5h132q26 -52 112 -52q52 0 82.5 26t30.5 70v82q-18 -29 -59.5 -50t-89.5 -21q-100 0 -157 62.5t-57 153.5v76q0 92 56.5 154t158.5 62q56 0 97.5 -23t56.5 -52v63h130v-509q0 -84 -70.5 -140.5t-178.5 -56.5zM290 133
q50 0 83.5 30.5t33.5 83.5v60q0 52 -32 84t-81 32q-56 0 -85.5 -31t-29.5 -85v-60q0 -51 28.5 -82.5t82.5 -31.5z" />
    <glyph glyph-name="h" unicode="h" horiz-adv-x="596" 
d="M67 0v730h136v-272q21 34 59.5 54t87.5 20q85 0 134.5 -53.5t49.5 -145.5v-333h-136v311q0 47 -23.5 75t-71.5 28q-47 0 -73.5 -27t-26.5 -79v-308h-136z" />
    <glyph glyph-name="i" unicode="i" 
d="M70 0v520h136v-520h-136zM59 656q0 34 22.5 56.5t56.5 22.5t56.5 -22.5t22.5 -56.5t-22.5 -56.5t-56.5 -22.5t-56.5 22.5t-22.5 56.5z" />
    <glyph glyph-name="j" unicode="j" 
d="M-1 -174v105h31q21 0 30.5 7.5t9.5 26.5v555h136v-567q0 -127 -135 -127h-72zM59 656q0 34 22.5 56.5t56.5 22.5t56.5 -22.5t22.5 -56.5t-22.5 -56.5t-56.5 -22.5t-56.5 22.5t-22.5 56.5z" />
    <glyph glyph-name="k" unicode="k" horiz-adv-x="544" 
d="M67 0v730h136v-452l165 242h155l-179 -254l185 -266h-155l-171 254v-254h-136z" />
    <glyph glyph-name="l" unicode="l" 
d="M70 0v730h136v-730h-136z" />
    <glyph glyph-name="m" unicode="m" horiz-adv-x="917" 
d="M67 0v520h130v-62q40 74 150 74q101 0 150 -74q57 74 172 74q83 0 134.5 -53.5t51.5 -145.5v-333h-136v311q0 103 -93 103q-46 0 -71.5 -27t-25.5 -79v-308h-136v311q0 103 -93 103q-46 0 -71.5 -27t-25.5 -79v-308h-136z" />
    <glyph glyph-name="n" unicode="n" horiz-adv-x="596" 
d="M67 0v520h130v-62q40 74 153 74q85 0 134.5 -53t49.5 -146v-333h-136v311q0 47 -23.5 75t-71.5 28q-47 0 -73.5 -27t-26.5 -79v-308h-136z" />
    <glyph glyph-name="o" unicode="o" horiz-adv-x="578" 
d="M289 -12q-114 0 -179.5 66t-65.5 169v74q0 103 65.5 169t179.5 66t179.5 -66t65.5 -169v-74q0 -103 -65.5 -169t-179.5 -66zM402 214v92q0 53 -28.5 86t-84.5 33t-84.5 -33t-28.5 -86v-92q0 -53 28.5 -86t84.5 -33t84.5 33t28.5 86z" />
    <glyph glyph-name="p" unicode="p" horiz-adv-x="614" 
d="M351 532q103 0 161 -66t58 -163v-86q0 -98 -58.5 -163.5t-159.5 -65.5q-103 0 -149 68v-230h-136v694h130v-62q21 32 61 53t93 21zM318 422q-51 0 -83 -35t-32 -90v-76q0 -57 32.5 -90t81.5 -33q56 0 86.5 34.5t30.5 90.5v74q0 55 -29.5 90t-86.5 35z" />
    <glyph glyph-name="q" unicode="q" horiz-adv-x="614" 
d="M263 532q54 0 94.5 -20.5t59.5 -53.5v62h130v-694h-136v229q-18 -28 -58.5 -47.5t-90.5 -19.5q-101 0 -159.5 65.5t-58.5 163.5v86q0 97 59 163t160 66zM296 422q-57 0 -86.5 -35t-29.5 -90v-74q0 -56 30.5 -90.5t86.5 -34.5q49 0 81.5 33t32.5 90v76q0 55 -32 90t-83 35
z" />
    <glyph glyph-name="r" unicode="r" horiz-adv-x="394" 
d="M67 0v520h129v-101q23 105 156 105h16v-135h-28q-137 0 -137 -149v-240h-136z" />
    <glyph glyph-name="s" unicode="s" horiz-adv-x="531" 
d="M269 -12q-102 0 -163 42.5t-61 123.5v9h120v-7q0 -34 28.5 -53t76.5 -19q44 0 71.5 17t27.5 46q0 37 -43 47l-154 35q-119 27 -119 137q0 79 57.5 122.5t152.5 43.5q94 0 150 -44.5t56 -121.5v-8h-119v9q0 68 -85 68t-85 -57q0 -35 40 -44l158 -39q116 -29 116 -133
q0 -76 -64 -125t-161 -49z" />
    <glyph glyph-name="t" unicode="t" horiz-adv-x="384" 
d="M248 0q-73 0 -110 38.5t-37 109.5v262h-74v110h74v142h137v-142h111v-110h-111v-252q0 -26 11 -37t38 -11h55v-110h-94z" />
    <glyph glyph-name="u" unicode="u" horiz-adv-x="592" 
d="M525 520v-520h-130v62q-18 -33 -59.5 -53.5t-91.5 -20.5q-86 0 -134 54.5t-48 144.5v333h136v-314q0 -104 92 -104q47 0 73 28t26 77v313h136z" />
    <glyph glyph-name="v" unicode="v" horiz-adv-x="518" 
d="M507 520l-177 -520h-142l-177 520h136l112 -381l112 381h136z" />
    <glyph glyph-name="w" unicode="w" horiz-adv-x="788" 
d="M770 520l-135 -520h-127l-114 358l-114 -358h-127l-135 520h132l76 -349l106 349h124l106 -349l76 349h132z" />
    <glyph glyph-name="x" unicode="x" horiz-adv-x="540" 
d="M339 264l182 -264h-143l-108 162l-108 -162h-143l182 264l-175 256h141l103 -154l103 154h141z" />
    <glyph glyph-name="y" unicode="y" horiz-adv-x="511" 
d="M273 -174h-134l52 176l-180 518h136l112 -373l106 373h135z" />
    <glyph glyph-name="z" unicode="z" horiz-adv-x="505" 
d="M45 0v98l257 317h-245v105h402v-98l-257 -317h263v-105h-420z" />
    <glyph glyph-name="braceleft" unicode="{" horiz-adv-x="422" 
d="M25 379h31q83 0 83 81v142q0 90 45 134.5t142 44.5h76v-112h-49q-42 0 -60 -17.5t-18 -58.5v-145q0 -110 -102 -125q102 -15 102 -125v-145q0 -41 18 -58.5t60 -17.5h49v-112h-76q-97 0 -142 44.5t-45 134.5v142q0 81 -83 81h-31v112z" />
    <glyph glyph-name="bar" unicode="|" horiz-adv-x="330" 
d="M107 -150v950h116v-950h-116z" />
    <glyph glyph-name="braceright" unicode="}" horiz-adv-x="422" 
d="M366 379h31v-112h-31q-83 0 -83 -81v-142q0 -90 -45 -134.5t-142 -44.5h-76v112h49q42 0 60 17.5t18 58.5v145q0 110 102 125q-102 15 -102 125v145q0 41 -18 58.5t-60 17.5h-49v112h76q97 0 142 -44.5t45 -134.5v-142q0 -81 83 -81z" />
    <glyph glyph-name="asciitilde" unicode="~" horiz-adv-x="642" 
d="M50 280q15 90 53 135.5t109 45.5q39 0 116 -35.5t94 -35.5q8 0 14 1.5t11 6.5l8.5 8.5t7.5 12t5.5 12.5l5.5 15t5 15l116 -40q-20 -74 -54 -118t-97 -44q-35 0 -112 35.5t-100 35.5q-29 0 -41 -18.5t-22 -59.5z" />
    <glyph glyph-name="uni00A0" unicode="&#xa0;" horiz-adv-x="220" 
 />
    <glyph glyph-name="exclamdown" unicode="&#xa1;" horiz-adv-x="296" 
d="M186 498l33 -221v-277h-142v277l33 221h76zM226 630q0 -35 -21.5 -56.5t-56.5 -21.5t-56.5 21.5t-21.5 56.5t21.5 56.5t56.5 21.5t56.5 -21.5t21.5 -56.5z" />
    <glyph glyph-name="cent" unicode="&#xa2;" horiz-adv-x="580" 
d="M189 379v-58q0 -53 27 -82.5t78 -29.5q45 0 71.5 23t30.5 58h126q-3 -66 -46.5 -116.5t-115.5 -67.5v-106h-136v106q-78 18 -122.5 75t-44.5 140v58q0 83 45 141t122 73v107h136v-107q71 -13 115 -64.5t47 -118.5h-126q-4 35 -30.5 58t-71.5 23q-51 0 -78 -29.5
t-27 -82.5z" />
    <glyph glyph-name="sterling" unicode="&#xa3;" horiz-adv-x="672" 
d="M64 0v110h115v168h-101v110h101v118q0 101 61 154.5t163 53.5q104 0 163 -55t59 -147v-20h-126v21q0 40 -23 64.5t-68 24.5q-93 0 -93 -94v-120h188v-110h-188v-168h267v-110h-518z" />
    <glyph glyph-name="currency" unicode="&#xa4;" horiz-adv-x="622" 
d="M511 372v-49q0 -60 -33 -106l84 -132h-136l-41 67q-36 -11 -74 -11q-39 0 -74 11l-41 -67h-136l84 132q-33 46 -33 106v49q0 59 33 106l-84 132h136l41 -67q35 11 74 11q38 0 74 -11l41 67h136l-84 -132q33 -47 33 -106zM395 316v63q0 35 -22 57.5t-62 22.5t-62 -22.5
t-22 -57.5v-63q0 -35 22 -57.5t62 -22.5t62 22.5t22 57.5z" />
    <glyph glyph-name="yen" unicode="&#xa5;" horiz-adv-x="608" 
d="M70 327v101h90l-120 272h147l117 -309l117 309h147l-120 -272h90v-101h-135l-31 -71v-19h166v-101h-166v-136h-136v136h-166v101h166v19l-32 71h-134z" />
    <glyph glyph-name="brokenbar" unicode="&#xa6;" horiz-adv-x="330" 
d="M107 -150v388h116v-388h-116zM107 412v388h116v-388h-116z" />
    <glyph glyph-name="section" unicode="&#xa7;" horiz-adv-x="618" 
d="M306 -136q-101 0 -163 48t-62 132v14h119v-9q0 -39 27.5 -62.5t78.5 -23.5q44 0 71.5 18t27.5 51q0 25 -13.5 38.5t-42.5 23.5l-163 57q-126 44 -126 154q0 78 69 137q-34 36 -34 97q0 82 59.5 128.5t158.5 46.5q106 0 164 -48t58 -133v-12h-117v13q0 38 -25.5 59.5
t-76.5 21.5q-97 0 -97 -68q0 -25 13 -38.5t43 -24.5l159 -58q66 -24 97.5 -59.5t31.5 -93.5q0 -75 -64 -141q30 -36 30 -93q0 -75 -61.5 -125t-161.5 -50zM238 250l171 -62q30 35 30 72q0 45 -56 67l-165 61q-34 -36 -34 -70q0 -48 54 -68z" />
    <glyph glyph-name="dieresis" unicode="&#xa8;" horiz-adv-x="504" 
d="M74 655q0 31 21 52t52 21t52 -21t21 -52t-21 -52t-52 -21t-52 21t-21 52zM284 655q0 31 21 52t52 21t52 -21t21 -52t-21 -52t-52 -21t-52 21t-21 52z" />
    <glyph glyph-name="copyright" unicode="&#xa9;" horiz-adv-x="826" 
d="M413 24q144 0 233 96t89 230t-89 230t-233 96t-233 -96t-89 -230t89 -230t233 -96zM413 -12q-160 0 -261.5 105t-101.5 257t101.5 257t261.5 105t261.5 -104.5t101.5 -257.5t-101.5 -257.5t-261.5 -104.5zM415 169q-75 0 -115 44.5t-40 110.5v52q0 66 40 110.5t115 44.5
q63 0 104 -38t45 -94h-72q-11 67 -77 67q-40 0 -59.5 -25t-19.5 -65v-52q0 -40 19.5 -65t59.5 -25q66 0 77 67h72q-4 -56 -45 -94t-104 -38z" />
    <glyph glyph-name="ordfeminine" unicode="&#xaa;" horiz-adv-x="428" 
d="M56 229v80h316v-80h-316zM364 370h-87v30q-12 -15 -40 -26.5t-62 -11.5q-50 0 -84 30.5t-34 76.5q0 49 34.5 77t89.5 28q61 0 91 -30v41q0 21 -14 35t-38 14q-39 0 -54 -30h-88q13 52 51 79t95 27q62 0 101 -37.5t39 -95.5v-207zM208 426q27 0 45.5 11.5t18.5 32.5
t-17.5 32.5t-43.5 11.5q-64 0 -64 -44q0 -21 17 -32.5t44 -11.5z" />
    <glyph glyph-name="guillemotleft" unicode="&#xab;" horiz-adv-x="635" 
d="M173 60l-163 216l163 216h153l-162 -216l162 -216h-153zM452 60l-163 216l163 216h153l-162 -216l162 -216h-153z" />
    <glyph glyph-name="logicalnot" unicode="&#xac;" horiz-adv-x="582" 
d="M385 118v185h-335v114h462v-299h-127z" />
    <glyph glyph-name="registered" unicode="&#xae;" horiz-adv-x="534" 
d="M267 280q-100 0 -161 63.5t-61 152.5q0 90 60.5 153t161.5 63t161.5 -63t60.5 -153q0 -89 -61 -152.5t-161 -63.5zM267 310q83 0 135 53.5t52 132.5q0 80 -52 133t-135 53t-135 -53t-52 -133q0 -79 52 -132.5t135 -53.5zM305 407l-31 60h-34v-60h-44v192h88q33 0 51 -18
t18 -48q0 -41 -35 -59l38 -67h-51zM240 502h35q34 0 34 31q0 30 -34 30h-35v-61z" />
    <glyph glyph-name="macron" unicode="&#xaf;" horiz-adv-x="494" 
d="M77 599v107h340v-107h-340z" />
    <glyph glyph-name="degree" unicode="&#xb0;" horiz-adv-x="404" 
d="M202 460q42 0 65 26.5t23 67.5t-23 67.5t-65 26.5t-65 -26.5t-23 -67.5t23 -67.5t65 -26.5zM202 398q-71 0 -114 45t-43 111t43 111t114 45t114 -45t43 -111t-43 -111t-114 -45z" />
    <glyph glyph-name="plusminus" unicode="&#xb1;" horiz-adv-x="612" 
d="M75 0v107h168v180h-168v114h168v185h126v-185h168v-114h-168v-180h168v-107h-462z" />
    <glyph glyph-name="twosuperior" unicode="&#xb2;" horiz-adv-x="403" 
d="M55 460v71l165 140q32 27 32 52q0 20 -14 31.5t-37 11.5q-53 0 -53 -48v-5h-88v8q0 59 38.5 92t103.5 33q64 0 105 -33.5t41 -87.5q0 -37 -19.5 -63.5t-56.5 -55.5l-88 -68h161v-78h-290z" />
    <glyph glyph-name="threesuperior" unicode="&#xb3;" horiz-adv-x="403" 
d="M78 765v72h250v-72l-89 -78q49 -2 79 -30.5t30 -76.5q0 -55 -44.5 -91t-108.5 -36q-62 0 -103 33t-42 91h84q2 -22 18.5 -37t43.5 -15q28 0 44.5 14t16.5 37q0 45 -61 45h-62v67l79 77h-135z" />
    <glyph glyph-name="acute" unicode="&#xb4;" horiz-adv-x="395" 
d="M77 579l73 154h168l-106 -154h-135z" />
    <glyph glyph-name="mu" unicode="&#xb5;" horiz-adv-x="592" 
d="M525 520v-520h-130v62q-48 -74 -150 -74q-31 0 -47 9v-171h-136v694h136v-314q0 -104 92 -104q47 0 73 28t26 77v313h136z" />
    <glyph glyph-name="paragraph" unicode="&#xb6;" horiz-adv-x="613" 
d="M437 -174v792h-105v-457q-126 0 -204.5 70.5t-78.5 197.5q0 129 75.5 200t207.5 71h198v-874h-93z" />
    <glyph glyph-name="periodcentered" unicode="&#xb7;" horiz-adv-x="256" 
d="M50 286q0 35 21.5 56.5t56.5 21.5t56.5 -21.5t21.5 -56.5t-21.5 -56.5t-56.5 -21.5t-56.5 21.5t-21.5 56.5z" />
    <glyph glyph-name="cedilla" unicode="&#xb8;" horiz-adv-x="338" 
d="M148 -186q-44 0 -71 6v55q23 -5 47 -5q40 0 40 22q0 20 -37 23l-36 3l19 82h65l-7 -36l16 -2q77 -10 77 -69q0 -36 -30 -57.5t-83 -21.5z" />
    <glyph glyph-name="onesuperior" unicode="&#xb9;" horiz-adv-x="311" 
d="M130 460v282l-90 -25v83l106 37h80v-377h-96z" />
    <glyph glyph-name="ordmasculine" unicode="&#xba;" horiz-adv-x="432" 
d="M67 229v80h300v-80h-300zM216 710q75 0 117.5 -42t42.5 -110v-44q0 -68 -42.5 -110t-117.5 -42t-117.5 42t-42.5 110v44q0 68 42.5 110t117.5 42zM288 512v48q0 77 -72 77t-72 -77v-48q0 -77 72 -77t72 77z" />
    <glyph glyph-name="guillemotright" unicode="&#xbb;" horiz-adv-x="635" 
d="M625 276l-163 -216h-153l162 216l-162 216h153zM346 276l-163 -216h-153l162 216l-162 216h153z" />
    <glyph glyph-name="onequarter" unicode="&#xbc;" horiz-adv-x="833" 
d="M640 0v73h-189v69l120 235h90l-114 -231h93v73h89v-73h49v-73h-49v-73h-89zM145 323v282l-90 -25v83l106 37h80v-377h-96zM165 0l360 700h101l-360 -700h-101z" />
    <glyph glyph-name="onehalf" unicode="&#xbd;" horiz-adv-x="844" 
d="M496 0v71l165 140q32 27 32 52q0 20 -14 31.5t-37 11.5q-53 0 -53 -48v-5h-88v8q0 59 38.5 92t103.5 33q64 0 105 -33.5t41 -87.5q0 -37 -19.5 -63.5t-56.5 -55.5l-88 -68h161v-78h-290zM145 323v282l-90 -25v83l106 37h80v-377h-96zM165 0l360 700h101l-360 -700h-101z
" />
    <glyph glyph-name="threequarters" unicode="&#xbe;" horiz-adv-x="880" 
d="M83 628v72h250v-72l-89 -78q49 -2 79 -30.5t30 -76.5q0 -55 -44.5 -91t-108.5 -36q-62 0 -103 33t-42 91h84q2 -22 18.5 -37t43.5 -15q28 0 44.5 14t16.5 37q0 45 -61 45h-62v67l79 77h-135zM687 0v73h-189v69l120 235h90l-114 -231h93v73h89v-73h49v-73h-49v-73h-89z
M212 0l360 700h101l-360 -700h-101z" />
    <glyph glyph-name="questiondown" unicode="&#xbf;" horiz-adv-x="504" 
d="M327 490v-46q0 -108 -63 -155l-46 -34q-32 -23 -46 -40.5t-14 -44.5q0 -34 26.5 -54t70.5 -20q99 0 99 87v23h125v-25q0 -97 -61.5 -146t-165.5 -49q-102 0 -166 50.5t-64 133.5q0 91 78 148l51 37q31 23 43 43.5t12 62.5v29h121zM342 630q0 -35 -21.5 -56.5t-56.5 -21.5
t-56.5 21.5t-21.5 56.5t21.5 56.5t56.5 21.5t56.5 -21.5t21.5 -56.5z" />
    <glyph glyph-name="Agrave" unicode="&#xc0;" horiz-adv-x="690" 
d="M416 700l251 -700h-139l-47 147h-272l-47 -147h-139l251 700h142zM345 574l-101 -316h201zM271 753l-98 141h167l69 -141h-138z" />
    <glyph glyph-name="Aacute" unicode="&#xc1;" horiz-adv-x="690" 
d="M416 700l251 -700h-139l-47 147h-272l-47 -147h-139l251 700h142zM345 574l-101 -316h201zM286 753l69 141h167l-98 -141h-138z" />
    <glyph glyph-name="Acircumflex" unicode="&#xc2;" horiz-adv-x="690" 
d="M416 700l251 -700h-139l-47 147h-272l-47 -147h-139l251 700h142zM345 574l-101 -316h201zM412 894l118 -141h-131l-54 67l-54 -67h-131l118 141h134z" />
    <glyph glyph-name="Atilde" unicode="&#xc3;" horiz-adv-x="690" 
d="M416 700l251 -700h-139l-47 147h-272l-47 -147h-139l251 700h142zM345 574l-101 -316h201zM223 749l-90 20q13 68 38.5 99t81.5 31q36 0 104.5 -21t79.5 -21q5 0 10 1.5t8 2.5t6.5 5t5 6t4 8t3.5 7.5t3.5 8.5t2.5 8l89 -25q-20 -68 -43 -96.5t-75 -28.5q-24 0 -93 21
t-92 21q-31 0 -43 -47z" />
    <glyph glyph-name="Adieresis" unicode="&#xc4;" horiz-adv-x="690" 
d="M416 700l251 -700h-139l-47 147h-272l-47 -147h-139l251 700h142zM345 574l-101 -316h201zM160 826q0 32 21 52.5t52 20.5t52 -20.5t21 -52.5t-21 -52.5t-52 -20.5t-52 20.5t-21 52.5zM384 826q0 32 21 52.5t52 20.5t52 -20.5t21 -52.5t-21 -52.5t-52 -20.5t-52 20.5
t-21 52.5z" />
    <glyph glyph-name="Aring" unicode="&#xc5;" horiz-adv-x="690" 
d="M162 0h-139l243 678q-27 26 -27 65t29.5 65.5t76.5 26.5q48 0 77 -26.5t29 -65.5q0 -38 -27 -65l243 -678h-139l-47 147h-272zM345 574l-101 -316h201zM345 700q21 0 33.5 12t12.5 31t-12.5 30.5t-33.5 11.5t-33.5 -11.5t-12.5 -30.5t12.5 -31t33.5 -12z" />
    <glyph glyph-name="AE" unicode="&#xc6;" horiz-adv-x="1068" 
d="M527 0v148h-282l-95 -148h-150l469 700h548v-116h-350v-171h320v-117h-320v-180h351v-116h-491zM317 260h210v326z" />
    <glyph glyph-name="Ccedilla" unicode="&#xc7;" horiz-adv-x="706" 
d="M359 -186q-44 0 -71 6v55q23 -5 47 -5q40 0 40 22q0 20 -37 23l-36 3l16 70q-130 12 -196 97t-66 215v100q0 141 77 227.5t229 86.5q129 0 208.5 -76t84.5 -187h-130q-7 64 -48 106t-115 42q-84 0 -125.5 -52t-41.5 -140v-114q0 -88 41.5 -140t125.5 -52q74 0 115 42
t48 106h130q-5 -106 -79 -180.5t-193 -81.5l-4 -23l16 -2q77 -10 77 -69q0 -36 -30 -57.5t-83 -21.5z" />
    <glyph glyph-name="Egrave" unicode="&#xc8;" horiz-adv-x="618" 
d="M77 0v700h490v-116h-350v-171h320v-117h-320v-180h351v-116h-491zM270 753l-98 141h167l69 -141h-138z" />
    <glyph glyph-name="Eacute" unicode="&#xc9;" horiz-adv-x="618" 
d="M77 0v700h490v-116h-350v-171h320v-117h-320v-180h351v-116h-491zM247 753l69 141h167l-98 -141h-138z" />
    <glyph glyph-name="Ecircumflex" unicode="&#xca;" horiz-adv-x="618" 
d="M77 0v700h490v-116h-350v-171h320v-117h-320v-180h351v-116h-491zM394 894l118 -141h-131l-54 67l-54 -67h-131l118 141h134z" />
    <glyph glyph-name="Edieresis" unicode="&#xcb;" horiz-adv-x="618" 
d="M77 0v700h490v-116h-350v-171h320v-117h-320v-180h351v-116h-491zM144 826q0 32 21 52.5t52 20.5t52 -20.5t21 -52.5t-21 -52.5t-52 -20.5t-52 20.5t-21 52.5zM368 826q0 32 21 52.5t52 20.5t52 -20.5t21 -52.5t-21 -52.5t-52 -20.5t-52 20.5t-21 52.5z" />
    <glyph glyph-name="Igrave" unicode="&#xcc;" horiz-adv-x="304" 
d="M82 0v700h140v-700h-140zM84 753l-98 141h167l69 -141h-138z" />
    <glyph glyph-name="Iacute" unicode="&#xcd;" horiz-adv-x="304" 
d="M82 0v700h140v-700h-140zM90 753l69 141h167l-98 -141h-138z" />
    <glyph glyph-name="Icircumflex" unicode="&#xce;" horiz-adv-x="304" 
d="M82 0v700h140v-700h-140zM219 894l118 -141h-131l-54 67l-54 -67h-131l118 141h134z" />
    <glyph glyph-name="Idieresis" unicode="&#xcf;" horiz-adv-x="304" 
d="M82 0v700h140v-700h-140zM-33 826q0 32 20.5 52.5t52.5 20.5t52.5 -20.5t20.5 -52.5t-20.5 -52.5t-52.5 -20.5t-52.5 20.5t-20.5 52.5zM191 826q0 32 20.5 52.5t52.5 20.5t52.5 -20.5t20.5 -52.5t-20.5 -52.5t-52.5 -20.5t-52.5 20.5t-20.5 52.5z" />
    <glyph glyph-name="Eth" unicode="&#xd0;" horiz-adv-x="739" 
d="M33 292v116h75v292h284q137 0 212 -76t75 -199v-150q0 -123 -75 -199t-212 -76h-284v292h-75zM540 274v152q0 77 -44 118.5t-128 41.5h-121v-178h152v-116h-152v-178h121q84 0 128 41.5t44 118.5z" />
    <glyph glyph-name="Ntilde" unicode="&#xd1;" horiz-adv-x="729" 
d="M77 0v700h133l305 -466v466h137v-700h-133l-305 466v-466h-137zM237 749l-90 20q13 68 38.5 99t81.5 31q36 0 104.5 -21t79.5 -21q5 0 10 1.5t8 2.5t6.5 5t5 6t4 8t3.5 7.5t3.5 8.5t2.5 8l89 -25q-20 -68 -43 -96.5t-75 -28.5q-24 0 -93 21t-92 21q-31 0 -43 -47z" />
    <glyph glyph-name="Ograve" unicode="&#xd2;" horiz-adv-x="736" 
d="M680 401v-102q0 -139 -81 -226t-231 -87q-149 0 -230.5 87t-81.5 226v102q0 139 81.5 226t230.5 87q150 0 231 -87t81 -226zM368 102q85 0 128.5 51.5t43.5 138.5v116q0 87 -43.5 138.5t-128.5 51.5t-128.5 -51.5t-43.5 -138.5v-116q0 -87 43.5 -138.5t128.5 -51.5z
M304 753l-98 141h167l69 -141h-138z" />
    <glyph glyph-name="Oacute" unicode="&#xd3;" horiz-adv-x="736" 
d="M680 401v-102q0 -139 -81 -226t-231 -87q-149 0 -230.5 87t-81.5 226v102q0 139 81.5 226t230.5 87q150 0 231 -87t81 -226zM368 102q85 0 128.5 51.5t43.5 138.5v116q0 87 -43.5 138.5t-128.5 51.5t-128.5 -51.5t-43.5 -138.5v-116q0 -87 43.5 -138.5t128.5 -51.5z
M303 753l69 141h167l-98 -141h-138z" />
    <glyph glyph-name="Ocircumflex" unicode="&#xd4;" horiz-adv-x="736" 
d="M680 401v-102q0 -139 -81 -226t-231 -87q-149 0 -230.5 87t-81.5 226v102q0 139 81.5 226t230.5 87q150 0 231 -87t81 -226zM368 102q85 0 128.5 51.5t43.5 138.5v116q0 87 -43.5 138.5t-128.5 51.5t-128.5 -51.5t-43.5 -138.5v-116q0 -87 43.5 -138.5t128.5 -51.5z
M435 894l118 -141h-131l-54 67l-54 -67h-131l118 141h134z" />
    <glyph glyph-name="Otilde" unicode="&#xd5;" horiz-adv-x="736" 
d="M680 401v-102q0 -139 -81 -226t-231 -87q-149 0 -230.5 87t-81.5 226v102q0 139 81.5 226t230.5 87q150 0 231 -87t81 -226zM368 102q85 0 128.5 51.5t43.5 138.5v116q0 87 -43.5 138.5t-128.5 51.5t-128.5 -51.5t-43.5 -138.5v-116q0 -87 43.5 -138.5t128.5 -51.5z
M246 749l-90 20q13 68 38.5 99t81.5 31q36 0 104.5 -21t79.5 -21q5 0 10 1.5t8 2.5t6.5 5t5 6t4 8t3.5 7.5t3.5 8.5t2.5 8l89 -25q-20 -68 -43 -96.5t-75 -28.5q-24 0 -93 21t-92 21q-31 0 -43 -47z" />
    <glyph glyph-name="Odieresis" unicode="&#xd6;" horiz-adv-x="736" 
d="M680 401v-102q0 -139 -81 -226t-231 -87q-149 0 -230.5 87t-81.5 226v102q0 139 81.5 226t230.5 87q150 0 231 -87t81 -226zM368 102q85 0 128.5 51.5t43.5 138.5v116q0 87 -43.5 138.5t-128.5 51.5t-128.5 -51.5t-43.5 -138.5v-116q0 -87 43.5 -138.5t128.5 -51.5z
M183 826q0 32 20.5 52.5t52.5 20.5t52.5 -20.5t20.5 -52.5t-20.5 -52.5t-52.5 -20.5t-52.5 20.5t-20.5 52.5zM407 826q0 32 20.5 52.5t52.5 20.5t52.5 -20.5t20.5 -52.5t-20.5 -52.5t-52.5 -20.5t-52.5 20.5t-20.5 52.5z" />
    <glyph glyph-name="multiply" unicode="&#xd7;" horiz-adv-x="598" 
d="M70 511l78 78l151 -151l151 151l78 -78l-151 -151l151 -151l-78 -78l-151 151l-151 -151l-78 78l151 151z" />
    <glyph glyph-name="Oslash" unicode="&#xd8;" horiz-adv-x="736" 
d="M680 401v-102q0 -139 -81 -226t-231 -87q-96 0 -168 39l-49 -75h-95l81 123q-81 84 -81 226v102q0 139 81.5 226t230.5 87q97 0 167 -39l50 75h95l-81 -123q81 -84 81 -226zM196 292q0 -59 19 -101l252 381q-42 26 -99 26q-85 0 -128.5 -51.5t-43.5 -138.5v-116zM368 102
q85 0 128.5 51.5t43.5 138.5v116q0 63 -20 100l-251 -380q35 -26 99 -26z" />
    <glyph glyph-name="Ugrave" unicode="&#xd9;" horiz-adv-x="720" 
d="M360 -14q-134 0 -211 73t-77 193v448h139v-454q0 -68 40.5 -106t108.5 -38t108 38t40 106v454h140v-448q0 -120 -77 -193t-211 -73zM306 753l-98 141h167l69 -141h-138z" />
    <glyph glyph-name="Uacute" unicode="&#xda;" horiz-adv-x="720" 
d="M360 -14q-134 0 -211 73t-77 193v448h139v-454q0 -68 40.5 -106t108.5 -38t108 38t40 106v454h140v-448q0 -120 -77 -193t-211 -73zM283 753l69 141h167l-98 -141h-138z" />
    <glyph glyph-name="Ucircumflex" unicode="&#xdb;" horiz-adv-x="720" 
d="M360 -14q-134 0 -211 73t-77 193v448h139v-454q0 -68 40.5 -106t108.5 -38t108 38t40 106v454h140v-448q0 -120 -77 -193t-211 -73zM427 894l118 -141h-131l-54 67l-54 -67h-131l118 141h134z" />
    <glyph glyph-name="Udieresis" unicode="&#xdc;" horiz-adv-x="720" 
d="M360 -14q-134 0 -211 73t-77 193v448h139v-454q0 -68 40.5 -106t108.5 -38t108 38t40 106v454h140v-448q0 -120 -77 -193t-211 -73zM175 826q0 32 20.5 52.5t52.5 20.5t52.5 -20.5t20.5 -52.5t-20.5 -52.5t-52.5 -20.5t-52.5 20.5t-20.5 52.5zM399 826q0 32 20.5 52.5
t52.5 20.5t52.5 -20.5t20.5 -52.5t-20.5 -52.5t-52.5 -20.5t-52.5 20.5t-20.5 52.5z" />
    <glyph glyph-name="Yacute" unicode="&#xdd;" horiz-adv-x="636" 
d="M388 252v-252h-140v252l-240 448h152l158 -312l158 312h152zM251 753l69 141h167l-98 -141h-138z" />
    <glyph glyph-name="Thorn" unicode="&#xde;" horiz-adv-x="652" 
d="M77 0v700h140v-105h151q120 0 190 -64.5t70 -170.5t-71.5 -172.5t-188.5 -66.5h-151v-121h-140zM217 236h142q64 0 96.5 34.5t32.5 89.5q0 54 -32.5 87t-96.5 33h-142v-244z" />
    <glyph glyph-name="germandbls" unicode="&#xdf;" horiz-adv-x="616" 
d="M67 0v518q0 106 64.5 161t171.5 55t174 -54.5t67 -142.5q0 -56 -24.5 -99.5t-69.5 -66.5q134 -39 134 -170q0 -95 -66.5 -148t-177.5 -53h-34v108h28q53 0 83.5 26.5t30.5 75.5q0 45 -30.5 70.5t-84.5 25.5h-28v106q47 3 75 34t28 76q0 47 -27 75t-77 28q-47 0 -74 -25
t-27 -76v-524h-136z" />
    <glyph glyph-name="agrave" unicode="&#xe0;" horiz-adv-x="585" 
d="M242 -12q-89 0 -143 43.5t-54 118.5q0 82 56.5 123.5t153.5 41.5q79 0 132 -44v71q0 37 -24.5 60.5t-65.5 23.5q-65 0 -90 -49h-126q22 75 80 115t143 40q98 0 158.5 -55t60.5 -145v-332h-131v48q-18 -26 -61 -43t-89 -17zM277 78q45 0 77.5 22t32.5 55q0 34 -29.5 53.5
t-76.5 19.5q-49 0 -76.5 -19t-27.5 -55q0 -35 28 -55.5t72 -20.5zM243 579l-104 154h168l73 -154h-137z" />
    <glyph glyph-name="aacute" unicode="&#xe1;" horiz-adv-x="585" 
d="M242 -12q-89 0 -143 43.5t-54 118.5q0 82 56.5 123.5t153.5 41.5q79 0 132 -44v71q0 37 -24.5 60.5t-65.5 23.5q-65 0 -90 -49h-126q22 75 80 115t143 40q98 0 158.5 -55t60.5 -145v-332h-131v48q-18 -26 -61 -43t-89 -17zM277 78q45 0 77.5 22t32.5 55q0 34 -29.5 53.5
t-76.5 19.5q-49 0 -76.5 -19t-27.5 -55q0 -35 28 -55.5t72 -20.5zM239 579l73 154h168l-106 -154h-135z" />
    <glyph glyph-name="acircumflex" unicode="&#xe2;" horiz-adv-x="585" 
d="M242 -12q-89 0 -143 43.5t-54 118.5q0 82 56.5 123.5t153.5 41.5q79 0 132 -44v71q0 37 -24.5 60.5t-65.5 23.5q-65 0 -90 -49h-126q22 75 80 115t143 40q98 0 158.5 -55t60.5 -145v-332h-131v48q-18 -26 -61 -43t-89 -17zM277 78q45 0 77.5 22t32.5 55q0 34 -29.5 53.5
t-76.5 19.5q-49 0 -76.5 -19t-27.5 -55q0 -35 28 -55.5t72 -20.5zM381 733l112 -154h-124l-54 77l-54 -77h-124l112 154h132z" />
    <glyph glyph-name="atilde" unicode="&#xe3;" horiz-adv-x="585" 
d="M242 -12q-89 0 -143 43.5t-54 118.5q0 82 56.5 123.5t153.5 41.5q79 0 132 -44v71q0 37 -24.5 60.5t-65.5 23.5q-65 0 -90 -49h-126q22 75 80 115t143 40q98 0 158.5 -55t60.5 -145v-332h-131v48q-18 -26 -61 -43t-89 -17zM277 78q45 0 77.5 22t32.5 55q0 34 -29.5 53.5
t-76.5 19.5q-49 0 -76.5 -19t-27.5 -55q0 -35 28 -55.5t72 -20.5zM194 577l-85 21q9 62 34.5 95.5t79.5 33.5q29 0 87.5 -21.5t71.5 -21.5t22 8.5t11.5 14.5t8.5 24l84 -26q-9 -30 -16 -47.5t-19.5 -37.5t-31.5 -29t-45 -9q-24 0 -82 21.5t-79 21.5q-18 0 -25.5 -11
t-15.5 -37z" />
    <glyph glyph-name="adieresis" unicode="&#xe4;" horiz-adv-x="585" 
d="M242 -12q-89 0 -143 43.5t-54 118.5q0 82 56.5 123.5t153.5 41.5q79 0 132 -44v71q0 37 -24.5 60.5t-65.5 23.5q-65 0 -90 -49h-126q22 75 80 115t143 40q98 0 158.5 -55t60.5 -145v-332h-131v48q-18 -26 -61 -43t-89 -17zM277 78q45 0 77.5 22t32.5 55q0 34 -29.5 53.5
t-76.5 19.5q-49 0 -76.5 -19t-27.5 -55q0 -35 28 -55.5t72 -20.5zM139 655q0 31 20.5 52t52.5 21t52.5 -21t20.5 -52t-20.5 -52t-52.5 -21t-52.5 21t-20.5 52zM349 655q0 31 20.5 52t52.5 21t52.5 -21t20.5 -52t-20.5 -52t-52.5 -21t-52.5 21t-20.5 52z" />
    <glyph glyph-name="aring" unicode="&#xe5;" horiz-adv-x="585" 
d="M242 -12q-89 0 -143 43.5t-54 118.5q0 82 56.5 123.5t153.5 41.5q79 0 132 -44v71q0 37 -24.5 60.5t-65.5 23.5q-65 0 -90 -49h-126q22 75 80 115t143 40q98 0 158.5 -55t60.5 -145v-332h-131v48q-18 -26 -61 -43t-89 -17zM277 78q45 0 77.5 22t32.5 55q0 34 -29.5 53.5
t-76.5 19.5q-49 0 -76.5 -19t-27.5 -55q0 -35 28 -55.5t72 -20.5zM311 629q21 0 33.5 12t12.5 31t-12.5 30.5t-33.5 11.5t-33.5 -11.5t-12.5 -30.5t12.5 -31t33.5 -12zM311 579q-49 0 -77.5 27t-28.5 66t29.5 65.5t76.5 26.5q48 0 77 -26.5t29 -65.5t-28.5 -66t-77.5 -27z
" />
    <glyph glyph-name="ae" unicode="&#xe6;" horiz-adv-x="915" 
d="M633 -12q-123 0 -186 77q-71 -77 -193 -77q-94 0 -151.5 46.5t-57.5 122.5q0 79 58 119.5t152 40.5q85 0 132 -45v63q0 39 -23.5 64.5t-65.5 25.5q-65 0 -91 -48h-126q18 76 75.5 115.5t142.5 39.5q104 0 160 -64q57 64 172 64q111 0 171.5 -64.5t60.5 -163.5v-91h-340
v-13q0 -50 27 -82t83 -32q41 0 69 18.5t38 47.5h119q-14 -72 -77 -118t-149 -46zM277 79q46 0 78 21.5t32 54.5q0 34 -30 54.5t-76 20.5q-49 0 -76.5 -19t-27.5 -55q0 -35 28 -56t72 -21zM523 309h215v13q0 51 -27 82.5t-80 31.5q-54 0 -81 -30.5t-27 -81.5v-15z" />
    <glyph glyph-name="ccedilla" unicode="&#xe7;" horiz-adv-x="571" 
d="M297 -186q-44 0 -71 6v55q23 -5 47 -5q40 0 40 22q0 20 -37 23l-36 3l16 72q-100 9 -156 72.5t-56 160.5v74q0 105 65.5 170t180.5 65q103 0 168.5 -58t68.5 -148h-124q-5 42 -32 69t-78 27q-56 0 -84.5 -32.5t-28.5 -87.5v-84q0 -55 28.5 -87.5t84.5 -32.5q51 0 78 27
t32 69h124q-3 -83 -59 -139t-146 -65l-5 -26l16 -2q77 -10 77 -69q0 -36 -30 -57.5t-83 -21.5z" />
    <glyph glyph-name="egrave" unicode="&#xe8;" horiz-adv-x="560" 
d="M286 -12q-111 0 -176.5 61.5t-65.5 170.5v71q0 109 63 175t177 66q111 0 171.5 -64.5t60.5 -163.5v-91h-340v-13q0 -50 27 -82t83 -32q41 0 69 18.5t38 47.5h119q-14 -72 -77 -118t-149 -46zM176 314v-5h215v13q0 51 -27 82.5t-80 31.5q-56 0 -82 -33t-26 -89zM219 579
l-104 154h168l73 -154h-137z" />
    <glyph glyph-name="eacute" unicode="&#xe9;" horiz-adv-x="560" 
d="M286 -12q-111 0 -176.5 61.5t-65.5 170.5v71q0 109 63 175t177 66q111 0 171.5 -64.5t60.5 -163.5v-91h-340v-13q0 -50 27 -82t83 -32q41 0 69 18.5t38 47.5h119q-14 -72 -77 -118t-149 -46zM176 314v-5h215v13q0 51 -27 82.5t-80 31.5q-56 0 -82 -33t-26 -89zM216 579
l73 154h168l-106 -154h-135z" />
    <glyph glyph-name="ecircumflex" unicode="&#xea;" horiz-adv-x="560" 
d="M286 -12q-111 0 -176.5 61.5t-65.5 170.5v71q0 109 63 175t177 66q111 0 171.5 -64.5t60.5 -163.5v-91h-340v-13q0 -50 27 -82t83 -32q41 0 69 18.5t38 47.5h119q-14 -72 -77 -118t-149 -46zM176 314v-5h215v13q0 51 -27 82.5t-80 31.5q-56 0 -82 -33t-26 -89zM352 733
l112 -154h-124l-54 77l-54 -77h-124l112 154h132z" />
    <glyph glyph-name="edieresis" unicode="&#xeb;" horiz-adv-x="560" 
d="M286 -12q-111 0 -176.5 61.5t-65.5 170.5v71q0 109 63 175t177 66q111 0 171.5 -64.5t60.5 -163.5v-91h-340v-13q0 -50 27 -82t83 -32q41 0 69 18.5t38 47.5h119q-14 -72 -77 -118t-149 -46zM176 314v-5h215v13q0 51 -27 82.5t-80 31.5q-56 0 -82 -33t-26 -89zM105 655
q0 31 20.5 52t52.5 21t52.5 -21t20.5 -52t-20.5 -52t-52.5 -21t-52.5 21t-20.5 52zM315 655q0 31 20.5 52t52.5 21t52.5 -21t20.5 -52t-20.5 -52t-52.5 -21t-52.5 21t-20.5 52z" />
    <glyph glyph-name="igrave" unicode="&#xec;" 
d="M70 0v520h136v-520h-136zM68 579l-104 154h168l73 -154h-137z" />
    <glyph glyph-name="iacute" unicode="&#xed;" 
d="M70 0v520h136v-520h-136zM76 579l73 154h168l-106 -154h-135z" />
    <glyph glyph-name="icircumflex" unicode="&#xee;" 
d="M70 0v520h136v-520h-136zM204 733l112 -154h-124l-54 77l-54 -77h-124l112 154h132z" />
    <glyph glyph-name="idieresis" unicode="&#xef;" 
d="M70 0v520h136v-520h-136zM-40 655q0 31 21 52t52 21t52 -21t21 -52t-21 -52t-52 -21t-52 21t-21 52zM170 655q0 31 21 52t52 21t52 -21t21 -52t-21 -52t-52 -21t-52 21t-21 52z" />
    <glyph glyph-name="eth" unicode="&#xf0;" horiz-adv-x="579" 
d="M156 534l-30 79l93 33q-44 33 -128 84h162q38 -21 72 -46l113 41l29 -78l-70 -26q138 -143 138 -320v-78q0 -104 -68 -170.5t-182 -66.5q-107 0 -174 65t-67 165v63q0 101 57 165t154 64q78 0 123 -43q-38 70 -86 118zM288 92q54 0 84 31.5t30 83.5v75q0 57 -30 90.5
t-82 33.5q-55 0 -84 -33t-29 -93v-76q0 -50 30 -81t81 -31z" />
    <glyph glyph-name="ntilde" unicode="&#xf1;" horiz-adv-x="596" 
d="M67 0v520h130v-62q40 74 153 74q85 0 134.5 -53t49.5 -146v-333h-136v311q0 47 -23.5 75t-71.5 28q-47 0 -73.5 -27t-26.5 -79v-308h-136zM190 577l-85 21q9 62 34.5 95.5t79.5 33.5q29 0 87.5 -21.5t71.5 -21.5t22 8.5t11.5 14.5t8.5 24l84 -26q-9 -30 -16 -47.5
t-19.5 -37.5t-31.5 -29t-45 -9q-24 0 -82 21.5t-79 21.5q-18 0 -25.5 -11t-15.5 -37z" />
    <glyph glyph-name="ograve" unicode="&#xf2;" horiz-adv-x="578" 
d="M289 -12q-114 0 -179.5 66t-65.5 169v74q0 103 65.5 169t179.5 66t179.5 -66t65.5 -169v-74q0 -103 -65.5 -169t-179.5 -66zM402 214v92q0 53 -28.5 86t-84.5 33t-84.5 -33t-28.5 -86v-92q0 -53 28.5 -86t84.5 -33t84.5 33t28.5 86zM219 579l-104 154h168l73 -154h-137z
" />
    <glyph glyph-name="oacute" unicode="&#xf3;" horiz-adv-x="578" 
d="M289 -12q-114 0 -179.5 66t-65.5 169v74q0 103 65.5 169t179.5 66t179.5 -66t65.5 -169v-74q0 -103 -65.5 -169t-179.5 -66zM402 214v92q0 53 -28.5 86t-84.5 33t-84.5 -33t-28.5 -86v-92q0 -53 28.5 -86t84.5 -33t84.5 33t28.5 86zM222 579l73 154h168l-106 -154h-135z
" />
    <glyph glyph-name="ocircumflex" unicode="&#xf4;" horiz-adv-x="578" 
d="M289 -12q-114 0 -179.5 66t-65.5 169v74q0 103 65.5 169t179.5 66t179.5 -66t65.5 -169v-74q0 -103 -65.5 -169t-179.5 -66zM402 214v92q0 53 -28.5 86t-84.5 33t-84.5 -33t-28.5 -86v-92q0 -53 28.5 -86t84.5 -33t84.5 33t28.5 86zM355 733l112 -154h-124l-54 77
l-54 -77h-124l112 154h132z" />
    <glyph glyph-name="otilde" unicode="&#xf5;" horiz-adv-x="578" 
d="M289 -12q-114 0 -179.5 66t-65.5 169v74q0 103 65.5 169t179.5 66t179.5 -66t65.5 -169v-74q0 -103 -65.5 -169t-179.5 -66zM402 214v92q0 53 -28.5 86t-84.5 33t-84.5 -33t-28.5 -86v-92q0 -53 28.5 -86t84.5 -33t84.5 33t28.5 86zM180 577l-85 21q9 62 34.5 95.5
t79.5 33.5q29 0 87.5 -21.5t71.5 -21.5t22 8.5t11.5 14.5t8.5 24l84 -26q-9 -30 -16 -47.5t-19.5 -37.5t-31.5 -29t-45 -9q-24 0 -82 21.5t-79 21.5q-18 0 -25.5 -11t-15.5 -37z" />
    <glyph glyph-name="odieresis" unicode="&#xf6;" horiz-adv-x="578" 
d="M289 -12q-114 0 -179.5 66t-65.5 169v74q0 103 65.5 169t179.5 66t179.5 -66t65.5 -169v-74q0 -103 -65.5 -169t-179.5 -66zM402 214v92q0 53 -28.5 86t-84.5 33t-84.5 -33t-28.5 -86v-92q0 -53 28.5 -86t84.5 -33t84.5 33t28.5 86zM111 655q0 31 20.5 52t52.5 21
t52.5 -21t20.5 -52t-20.5 -52t-52.5 -21t-52.5 21t-20.5 52zM321 655q0 31 20.5 52t52.5 21t52.5 -21t20.5 -52t-20.5 -52t-52.5 -21t-52.5 21t-20.5 52z" />
    <glyph glyph-name="divide" unicode="&#xf7;" horiz-adv-x="598" 
d="M70 302v116h458v-116h-458zM223 160q0 34 21 55t55 21t55 -21t21 -55t-21 -55t-55 -21t-55 21t-21 55zM223 560q0 34 21 55t55 21t55 -21t21 -55t-21 -55t-55 -21t-55 21t-21 55z" />
    <glyph glyph-name="oslash" unicode="&#xf8;" horiz-adv-x="578" 
d="M289 -12q-73 0 -127 28l-44 -66h-74l68 101q-68 65 -68 172v74q0 103 65.5 169t179.5 66q72 0 126 -28l45 66h74l-68 -102q68 -65 68 -171v-74q0 -103 -65.5 -169t-179.5 -66zM176 214q0 -30 9 -54l167 249q-27 16 -63 16q-56 0 -84.5 -33t-28.5 -86v-92zM402 214v92
q0 29 -9 53l-167 -249q24 -15 63 -15q56 0 84.5 33t28.5 86z" />
    <glyph glyph-name="ugrave" unicode="&#xf9;" horiz-adv-x="592" 
d="M525 520v-520h-130v62q-18 -33 -59.5 -53.5t-91.5 -20.5q-86 0 -134 54.5t-48 144.5v333h136v-314q0 -104 92 -104q47 0 73 28t26 77v313h136zM244 579l-104 154h168l73 -154h-137z" />
    <glyph glyph-name="uacute" unicode="&#xfa;" horiz-adv-x="592" 
d="M525 520v-520h-130v62q-18 -33 -59.5 -53.5t-91.5 -20.5q-86 0 -134 54.5t-48 144.5v333h136v-314q0 -104 92 -104q47 0 73 28t26 77v313h136zM217 579l73 154h168l-106 -154h-135z" />
    <glyph glyph-name="ucircumflex" unicode="&#xfb;" horiz-adv-x="592" 
d="M525 520v-520h-130v62q-18 -33 -59.5 -53.5t-91.5 -20.5q-86 0 -134 54.5t-48 144.5v333h136v-314q0 -104 92 -104q47 0 73 28t26 77v313h136zM368 733l112 -154h-124l-54 77l-54 -77h-124l112 154h132z" />
    <glyph glyph-name="udieresis" unicode="&#xfc;" horiz-adv-x="592" 
d="M525 520v-520h-130v62q-18 -33 -59.5 -53.5t-91.5 -20.5q-86 0 -134 54.5t-48 144.5v333h136v-314q0 -104 92 -104q47 0 73 28t26 77v313h136zM126 655q0 31 21 52t52 21t52 -21t21 -52t-21 -52t-52 -21t-52 21t-21 52zM336 655q0 31 21 52t52 21t52 -21t21 -52t-21 -52
t-52 -21t-52 21t-21 52z" />
    <glyph glyph-name="yacute" unicode="&#xfd;" horiz-adv-x="511" 
d="M273 -174h-134l52 176l-180 518h136l112 -373l106 373h135zM191 579l73 154h168l-106 -154h-135z" />
    <glyph glyph-name="thorn" unicode="&#xfe;" horiz-adv-x="614" 
d="M351 532q103 0 161 -66t58 -163v-86q0 -98 -58.5 -163.5t-159.5 -65.5q-103 0 -149 68v-230h-136v904h136v-264q50 66 148 66zM318 422q-51 0 -83 -35t-32 -90v-76q0 -57 32.5 -90t81.5 -33q56 0 86.5 34.5t30.5 90.5v74q0 55 -29.5 90t-86.5 35z" />
    <glyph glyph-name="ydieresis" unicode="&#xff;" horiz-adv-x="511" 
d="M273 -174h-134l52 176l-180 518h136l112 -373l106 373h135zM86 655q0 31 21 52t52 21t52 -21t21 -52t-21 -52t-52 -21t-52 21t-21 52zM296 655q0 31 21 52t52 21t52 -21t21 -52t-21 -52t-52 -21t-52 21t-21 52z" />
    <glyph glyph-name="Amacron" unicode="&#x100;" horiz-adv-x="690" 
d="M416 700l251 -700h-139l-47 147h-272l-47 -147h-139l251 700h142zM345 574l-101 -316h201zM157 772v109h376v-109h-376z" />
    <glyph glyph-name="amacron" unicode="&#x101;" horiz-adv-x="585" 
d="M242 -12q-89 0 -143 43.5t-54 118.5q0 82 56.5 123.5t153.5 41.5q79 0 132 -44v71q0 37 -24.5 60.5t-65.5 23.5q-65 0 -90 -49h-126q22 75 80 115t143 40q98 0 158.5 -55t60.5 -145v-332h-131v48q-18 -26 -61 -43t-89 -17zM277 78q45 0 77.5 22t32.5 55q0 34 -29.5 53.5
t-76.5 19.5q-49 0 -76.5 -19t-27.5 -55q0 -35 28 -55.5t72 -20.5zM137 599v107h340v-107h-340z" />
    <glyph glyph-name="Abreve" unicode="&#x102;" horiz-adv-x="690" 
d="M416 700l251 -700h-139l-47 147h-272l-47 -147h-139l251 700h142zM345 574l-101 -316h201zM345 753q-78 0 -129 37.5t-51 103.5h106q0 -27 20 -44t54 -17t54 17t20 44h106q0 -66 -51 -103.5t-129 -37.5z" />
    <glyph glyph-name="abreve" unicode="&#x103;" horiz-adv-x="585" 
d="M242 -12q-89 0 -143 43.5t-54 118.5q0 82 56.5 123.5t153.5 41.5q79 0 132 -44v71q0 37 -24.5 60.5t-65.5 23.5q-65 0 -90 -49h-126q22 75 80 115t143 40q98 0 158.5 -55t60.5 -145v-332h-131v48q-18 -26 -61 -43t-89 -17zM277 78q45 0 77.5 22t32.5 55q0 34 -29.5 53.5
t-76.5 19.5q-49 0 -76.5 -19t-27.5 -55q0 -35 28 -55.5t72 -20.5zM316 579q-80 0 -128.5 41t-48.5 113h100q0 -33 20.5 -53t56.5 -20t56.5 20t20.5 53h100q0 -72 -48.5 -113t-128.5 -41z" />
    <glyph glyph-name="Aogonek" unicode="&#x104;" horiz-adv-x="692" 
d="M584 -186q-47 0 -75 24.5t-28 67.5q0 53 47 94l-47 147h-272l-47 -147h-139l251 700h142l251 -700q-19 -12 -31 -21.5t-22.5 -25t-10.5 -32.5q0 -28 34 -28q15 0 25 3v-72q-38 -10 -78 -10zM345 574l-101 -316h201z" />
    <glyph glyph-name="aogonek" unicode="&#x105;" horiz-adv-x="585" 
d="M242 -12q-89 0 -143 43.5t-54 118.5q0 82 56.5 123.5t153.5 41.5q79 0 132 -44v71q0 37 -24.5 60.5t-65.5 23.5q-65 0 -90 -49h-126q22 75 80 115t143 40q98 0 158.5 -55t60.5 -145v-332q-18 -13 -28.5 -22t-21.5 -25t-11 -32q0 -28 34 -28q14 0 25 3v-72
q-38 -10 -78 -10q-48 0 -75.5 23.5t-27.5 66.5q0 49 52 96v48q-18 -26 -61 -43t-89 -17zM277 78q45 0 77.5 22t32.5 55q0 34 -29.5 53.5t-76.5 19.5q-49 0 -76.5 -19t-27.5 -55q0 -35 28 -55.5t72 -20.5z" />
    <glyph glyph-name="Cacute" unicode="&#x106;" horiz-adv-x="706" 
d="M362 -14q-152 0 -229 86.5t-77 227.5v100q0 141 77 227.5t229 86.5q129 0 208.5 -76t84.5 -187h-130q-7 64 -48 106t-115 42q-84 0 -125.5 -52t-41.5 -140v-114q0 -88 41.5 -140t125.5 -52q74 0 115 42t48 106h130q-5 -111 -84.5 -187t-208.5 -76zM285 753l69 141h167
l-98 -141h-138z" />
    <glyph glyph-name="cacute" unicode="&#x107;" horiz-adv-x="571" 
d="M290 -12q-115 0 -180.5 65t-65.5 170v74q0 105 65.5 170t180.5 65q103 0 168.5 -58t68.5 -148h-124q-5 42 -32 69t-78 27q-56 0 -84.5 -32.5t-28.5 -87.5v-84q0 -55 28.5 -87.5t84.5 -32.5q51 0 78 27t32 69h124q-3 -90 -68.5 -148t-168.5 -58zM224 579l73 154h168
l-106 -154h-135z" />
    <glyph glyph-name="Ccircumflex" unicode="&#x108;" horiz-adv-x="706" 
d="M362 -14q-152 0 -229 86.5t-77 227.5v100q0 141 77 227.5t229 86.5q129 0 208.5 -76t84.5 -187h-130q-7 64 -48 106t-115 42q-84 0 -125.5 -52t-41.5 -140v-114q0 -88 41.5 -140t125.5 -52q74 0 115 42t48 106h130q-5 -111 -84.5 -187t-208.5 -76zM435 894l118 -141h-131
l-54 67l-54 -67h-131l118 141h134z" />
    <glyph glyph-name="ccircumflex" unicode="&#x109;" horiz-adv-x="571" 
d="M290 -12q-115 0 -180.5 65t-65.5 170v74q0 105 65.5 170t180.5 65q103 0 168.5 -58t68.5 -148h-124q-5 42 -32 69t-78 27q-56 0 -84.5 -32.5t-28.5 -87.5v-84q0 -55 28.5 -87.5t84.5 -32.5q51 0 78 27t32 69h124q-3 -90 -68.5 -148t-168.5 -58zM357 733l112 -154h-124
l-54 77l-54 -77h-124l112 154h132z" />
    <glyph glyph-name="Cdotaccent" unicode="&#x10a;" horiz-adv-x="706" 
d="M362 -14q-152 0 -229 86.5t-77 227.5v100q0 141 77 227.5t229 86.5q129 0 208.5 -76t84.5 -187h-130q-7 64 -48 106t-115 42q-84 0 -125.5 -52t-41.5 -140v-114q0 -88 41.5 -140t125.5 -52q74 0 115 42t48 106h130q-5 -111 -84.5 -187t-208.5 -76zM284 832
q0 34 22.5 56.5t56.5 22.5t56.5 -22.5t22.5 -56.5t-22.5 -56.5t-56.5 -22.5t-56.5 22.5t-22.5 56.5z" />
    <glyph glyph-name="cdotaccent" unicode="&#x10b;" horiz-adv-x="571" 
d="M290 -12q-115 0 -180.5 65t-65.5 170v74q0 105 65.5 170t180.5 65q103 0 168.5 -58t68.5 -148h-124q-5 42 -32 69t-78 27q-56 0 -84.5 -32.5t-28.5 -87.5v-84q0 -55 28.5 -87.5t84.5 -32.5q51 0 78 27t32 69h124q-3 -90 -68.5 -148t-168.5 -58zM212 658q0 34 22.5 56.5
t56.5 22.5t56.5 -22.5t22.5 -56.5t-22.5 -56.5t-56.5 -22.5t-56.5 22.5t-22.5 56.5z" />
    <glyph glyph-name="Ccaron" unicode="&#x10c;" horiz-adv-x="706" 
d="M362 -14q-152 0 -229 86.5t-77 227.5v100q0 141 77 227.5t229 86.5q129 0 208.5 -76t84.5 -187h-130q-7 64 -48 106t-115 42q-84 0 -125.5 -52t-41.5 -140v-114q0 -88 41.5 -140t125.5 -52q74 0 115 42t48 106h130q-5 -111 -84.5 -187t-208.5 -76zM552 894l-118 -141
h-134l-118 141h131l54 -67l54 67h131z" />
    <glyph glyph-name="ccaron" unicode="&#x10d;" horiz-adv-x="571" 
d="M290 -12q-115 0 -180.5 65t-65.5 170v74q0 105 65.5 170t180.5 65q103 0 168.5 -58t68.5 -148h-124q-5 42 -32 69t-78 27q-56 0 -84.5 -32.5t-28.5 -87.5v-84q0 -55 28.5 -87.5t84.5 -32.5q51 0 78 27t32 69h124q-3 -90 -68.5 -148t-168.5 -58zM475 733l-112 -154h-132
l-112 154h124l54 -77l54 77h124z" />
    <glyph glyph-name="Dcaron" unicode="&#x10e;" horiz-adv-x="703" 
d="M77 700h284q137 0 212 -76t75 -199v-150q0 -123 -75 -199t-212 -76h-284v700zM509 274v152q0 77 -44 118.5t-128 41.5h-121v-472h121q84 0 128 41.5t44 118.5zM533 894l-118 -141h-134l-118 141h131l54 -67l54 67h131z" />
    <glyph glyph-name="dcaron" unicode="&#x10f;" horiz-adv-x="794" 
d="M621 507l40 223h148l-78 -223h-110zM263 -12q-101 0 -160 66t-59 163v86q0 98 58.5 163.5t159.5 65.5q98 0 149 -68v266h136v-730h-130v62q-21 -32 -61 -53t-93 -21zM296 98q51 0 83 35t32 90v76q0 57 -32.5 90t-81.5 33q-56 0 -86.5 -34.5t-30.5 -90.5v-74
q0 -55 29.5 -90t86.5 -35z" />
    <glyph glyph-name="Dcroat" unicode="&#x110;" horiz-adv-x="739" 
d="M33 292v116h75v292h284q137 0 212 -76t75 -199v-150q0 -123 -75 -199t-212 -76h-284v292h-75zM540 274v152q0 77 -44 118.5t-128 41.5h-121v-178h152v-116h-152v-178h121q84 0 128 41.5t44 118.5z" />
    <glyph glyph-name="dcroat" unicode="&#x111;" horiz-adv-x="621" 
d="M263 -12q-101 0 -160 66t-59 163v86q0 98 58.5 163.5t159.5 65.5q98 0 149 -68v102h-100v93h100v71h136v-71h59v-93h-59v-566h-130v62q-21 -32 -61 -53t-93 -21zM296 98q51 0 83 35t32 90v76q0 57 -32.5 90t-81.5 33q-56 0 -86.5 -34.5t-30.5 -90.5v-74q0 -55 29.5 -90
t86.5 -35z" />
    <glyph glyph-name="Emacron" unicode="&#x112;" horiz-adv-x="618" 
d="M77 0v700h490v-116h-350v-171h320v-117h-320v-180h351v-116h-491zM136 772v109h376v-109h-376z" />
    <glyph glyph-name="emacron" unicode="&#x113;" horiz-adv-x="560" 
d="M286 -12q-111 0 -176.5 61.5t-65.5 170.5v71q0 109 63 175t177 66q111 0 171.5 -64.5t60.5 -163.5v-91h-340v-13q0 -50 27 -82t83 -32q41 0 69 18.5t38 47.5h119q-14 -72 -77 -118t-149 -46zM176 314v-5h215v13q0 51 -27 82.5t-80 31.5q-56 0 -82 -33t-26 -89zM116 599
v107h340v-107h-340z" />
    <glyph glyph-name="Ebreve" unicode="&#x114;" horiz-adv-x="618" 
d="M77 0v700h490v-116h-350v-171h320v-117h-320v-180h351v-116h-491zM336 753q-78 0 -129 37.5t-51 103.5h106q0 -27 20 -44t54 -17t54 17t20 44h106q0 -66 -51 -103.5t-129 -37.5z" />
    <glyph glyph-name="ebreve" unicode="&#x115;" horiz-adv-x="560" 
d="M286 -12q-111 0 -176.5 61.5t-65.5 170.5v71q0 109 63 175t177 66q111 0 171.5 -64.5t60.5 -163.5v-91h-340v-13q0 -50 27 -82t83 -32q41 0 69 18.5t38 47.5h119q-14 -72 -77 -118t-149 -46zM176 314v-5h215v13q0 51 -27 82.5t-80 31.5q-56 0 -82 -33t-26 -89zM292 579
q-80 0 -128.5 41t-48.5 113h100q0 -33 20.5 -53t56.5 -20t56.5 20t20.5 53h100q0 -72 -48.5 -113t-128.5 -41z" />
    <glyph glyph-name="Edotaccent" unicode="&#x116;" horiz-adv-x="618" 
d="M77 0v700h490v-116h-350v-171h320v-117h-320v-180h351v-116h-491zM250 832q0 34 22.5 56.5t56.5 22.5t56.5 -22.5t22.5 -56.5t-22.5 -56.5t-56.5 -22.5t-56.5 22.5t-22.5 56.5z" />
    <glyph glyph-name="edotaccent" unicode="&#x117;" horiz-adv-x="560" 
d="M286 -12q-111 0 -176.5 61.5t-65.5 170.5v71q0 109 63 175t177 66q111 0 171.5 -64.5t60.5 -163.5v-91h-340v-13q0 -50 27 -82t83 -32q41 0 69 18.5t38 47.5h119q-14 -72 -77 -118t-149 -46zM176 314v-5h215v13q0 51 -27 82.5t-80 31.5q-56 0 -82 -33t-26 -89zM202 658
q0 34 22.5 56.5t56.5 22.5t56.5 -22.5t22.5 -56.5t-22.5 -56.5t-56.5 -22.5t-56.5 22.5t-22.5 56.5z" />
    <glyph glyph-name="Eogonek" unicode="&#x118;" horiz-adv-x="618" 
d="M77 0v700h490v-116h-350v-171h320v-117h-320v-180h351v-116q-61 -38 -61 -79q0 -28 34 -28q15 0 25 3v-72q-38 -10 -78 -10q-49 0 -76 23.5t-27 64.5q0 60 52 98h-360z" />
    <glyph glyph-name="eogonek" unicode="&#x119;" horiz-adv-x="560" 
d="M286 -12q-111 0 -176.5 61.5t-65.5 170.5v71q0 109 63 175t177 66q111 0 171.5 -64.5t60.5 -163.5v-91h-340v-13q0 -50 27 -82t83 -32q41 0 69 18.5t38 47.5h119q-10 -50 -61 -105q-79 -82 -79 -126q0 -28 34 -28q14 0 25 3v-72q-38 -10 -78 -10q-49 0 -76 22t-27 63
q0 52 59 90q-6 -1 -23 -1zM176 314v-5h215v13q0 51 -27 82.5t-80 31.5q-56 0 -82 -33t-26 -89z" />
    <glyph glyph-name="Ecaron" unicode="&#x11a;" horiz-adv-x="618" 
d="M77 0v700h490v-116h-350v-171h320v-117h-320v-180h351v-116h-491zM522 894l-118 -141h-134l-118 141h131l54 -67l54 67h131z" />
    <glyph glyph-name="ecaron" unicode="&#x11b;" horiz-adv-x="560" 
d="M286 -12q-111 0 -176.5 61.5t-65.5 170.5v71q0 109 63 175t177 66q111 0 171.5 -64.5t60.5 -163.5v-91h-340v-13q0 -50 27 -82t83 -32q41 0 69 18.5t38 47.5h119q-14 -72 -77 -118t-149 -46zM176 314v-5h215v13q0 51 -27 82.5t-80 31.5q-56 0 -82 -33t-26 -89zM467 733
l-112 -154h-132l-112 154h124l54 -77l54 77h124z" />
    <glyph glyph-name="Gcircumflex" unicode="&#x11c;" horiz-adv-x="715" 
d="M652 462h-133q-2 58 -43 97.5t-113 39.5q-83 0 -125.5 -51t-42.5 -141v-110q0 -93 41 -146t128 -53q74 0 116 40t42 100v10h-157v114h294v-91q0 -127 -81.5 -206t-215.5 -79q-149 0 -227.5 88t-78.5 226v102q0 143 80.5 227.5t222.5 84.5q133 0 211.5 -70.5t81.5 -181.5z
M431 894l118 -141h-131l-54 67l-54 -67h-131l118 141h134z" />
    <glyph glyph-name="gcircumflex" unicode="&#x11d;" horiz-adv-x="610" 
d="M294 -186q-94 0 -161.5 41.5t-82.5 113.5h132q26 -52 112 -52q52 0 82.5 26t30.5 70v82q-18 -29 -59.5 -50t-89.5 -21q-100 0 -157 62.5t-57 153.5v76q0 92 56.5 154t158.5 62q56 0 97.5 -23t56.5 -52v63h130v-509q0 -84 -70.5 -140.5t-178.5 -56.5zM290 133
q50 0 83.5 30.5t33.5 83.5v60q0 52 -32 84t-81 32q-56 0 -85.5 -31t-29.5 -85v-60q0 -51 28.5 -82.5t82.5 -31.5zM380 733l112 -154h-124l-54 77l-54 -77h-124l112 154h132z" />
    <glyph glyph-name="Gbreve" unicode="&#x11e;" horiz-adv-x="715" 
d="M652 462h-133q-2 58 -43 97.5t-113 39.5q-83 0 -125.5 -51t-42.5 -141v-110q0 -93 41 -146t128 -53q74 0 116 40t42 100v10h-157v114h294v-91q0 -127 -81.5 -206t-215.5 -79q-149 0 -227.5 88t-78.5 226v102q0 143 80.5 227.5t222.5 84.5q133 0 211.5 -70.5t81.5 -181.5z
M365 753q-78 0 -129 37.5t-51 103.5h106q0 -27 20 -44t54 -17t54 17t20 44h106q0 -66 -51 -103.5t-129 -37.5z" />
    <glyph glyph-name="gbreve" unicode="&#x11f;" horiz-adv-x="610" 
d="M294 -186q-94 0 -161.5 41.5t-82.5 113.5h132q26 -52 112 -52q52 0 82.5 26t30.5 70v82q-18 -29 -59.5 -50t-89.5 -21q-100 0 -157 62.5t-57 153.5v76q0 92 56.5 154t158.5 62q56 0 97.5 -23t56.5 -52v63h130v-509q0 -84 -70.5 -140.5t-178.5 -56.5zM290 133
q50 0 83.5 30.5t33.5 83.5v60q0 52 -32 84t-81 32q-56 0 -85.5 -31t-29.5 -85v-60q0 -51 28.5 -82.5t82.5 -31.5zM304 579q-80 0 -128.5 41t-48.5 113h100q0 -33 20.5 -53t56.5 -20t56.5 20t20.5 53h100q0 -72 -48.5 -113t-128.5 -41z" />
    <glyph glyph-name="Gdotaccent" unicode="&#x120;" horiz-adv-x="715" 
d="M652 462h-133q-2 58 -43 97.5t-113 39.5q-83 0 -125.5 -51t-42.5 -141v-110q0 -93 41 -146t128 -53q74 0 116 40t42 100v10h-157v114h294v-91q0 -127 -81.5 -206t-215.5 -79q-149 0 -227.5 88t-78.5 226v102q0 143 80.5 227.5t222.5 84.5q133 0 211.5 -70.5t81.5 -181.5z
M280 832q0 34 22.5 56.5t56.5 22.5t56.5 -22.5t22.5 -56.5t-22.5 -56.5t-56.5 -22.5t-56.5 22.5t-22.5 56.5z" />
    <glyph glyph-name="gdotaccent" unicode="&#x121;" horiz-adv-x="610" 
d="M294 -186q-94 0 -161.5 41.5t-82.5 113.5h132q26 -52 112 -52q52 0 82.5 26t30.5 70v82q-18 -29 -59.5 -50t-89.5 -21q-100 0 -157 62.5t-57 153.5v76q0 92 56.5 154t158.5 62q56 0 97.5 -23t56.5 -52v63h130v-509q0 -84 -70.5 -140.5t-178.5 -56.5zM290 133
q50 0 83.5 30.5t33.5 83.5v60q0 52 -32 84t-81 32q-56 0 -85.5 -31t-29.5 -85v-60q0 -51 28.5 -82.5t82.5 -31.5zM222 658q0 34 22.5 56.5t56.5 22.5t56.5 -22.5t22.5 -56.5t-22.5 -56.5t-56.5 -22.5t-56.5 22.5t-22.5 56.5z" />
    <glyph glyph-name="Gcommaaccent" unicode="&#x122;" horiz-adv-x="715" 
d="M652 462h-133q-2 58 -43 97.5t-113 39.5q-83 0 -125.5 -51t-42.5 -141v-110q0 -93 41 -146t128 -53q74 0 116 40t42 100v10h-157v114h294v-91q0 -127 -81.5 -206t-215.5 -79q-149 0 -227.5 88t-78.5 226v102q0 143 80.5 227.5t222.5 84.5q133 0 211.5 -70.5t81.5 -181.5z
M259 -250l31 177h154l-70 -177h-115z" />
    <glyph glyph-name="gcommaaccent" unicode="&#x123;" horiz-adv-x="610" 
d="M294 -186q-94 0 -161.5 41.5t-82.5 113.5h132q26 -52 112 -52q52 0 82.5 26t30.5 70v82q-18 -29 -59.5 -50t-89.5 -21q-100 0 -157 62.5t-57 153.5v76q0 92 56.5 154t158.5 62q56 0 97.5 -23t56.5 -52v63h130v-509q0 -84 -70.5 -140.5t-178.5 -56.5zM290 133
q50 0 83.5 30.5t33.5 83.5v60q0 52 -32 84t-81 32q-56 0 -85.5 -31t-29.5 -85v-60q0 -51 28.5 -82.5t82.5 -31.5zM224 579l74 154h134l-40 -154h-168z" />
    <glyph glyph-name="Hcircumflex" unicode="&#x124;" horiz-adv-x="721" 
d="M77 0v700h140v-287h287v287h140v-700h-140v289h-287v-289h-140zM427 894l118 -141h-131l-54 67l-54 -67h-131l118 141h134z" />
    <glyph glyph-name="hcircumflex" unicode="&#x125;" horiz-adv-x="596" 
d="M67 0v730h136v-272q21 34 59.5 54t87.5 20q85 0 134.5 -53.5t49.5 -145.5v-333h-136v311q0 47 -23.5 75t-71.5 28q-47 0 -73.5 -27t-26.5 -79v-308h-136zM205 924l118 -141h-131l-54 67l-54 -67h-131l118 141h134z" />
    <glyph glyph-name="Hbar" unicode="&#x126;" horiz-adv-x="787" 
d="M34 506v85h76v109h140v-109h287v109h140v-109h76v-85h-76v-506h-140v289h-287v-289h-140v506h-76zM250 413h287v93h-287v-93z" />
    <glyph glyph-name="hbar" unicode="&#x127;" horiz-adv-x="603" 
d="M15 566v93h59v71h136v-71h100v-93h-100v-108q21 34 59.5 54t87.5 20q85 0 134.5 -53.5t49.5 -145.5v-333h-136v311q0 47 -23.5 75t-71.5 28q-47 0 -73.5 -27t-26.5 -79v-308h-136v566h-59z" />
    <glyph glyph-name="Itilde" unicode="&#x128;" horiz-adv-x="304" 
d="M82 0v700h140v-700h-140zM28 749l-90 20q13 68 38.5 99t81.5 31q36 0 104.5 -21t79.5 -21q5 0 10 1.5t8 2.5t6.5 5t5 6t4 8t3.5 7.5t3.5 8.5t2.5 8l89 -25q-20 -68 -43 -96.5t-75 -28.5q-24 0 -93 21t-92 21q-31 0 -43 -47z" />
    <glyph glyph-name="itilde" unicode="&#x129;" 
d="M70 0v520h136v-520h-136zM23 577l-85 21q9 62 34.5 95.5t79.5 33.5q29 0 87.5 -21.5t71.5 -21.5t22 8.5t11.5 14.5t8.5 24l84 -26q-9 -30 -16 -47.5t-19.5 -37.5t-31.5 -29t-45 -9q-24 0 -82 21.5t-79 21.5q-18 0 -25.5 -11t-15.5 -37z" />
    <glyph glyph-name="uni012A" unicode="&#x12a;" horiz-adv-x="304" 
d="M82 0v700h140v-700h-140zM-36 772v109h376v-109h-376z" />
    <glyph glyph-name="imacron" unicode="&#x12b;" 
d="M70 0v520h136v-520h-136zM-32 599v107h340v-107h-340z" />
    <glyph glyph-name="Ibreve" unicode="&#x12c;" horiz-adv-x="304" 
d="M82 0v700h140v-700h-140zM152 753q-78 0 -129 37.5t-51 103.5h106q0 -27 20 -44t54 -17t54 17t20 44h106q0 -66 -51 -103.5t-129 -37.5z" />
    <glyph glyph-name="uni012D" unicode="&#x12d;" 
d="M70 0v520h136v-520h-136zM138 579q-80 0 -128.5 41t-48.5 113h100q0 -33 20.5 -53t56.5 -20t56.5 20t20.5 53h100q0 -72 -48.5 -113t-128.5 -41z" />
    <glyph glyph-name="Iogonek" unicode="&#x12e;" horiz-adv-x="304" 
d="M157 -186q-50 0 -79 26.5t-29 72.5q0 44 33 87v700h140v-700q-51 -43 -51 -77q0 -30 32 -30q6 0 16 2v-74q-26 -7 -62 -7z" />
    <glyph glyph-name="iogonek" unicode="&#x12f;" 
d="M142 -186q-50 0 -79 24.5t-29 67.5q0 50 36 94v520h136v-520q-50 -45 -50 -77q0 -30 31 -30q7 0 17 2v-74q-30 -7 -62 -7zM59 656q0 34 22.5 56.5t56.5 22.5t56.5 -22.5t22.5 -56.5t-22.5 -56.5t-56.5 -22.5t-56.5 22.5t-22.5 56.5z" />
    <glyph glyph-name="Idotaccent" unicode="&#x130;" horiz-adv-x="304" 
d="M82 0v700h140v-700h-140zM73 832q0 34 22.5 56.5t56.5 22.5t56.5 -22.5t22.5 -56.5t-22.5 -56.5t-56.5 -22.5t-56.5 22.5t-22.5 56.5z" />
    <glyph glyph-name="dotlessi" unicode="&#x131;" 
d="M70 0v520h136v-520h-136z" />
    <glyph glyph-name="IJ" unicode="&#x132;" horiz-adv-x="912" 
d="M82 0v700h140v-700h-140zM587 -14q-114 0 -180.5 59t-66.5 160v10h133v-9q0 -48 30 -76t84 -28t82.5 28t28.5 76v494h140v-494q0 -98 -69.5 -159t-181.5 -61z" />
    <glyph glyph-name="ij" unicode="&#x133;" horiz-adv-x="552" 
d="M70 0v520h136v-520h-136zM59 656q0 34 22.5 56.5t56.5 22.5t56.5 -22.5t22.5 -56.5t-22.5 -56.5t-56.5 -22.5t-56.5 22.5t-22.5 56.5zM275 -174v105h31q21 0 30.5 7.5t9.5 26.5v555h136v-567q0 -127 -135 -127h-72zM335 656q0 34 22.5 56.5t56.5 22.5t56.5 -22.5
t22.5 -56.5t-22.5 -56.5t-56.5 -22.5t-56.5 22.5t-22.5 56.5z" />
    <glyph glyph-name="Jcircumflex" unicode="&#x134;" horiz-adv-x="608" 
d="M283 -14q-114 0 -180.5 59t-66.5 160v10h133v-9q0 -48 30 -76t84 -28t82.5 28t28.5 76v494h140v-494q0 -98 -69.5 -159t-181.5 -61zM529 894l118 -141h-131l-54 67l-54 -67h-131l118 141h134z" />
    <glyph glyph-name="jcircumflex" unicode="&#x135;" 
d="M-1 -174v105h31q21 0 30.5 7.5t9.5 26.5v555h136v-567q0 -127 -135 -127h-72zM204 733l112 -154h-124l-54 77l-54 -77h-124l112 154h132z" />
    <glyph glyph-name="Kcommaaccent" unicode="&#x136;" horiz-adv-x="651" 
d="M77 0v700h140v-336l247 336h163l-263 -347l271 -353h-165l-253 343v-343h-140zM231 -250l31 177h154l-70 -177h-115z" />
    <glyph glyph-name="kcommaaccent" unicode="&#x137;" horiz-adv-x="544" 
d="M67 0v730h136v-452l165 242h155l-179 -254l185 -266h-155l-171 254v-254h-136zM182 -250l31 177h154l-70 -177h-115z" />
    <glyph glyph-name="kgreenlandic" unicode="&#x138;" horiz-adv-x="544" 
d="M67 0v520h136v-242l165 242h155l-179 -254l185 -266h-155l-171 254v-254h-136z" />
    <glyph glyph-name="Lacute" unicode="&#x139;" horiz-adv-x="580" 
d="M77 0v700h140v-584h322v-116h-462zM85 753l69 141h167l-98 -141h-138z" />
    <glyph glyph-name="lacute" unicode="&#x13a;" 
d="M70 0v730h136v-730h-136zM74 783l69 141h167l-98 -141h-138z" />
    <glyph glyph-name="Lcommaaccent" unicode="&#x13b;" horiz-adv-x="580" 
d="M77 0v700h140v-584h322v-116h-462zM207 -250l31 177h154l-70 -177h-115z" />
    <glyph glyph-name="lcommaaccent" unicode="&#x13c;" 
d="M70 0v730h136v-730h-136zM27 -250l31 177h154l-70 -177h-115z" />
    <glyph glyph-name="Lcaron" unicode="&#x13d;" horiz-adv-x="580" 
d="M326 477l40 223h148l-78 -223h-110zM77 0v700h140v-584h322v-116h-462z" />
    <glyph glyph-name="lcaron" unicode="&#x13e;" horiz-adv-x="455" 
d="M282 507l40 223h148l-78 -223h-110zM72 0v730h136v-730h-136z" />
    <glyph glyph-name="Ldot" unicode="&#x13f;" horiz-adv-x="580" 
d="M77 0v700h140v-584h322v-116h-462zM307 346q0 35 21.5 56.5t56.5 21.5t56.5 -21.5t21.5 -56.5t-21.5 -56.5t-56.5 -21.5t-56.5 21.5t-21.5 56.5z" />
    <glyph glyph-name="ldot" unicode="&#x140;" horiz-adv-x="454" 
d="M72 0v730h136v-730h-136zM273 293q0 35 21.5 56.5t56.5 21.5t56.5 -21.5t21.5 -56.5t-21.5 -56.5t-56.5 -21.5t-56.5 21.5t-21.5 56.5z" />
    <glyph glyph-name="Lslash" unicode="&#x141;" horiz-adv-x="594" 
d="M20 198v124l71 42v336h140v-251l135 81v-124l-135 -81v-209h322v-116h-462v240z" />
    <glyph glyph-name="lslash" unicode="&#x142;" horiz-adv-x="293" 
d="M24 197v133l49 40v360h136v-249l60 49v-133l-60 -49v-348h-136v237z" />
    <glyph glyph-name="Nacute" unicode="&#x143;" horiz-adv-x="729" 
d="M77 0v700h133l305 -466v466h137v-700h-133l-305 466v-466h-137zM287 753l69 141h167l-98 -141h-138z" />
    <glyph glyph-name="nacute" unicode="&#x144;" horiz-adv-x="596" 
d="M67 0v520h130v-62q40 74 153 74q85 0 134.5 -53t49.5 -146v-333h-136v311q0 47 -23.5 75t-71.5 28q-47 0 -73.5 -27t-26.5 -79v-308h-136zM233 579l73 154h168l-106 -154h-135z" />
    <glyph glyph-name="Ncommaaccent" unicode="&#x145;" horiz-adv-x="729" 
d="M77 0v700h133l305 -466v466h137v-700h-133l-305 466v-466h-137zM264 -250l31 177h154l-70 -177h-115z" />
    <glyph glyph-name="ncommaaccent" unicode="&#x146;" horiz-adv-x="596" 
d="M67 0v520h130v-62q40 74 153 74q85 0 134.5 -53t49.5 -146v-333h-136v311q0 47 -23.5 75t-71.5 28q-47 0 -73.5 -27t-26.5 -79v-308h-136zM198 -250l31 177h154l-70 -177h-115z" />
    <glyph glyph-name="Ncaron" unicode="&#x147;" horiz-adv-x="729" 
d="M77 0v700h133l305 -466v466h137v-700h-133l-305 466v-466h-137zM550 894l-118 -141h-134l-118 141h131l54 -67l54 67h131z" />
    <glyph glyph-name="ncaron" unicode="&#x148;" horiz-adv-x="596" 
d="M67 0v520h130v-62q40 74 153 74q85 0 134.5 -53t49.5 -146v-333h-136v311q0 47 -23.5 75t-71.5 28q-47 0 -73.5 -27t-26.5 -79v-308h-136zM478 733l-112 -154h-132l-112 154h124l54 -77l54 77h124z" />
    <glyph glyph-name="napostrophe" unicode="&#x149;" horiz-adv-x="732" 
d="M0 507l40 223h148l-78 -223h-110zM203 0v520h130v-62q40 74 153 74q85 0 134.5 -53t49.5 -146v-333h-136v311q0 47 -23.5 75t-71.5 28q-47 0 -73.5 -27t-26.5 -79v-308h-136z" />
    <glyph glyph-name="Eng" unicode="&#x14a;" horiz-adv-x="729" 
d="M77 0v700h133l305 -466v466h137v-703q0 -87 -43.5 -129t-145.5 -42h-57v108h42q36 0 51.5 14t15.5 46v12l-301 460v-466h-137z" />
    <glyph glyph-name="eng" unicode="&#x14b;" horiz-adv-x="596" 
d="M67 0v520h130v-62q40 74 153 74q85 0 134.5 -53t49.5 -146v-345q0 -81 -43.5 -121.5t-141.5 -40.5h-52v105h37q64 0 64 62v318q0 47 -23.5 75t-71.5 28q-47 0 -73.5 -27t-26.5 -79v-308h-136z" />
    <glyph glyph-name="Omacron" unicode="&#x14c;" horiz-adv-x="736" 
d="M680 401v-102q0 -139 -81 -226t-231 -87q-149 0 -230.5 87t-81.5 226v102q0 139 81.5 226t230.5 87q150 0 231 -87t81 -226zM368 102q85 0 128.5 51.5t43.5 138.5v116q0 87 -43.5 138.5t-128.5 51.5t-128.5 -51.5t-43.5 -138.5v-116q0 -87 43.5 -138.5t128.5 -51.5z
M180 772v109h376v-109h-376z" />
    <glyph glyph-name="omacron" unicode="&#x14d;" horiz-adv-x="578" 
d="M119 599v107h340v-107h-340zM289 -12q-114 0 -179.5 66t-65.5 169v74q0 103 65.5 169t179.5 66t179.5 -66t65.5 -169v-74q0 -103 -65.5 -169t-179.5 -66zM402 214v92q0 53 -28.5 86t-84.5 33t-84.5 -33t-28.5 -86v-92q0 -53 28.5 -86t84.5 -33t84.5 33t28.5 86z" />
    <glyph glyph-name="Obreve" unicode="&#x14e;" horiz-adv-x="736" 
d="M680 401v-102q0 -139 -81 -226t-231 -87q-149 0 -230.5 87t-81.5 226v102q0 139 81.5 226t230.5 87q150 0 231 -87t81 -226zM368 102q85 0 128.5 51.5t43.5 138.5v116q0 87 -43.5 138.5t-128.5 51.5t-128.5 -51.5t-43.5 -138.5v-116q0 -87 43.5 -138.5t128.5 -51.5z
M369 753q-78 0 -129 37.5t-51 103.5h106q0 -27 20 -44t54 -17t54 17t20 44h106q0 -66 -51 -103.5t-129 -37.5z" />
    <glyph glyph-name="obreve" unicode="&#x14f;" horiz-adv-x="578" 
d="M289 -12q-114 0 -179.5 66t-65.5 169v74q0 103 65.5 169t179.5 66t179.5 -66t65.5 -169v-74q0 -103 -65.5 -169t-179.5 -66zM402 214v92q0 53 -28.5 86t-84.5 33t-84.5 -33t-28.5 -86v-92q0 -53 28.5 -86t84.5 -33t84.5 33t28.5 86zM289 579q-80 0 -128.5 41t-48.5 113
h100q0 -33 20.5 -53t56.5 -20t56.5 20t20.5 53h100q0 -72 -48.5 -113t-128.5 -41z" />
    <glyph glyph-name="Ohungarumlaut" unicode="&#x150;" horiz-adv-x="736" 
d="M216 753l43 141h144l-64 -141h-123zM425 753l43 141h144l-64 -141h-123zM680 401v-102q0 -139 -81 -226t-231 -87q-149 0 -230.5 87t-81.5 226v102q0 139 81.5 226t230.5 87q150 0 231 -87t81 -226zM368 102q85 0 128.5 51.5t43.5 138.5v116q0 87 -43.5 138.5
t-128.5 51.5t-128.5 -51.5t-43.5 -138.5v-116q0 -87 43.5 -138.5t128.5 -51.5z" />
    <glyph glyph-name="ohungarumlaut" unicode="&#x151;" horiz-adv-x="578" 
d="M136 579l50 154h147l-73 -154h-124zM337 579l50 154h147l-73 -154h-124zM289 -12q-114 0 -179.5 66t-65.5 169v74q0 103 65.5 169t179.5 66t179.5 -66t65.5 -169v-74q0 -103 -65.5 -169t-179.5 -66zM402 214v92q0 53 -28.5 86t-84.5 33t-84.5 -33t-28.5 -86v-92
q0 -53 28.5 -86t84.5 -33t84.5 33t28.5 86z" />
    <glyph glyph-name="OE" unicode="&#x152;" horiz-adv-x="1064" 
d="M381 0q-158 0 -241.5 85t-83.5 232v66q0 147 83.5 232t241.5 85h632v-116h-350v-171h320v-117h-320v-180h351v-116h-633zM195 311q0 -91 46.5 -143t140.5 -52h141v468h-141q-94 0 -140.5 -52t-46.5 -143v-78z" />
    <glyph glyph-name="oe" unicode="&#x153;" horiz-adv-x="926" 
d="M289 -12q-116 0 -180.5 66t-64.5 169v74q0 103 65.5 169t179.5 66q103 0 177 -68q63 68 176 68q111 0 171.5 -64.5t60.5 -163.5v-91h-340v-13q0 -50 27 -82t83 -32q41 0 69 18.5t38 47.5h119q-14 -72 -77 -118t-149 -46q-120 0 -179 67q-26 -28 -74 -47.5t-102 -19.5z
M402 214v92q0 53 -28.5 86t-84.5 33t-84.5 -33t-28.5 -86v-92q0 -53 28.5 -86t84.5 -33t84.5 33t28.5 86zM534 314v-5h215v13q0 51 -27 82.5t-80 31.5q-56 0 -82 -33t-26 -89z" />
    <glyph glyph-name="Racute" unicode="&#x154;" horiz-adv-x="698" 
d="M492 0l-128 224h-147v-224h-140v700h316q120 0 186.5 -66t66.5 -172q0 -74 -36.5 -131t-101.5 -85l146 -246h-162zM217 337h159q63 0 96.5 34.5t33.5 91.5t-33.5 90t-96.5 33h-159v-249zM249 753l69 141h167l-98 -141h-138z" />
    <glyph glyph-name="racute" unicode="&#x155;" horiz-adv-x="394" 
d="M67 0v520h129v-101q23 105 156 105h16v-135h-28q-137 0 -137 -149v-240h-136zM141 579l73 154h168l-106 -154h-135z" />
    <glyph glyph-name="Rcommaaccent" unicode="&#x156;" horiz-adv-x="698" 
d="M492 0l-128 224h-147v-224h-140v700h316q120 0 186.5 -66t66.5 -172q0 -74 -36.5 -131t-101.5 -85l146 -246h-162zM217 337h159q63 0 96.5 34.5t33.5 91.5t-33.5 90t-96.5 33h-159v-249zM244 -250l31 177h154l-70 -177h-115z" />
    <glyph glyph-name="rcommaaccent" unicode="&#x157;" horiz-adv-x="394" 
d="M67 0v520h129v-101q23 105 156 105h16v-135h-28q-137 0 -137 -149v-240h-136zM23 -250l31 177h154l-70 -177h-115z" />
    <glyph glyph-name="Rcaron" unicode="&#x158;" horiz-adv-x="698" 
d="M492 0l-128 224h-147v-224h-140v700h316q120 0 186.5 -66t66.5 -172q0 -74 -36.5 -131t-101.5 -85l146 -246h-162zM217 337h159q63 0 96.5 34.5t33.5 91.5t-33.5 90t-96.5 33h-159v-249zM519 894l-118 -141h-134l-118 141h131l54 -67l54 67h131z" />
    <glyph glyph-name="rcaron" unicode="&#x159;" horiz-adv-x="394" 
d="M67 0v520h129v-101q23 105 156 105h16v-135h-28q-137 0 -137 -149v-240h-136zM407 733l-112 -154h-132l-112 154h124l54 -77l54 77h124z" />
    <glyph glyph-name="Sacute" unicode="&#x15a;" horiz-adv-x="654" 
d="M329 -14q-125 0 -199.5 57.5t-74.5 159.5v18h134v-15q0 -50 38 -81t107 -31q63 0 100 27t37 75q0 62 -66 79l-183 47q-81 21 -118.5 62.5t-37.5 118.5q0 98 69.5 154.5t187.5 56.5q115 0 184 -58t69 -151v-17h-129v14q0 47 -31 75.5t-93 28.5q-57 0 -89.5 -23t-32.5 -68
q0 -59 60 -74l192 -51q153 -40 153 -183q0 -99 -78.5 -160t-198.5 -61zM252 753l69 141h167l-98 -141h-138z" />
    <glyph glyph-name="sacute" unicode="&#x15b;" horiz-adv-x="531" 
d="M269 -12q-102 0 -163 42.5t-61 123.5v9h120v-7q0 -34 28.5 -53t76.5 -19q44 0 71.5 17t27.5 46q0 37 -43 47l-154 35q-119 27 -119 137q0 79 57.5 122.5t152.5 43.5q94 0 150 -44.5t56 -121.5v-8h-119v9q0 68 -85 68t-85 -57q0 -35 40 -44l158 -39q116 -29 116 -133
q0 -76 -64 -125t-161 -49zM196 579l73 154h168l-106 -154h-135z" />
    <glyph glyph-name="Scircumflex" unicode="&#x15c;" horiz-adv-x="654" 
d="M329 -14q-125 0 -199.5 57.5t-74.5 159.5v18h134v-15q0 -50 38 -81t107 -31q63 0 100 27t37 75q0 62 -66 79l-183 47q-81 21 -118.5 62.5t-37.5 118.5q0 98 69.5 154.5t187.5 56.5q115 0 184 -58t69 -151v-17h-129v14q0 47 -31 75.5t-93 28.5q-57 0 -89.5 -23t-32.5 -68
q0 -59 60 -74l192 -51q153 -40 153 -183q0 -99 -78.5 -160t-198.5 -61zM400 894l118 -141h-131l-54 67l-54 -67h-131l118 141h134z" />
    <glyph glyph-name="scircumflex" unicode="&#x15d;" horiz-adv-x="531" 
d="M269 -12q-102 0 -163 42.5t-61 123.5v9h120v-7q0 -34 28.5 -53t76.5 -19q44 0 71.5 17t27.5 46q0 37 -43 47l-154 35q-119 27 -119 137q0 79 57.5 122.5t152.5 43.5q94 0 150 -44.5t56 -121.5v-8h-119v9q0 68 -85 68t-85 -57q0 -35 40 -44l158 -39q116 -29 116 -133
q0 -76 -64 -125t-161 -49zM338 733l112 -154h-124l-54 77l-54 -77h-124l112 154h132z" />
    <glyph glyph-name="Scedilla" unicode="&#x15e;" horiz-adv-x="654" 
d="M332 -186q-44 0 -71 6v55q23 -5 47 -5q40 0 40 22q0 20 -37 23l-36 3l16 70q-109 8 -172.5 65t-63.5 150v18h134v-15q0 -50 38 -81t107 -31q63 0 100 27t37 75q0 62 -66 79l-183 47q-81 21 -118.5 62.5t-37.5 118.5q0 98 69.5 154.5t187.5 56.5q115 0 184 -58t69 -151
v-17h-129v14q0 47 -31 75.5t-93 28.5q-57 0 -89.5 -23t-32.5 -68q0 -59 60 -74l192 -51q153 -40 153 -183q0 -92 -70 -152t-180 -68l-4 -23l16 -2q77 -10 77 -69q0 -36 -30 -57.5t-83 -21.5z" />
    <glyph glyph-name="Scedilla" unicode="&#xf6c1;" horiz-adv-x="654" 
d="M332 -186q-44 0 -71 6v55q23 -5 47 -5q40 0 40 22q0 20 -37 23l-36 3l16 70q-109 8 -172.5 65t-63.5 150v18h134v-15q0 -50 38 -81t107 -31q63 0 100 27t37 75q0 62 -66 79l-183 47q-81 21 -118.5 62.5t-37.5 118.5q0 98 69.5 154.5t187.5 56.5q115 0 184 -58t69 -151
v-17h-129v14q0 47 -31 75.5t-93 28.5q-57 0 -89.5 -23t-32.5 -68q0 -59 60 -74l192 -51q153 -40 153 -183q0 -92 -70 -152t-180 -68l-4 -23l16 -2q77 -10 77 -69q0 -36 -30 -57.5t-83 -21.5z" />
    <glyph glyph-name="scedilla" unicode="&#x15f;" horiz-adv-x="531" 
d="M274 -186q-44 0 -71 6v55q23 -5 47 -5q40 0 40 22q0 20 -37 23l-36 3l16 72q-87 7 -137.5 48.5t-50.5 115.5v9h120v-7q0 -34 28.5 -53t76.5 -19q44 0 71.5 17t27.5 46q0 37 -43 47l-154 35q-119 27 -119 137q0 79 57.5 122.5t152.5 43.5q94 0 150 -44.5t56 -121.5v-8
h-119v9q0 68 -85 68t-85 -57q0 -35 40 -44l158 -39q116 -29 116 -133q0 -69 -54.5 -117t-140.5 -56l-5 -25l16 -2q77 -10 77 -69q0 -36 -30 -57.5t-83 -21.5z" />
    <glyph glyph-name="scedilla" unicode="&#xf6c2;" horiz-adv-x="531" 
d="M274 -186q-44 0 -71 6v55q23 -5 47 -5q40 0 40 22q0 20 -37 23l-36 3l16 72q-87 7 -137.5 48.5t-50.5 115.5v9h120v-7q0 -34 28.5 -53t76.5 -19q44 0 71.5 17t27.5 46q0 37 -43 47l-154 35q-119 27 -119 137q0 79 57.5 122.5t152.5 43.5q94 0 150 -44.5t56 -121.5v-8
h-119v9q0 68 -85 68t-85 -57q0 -35 40 -44l158 -39q116 -29 116 -133q0 -69 -54.5 -117t-140.5 -56l-5 -25l16 -2q77 -10 77 -69q0 -36 -30 -57.5t-83 -21.5z" />
    <glyph glyph-name="Scaron" unicode="&#x160;" horiz-adv-x="654" 
d="M329 -14q-125 0 -199.5 57.5t-74.5 159.5v18h134v-15q0 -50 38 -81t107 -31q63 0 100 27t37 75q0 62 -66 79l-183 47q-81 21 -118.5 62.5t-37.5 118.5q0 98 69.5 154.5t187.5 56.5q115 0 184 -58t69 -151v-17h-129v14q0 47 -31 75.5t-93 28.5q-57 0 -89.5 -23t-32.5 -68
q0 -59 60 -74l192 -51q153 -40 153 -183q0 -99 -78.5 -160t-198.5 -61zM515 894l-118 -141h-134l-118 141h131l54 -67l54 67h131z" />
    <glyph glyph-name="scaron" unicode="&#x161;" horiz-adv-x="531" 
d="M269 -12q-102 0 -163 42.5t-61 123.5v9h120v-7q0 -34 28.5 -53t76.5 -19q44 0 71.5 17t27.5 46q0 37 -43 47l-154 35q-119 27 -119 137q0 79 57.5 122.5t152.5 43.5q94 0 150 -44.5t56 -121.5v-8h-119v9q0 68 -85 68t-85 -57q0 -35 40 -44l158 -39q116 -29 116 -133
q0 -76 -64 -125t-161 -49zM443 733l-112 -154h-132l-112 154h124l54 -77l54 77h124z" />
    <glyph glyph-name="Tcommaaccent" unicode="&#x162;" horiz-adv-x="588" 
d="M224 0v584h-198v116h536v-116h-198v-584h-140zM184 -250l31 177h154l-70 -177h-115z" />
    <glyph glyph-name="Tcommaaccent" unicode="&#x21a;" horiz-adv-x="588" 
d="M224 0v584h-198v116h536v-116h-198v-584h-140zM184 -250l31 177h154l-70 -177h-115z" />
    <glyph glyph-name="tcommaaccent" unicode="&#x163;" horiz-adv-x="384" 
d="M248 0q-73 0 -110 38.5t-37 109.5v262h-74v110h74v142h137v-142h111v-110h-111v-252q0 -26 11 -37t38 -11h55v-110h-94zM122 -250l31 177h154l-70 -177h-115z" />
    <glyph glyph-name="tcommaaccent" unicode="&#x21b;" horiz-adv-x="384" 
d="M248 0q-73 0 -110 38.5t-37 109.5v262h-74v110h74v142h137v-142h111v-110h-111v-252q0 -26 11 -37t38 -11h55v-110h-94zM122 -250l31 177h154l-70 -177h-115z" />
    <glyph glyph-name="Tcaron" unicode="&#x164;" horiz-adv-x="588" 
d="M224 0v584h-198v116h536v-116h-198v-584h-140zM479 894l-118 -141h-134l-118 141h131l54 -67l54 67h131z" />
    <glyph glyph-name="tcaron" unicode="&#x165;" horiz-adv-x="434" 
d="M286 577l18 153h145l-56 -153h-107zM248 0q-73 0 -110 38.5t-37 109.5v262h-74v110h74v142h137v-142h111v-110h-111v-252q0 -26 11 -37t38 -11h55v-110h-94z" />
    <glyph glyph-name="Tbar" unicode="&#x166;" horiz-adv-x="588" 
d="M96 271v112h128v201h-198v116h536v-116h-198v-201h128v-112h-128v-271h-140v271h-128z" />
    <glyph glyph-name="tbar" unicode="&#x167;" horiz-adv-x="384" 
d="M28 214v103h73v93h-74v110h74v142h137v-142h111v-110h-111v-93h95v-103h-95v-56q0 -26 11 -37t38 -11h55v-110h-94q-73 0 -110 38.5t-37 109.5v66h-73z" />
    <glyph glyph-name="Utilde" unicode="&#x168;" horiz-adv-x="720" 
d="M360 -14q-134 0 -211 73t-77 193v448h139v-454q0 -68 40.5 -106t108.5 -38t108 38t40 106v454h140v-448q0 -120 -77 -193t-211 -73zM235 749l-90 20q13 68 38.5 99t81.5 31q36 0 104.5 -21t79.5 -21q5 0 10 1.5t8 2.5t6.5 5t5 6t4 8t3.5 7.5t3.5 8.5t2.5 8l89 -25
q-20 -68 -43 -96.5t-75 -28.5q-24 0 -93 21t-92 21q-31 0 -43 -47z" />
    <glyph glyph-name="utilde" unicode="&#x169;" horiz-adv-x="592" 
d="M525 520v-520h-130v62q-18 -33 -59.5 -53.5t-91.5 -20.5q-86 0 -134 54.5t-48 144.5v333h136v-314q0 -104 92 -104q47 0 73 28t26 77v313h136zM191 577l-85 21q9 62 34.5 95.5t79.5 33.5q29 0 87.5 -21.5t71.5 -21.5t22 8.5t11.5 14.5t8.5 24l84 -26q-9 -30 -16 -47.5
t-19.5 -37.5t-31.5 -29t-45 -9q-24 0 -82 21.5t-79 21.5q-18 0 -25.5 -11t-15.5 -37z" />
    <glyph glyph-name="Umacron" unicode="&#x16a;" horiz-adv-x="720" 
d="M360 -14q-134 0 -211 73t-77 193v448h139v-454q0 -68 40.5 -106t108.5 -38t108 38t40 106v454h140v-448q0 -120 -77 -193t-211 -73zM172 772v109h376v-109h-376z" />
    <glyph glyph-name="umacron" unicode="&#x16b;" horiz-adv-x="592" 
d="M525 520v-520h-130v62q-18 -33 -59.5 -53.5t-91.5 -20.5q-86 0 -134 54.5t-48 144.5v333h136v-314q0 -104 92 -104q47 0 73 28t26 77v313h136zM134 599v107h340v-107h-340z" />
    <glyph glyph-name="Ubreve" unicode="&#x16c;" horiz-adv-x="720" 
d="M360 -14q-134 0 -211 73t-77 193v448h139v-454q0 -68 40.5 -106t108.5 -38t108 38t40 106v454h140v-448q0 -120 -77 -193t-211 -73zM360 753q-78 0 -129 37.5t-51 103.5h106q0 -27 20 -44t54 -17t54 17t20 44h106q0 -66 -51 -103.5t-129 -37.5z" />
    <glyph glyph-name="ubreve" unicode="&#x16d;" horiz-adv-x="592" 
d="M525 520v-520h-130v62q-18 -33 -59.5 -53.5t-91.5 -20.5q-86 0 -134 54.5t-48 144.5v333h136v-314q0 -104 92 -104q47 0 73 28t26 77v313h136zM312 579q-80 0 -128.5 41t-48.5 113h100q0 -33 20.5 -53t56.5 -20t56.5 20t20.5 53h100q0 -72 -48.5 -113t-128.5 -41z" />
    <glyph glyph-name="Uring" unicode="&#x16e;" horiz-adv-x="720" 
d="M360 -14q-134 0 -211 73t-77 193v448h139v-454q0 -68 40.5 -106t108.5 -38t108 38t40 106v454h140v-448q0 -120 -77 -193t-211 -73zM360 803q21 0 33.5 12t12.5 31t-12.5 30.5t-33.5 11.5t-33.5 -11.5t-12.5 -30.5t12.5 -31t33.5 -12zM360 753q-49 0 -77.5 27t-28.5 66
t29.5 65.5t76.5 26.5q48 0 77 -26.5t29 -65.5t-28.5 -66t-77.5 -27z" />
    <glyph glyph-name="uring" unicode="&#x16f;" horiz-adv-x="592" 
d="M525 520v-520h-130v62q-18 -33 -59.5 -53.5t-91.5 -20.5q-86 0 -134 54.5t-48 144.5v333h136v-314q0 -104 92 -104q47 0 73 28t26 77v313h136zM300 629q21 0 33.5 12t12.5 31t-12.5 30.5t-33.5 11.5t-33.5 -11.5t-12.5 -30.5t12.5 -31t33.5 -12zM300 579q-49 0 -77.5 27
t-28.5 66t29.5 65.5t76.5 26.5q48 0 77 -26.5t29 -65.5t-28.5 -66t-77.5 -27z" />
    <glyph glyph-name="Uhungarumlaut" unicode="&#x170;" horiz-adv-x="720" 
d="M360 -14q-134 0 -211 73t-77 193v448h139v-454q0 -68 40.5 -106t108.5 -38t108 38t40 106v454h140v-448q0 -120 -77 -193t-211 -73zM197 753l43 141h144l-64 -141h-123zM406 753l43 141h144l-64 -141h-123z" />
    <glyph glyph-name="uhungarumlaut" unicode="&#x171;" horiz-adv-x="592" 
d="M525 520v-520h-130v62q-18 -33 -59.5 -53.5t-91.5 -20.5q-86 0 -134 54.5t-48 144.5v333h136v-314q0 -104 92 -104q47 0 73 28t26 77v313h136zM136 579l50 154h147l-73 -154h-124zM337 579l50 154h147l-73 -154h-124z" />
    <glyph glyph-name="Uogonek" unicode="&#x172;" horiz-adv-x="720" 
d="M404 -186q-49 0 -76 23.5t-27 64.5q0 51 52 84q-131 2 -206 74.5t-75 191.5v448h139v-454q0 -68 40.5 -106t108.5 -38t108 38t40 106v454h140v-448q0 -154 -133 -233q-92 -54 -92 -98q0 -28 34 -28q15 0 25 3v-72q-38 -10 -78 -10z" />
    <glyph glyph-name="uogonek" unicode="&#x173;" horiz-adv-x="592" 
d="M525 520v-520q-61 -43 -61 -79q0 -28 34 -28q14 0 25 3v-72q-38 -10 -78 -10q-46 0 -74.5 24t-28.5 67q0 54 53 95v62q-18 -33 -59.5 -53.5t-91.5 -20.5q-86 0 -134 54.5t-48 144.5v333h136v-314q0 -104 92 -104q47 0 73 28t26 77v313h136z" />
    <glyph glyph-name="Wcircumflex" unicode="&#x174;" horiz-adv-x="966" 
d="M551 700l146 -506l101 506h138l-165 -700h-135l-153 539l-153 -539h-135l-165 700h138l101 -506l146 506h136zM550 894l118 -141h-131l-54 67l-54 -67h-131l118 141h134z" />
    <glyph glyph-name="wcircumflex" unicode="&#x175;" horiz-adv-x="788" 
d="M770 520l-135 -520h-127l-114 358l-114 -358h-127l-135 520h132l76 -349l106 349h124l106 -349l76 349h132zM460 733l112 -154h-124l-54 77l-54 -77h-124l112 154h132z" />
    <glyph glyph-name="Ycircumflex" unicode="&#x176;" horiz-adv-x="636" 
d="M388 252v-252h-140v252l-240 448h152l158 -312l158 312h152zM385 894l118 -141h-131l-54 67l-54 -67h-131l118 141h134z" />
    <glyph glyph-name="ycircumflex" unicode="&#x177;" horiz-adv-x="511" 
d="M273 -174h-134l52 176l-180 518h136l112 -373l106 373h135zM331 733l112 -154h-124l-54 77l-54 -77h-124l112 154h132z" />
    <glyph glyph-name="Ydieresis" unicode="&#x178;" horiz-adv-x="636" 
d="M388 252v-252h-140v252l-240 448h152l158 -312l158 312h152zM133 826q0 32 20.5 52.5t52.5 20.5t52.5 -20.5t20.5 -52.5t-20.5 -52.5t-52.5 -20.5t-52.5 20.5t-20.5 52.5zM357 826q0 32 20.5 52.5t52.5 20.5t52.5 -20.5t20.5 -52.5t-20.5 -52.5t-52.5 -20.5t-52.5 20.5
t-20.5 52.5z" />
    <glyph glyph-name="Zacute" unicode="&#x179;" horiz-adv-x="624" 
d="M55 0v116l351 468h-336v116h493v-116l-351 -468h360v-116h-517zM243 753l69 141h167l-98 -141h-138z" />
    <glyph glyph-name="zacute" unicode="&#x17a;" horiz-adv-x="505" 
d="M45 0v98l257 317h-245v105h402v-98l-257 -317h263v-105h-420zM185 579l73 154h168l-106 -154h-135z" />
    <glyph glyph-name="Zdotaccent" unicode="&#x17b;" horiz-adv-x="624" 
d="M55 0v116l351 468h-336v116h493v-116l-351 -468h360v-116h-517zM243 832q0 34 22.5 56.5t56.5 22.5t56.5 -22.5t22.5 -56.5t-22.5 -56.5t-56.5 -22.5t-56.5 22.5t-22.5 56.5z" />
    <glyph glyph-name="zdotaccent" unicode="&#x17c;" horiz-adv-x="505" 
d="M45 0v98l257 317h-245v105h402v-98l-257 -317h263v-105h-420zM185 658q0 34 22.5 56.5t56.5 22.5t56.5 -22.5t22.5 -56.5t-22.5 -56.5t-56.5 -22.5t-56.5 22.5t-22.5 56.5z" />
    <glyph glyph-name="Zcaron" unicode="&#x17d;" horiz-adv-x="624" 
d="M55 0v116l351 468h-336v116h493v-116l-351 -468h360v-116h-517zM517 894l-118 -141h-134l-118 141h131l54 -67l54 67h131z" />
    <glyph glyph-name="zcaron" unicode="&#x17e;" horiz-adv-x="505" 
d="M45 0v98l257 317h-245v105h402v-98l-257 -317h263v-105h-420zM448 733l-112 -154h-132l-112 154h124l54 -77l54 77h124z" />
    <glyph glyph-name="florin" unicode="&#x192;" horiz-adv-x="464" 
d="M25 -174v111h50q27 0 39.5 11.5t14.5 37.5l29 340h-75v111h85l10 113q13 150 151 150h100v-111h-64q-26 0 -37.5 -12t-13.5 -39l-9 -101h93v-111h-103l-31 -355q-7 -77 -44.5 -111t-112.5 -34h-82z" />
    <glyph glyph-name="Aringacute" unicode="&#x1fa;" horiz-adv-x="690" 
d="M450 740q0 -35 -27 -60l244 -680h-139l-47 147h-272l-47 -147h-139l243 679q-26 24 -26 61q0 39 28 64t77 25t77 -25t28 -64zM345 574l-101 -316h201zM288 855l47 110h166l-75 -110h-138zM345 700q21 0 34 11t13 29q0 19 -12.5 30t-34.5 11t-34.5 -11t-12.5 -30
q0 -18 12.5 -29t34.5 -11z" />
    <glyph glyph-name="aringacute" unicode="&#x1fb;" horiz-adv-x="585" 
d="M318 615q23 0 36 12t13 30q0 19 -13 31t-36 12t-36 -12t-13 -31q0 -18 13 -30t36 -12zM318 569q-50 0 -77.5 24.5t-27.5 63.5t28 64t77 25t77 -25t28 -64t-27.5 -63.5t-77.5 -24.5zM262 777l47 110h166l-75 -110h-138zM242 -12q-89 0 -143 43.5t-54 118.5
q0 82 56.5 123.5t153.5 41.5q79 0 132 -44v71q0 37 -24.5 60.5t-65.5 23.5q-65 0 -90 -49h-126q22 75 80 115t143 40q98 0 158.5 -55t60.5 -145v-332h-131v48q-18 -26 -61 -43t-89 -17zM277 78q45 0 77.5 22t32.5 55q0 34 -29.5 53.5t-76.5 19.5q-49 0 -76.5 -19t-27.5 -55
q0 -35 28 -55.5t72 -20.5z" />
    <glyph glyph-name="AEacute" unicode="&#x1fc;" horiz-adv-x="1068" 
d="M513 753l69 141h167l-98 -141h-138zM527 0v148h-282l-95 -148h-150l469 700h548v-116h-350v-171h320v-117h-320v-180h351v-116h-491zM317 260h210v326z" />
    <glyph glyph-name="aeacute" unicode="&#x1fd;" horiz-adv-x="915" 
d="M396 579l73 154h168l-106 -154h-135zM633 -12q-123 0 -186 77q-71 -77 -193 -77q-94 0 -151.5 46.5t-57.5 122.5q0 79 58 119.5t152 40.5q85 0 132 -45v63q0 39 -23.5 64.5t-65.5 25.5q-65 0 -91 -48h-126q18 76 75.5 115.5t142.5 39.5q104 0 160 -64q57 64 172 64
q111 0 171.5 -64.5t60.5 -163.5v-91h-340v-13q0 -50 27 -82t83 -32q41 0 69 18.5t38 47.5h119q-14 -72 -77 -118t-149 -46zM277 79q46 0 78 21.5t32 54.5q0 34 -30 54.5t-76 20.5q-49 0 -76.5 -19t-27.5 -55q0 -35 28 -56t72 -21zM523 309h215v13q0 51 -27 82.5t-80 31.5
q-54 0 -81 -30.5t-27 -81.5v-15z" />
    <glyph glyph-name="Oslashacute" unicode="&#x1fe;" horiz-adv-x="736" 
d="M299 753l69 141h167l-98 -141h-138zM680 401v-102q0 -139 -81 -226t-231 -87q-96 0 -168 39l-49 -75h-95l81 123q-81 84 -81 226v102q0 139 81.5 226t230.5 87q97 0 167 -39l50 75h95l-81 -123q81 -84 81 -226zM196 292q0 -59 19 -101l252 381q-42 26 -99 26
q-85 0 -128.5 -51.5t-43.5 -138.5v-116zM368 102q85 0 128.5 51.5t43.5 138.5v116q0 63 -20 100l-251 -380q35 -26 99 -26z" />
    <glyph glyph-name="oslashacute" unicode="&#x1ff;" horiz-adv-x="578" 
d="M216 579l73 154h168l-106 -154h-135zM289 -12q-73 0 -127 28l-44 -66h-74l68 101q-68 65 -68 172v74q0 103 65.5 169t179.5 66q72 0 126 -28l45 66h74l-68 -102q68 -65 68 -171v-74q0 -103 -65.5 -169t-179.5 -66zM176 214q0 -30 9 -54l167 249q-27 16 -63 16
q-56 0 -84.5 -33t-28.5 -86v-92zM402 214v92q0 29 -9 53l-167 -249q24 -15 63 -15q56 0 84.5 33t28.5 86z" />
    <glyph glyph-name="Scommaaccent" unicode="&#x218;" horiz-adv-x="654" 
d="M329 -14q-125 0 -199.5 57.5t-74.5 159.5v18h134v-15q0 -50 38 -81t107 -31q63 0 100 27t37 75q0 62 -66 79l-183 47q-81 21 -118.5 62.5t-37.5 118.5q0 98 69.5 154.5t187.5 56.5q115 0 184 -58t69 -151v-17h-129v14q0 47 -31 75.5t-93 28.5q-57 0 -89.5 -23t-32.5 -68
q0 -59 60 -74l192 -51q153 -40 153 -183q0 -99 -78.5 -160t-198.5 -61zM225 -250l31 177h154l-70 -177h-115z" />
    <glyph glyph-name="scommaaccent" unicode="&#x219;" horiz-adv-x="531" 
d="M269 -12q-102 0 -163 42.5t-61 123.5v9h120v-7q0 -34 28.5 -53t76.5 -19q44 0 71.5 17t27.5 46q0 37 -43 47l-154 35q-119 27 -119 137q0 79 57.5 122.5t152.5 43.5q94 0 150 -44.5t56 -121.5v-8h-119v9q0 68 -85 68t-85 -57q0 -35 40 -44l158 -39q116 -29 116 -133
q0 -76 -64 -125t-161 -49zM167 -250l31 177h154l-70 -177h-115z" />
    <glyph glyph-name="circumflex" unicode="&#x2c6;" horiz-adv-x="510" 
d="M321 733l112 -154h-124l-54 77l-54 -77h-124l112 154h132z" />
    <glyph glyph-name="caron" unicode="&#x2c7;" horiz-adv-x="510" 
d="M433 733l-112 -154h-132l-112 154h124l54 -77l54 77h124z" />
    <glyph glyph-name="breve" unicode="&#x2d8;" horiz-adv-x="508" 
d="M254 579q-80 0 -128.5 41t-48.5 113h100q0 -33 20.5 -53t56.5 -20t56.5 20t20.5 53h100q0 -72 -48.5 -113t-128.5 -41z" />
    <glyph glyph-name="dotaccent" unicode="&#x2d9;" horiz-adv-x="312" 
d="M77 658q0 34 22.5 56.5t56.5 22.5t56.5 -22.5t22.5 -56.5t-22.5 -56.5t-56.5 -22.5t-56.5 22.5t-22.5 56.5z" />
    <glyph glyph-name="ring" unicode="&#x2da;" horiz-adv-x="366" 
d="M183 629q21 0 33.5 12t12.5 31t-12.5 30.5t-33.5 11.5t-33.5 -11.5t-12.5 -30.5t12.5 -31t33.5 -12zM183 579q-49 0 -77.5 27t-28.5 66t29.5 65.5t76.5 26.5q48 0 77 -26.5t29 -65.5t-28.5 -66t-77.5 -27z" />
    <glyph glyph-name="ogonek" unicode="&#x2db;" horiz-adv-x="337" 
d="M180 -186q-49 0 -76 23.5t-27 64.5q0 60 52 98h131q-61 -38 -61 -79q0 -28 34 -28q15 0 25 3v-72q-38 -10 -78 -10z" />
    <glyph glyph-name="tilde" unicode="&#x2dc;" horiz-adv-x="553" 
d="M162 577l-85 21q9 62 34.5 95.5t79.5 33.5q29 0 87.5 -21.5t71.5 -21.5t22 8.5t11.5 14.5t8.5 24l84 -26q-9 -30 -16 -47.5t-19.5 -37.5t-31.5 -29t-45 -9q-24 0 -82 21.5t-79 21.5q-18 0 -25.5 -11t-15.5 -37z" />
    <glyph glyph-name="hungarumlaut" unicode="&#x2dd;" horiz-adv-x="552" 
d="M77 579l50 154h147l-73 -154h-124zM278 579l50 154h147l-73 -154h-124z" />
    <glyph glyph-name="uni0312" unicode="&#x312;" horiz-adv-x="363" 
d="M77 579l74 154h134l-40 -154h-168z" />
    <glyph glyph-name="uni0315" unicode="&#x315;" horiz-adv-x="342" 
d="M77 507l40 223h148l-78 -223h-110z" />
    <glyph glyph-name="uni0326" unicode="&#x326;" horiz-adv-x="340" 
d="M77 -250l31 177h154l-70 -177h-115z" />
    <glyph glyph-name="Omega" unicode="&#x3a9;" horiz-adv-x="742" 
d="M677 111v-111h-228v111q41 45 68 110.5t27 133.5v35q0 98 -42.5 153t-130.5 55t-130.5 -55t-42.5 -153v-35q0 -68 27 -133.5t68 -110.5v-111h-228v111h88q-93 113 -93 249v38q0 141 81 228.5t230 87.5t230 -87.5t81 -228.5v-38q0 -136 -93 -249h88z" />
    <glyph glyph-name="pi" unicode="&#x3c0;" horiz-adv-x="728" 
d="M142 0v412h-100v108h644v-108h-120v-247q0 -28 13 -41t43 -13h58v-111h-94q-78 0 -117 40.5t-39 114.5v257h-152v-412h-136z" />
    <glyph glyph-name="Wgrave" unicode="&#x1e80;" horiz-adv-x="966" 
d="M551 700l146 -506l101 506h138l-165 -700h-135l-153 539l-153 -539h-135l-165 700h138l101 -506l146 506h136zM410 753l-98 141h167l69 -141h-138z" />
    <glyph glyph-name="wgrave" unicode="&#x1e81;" horiz-adv-x="788" 
d="M770 520l-135 -520h-127l-114 358l-114 -358h-127l-135 520h132l76 -349l106 349h124l106 -349l76 349h132zM319 579l-104 154h168l73 -154h-137z" />
    <glyph glyph-name="Wacute" unicode="&#x1e82;" horiz-adv-x="966" 
d="M551 700l146 -506l101 506h138l-165 -700h-135l-153 539l-153 -539h-135l-165 700h138l101 -506l146 506h136zM422 753l69 141h167l-98 -141h-138z" />
    <glyph glyph-name="wacute" unicode="&#x1e83;" horiz-adv-x="788" 
d="M770 520l-135 -520h-127l-114 358l-114 -358h-127l-135 520h132l76 -349l106 349h124l106 -349l76 349h132zM337 579l73 154h168l-106 -154h-135z" />
    <glyph glyph-name="Wdieresis" unicode="&#x1e84;" horiz-adv-x="966" 
d="M551 700l146 -506l101 506h138l-165 -700h-135l-153 539l-153 -539h-135l-165 700h138l101 -506l146 506h136zM298 826q0 32 21 52.5t52 20.5t52 -20.5t21 -52.5t-21 -52.5t-52 -20.5t-52 20.5t-21 52.5zM522 826q0 32 21 52.5t52 20.5t52 -20.5t21 -52.5t-21 -52.5
t-52 -20.5t-52 20.5t-21 52.5z" />
    <glyph glyph-name="wdieresis" unicode="&#x1e85;" horiz-adv-x="788" 
d="M770 520l-135 -520h-127l-114 358l-114 -358h-127l-135 520h132l76 -349l106 349h124l106 -349l76 349h132zM216 655q0 31 21 52t52 21t52 -21t21 -52t-21 -52t-52 -21t-52 21t-21 52zM426 655q0 31 21 52t52 21t52 -21t21 -52t-21 -52t-52 -21t-52 21t-21 52z" />
    <glyph glyph-name="Ygrave" unicode="&#x1ef2;" horiz-adv-x="636" 
d="M388 252v-252h-140v252l-240 448h152l158 -312l158 312h152zM252 753l-98 141h167l69 -141h-138z" />
    <glyph glyph-name="ygrave" unicode="&#x1ef3;" horiz-adv-x="511" 
d="M273 -174h-134l52 176l-180 518h136l112 -373l106 373h135zM195 579l-104 154h168l73 -154h-137z" />
    <glyph glyph-name="endash" unicode="&#x2013;" horiz-adv-x="614" 
d="M55 259v122h504v-122h-504z" />
    <glyph glyph-name="emdash" unicode="&#x2014;" horiz-adv-x="913" 
d="M55 259v122h803v-122h-803z" />
    <glyph glyph-name="quoteleft" unicode="&#x2018;" horiz-adv-x="237" 
d="M211 700l-51 -265h-150l90 265h111z" />
    <glyph glyph-name="quoteright" unicode="&#x2019;" horiz-adv-x="237" 
d="M26 435l51 265h150l-90 -265h-111z" />
    <glyph glyph-name="quotesinglbase" unicode="&#x201a;" horiz-adv-x="256" 
d="M15 -129l51 265h150l-90 -265h-111z" />
    <glyph glyph-name="quotedblleft" unicode="&#x201c;" horiz-adv-x="467" 
d="M441 700l-51 -265h-150l90 265h111zM211 700l-51 -265h-150l90 265h111z" />
    <glyph glyph-name="quotedblright" unicode="&#x201d;" horiz-adv-x="467" 
d="M26 435l51 265h150l-90 -265h-111zM256 435l51 265h150l-90 -265h-111z" />
    <glyph glyph-name="quotedblbase" unicode="&#x201e;" horiz-adv-x="486" 
d="M15 -129l51 265h150l-90 -265h-111zM245 -129l51 265h150l-90 -265h-111z" />
    <glyph glyph-name="dagger" unicode="&#x2020;" horiz-adv-x="484" 
d="M187 -100v540h-131v93h131v167h110v-167h131v-93h-131v-540h-110z" />
    <glyph glyph-name="daggerdbl" unicode="&#x2021;" horiz-adv-x="494" 
d="M192 160v280h-131v93h131v167h110v-167h131v-93h-131v-280h131v-93h-131v-167h-110v167h-131v93h131z" />
    <glyph glyph-name="bullet" unicode="&#x2022;" horiz-adv-x="414" 
d="M207 222q-62 0 -99.5 38t-37.5 96t37.5 96t99.5 38t99.5 -38t37.5 -96t-37.5 -96t-99.5 -38z" />
    <glyph glyph-name="ellipsis" unicode="&#x2026;" horiz-adv-x="768" 
d="M50 70q0 35 21.5 56.5t56.5 21.5t56.5 -21.5t21.5 -56.5t-21.5 -56.5t-56.5 -21.5t-56.5 21.5t-21.5 56.5zM306 70q0 35 21.5 56.5t56.5 21.5t56.5 -21.5t21.5 -56.5t-21.5 -56.5t-56.5 -21.5t-56.5 21.5t-21.5 56.5zM562 70q0 35 21.5 56.5t56.5 21.5t56.5 -21.5
t21.5 -56.5t-21.5 -56.5t-56.5 -21.5t-56.5 21.5t-21.5 56.5z" />
    <glyph glyph-name="perthousand" unicode="&#x2030;" horiz-adv-x="1277" 
d="M214 0l360 700h101l-360 -700h-101zM373 553v-81q0 -71 -44 -114t-120 -43t-120 43t-44 114v81q0 71 44 114t120 43t120 -43t44 -114zM277 464v97q0 31 -18 49.5t-50 18.5t-50 -18.5t-18 -49.5v-97q0 -31 18 -49.5t50 -18.5t50 18.5t18 49.5zM844 228v-81q0 -71 -44 -114
t-120 -43t-120 43t-44 114v81q0 71 44 114t120 43t120 -43t44 -114zM748 139v97q0 31 -18 49.5t-50 18.5t-50 -18.5t-18 -49.5v-97q0 -31 18 -49.5t50 -18.5t50 18.5t18 49.5zM1237 228v-81q0 -71 -44 -114t-120 -43t-120 43t-44 114v81q0 71 44 114t120 43t120 -43t44 -114
zM1141 139v97q0 31 -18 49.5t-50 18.5t-50 -18.5t-18 -49.5v-97q0 -31 18 -49.5t50 -18.5t50 18.5t18 49.5z" />
    <glyph glyph-name="guilsinglleft" unicode="&#x2039;" horiz-adv-x="356" 
d="M173 60l-163 216l163 216h153l-162 -216l162 -216h-153z" />
    <glyph glyph-name="guilsinglright" unicode="&#x203a;" horiz-adv-x="356" 
d="M346 276l-163 -216h-153l162 216l-162 216h153z" />
    <glyph glyph-name="fraction" unicode="&#x2044;" horiz-adv-x="401" 
d="M-30 0l360 700h101l-360 -700h-101z" />
    <glyph glyph-name="Euro" unicode="&#x20ac;" horiz-adv-x="671" 
d="M45 388v93h73q2 101 70 167t185 66q110 0 177.5 -65.5t70.5 -161.5h-123q-2 53 -34.5 85.5t-88.5 32.5q-60 0 -91 -33t-31 -88v-3h150v-93h-150v-76h150v-93h-150v-3q0 -55 31 -88t91 -33q56 0 88.5 32.5t34.5 85.5h123q-3 -96 -70.5 -161.5t-177.5 -65.5q-117 0 -185 66
t-70 167h-73v93h73v76h-73z" />
    <glyph glyph-name="published" unicode="&#x2117;" horiz-adv-x="826" 
d="M413 24q144 0 233 96t89 230t-89 230t-233 96t-233 -96t-89 -230t89 -230t233 -96zM413 -12q-160 0 -261.5 105t-101.5 257t101.5 257t261.5 105t261.5 -104.5t101.5 -257.5t-101.5 -257.5t-261.5 -104.5zM295 172v354h150q60 0 96 -33.5t36 -87.5q0 -55 -36.5 -89.5
t-95.5 -34.5h-74v-109h-76zM371 345h65q31 0 48 17t17 43t-17 41.5t-48 15.5h-65v-117z" />
    <glyph glyph-name="trademark" unicode="&#x2122;" horiz-adv-x="654" 
d="M118 404v242h-88v54h238v-54h-88v-242h-62zM602 700v-296h-60v174l-52 -106h-60l-52 106v-174h-60v296h57l85 -174l85 174h57z" />
    <glyph glyph-name="partialdiff" unicode="&#x2202;" horiz-adv-x="596" 
d="M292 -14q-113 0 -180 65t-67 165v32q0 102 59 162.5t156 60.5q48 0 87.5 -16t60.5 -42q-50 174 -278 174h-20v113h27q200 0 304.5 -109.5t104.5 -306.5v-44q0 -110 -70.5 -182t-183.5 -72zM294 95q53 0 85.5 32.5t32.5 83.5v40q0 54 -32.5 85t-83.5 31q-56 0 -86.5 -32
t-30.5 -85v-38q0 -53 31 -85t84 -32z" />
    <glyph glyph-name="Delta" unicode="&#x2206;" horiz-adv-x="688" 
d="M50 0v108l232 592h124l232 -592v-108h-588zM189 116h309l-154 439z" />
    <glyph glyph-name="product" unicode="&#x220f;" horiz-adv-x="827" 
d="M172 -174v763h-130v111h743v-111h-130v-763h-134v763h-215v-763h-134z" />
    <glyph glyph-name="summation" unicode="&#x2211;" horiz-adv-x="605" 
d="M62 -174v111l212 326l-212 326v111h491v-111h-340l207 -326l-207 -326h340v-111h-491z" />
    <glyph glyph-name="minus" unicode="&#x2212;" horiz-adv-x="589" 
d="M65 303v114h459v-114h-459z" />
    <glyph glyph-name="radical" unicode="&#x221a;" horiz-adv-x="737" 
d="M306 -100l-123 338h-128v117h213l112 -327l174 722h128l-220 -850h-156z" />
    <glyph glyph-name="infinity" unicode="&#x221e;" horiz-adv-x="910" 
d="M661 165q-67 0 -122 29.5t-84 72.5q-29 -43 -84 -72.5t-122 -29.5q-87 0 -140.5 52.5t-53.5 142.5t53.5 142.5t140.5 52.5q67 0 122 -29.5t84 -72.5q29 43 84 72.5t122 29.5q87 0 140.5 -52.5t53.5 -142.5t-53.5 -142.5t-140.5 -52.5zM268 449q-42 0 -67.5 -24t-25.5 -65
t25.5 -65t67.5 -24q79 0 130 89q-51 89 -130 89zM642 449q-79 0 -130 -89q51 -89 130 -89q42 0 67.5 24t25.5 65t-25.5 65t-67.5 24z" />
    <glyph glyph-name="integral" unicode="&#x222b;" horiz-adv-x="435" 
d="M42 -174v112h42q32 0 45.5 12.5t13.5 43.5v544q0 162 163 162h77v-112h-46q-32 0 -45.5 -13t-13.5 -43v-544q0 -162 -162 -162h-74z" />
    <glyph glyph-name="approxequal" unicode="&#x2248;" horiz-adv-x="642" 
d="M440 164q-43 0 -123 36l-25.5 11.5l-25.5 11.5t-19.5 6.5t-23.5 3.5q-18 0 -36.5 -10t-27 -18t-25.5 -26l-74 67q32 47 70 70.5t97 23.5q22 0 44.5 -6t35.5 -12l42 -20l14 -7l14 -7t12 -5.5t12.5 -5l11 -3.5t12.5 -2.5t13 -0.5q45 0 83 40l66 -73q-61 -74 -147 -74z
M440 382q-43 0 -123 36l-25.5 11.5l-25.5 11.5t-19.5 6.5t-23.5 3.5q-18 0 -36.5 -10t-27 -18t-25.5 -26l-74 67q32 47 70 70.5t97 23.5q22 0 44.5 -6t35.5 -12l42 -20l14 -7l14 -7t12 -5.5t12.5 -5l11 -3.5t12.5 -2.5t13 -0.5q45 0 83 40l66 -73q-61 -74 -147 -74z" />
    <glyph glyph-name="notequal" unicode="&#x2260;" horiz-adv-x="628" 
d="M85 429v110h254l50 106h120l-50 -106h84v-110h-136l-65 -138h201v-110h-253l-50 -106h-120l50 106h-85v110h137l65 138h-202z" />
    <glyph glyph-name="lessequal" unicode="&#x2264;" horiz-adv-x="597" 
d="M60 0v115h462v-115h-462zM60 441l462 161v-120l-295 -96l295 -96v-120l-462 161v110z" />
    <glyph glyph-name="greaterequal" unicode="&#x2265;" horiz-adv-x="597" 
d="M537 115v-115h-462v115h462zM75 602l462 -161v-110l-462 -161v120l295 96l-295 96v120z" />
    <glyph glyph-name="lozenge" unicode="&#x25ca;" horiz-adv-x="642" 
d="M607 350l-224 -350h-124l-224 350l224 350h124zM321 118l141 232l-141 232l-141 -232z" />
    <glyph glyph-name="apple" unicode="&#xf8ff;" horiz-adv-x="820" 
d="M265 -12q-74 0 -124.5 50.5t-50.5 124.5v362q0 74 50.5 124.5t124.5 50.5h350q74 0 124.5 -50t50.5 -124t-50.5 -124t-124.5 -50h-175v-189q0 -74 -50.5 -124.5t-124.5 -50.5z" />
    <glyph glyph-name="fi" unicode="&#xfb01;" horiz-adv-x="639" 
d="M97 0v410h-66v110h66v48q0 84 40 123t121 39h90v-108h-59q-30 0 -43 -11.5t-13 -41.5v-49h105v-110h-105v-410h-136zM433 0v520h136v-520h-136zM422 656q0 34 22.5 56.5t56.5 22.5t56.5 -22.5t22.5 -56.5t-22.5 -56.5t-56.5 -22.5t-56.5 22.5t-22.5 56.5z" />
    <glyph glyph-name="fl" unicode="&#xfb02;" horiz-adv-x="639" 
d="M97 0v410h-66v110h66v48q0 84 40 123t121 39h90v-108h-59q-30 0 -43 -11.5t-13 -41.5v-49h105v-110h-105v-410h-136zM433 0v730h136v-730h-136z" />
    <glyph glyph-name="acute.case" horiz-adv-x="390" 
d="M77 753l69 141h167l-98 -141h-138z" />
    <glyph glyph-name="breve.case" horiz-adv-x="514" 
d="M257 753q-78 0 -129 37.5t-51 103.5h106q0 -27 20 -44t54 -17t54 17t20 44h106q0 -66 -51 -103.5t-129 -37.5z" />
    <glyph glyph-name="caron.case" horiz-adv-x="524" 
d="M447 894l-118 -141h-134l-118 141h131l54 -67l54 67h131z" />
    <glyph glyph-name="circumflex.case" horiz-adv-x="524" 
d="M329 894l118 -141h-131l-54 67l-54 -67h-131l118 141h134z" />
    <glyph glyph-name="dieresis.case" horiz-adv-x="524" 
d="M77 826q0 32 20.5 52.5t52.5 20.5t52.5 -20.5t20.5 -52.5t-20.5 -52.5t-52.5 -20.5t-52.5 20.5t-20.5 52.5zM301 826q0 32 20.5 52.5t52.5 20.5t52.5 -20.5t20.5 -52.5t-20.5 -52.5t-52.5 -20.5t-52.5 20.5t-20.5 52.5z" />
    <glyph glyph-name="dotaccent.case" horiz-adv-x="312" 
d="M77 832q0 34 22.5 56.5t56.5 22.5t56.5 -22.5t22.5 -56.5t-22.5 -56.5t-56.5 -22.5t-56.5 22.5t-22.5 56.5z" />
    <glyph glyph-name="grave.case" horiz-adv-x="390" 
d="M175 753l-98 141h167l69 -141h-138z" />
    <glyph glyph-name="hungarumlaut.case" horiz-adv-x="558" 
d="M81 753l43 141h144l-64 -141h-123zM290 753l43 141h144l-64 -141h-123z" />
    <glyph glyph-name="macron.case" horiz-adv-x="530" 
d="M77 772v109h376v-109h-376z" />
    <glyph glyph-name="ring.case" horiz-adv-x="366" 
d="M183 803q21 0 33.5 12t12.5 31t-12.5 30.5t-33.5 11.5t-33.5 -11.5t-12.5 -30.5t12.5 -31t33.5 -12zM183 753q-49 0 -77.5 27t-28.5 66t29.5 65.5t76.5 26.5q48 0 77 -26.5t29 -65.5t-28.5 -66t-77.5 -27z" />
    <glyph glyph-name="tilde.case" horiz-adv-x="590" 
d="M167 749l-90 20q13 68 38.5 99t81.5 31q36 0 104.5 -21t79.5 -21q5 0 10 1.5t8 2.5t6.5 5t5 6t4 8t3.5 7.5t3.5 8.5t2.5 8l89 -25q-20 -68 -43 -96.5t-75 -28.5q-24 0 -93 21t-92 21q-31 0 -43 -47z" />
    <glyph glyph-name="J.salt" horiz-adv-x="612" 
d="M287 -14q-114 0 -180.5 59t-66.5 160v10h133v-9q0 -48 30 -76t84 -28t82.5 28t28.5 76v378h-297v116h437v-494q0 -98 -69.5 -159t-181.5 -61z" />
    <glyph glyph-name="IJ.salt" horiz-adv-x="916" 
d="M82 0v700h140v-700h-140zM591 -14q-114 0 -180.5 59t-66.5 160v10h133v-9q0 -48 30 -76t84 -28t82.5 28t28.5 76v378h-297v116h437v-494q0 -98 -69.5 -159t-181.5 -61z" />
    <glyph glyph-name="Jcircumflex.salt" horiz-adv-x="612" 
d="M402 894l118 -141h-131l-54 67l-54 -67h-131l118 141h134zM287 -14q-114 0 -180.5 59t-66.5 160v10h133v-9q0 -48 30 -76t84 -28t82.5 28t28.5 76v378h-297v116h437v-494q0 -98 -69.5 -159t-181.5 -61z" />
    <glyph glyph-name="ornm01.ornm" horiz-adv-x="1074" 
d="M503 0l350 350l-350 350h164l350 -350l-350 -350h-164zM87 293v114h560v-114h-560z" />
    <glyph glyph-name="ornm02.ornm" horiz-adv-x="1074" 
d="M407 0l-350 350l350 350h164l-350 -350l350 -350h-164zM427 293v114h560v-114h-560z" />
    <glyph glyph-name="ornm03.ornm" horiz-adv-x="887" 
d="M646 89v495h-495l116 116h503v-495zM175 25l-88 88l367 368l88 -89z" />
    <glyph glyph-name="ornm04.ornm" horiz-adv-x="887" 
d="M241 89l-124 116v495h503l116 -116h-495v-495zM712 25l-367 367l88 89l367 -368z" />
    <glyph glyph-name="ornm05.ornm" horiz-adv-x="887" 
d="M267 0l-116 116h495v495l124 -116v-495h-503zM454 219l-367 368l88 88l367 -367z" />
    <glyph glyph-name="ornm06.ornm" horiz-adv-x="887" 
d="M117 0v495l124 116v-495h495l-116 -116h-503zM433 219l-88 89l367 367l88 -88z" />
    <glyph glyph-name="ornm07.ornm" horiz-adv-x="875" 
d="M87 200v164l350 350l350 -350v-164l-350 350zM374 -163v504h126v-504h-126z" />
    <glyph glyph-name="ornm08.ornm" horiz-adv-x="875" 
d="M437 -175l-350 350v164l350 -350l350 350v-164zM374 198v502h126v-502h-126z" />
    <glyph glyph-name="ornm09.ornm" horiz-adv-x="964" 
d="M471 16l282 282l-282 282h164l281 -282l-281 -282h-164zM77 241v114h462v-114h-462z" />
    <glyph glyph-name="ornm10.ornm" horiz-adv-x="964" 
d="M329 16l-282 282l282 282h164l-282 -282l282 -282h-164zM425 241v114h461v-114h-461z" />
    <glyph glyph-name="ornm11.ornm" horiz-adv-x="820" 
d="M595 11v398h-399l116 111h401v-393zM158 -110l-81 80l326 326l81 -80z" />
    <glyph glyph-name="ornm12.ornm" horiz-adv-x="820" 
d="M226 11l-119 116v393h401l116 -111h-398v-398zM663 -110l-326 326l80 80l326 -326z" />
    <glyph glyph-name="ornm13.ornm" horiz-adv-x="820" 
d="M312 0l-116 110h399v399l118 -116v-393h-401zM403 224l-326 326l81 80l326 -326z" />
    <glyph glyph-name="ornm14.ornm" horiz-adv-x="820" 
d="M107 0v393l119 116v-399h398l-116 -110h-401zM417 224l-80 80l326 326l80 -80z" />
    <glyph glyph-name="ornm15.ornm" horiz-adv-x="737" 
d="M87 160v164l282 282l281 -282v-164l-281 282zM308 -158v386h121v-386h-121z" />
    <glyph glyph-name="ornm16.ornm" horiz-adv-x="737" 
d="M369 -168l-282 281v164l282 -281l281 281v-164zM308 209v387h121v-387h-121z" />
    <glyph glyph-name="ornm17.ornm" horiz-adv-x="746" 
d="M115 0q0 159 6 233q-27 15 -35 41q2 2 13.5 10.5t12.5 17.5q5 19 -5 51.5t-11 39.5q-2 16 0 59.5t-2 63.5q-1 14 -11.5 39.5t-11.5 35.5q-1 14 2 38.5t2 41.5t-10 29q29 1 88.5 -1.5t86.5 -0.5q3 4 3.5 11t-0.5 18t-1 15h21q8 -7 12.5 -21t7 -33t3.5 -24q9 -5 40 -12
t41 -17q21 14 44.5 14t46.5 -10q-5 -8 -3.5 -10t13.5 -2q0 -13 6 -23q2 1 7.5 9.5t15.5 4.5q7 -6 24.5 -17.5t24.5 -19.5q15 0 32 11.5t24 13.5q5 -16 37.5 -14.5t43.5 -10.5q3 0 11.5 1t15.5 1t11 -2q-15 -17 -50 -30t-45 -20q-13 -8 -23.5 -19.5t-21.5 -26.5t-19 -24
q-5 -5 -35 -28.5t-39 -39.5q0 -9 3 -31t2 -36q-5 -5 -19.5 -14t-22 -18.5t-8.5 -23.5q19 -21 20 -26q-10 -14 -10 -40t-2 -45q7 -5 33.5 -22.5t42 -31t25.5 -30.5q13 12 27.5 4t18.5 -21q-5 -24 -2 -58h-481z" />
    <glyph glyph-name="ornm18.ornm" horiz-adv-x="895" 
d="M127 -2q-8 0 -19 14q-3 6 0 51q0 4 1 14.5t1 18.5q0 22 2 38q-28 -20 -58 -23q-6 -1 -8 4.5t3 8.5q41 12 66 34l16 15q17 24 28 52q2 7 6 17.5t6.5 18t3.5 14.5l-2 58q-3 36 -3 41q0 31 11.5 54.5t34.5 39t33 20.5t32 14q69 23 138 23q23 0 69 -4l60 -4q9 0 21 2
q6 1 11.5 6.5t9.5 12t8 16t6.5 16l5.5 15t3 9.5q9 32 41 68q1 2 2.5 18t4.5 20q4 1 15 0t13 -2q3 0 28 -5q12 0 14 -3q2 -1 4.5 -5t5.5 -6q7 -1 12 -6q1 -3 13 -15q8 -8 8 -16q0 -5 25 -21q5 -4 11 -7.5t13 -8l12 -7.5q17 -8 14 -18q-3 -7 -20 -12.5t-27 -5.5q-9 0 -24 3
q-40 10 -55 1q-3 -1 -8.5 -13t-6.5 -17q-3 -31 -7 -50q-5 -21 -14.5 -51.5t-10.5 -36.5q-1 -5 -2.5 -16.5t-3.5 -22t-5 -19.5q-18 -31 -19 -34q-5 -7 -13 -55t-10 -73q-5 -46 -3 -109q0 -8 9.5 -20t17.5 -11q5 0 9 -1.5t6 -2.5l1 -2q2 -2 1.5 -9t-3.5 -8l-4 -2l-20 1l6 -6
q1 -2 0 -4l-4 -4h-42q-5 2 -12 15q0 1 -2 9t-4 18t-3 13q-2 4 -6 7t-4 5t1.5 13t1.5 24q0 2 -3 5t-5 7q-1 3 -1 23v44t-1 34q0 4 -2.5 25.5t-2.5 29.5q-2 8 0.5 15.5t2.5 8.5q-1 3 -3 4t-5 1h-6.5t-8 -0.5t-7.5 -0.5q-49 0 -95 34q-12 9 -26.5 25.5t-25.5 26.5t-22 10
q-26 0 -41 -17q-8 -7 -16 -35q-1 -4 -1 -21q-1 -13 -10 -48q-3 -12 -14 -43q-2 -6 -8.5 -15.5l-11.5 -16.5l-5 -6q-4 -5 -10.5 -11.5t-10.5 -11t-4 -7.5q-3 -4 -5.5 -11.5t-3.5 -12.5l-1 -5q-1 -54 0 -62q0 -6 1.5 -10.5t1.5 -5.5q3 -2 7 -5t7 -5q12 -3 13 -6q2 -12 -4 -14
h-26q-7 2 -14 7l-10 9q-1 1 -2.5 16l-3 31.5t-1.5 17.5l-1 4q0 4 -0.5 9.5t-0.5 12.5v14t1 13q0 9 -3 9q-2 0 -5 -5t-9 -12t-8 -10q-2 -4 -11.5 -35t-10.5 -39v-41l8 -8q8 -3 8 -10t-7 -12h-19z" />
    </font>
</defs>
</svg>
