<?xml version="1.0" standalone="no"?>
<!DOCTYPE svg PUBLIC "-//W3C//DTD SVG 1.1//EN" "http://www.w3.org/Graphics/SVG/1.1/DTD/svg11.dtd" >
<svg>
<metadata>
Created by FontForge 20090622 at Wed Dec  9 09:41:03 2015
 By deploy user
Copyright (c) 2012 by Process Type Foundry, LLC. All rights reserved.
</metadata>
<defs>
<font id="Colfax-RegularItalic" horiz-adv-x="248" >
  <font-face 
    font-family="Colfax Regular Italic"
    font-weight="400"
    font-style="italic"
    font-stretch="normal"
    units-per-em="1000"
    panose-1="2 11 3 4 0 0 0 1 0 2"
    ascent="750"
    descent="-250"
    x-height="512"
    cap-height="700"
    bbox="-81 -250 1173 963"
    underline-thickness="36"
    underline-position="-64"
    unicode-range="U+0020-U+FB02"
  />
<missing-glyph horiz-adv-x="714" 
d="M124 0v700h506v-700h-506zM137 12h480v676h-480v-676zM496 444l-94 -94l94 -93l-25 -25l-94 93l-93 -93l-25 25l93 93l-93 94l24 25l94 -94l95 94z" />
    <glyph glyph-name=".notdef" horiz-adv-x="714" 
d="M124 0v700h506v-700h-506zM137 12h480v676h-480v-676zM496 444l-94 -94l94 -93l-25 -25l-94 93l-93 -93l-25 25l93 93l-93 94l24 25l94 -94l95 94z" />
    <glyph glyph-name=".null" horiz-adv-x="0" 
 />
    <glyph glyph-name="nonmarkingreturn" horiz-adv-x="333" 
 />
    <glyph glyph-name="space" unicode=" " horiz-adv-x="220" 
 />
    <glyph glyph-name="exclam" unicode="!" horiz-adv-x="261" 
d="M201 432l-62 -251h-43l27 256l46 263h79zM43 39q0 23 16.5 38t41.5 15q20 0 32.5 -12.5t12.5 -30.5q0 -23 -16.5 -39t-40.5 -16q-20 0 -33 13t-13 32z" />
    <glyph glyph-name="quotedbl" unicode="&#x22;" horiz-adv-x="445" 
d="M106 436l47 264h65l-47 -264h-65zM314 436l47 264h65l-47 -264h-65z" />
    <glyph glyph-name="numbersign" unicode="#" horiz-adv-x="672" 
d="M355 0l62 214h-199l-61 -214h-60l62 214h-108l9 53h114l51 178h-113l10 53h119l58 202h60l-58 -202h198l58 202h60l-58 -202h101l-9 -53h-108l-51 -178h107l-9 -53h-114l-61 -214h-60zM285 445l-51 -178h198l51 178h-198z" />
    <glyph glyph-name="dollar" unicode="$" horiz-adv-x="593" 
d="M525 213q0 -89 -63.5 -148.5t-163.5 -64.5l-19 -110h-73l20 115q-72 14 -117.5 58.5t-45.5 108.5q0 13 2 27l2 13h71l-2 -11q-2 -14 -2 -25q0 -55 44.5 -86t110.5 -31q68 0 114.5 39t46.5 103q0 70 -83 104l-131 53q-110 44 -110 140q0 89 60 142.5t156 58.5l20 111h73
l-20 -116q64 -14 107.5 -56.5t43.5 -101.5q0 -12 -2 -28l-3 -17h-71l3 17q2 10 2 21q0 51 -42.5 81t-103.5 30q-69 0 -109 -36.5t-40 -98.5q0 -57 71 -86l135 -56q119 -49 119 -150z" />
    <glyph glyph-name="percent" unicode="%" horiz-adv-x="850" 
d="M414 545l-15 -85q-12 -64 -52.5 -101.5t-105.5 -37.5q-62 0 -101.5 37t-39.5 95q0 15 3 30l16 90q24 135 157 135q62 0 101.5 -36.5t39.5 -95.5q0 -14 -3 -31zM346 465l14 80q2 14 2 27q0 41 -22.5 65.5t-67.5 24.5t-68.5 -24.5t-32.5 -75.5l-14 -79q-3 -18 -3 -30
q0 -42 24.5 -64.5t66.5 -22.5q40 0 66.5 26t34.5 73zM171 0l485 700h62l-485 -700h-62zM790 216l-15 -85q-12 -64 -52.5 -101.5t-105.5 -37.5q-62 0 -101.5 37t-39.5 95q0 15 3 30l16 90q24 135 157 135q62 0 101.5 -36.5t39.5 -95.5q0 -15 -3 -31zM722 136l14 80q2 14 2 27
q0 41 -22.5 65.5t-67.5 24.5t-68.5 -24.5t-32.5 -75.5l-14 -79q-3 -18 -3 -30q0 -42 24.5 -64.5t66.5 -22.5q40 0 66.5 26t34.5 73z" />
    <glyph glyph-name="ampersand" unicode="&#x26;" horiz-adv-x="690" 
d="M546 517h-63l6 33q2 10 2 20q0 42 -32.5 66t-79.5 24q-53 0 -88.5 -32.5t-35.5 -88.5q0 -47 35 -92l226 -288q27 46 37 103l13 71h63l-13 -73q-15 -85 -62 -150l67 -84l-51 -40l-60 75q-85 -75 -214 -75q-107 0 -174 59.5t-67 149.5q0 83 50.5 139t126.5 80l-2 3
q-42 53 -42 121q0 81 55 128.5t138 47.5q70 0 121.5 -37.5t51.5 -100.5q0 -15 -2 -25zM303 41q108 0 172 65l-212 268q-71 -32 -105.5 -72t-34.5 -110q0 -66 49 -108.5t131 -42.5z" />
    <glyph glyph-name="quotesingle" unicode="'" horiz-adv-x="237" 
d="M106 436l47 264h65l-47 -264h-65z" />
    <glyph glyph-name="parenleft" unicode="(" horiz-adv-x="309" 
d="M288 782h73q-211 -306 -211 -606q0 -141 49 -310h-73q-52 158 -52 315q0 162 56 317t158 284z" />
    <glyph glyph-name="parenright" unicode=")" horiz-adv-x="309" 
d="M42 -134h-73q211 306 211 606q0 141 -49 310h73q52 -158 52 -315q0 -162 -56 -317t-158 -284z" />
    <glyph glyph-name="asterisk" unicode="*" horiz-adv-x="441" 
d="M114 609l17 29l114 -75l24 137h36l-24 -134l126 67l14 -30l-131 -69l109 -70l-18 -28l-110 71l-24 -136h-35l23 133l-121 -64l-14 29l126 67z" />
    <glyph glyph-name="plus" unicode="+" horiz-adv-x="606" 
d="M247 126l36 204h-189l10 60h189l36 204h68l-36 -204h189l-10 -60h-189l-36 -204h-68z" />
    <glyph glyph-name="comma" unicode="," horiz-adv-x="238" 
d="M-25 -114l87 224h86l-109 -224h-64z" />
    <glyph glyph-name="hyphen" unicode="-" horiz-adv-x="413" 
d="M340 279h-279l12 66h279z" />
    <glyph glyph-name="period" unicode="." horiz-adv-x="238" 
d="M27 39q0 23 16.5 38t41.5 15q20 0 32.5 -12.5t12.5 -30.5q0 -23 -16.5 -39t-40.5 -16q-20 0 -33 13t-13 32z" />
    <glyph glyph-name="slash" unicode="/" horiz-adv-x="462" 
d="M-7 -105l433 855h77l-433 -855h-77z" />
    <glyph glyph-name="zero" unicode="0" horiz-adv-x="629" 
d="M370 714q100 0 164.5 -60.5t64.5 -151.5q0 -18 -4 -42l-44 -249q-18 -102 -84 -163.5t-171 -61.5q-100 0 -166 58.5t-66 152.5q0 25 4 46l44 250q19 107 85 164t173 57zM476 216l44 249q3 18 3 35q0 66 -43 108.5t-112 42.5q-74 0 -120.5 -43t-59.5 -116l-45 -255
q-4 -19 -4 -41q0 -69 43.5 -108t115.5 -39q73 0 118.5 44t59.5 123z" />
    <glyph glyph-name="one" unicode="1" horiz-adv-x="348" 
d="M207 0h-76l109 619l-153 -62l12 68l167 75h64z" />
    <glyph glyph-name="two" unicode="2" horiz-adv-x="598" 
d="M199 500h-74l4 22q35 192 237 192q81 0 141 -48.5t60 -123.5q0 -63 -33.5 -111.5t-101.5 -107.5l-301 -260h358l-11 -63h-450l10 60l349 311q103 90 103 164q0 52 -38 84t-94 32q-132 0 -156 -134z" />
    <glyph glyph-name="three" unicode="3" horiz-adv-x="607" 
d="M169 638l10 62h404l-11 -63l-244 -248h7q87 0 145 -50t58 -127q0 -102 -73 -164t-186 -62q-60 0 -110 22t-82 70t-28 113h70q-6 -67 38.5 -105t117.5 -38q75 0 125.5 44t50.5 111q0 62 -45 96.5t-121 34.5h-64l11 60l234 244h-307z" />
    <glyph glyph-name="four" unicode="4" horiz-adv-x="609" 
d="M372 700h72l-312 -475h254l29 166h71l-29 -166h96l-10 -58h-97l-29 -167h-71l29 167h-330l10 57z" />
    <glyph glyph-name="five" unicode="5" horiz-adv-x="623" 
d="M561 246q0 -108 -74.5 -184t-191.5 -76q-85 0 -151.5 51t-76.5 135h73q12 -59 54 -91.5t107 -32.5q84 0 134 56.5t50 130.5q0 64 -43 110.5t-108 46.5q-51 0 -91 -23.5t-64 -59.5h-74l133 391h339l-11 -61h-278l-82 -240q35 30 68.5 42.5t82.5 12.5q84 0 144 -59.5
t60 -148.5z" />
    <glyph glyph-name="six" unicode="6" horiz-adv-x="598" 
d="M388 700h83l-259 -289l1 -2q54 43 125 43q85 0 145 -62.5t60 -149.5q0 -104 -73 -179t-190 -75q-92 0 -158 65t-66 154q0 65 27.5 117.5t76.5 109.5zM312 393q-76 0 -128.5 -55t-52.5 -132q0 -68 44.5 -113.5t111.5 -45.5q81 0 131 54t50 132q0 68 -43 114t-113 46z" />
    <glyph glyph-name="seven" unicode="7" horiz-adv-x="558" 
d="M576 700l-9 -54l-415 -646h-79l409 637h-345l11 63h428z" />
    <glyph glyph-name="eight" unicode="8" horiz-adv-x="629" 
d="M285 -14q-92 0 -155 53.5t-63 134.5q0 78 56 133t130 65q-41 17 -68.5 56t-27.5 90q0 89 62.5 142.5t165.5 53.5q79 0 137.5 -48t58.5 -124q0 -67 -39.5 -115.5t-105.5 -68.5q50 -18 82.5 -56.5t32.5 -93.5q0 -99 -76 -160.5t-190 -61.5zM328 331q-83 0 -135 -41.5
t-52 -113.5q0 -60 41.5 -96t110.5 -36q78 0 131 45t53 116q0 57 -42 91.5t-107 34.5zM378 656q-69 0 -110 -37.5t-41 -104.5q0 -51 35.5 -88t87.5 -37q67 0 112.5 42t45.5 104q0 53 -37 87t-93 34z" />
    <glyph glyph-name="nine" unicode="9" horiz-adv-x="599" 
d="M239 0h-82l239 283h-1q-36 -35 -110 -35q-83 0 -141.5 63.5t-58.5 150.5q0 108 72.5 180t190.5 72q93 0 158.5 -64t65.5 -155q0 -102 -66 -180zM315 307q74 0 127.5 55t53.5 132q0 68 -43 113.5t-112 45.5q-81 0 -131 -55t-50 -134q0 -71 42 -114t113 -43z" />
    <glyph glyph-name="colon" unicode=":" horiz-adv-x="238" 
d="M27 39q0 23 16.5 38t41.5 15q20 0 32.5 -12.5t12.5 -30.5q0 -23 -16.5 -39t-40.5 -16q-20 0 -33 13t-13 32zM85 370q0 23 16.5 38t41.5 15q20 0 32.5 -12.5t12.5 -30.5q0 -23 -16.5 -39t-40.5 -16q-20 0 -33 13t-13 32z" />
    <glyph glyph-name="semicolon" unicode=";" horiz-adv-x="238" 
d="M-25 -114l87 224h86l-109 -224h-64zM102 370q0 23 16.5 38t41.5 15q20 0 32.5 -12.5t12.5 -30.5q0 -23 -16.5 -39t-40.5 -16q-20 0 -33 13t-13 32z" />
    <glyph glyph-name="less" unicode="&#x3c;" horiz-adv-x="587" 
d="M480 116l-407 220l8 48l485 220l-12 -67l-392 -182l330 -172z" />
    <glyph glyph-name="equal" unicode="=" horiz-adv-x="614" 
d="M127 449l10 60h434l-10 -60h-434zM85 211l10 60h434l-10 -60h-434z" />
    <glyph glyph-name="greater" unicode="&#x3e;" horiz-adv-x="587" 
d="M135 604l407 -220l-8 -48l-485 -220l12 67l392 182l-330 172z" />
    <glyph glyph-name="question" unicode="?" horiz-adv-x="506" 
d="M177 175l9 52q11 64 34 101t64 65l56 39q28 20 43.5 33.5t31 38t15.5 50.5q0 44 -35 71.5t-87 27.5q-118 0 -140 -119l-3 -16h-72l3 17q16 92 70.5 135.5t149.5 43.5q79 0 134.5 -44.5t55.5 -111.5q0 -91 -103 -161l-63 -43q-42 -29 -60 -58t-28 -86l-6 -35h-69zM143 39
q0 23 16.5 38t41.5 15q20 0 32.5 -12.5t12.5 -30.5q0 -23 -16.5 -39t-40.5 -16q-20 0 -33 13t-13 32z" />
    <glyph glyph-name="at" unicode="@" horiz-adv-x="950" 
d="M481 -115q-118 0 -209 53t-138 141t-47 195q0 121 51 220.5t151 159.5t230 60q173 0 275.5 -102.5t102.5 -244.5q0 -62 -17.5 -119t-62.5 -100t-110 -43q-48 0 -80 28.5t-38 67.5q-20 -35 -57 -58.5t-85 -23.5q-65 0 -103 42t-38 107q0 18 3 38l5 29q13 78 57 118t110 40
q45 0 76.5 -22.5t43.5 -52.5l12 67h57l-37 -207q-3 -18 -3 -33q0 -43 21 -69.5t63 -26.5q61 0 97 63.5t36 153.5q0 128 -89 215.5t-240 87.5q-169 0 -274 -109.5t-105 -285.5q0 -148 93 -246t255 -98q94 0 210 31l-6 -44q-86 -32 -210 -32zM457 168q45 0 76.5 31.5
t39.5 78.5l6 35q2 10 2 22q0 45 -28.5 77t-72.5 32q-88 0 -107 -114l-4 -23q-4 -22 -4 -39q0 -48 25 -74t67 -26z" />
    <glyph glyph-name="A" unicode="A" horiz-adv-x="670" 
d="M512 0l-32 183h-308l-94 -183h-84l379 700h79l135 -700h-75zM403 632l-199 -386h265z" />
    <glyph glyph-name="B" unicode="B" horiz-adv-x="656" 
d="M599 215q0 -97 -71 -156t-186 -59h-296l123 700h278q79 0 123.5 -46.5t44.5 -116.5q0 -58 -36.5 -107.5t-96.5 -71.5q52 -12 84.5 -50.5t32.5 -92.5zM344 61q83 0 131 40t48 110q0 54 -35 85t-98 31h-211l-47 -266h212zM190 388h191q74 0 116 44t42 99q0 47 -28 77.5
t-84 30.5h-193z" />
    <glyph glyph-name="C" unicode="C" horiz-adv-x="694" 
d="M659 469h-73q-7 84 -57.5 132t-136.5 48q-94 0 -147.5 -56.5t-73.5 -167.5l-20 -112q-7 -42 -7 -69q0 -90 48.5 -141.5t141.5 -51.5q86 0 139.5 51t72.5 129h73q-20 -106 -97.5 -175.5t-189.5 -69.5q-121 0 -191.5 72.5t-70.5 191.5q0 32 6 68l19 107q25 143 98 216
t202 73q111 0 184 -64.5t80 -180.5z" />
    <glyph glyph-name="D" unicode="D" horiz-adv-x="693" 
d="M169 700h261q106 0 167.5 -59.5t61.5 -157.5q0 -28 -5 -58l-30 -170q-22 -125 -96 -190t-212 -65h-270zM134 64h177q103 0 160.5 45.5t75.5 145.5l30 170q5 27 5 52q0 76 -44 117.5t-126 41.5h-177z" />
    <glyph glyph-name="E" unicode="E" horiz-adv-x="608" 
d="M46 0l123 700h455l-11 -65h-378l-43 -247h348l-11 -65h-349l-45 -258h379l-12 -65h-456z" />
    <glyph glyph-name="F" unicode="F" horiz-adv-x="579" 
d="M124 0h-78l123 700h444l-12 -65h-365l-47 -258h334l-11 -65h-334z" />
    <glyph glyph-name="G" unicode="G" horiz-adv-x="695" 
d="M75 323l19 108q50 283 296 283q114 0 186.5 -62.5t76.5 -181.5h-72q-8 85 -57 132t-136 47q-91 0 -145 -57t-73 -161l-20 -113q-6 -34 -6 -67q0 -94 51 -148t142 -54q89 0 141.5 53.5t68.5 146.5l4 24h-194l12 64h270l-14 -82q-20 -121 -95.5 -195t-197.5 -74t-192.5 76
t-70.5 194q0 32 6 67z" />
    <glyph glyph-name="H" unicode="H" horiz-adv-x="705" 
d="M569 0h-78l56 318h-367l-56 -318h-78l123 700h78l-55 -312h367l55 312h78z" />
    <glyph glyph-name="I" unicode="I" horiz-adv-x="270" 
d="M252 700l-123 -700h-78l123 700h78z" />
    <glyph glyph-name="J" unicode="J" horiz-adv-x="585" 
d="M498 700h78l-90 -513q-16 -92 -81 -146.5t-161 -54.5q-92 0 -156 58t-53 149h72q-7 -66 35 -104t110 -38q131 0 157 142z" />
    <glyph glyph-name="K" unicode="K" horiz-adv-x="605" 
d="M124 0h-78l123 700h78l-60 -342l364 342h99l-381 -354l270 -346h-90l-264 347z" />
    <glyph glyph-name="L" unicode="L" horiz-adv-x="565" 
d="M169 700h78l-112 -635h355l-11 -65h-433z" />
    <glyph glyph-name="M" unicode="M" horiz-adv-x="784" 
d="M390 242l305 458h76l-123 -700h-74l96 546l-258 -381h-67l-126 399l-99 -564h-74l123 700h74z" />
    <glyph glyph-name="N" unicode="N" horiz-adv-x="712" 
d="M576 0h-73l-279 578l-102 -578h-76l123 700h73l279 -582l102 582h76z" />
    <glyph glyph-name="O" unicode="O" horiz-adv-x="713" 
d="M76 324l18 102q51 288 309 288q123 0 196 -75.5t73 -193.5q0 -28 -6 -64l-18 -104q-22 -129 -102 -210t-206 -81q-123 0 -196.5 77t-73.5 196q0 32 6 65zM572 278l20 114q5 25 5 53q0 90 -53 147t-145 57q-190 0 -229 -224l-19 -107q-5 -26 -5 -60q0 -93 51.5 -150
t146.5 -57q92 0 151 62.5t77 164.5z" />
    <glyph glyph-name="P" unicode="P" horiz-adv-x="636" 
d="M363 252h-194l-45 -252h-78l123 700h270q86 0 143 -58t57 -137q0 -111 -76 -182t-200 -71zM180 317h185q90 0 143 51t53 131q0 57 -36.5 96.5t-103.5 39.5h-185z" />
    <glyph glyph-name="Q" unicode="Q" horiz-adv-x="713" 
d="M76 324l18 102q51 288 309 288q123 0 196 -75.5t73 -193.5q0 -28 -6 -64l-18 -104q-29 -165 -140 -242l47 -87l-58 -31l-47 88q-52 -19 -110 -19q-123 0 -196.5 77t-73.5 196q0 32 6 65zM372 153l58 28l46 -86q74 60 96 183l20 114q5 25 5 53q0 90 -53 147t-145 57
q-190 0 -229 -224l-19 -107q-5 -26 -5 -60q0 -93 51.5 -150t146.5 -57q42 0 75 13z" />
    <glyph glyph-name="R" unicode="R" horiz-adv-x="675" 
d="M386 256h-217l-45 -256h-78l123 700h282q96 0 151 -58.5t55 -142.5q0 -86 -49.5 -147.5t-143.5 -86.5l111 -265h-85zM180 318h195q95 0 149.5 50t54.5 126q0 60 -37 101.5t-104 41.5h-202z" />
    <glyph glyph-name="S" unicode="S" horiz-adv-x="642" 
d="M581 207q0 -101 -76.5 -161t-193.5 -60q-103 0 -176 50t-73 136q0 16 3 33l2 11h73l-2 -11q-3 -15 -3 -28q0 -63 51.5 -96.5t131.5 -33.5q82 0 134 39t52 111q0 36 -22.5 64.5t-65.5 40.5l-164 46q-128 37 -128 149q0 105 68.5 161t182.5 56q95 0 165.5 -47.5
t70.5 -131.5q0 -15 -2 -31l-1 -6h-72l1 6q2 16 2 23q0 59 -51 92.5t-121 33.5q-74 0 -120.5 -38t-46.5 -107q0 -70 77 -93l166 -48q66 -19 102 -61t36 -99z" />
    <glyph glyph-name="T" unicode="T" horiz-adv-x="562" 
d="M108 700h503l-11 -66h-213l-112 -634h-78l112 634h-213z" />
    <glyph glyph-name="U" unicode="U" horiz-adv-x="704" 
d="M537 233l82 467h78l-82 -468q-20 -113 -97 -179.5t-195 -66.5q-100 0 -172 61t-72 155q0 20 4 41l80 457h78l-81 -462q-3 -18 -3 -36q0 -70 48.5 -110.5t123.5 -40.5q84 0 139 49t69 133z" />
    <glyph glyph-name="V" unicode="V" horiz-adv-x="624" 
d="M676 700l-364 -700h-88l-119 700h79l98 -614l309 614h85z" />
    <glyph glyph-name="W" unicode="W" horiz-adv-x="915" 
d="M571 700l76 -592l231 592h79l-288 -700h-74l-76 608l-289 -608h-74l-43 700h77l25 -592l279 592h77z" />
    <glyph glyph-name="X" unicode="X" horiz-adv-x="626" 
d="M666 700l-293 -346l177 -354h-77l-148 298l-252 -298h-86l306 361l-168 339h76l140 -283l239 283h86z" />
    <glyph glyph-name="Y" unicode="Y" horiz-adv-x="598" 
d="M661 700l-322 -440l-46 -260h-78l47 267l-170 433h81l139 -365l260 365h89z" />
    <glyph glyph-name="Z" unicode="Z" horiz-adv-x="621" 
d="M150 636l12 64h458l-12 -64l-487 -572h399l-11 -64h-486l12 64l487 572h-372z" />
    <glyph glyph-name="bracketleft" unicode="[" horiz-adv-x="362" 
d="M254 -134h-237l162 916h236l-11 -62h-160l-140 -792h161z" />
    <glyph glyph-name="backslash" unicode="\" horiz-adv-x="462" 
d="M211 750l131 -855h-69l-131 855h69z" />
    <glyph glyph-name="bracketright" unicode="]" horiz-adv-x="362" 
d="M132 782h237l-162 -916h-236l11 62h160l140 792h-161z" />
    <glyph glyph-name="asciicircum" unicode="^" horiz-adv-x="510" 
d="M362 700l109 -278h-71l-77 217l-154 -217h-78l206 278h65z" />
    <glyph glyph-name="underscore" unicode="_" horiz-adv-x="496" 
d="M452 -118h-498l7 36h497z" />
    <glyph glyph-name="grave" unicode="`" horiz-adv-x="355" 
d="M298 582h-72l-74 142h91z" />
    <glyph glyph-name="a" unicode="a" horiz-adv-x="576" 
d="M456 0h-73l10 60q-18 -28 -67 -50t-106 -22q-81 0 -131 43t-50 110q0 79 59 123.5t150 44.5q57 0 103.5 -22t69.5 -54l17 96q2 12 2 26q0 48 -30.5 79t-83.5 31q-97 0 -137 -78h-70q52 137 216 137q76 0 129 -47t53 -118q0 -15 -3 -30zM240 38q36 0 73 12t65.5 40.5
t28.5 67.5q0 42 -45.5 71.5t-104.5 29.5q-66 0 -106.5 -29.5t-40.5 -87.5q0 -48 33.5 -76t96.5 -28z" />
    <glyph glyph-name="b" unicode="b" horiz-adv-x="592" 
d="M241 730l-51 -287q24 36 66.5 58.5t97.5 22.5q83 0 136.5 -57t53.5 -143q0 -22 -4 -46l-14 -81q-16 -95 -74 -152t-151 -57q-66 0 -112 31.5t-63 77.5l-18 -97h-72l129 730h76zM451 203l13 75q4 26 4 42q0 67 -37.5 106.5t-98.5 39.5q-63 0 -108.5 -45t-59.5 -126
l-12 -68q-3 -19 -3 -32q0 -63 40.5 -106t104.5 -43t104.5 42t52.5 115z" />
    <glyph glyph-name="c" unicode="c" horiz-adv-x="564" 
d="M511 332h-66q-3 58 -43 95t-103 37q-131 0 -159 -158l-15 -85q-3 -19 -3 -35q0 -61 38 -99.5t104 -38.5q59 0 99 36t54 92h69q-17 -84 -76.5 -136t-149.5 -52q-92 0 -152 56t-60 144q0 24 4 44l14 80q36 212 236 212q88 0 148 -52t61 -140z" />
    <glyph glyph-name="d" unicode="d" horiz-adv-x="592" 
d="M393 0l13 76q-17 -34 -63.5 -61t-102.5 -27q-88 0 -140 57t-52 143q0 22 5 50l14 79q18 100 75.5 153.5t146.5 53.5q64 0 112 -34t62 -77l56 317h76l-129 -730h-73zM140 306l-13 -73q-4 -23 -4 -45q0 -65 36.5 -103.5t100.5 -38.5q66 0 110 47.5t57 117.5l12 66
q3 17 3 34q0 65 -41 110t-107 45q-62 0 -101 -41.5t-53 -118.5z" />
    <glyph glyph-name="e" unicode="e" horiz-adv-x="556" 
d="M490 228h-366q-4 -28 -4 -45q0 -65 37.5 -102.5t103.5 -37.5q52 0 89 27t52 73h69q-19 -70 -76 -112.5t-139 -42.5q-99 0 -153 58t-54 145q0 24 4 47l13 74q17 98 77 155t159 57q92 0 147 -53.5t55 -139.5q0 -20 -4 -44zM138 306l-4 -24h296l2 12q3 21 3 39
q0 63 -36.5 99t-99.5 36q-68 0 -108 -44t-53 -118z" />
    <glyph glyph-name="f" unicode="f" horiz-adv-x="352" 
d="M148 0h-76l80 452h-75l10 60h75l15 84q12 67 49.5 100.5t105.5 33.5h80l-11 -60h-56q-43 0 -64 -18.5t-29 -61.5l-14 -78h129l-10 -60h-129z" />
    <glyph glyph-name="g" unicode="g" horiz-adv-x="593" 
d="M557 512l-91 -518q-14 -81 -77.5 -130.5t-150.5 -49.5q-74 0 -139 35.5t-85 96.5h74q17 -35 58 -54.5t95 -19.5q62 0 101 36t49 92l19 108q-19 -37 -63 -62t-97 -25q-88 0 -142.5 56t-54.5 143q0 19 4 42l11 61q37 201 223 201q64 0 112 -32t65 -74l17 94h72zM142 318
l-11 -62q-4 -24 -4 -40q0 -63 37.5 -99.5t101.5 -36.5q65 0 109.5 43t56.5 110l10 55q3 15 3 29q0 62 -42.5 105t-105.5 43q-64 0 -103.5 -38t-51.5 -109z" />
    <glyph glyph-name="h" unicode="h" horiz-adv-x="586" 
d="M112 0h-76l129 730h75l-53 -297q27 43 72.5 67t102.5 24q72 0 118 -44t46 -116q0 -16 -4 -40l-57 -324h-76l56 317q3 18 3 34q0 52 -31 79.5t-83 27.5q-64 0 -110.5 -46.5t-60.5 -122.5z" />
    <glyph glyph-name="i" unicode="i" 
d="M145 643q0 21 14.5 35.5t37.5 14.5q19 0 32 -11t13 -30q0 -22 -15 -36.5t-39 -14.5q-18 0 -30.5 12t-12.5 30zM117 0h-76l90 512h76z" />
    <glyph glyph-name="j" unicode="j" 
d="M131 512h76l-101 -575q-20 -111 -131 -111h-56l10 60h27q65 0 75 57zM145 643q0 21 14.5 35.5t37.5 14.5q19 0 32 -11t13 -30q0 -22 -15 -36.5t-39 -14.5q-18 0 -30.5 12t-12.5 30z" />
    <glyph glyph-name="k" unicode="k" horiz-adv-x="508" 
d="M112 0h-76l129 730h76l-81 -457l255 239h97l-276 -254l200 -258h-88l-191 257z" />
    <glyph glyph-name="l" unicode="l" 
d="M117 0h-76l129 730h76z" />
    <glyph glyph-name="m" unicode="m" horiz-adv-x="929" 
d="M511 289l-51 -289h-76l56 317q3 18 3 34q0 52 -31 79.5t-83 27.5q-63 0 -108 -45.5t-58 -123.5l-51 -289h-76l90 512h72l-16 -87q26 47 72 73t103 26t97.5 -26.5t56.5 -74.5q64 101 194 101q72 0 118 -44t46 -116q0 -18 -4 -40l-57 -324h-76l56 317q3 18 3 34
q0 52 -31 79.5t-83 27.5q-64 0 -108 -44.5t-58 -124.5z" />
    <glyph glyph-name="n" unicode="n" horiz-adv-x="586" 
d="M112 0h-76l90 512h72l-16 -87q26 47 73.5 73t106.5 26q72 0 118 -44t46 -116q0 -16 -4 -40l-57 -324h-76l56 317q3 18 3 34q0 52 -31 79.5t-83 27.5q-64 0 -110.5 -46.5t-60.5 -122.5z" />
    <glyph glyph-name="o" unicode="o" horiz-adv-x="566" 
d="M52 239l13 74q19 105 80 158t158 53q96 0 155 -57.5t59 -147.5q0 -17 -4 -45l-13 -76q-17 -97 -79 -153.5t-157 -56.5q-99 0 -157.5 56t-58.5 147q0 27 4 48zM426 199l15 85q4 20 4 38q0 64 -39.5 104t-104.5 40q-134 0 -163 -160l-14 -79q-4 -28 -4 -42
q0 -66 40.5 -102.5t104.5 -36.5q67 0 108 41t53 112z" />
    <glyph glyph-name="p" unicode="p" horiz-adv-x="591" 
d="M199 512l-13 -76q17 34 63.5 61t102.5 27q87 0 139 -55.5t52 -141.5q0 -26 -4 -49l-14 -79q-18 -101 -75.5 -156t-146.5 -55q-65 0 -113 34t-61 77l-48 -273h-76l121 686h73zM452 204l13 75q4 20 4 44q0 66 -36 104.5t-101 38.5q-66 0 -110.5 -47.5t-56.5 -117.5l-12 -68
q-3 -17 -3 -33q0 -65 41 -109.5t107 -44.5q62 0 101 40.5t53 117.5z" />
    <glyph glyph-name="q" unicode="q" horiz-adv-x="592" 
d="M359 -174l43 243q-24 -36 -66.5 -58.5t-97.5 -22.5q-84 0 -136.5 57.5t-52.5 144.5q0 24 4 48l14 79q17 97 75 152t149 55q66 0 112 -31.5t63 -77.5l18 97h72l-121 -686h-76zM141 312l-13 -75q-5 -32 -5 -50q0 -67 36.5 -104t100.5 -37q63 0 108.5 45t59.5 126l12 68
q3 16 3 32q0 63 -40.5 106t-104.5 43q-65 0 -105 -40.5t-52 -113.5z" />
    <glyph glyph-name="r" unicode="r" horiz-adv-x="352" 
d="M373 515l-13 -74h-17q-71 0 -121 -49t-66 -141l-44 -251h-76l90 512h72l-19 -112q27 61 69 88t112 27h13z" />
    <glyph glyph-name="s" unicode="s" horiz-adv-x="517" 
d="M451 154q0 -76 -60 -121t-156 -45q-84 0 -141.5 38.5t-57.5 98.5q0 13 2 23l1 5h66l-1 -6q-8 -48 31 -76.5t107 -28.5q64 0 100.5 28.5t36.5 75.5q0 52 -58 67l-131 33q-50 13 -77.5 44.5t-27.5 72.5q0 80 52 120.5t147 40.5q76 0 133.5 -35.5t57.5 -101.5q0 -12 -2 -24
l-1 -6h-66l1 6q8 50 -32 78.5t-95 28.5q-57 0 -90 -25t-33 -72q0 -54 60 -70l133 -35q101 -27 101 -114z" />
    <glyph glyph-name="t" unicode="t" horiz-adv-x="370" 
d="M191 657h76l-26 -145h131l-10 -60h-131l-56 -316q-2 -12 -2 -20q0 -55 71 -55h46l-11 -61h-60q-56 0 -89.5 28t-33.5 79q0 14 3 29l56 316h-87l11 60h86z" />
    <glyph glyph-name="u" unicode="u" horiz-adv-x="581" 
d="M469 512h76l-90 -512h-72l16 87q-22 -44 -69 -71.5t-105 -27.5q-71 0 -117.5 43.5t-46.5 118.5q0 23 4 44l56 318h76l-56 -319q-4 -26 -4 -37q0 -52 30.5 -79t84.5 -27q63 0 107.5 46.5t58.5 126.5z" />
    <glyph glyph-name="v" unicode="v" horiz-adv-x="513" 
d="M253 0h-78l-98 512h74l76 -433l221 433h77z" />
    <glyph glyph-name="w" unicode="w" horiz-adv-x="758" 
d="M457 512l60 -419l177 419h75l-230 -512h-70l-58 426l-210 -426h-70l-52 512h73l34 -419l200 419h71z" />
    <glyph glyph-name="x" unicode="x" horiz-adv-x="510" 
d="M517 512l-220 -255l133 -257h-75l-105 204l-175 -204h-84l228 263l-128 249h74l100 -196l169 196h83z" />
    <glyph glyph-name="y" unicode="y" horiz-adv-x="514" 
d="M159 -174h-75l96 179l-103 507h75l79 -433l215 433h79l-272 -513z" />
    <glyph glyph-name="z" unicode="z" horiz-adv-x="499" 
d="M403 0h-388l9 55l368 399h-286l10 58h372l-10 -55l-368 -399h303z" />
    <glyph glyph-name="braceleft" unicode="{" horiz-adv-x="430" 
d="M305 630l-33 -189q-18 -102 -117 -121q77 -20 77 -91q0 -13 -2 -25l-32 -181q-3 -16 -3 -29q0 -66 81 -66h55l-11 -62h-62q-65 0 -102 33.5t-37 90.5q0 17 3 33l31 176q2 10 2 24q0 70 -82 70h-30l12 62h33q49 0 74.5 23t34.5 70l34 192q14 76 53 109t120 33h77l-10 -62
h-61q-52 0 -74.5 -21.5t-30.5 -68.5z" />
    <glyph glyph-name="bar" unicode="|" horiz-adv-x="304" 
d="M112 -150h-63l167 950h64z" />
    <glyph glyph-name="braceright" unicode="}" horiz-adv-x="430" 
d="M152 18l33 189q10 59 37.5 86.5t79.5 34.5q-77 20 -77 91q0 13 2 25l32 181q3 17 3 29q0 66 -81 66h-55l11 62h62q65 0 102 -33.5t37 -90.5q0 -16 -3 -33l-31 -176q-2 -10 -2 -24q0 -70 82 -70h30l-12 -62h-33q-49 0 -74.5 -23t-34.5 -70l-34 -192q-14 -76 -53 -109
t-120 -33h-77l10 62h61q52 0 74.5 21.5t30.5 68.5z" />
    <glyph glyph-name="asciitilde" unicode="~" horiz-adv-x="596" 
d="M497 440l59 -22q-21 -65 -48.5 -101t-78.5 -36q-31 0 -112.5 45.5t-111.5 45.5q-34 0 -49.5 -21.5t-29.5 -68.5l-61 16q18 68 50 104.5t87 36.5q37 0 120 -45.5t103 -45.5q11 0 20 4.5t14.5 9.5t12 16.5t9 18l8.5 22.5z" />
    <glyph glyph-name="uni00A0" unicode="&#xa0;" horiz-adv-x="220" 
 />
    <glyph glyph-name="exclamdown" unicode="&#xa1;" horiz-adv-x="261" 
d="M93 268l62 251h43l-27 -256l-46 -263h-79zM251 661q0 -23 -16.5 -38t-41.5 -15q-20 0 -32.5 12.5t-12.5 30.5q0 23 16.5 39t40.5 16q20 0 33 -13t13 -32z" />
    <glyph glyph-name="cent" unicode="&#xa2;" horiz-adv-x="571" 
d="M526 431h-70q-7 48 -44.5 78t-90.5 30q-63 0 -103.5 -38t-53.5 -109l-12 -68q-3 -17 -3 -32q0 -56 36.5 -93.5t93.5 -37.5q58 0 96.5 31t53.5 77h70q-20 -70 -73.5 -116.5t-130.5 -52.5l-17 -100h-76l18 106q-66 16 -105.5 66.5t-39.5 118.5q0 17 3 37l12 69
q16 95 74 147t144 56l17 100h76l-19 -107q61 -15 99 -57.5t45 -104.5z" />
    <glyph glyph-name="sterling" unicode="&#xa3;" horiz-adv-x="661" 
d="M290 363h211l-9 -59h-213l-43 -244h295l-9 -60h-492l10 60h120l44 244h-106l9 59h107l27 153q34 198 227 198q77 0 129.5 -44t52.5 -113q0 -15 -3 -32l-3 -16h-70l3 17q2 16 2 24q0 47 -33 74.5t-84 27.5q-64 0 -98.5 -33t-46.5 -103z" />
    <glyph glyph-name="currency" unicode="&#xa4;" horiz-adv-x="595" 
d="M286 148q-52 0 -94 28l-69 -82h-79l105 125q-25 37 -25 85q0 16 3 32l11 60q13 68 53 103l-54 113h74l36 -77q31 15 82 15q52 0 97 -29l66 79h77l-101 -122q25 -36 25 -84q0 -14 -3 -31l-10 -56q-12 -66 -53 -107l56 -114h-74l-37 78q-36 -16 -86 -16zM201 396l-11 -61
q-3 -17 -3 -29q0 -47 29 -75.5t80 -28.5q49 0 80.5 27t39.5 73l12 67q2 16 2 23q0 45 -29.5 74.5t-79.5 29.5q-103 0 -120 -100z" />
    <glyph glyph-name="yen" unicode="&#xa5;" horiz-adv-x="594" 
d="M72 171l10 55h173l9 52l-21 72h-139l10 56h112l-85 294h78l94 -349l213 349h81l-188 -294h117l-10 -56h-142l-46 -72l-9 -52h175l-10 -55h-175l-30 -171h-74l30 171h-173z" />
    <glyph glyph-name="brokenbar" unicode="&#xa6;" horiz-adv-x="304" 
d="M48 -150l68 383h64l-68 -383h-64zM280 800l-68 -382h-64l68 382h64z" />
    <glyph glyph-name="section" unicode="&#xa7;" horiz-adv-x="608" 
d="M538 280q0 -87 -94 -167q16 -27 16 -62q0 -78 -60.5 -128.5t-148.5 -50.5q-78 0 -134.5 39.5t-56.5 106.5q0 13 2 25l1 6h66l-1 -6q-2 -14 -2 -20q0 -47 37.5 -71.5t95.5 -24.5q54 0 92 32t38 80q0 57 -56 79l-156 61q-91 35 -91 127q0 101 101 158q-22 30 -22 73
q0 83 57.5 130t150.5 47q74 0 131 -39t57 -106q0 -10 -2 -26l-1 -6h-66l1 6q9 53 -29 84.5t-97 31.5q-56 0 -94 -30t-38 -84t57 -77l144 -57q102 -41 102 -131zM270 408q-24 9 -45 22q-69 -47 -69 -114q0 -58 57 -81l142 -57q36 -15 52 -27q61 58 61 119q0 60 -65 85z" />
    <glyph glyph-name="dieresis" unicode="&#xa8;" horiz-adv-x="461" 
d="M145 649q0 21 14.5 34.5t36.5 13.5q19 0 32 -12t13 -30q0 -21 -14.5 -35.5t-37.5 -14.5q-19 0 -31.5 13t-12.5 31zM345 649q0 21 14.5 34.5t36.5 13.5q19 0 32 -12t13 -30q0 -21 -14.5 -35.5t-37.5 -14.5q-19 0 -31.5 13t-12.5 31z" />
    <glyph glyph-name="copyright" unicode="&#xa9;" horiz-adv-x="862" 
d="M431 -12q-160 0 -260.5 105.5t-100.5 256.5t100.5 256.5t260.5 105.5t260.5 -105.5t100.5 -256.5t-100.5 -256.5t-260.5 -105.5zM431 14q150 0 241 98t91 238t-91 238t-241 98t-241 -98t-91 -238t91 -238t241 -98zM331 321q0 -51 25 -82t75 -31q42 0 65.5 22.5t28.5 58.5
h45q-5 -51 -42.5 -86t-96.5 -35q-70 0 -108 44t-38 109v58q0 65 38 109t108 44q59 0 96.5 -35t42.5 -86h-45q-5 36 -28.5 58.5t-65.5 22.5q-50 0 -75 -31t-25 -82v-58z" />
    <glyph glyph-name="ordfeminine" unicode="&#xaa;" horiz-adv-x="424" 
d="M68 262l8 45h291l-8 -45h-291zM369 379h-49l7 38q-13 -19 -42.5 -32.5t-63.5 -13.5q-53 0 -84.5 27t-31.5 69q0 55 38.5 82.5t93.5 27.5q66 0 108 -45l10 58q6 34 -13.5 56t-54.5 22q-57 0 -83 -49h-48q36 90 134 90q52 0 88.5 -34.5t27.5 -84.5zM231 407q41 0 73 19.5
t32 53.5q0 28 -27.5 45t-67.5 17q-37 0 -62 -18.5t-25 -54.5q0 -26 22 -44t55 -18z" />
    <glyph glyph-name="guillemotleft" unicode="&#xab;" horiz-adv-x="613" 
d="M334 484l-208 -219l133 -205h-86l-135 213l206 211h90zM597 484l-208 -219l133 -205h-86l-135 213l206 211h90z" />
    <glyph glyph-name="logicalnot" unicode="&#xac;" horiz-adv-x="580" 
d="M67 330l10 60h446l-46 -264h-68l36 204h-378z" />
    <glyph glyph-name="registered" unicode="&#xae;" horiz-adv-x="566" 
d="M103 500q0 88 59.5 150t157.5 62t157.5 -62t59.5 -150t-59.5 -150t-157.5 -62t-157.5 62t-59.5 150zM126 500q0 -82 53.5 -137t140.5 -55t140.5 55t53.5 137t-53.5 137t-140.5 55t-140.5 -55t-53.5 -137zM369 412l-35 65h-50v-65h-31v191h88q30 0 47.5 -18t17.5 -45
q0 -43 -41 -59l40 -69h-36zM284 503h47q44 0 44 37q0 38 -44 38h-47v-75z" />
    <glyph glyph-name="macron" unicode="&#xaf;" horiz-adv-x="485" 
d="M452 617h-303l10 57h303z" />
    <glyph glyph-name="degree" unicode="&#xb0;" horiz-adv-x="436" 
d="M277 710q56 0 95.5 -39t39.5 -96q0 -65 -43 -113t-116 -48q-57 0 -96 40t-39 97q0 69 43.5 114t115.5 45zM257 450q53 0 84 35.5t31 86.5q0 42 -27 72t-71 30q-54 0 -85 -34t-31 -89q0 -44 27.5 -72.5t71.5 -28.5z" />
    <glyph glyph-name="plusminus" unicode="&#xb1;" horiz-adv-x="616" 
d="M255 148l34 193h-189l10 60h189l34 193h68l-34 -193h189l-10 -60h-189l-34 -193h-68zM40 0l10 60h446l-10 -60h-446z" />
    <glyph glyph-name="twosuperior" unicode="&#xb2;" horiz-adv-x="415" 
d="M107 465l7 43l199 161q46 36 46 71q0 26 -19.5 41.5t-50.5 15.5q-69 0 -79 -63l-1 -6h-53l1 6q19 111 137 111q53 0 88 -28.5t35 -70.5q0 -35 -18.5 -61.5t-54.5 -54.5l-156 -118h188l-8 -47h-261z" />
    <glyph glyph-name="threesuperior" unicode="&#xb3;" horiz-adv-x="418" 
d="M180 793l8 44h228l-8 -44l-127 -116q48 -3 78.5 -29.5t30.5 -67.5q0 -53 -42.5 -87.5t-103.5 -34.5q-55 0 -92 30t-35 82h49q0 -32 22.5 -50.5t57.5 -18.5q40 0 64 20.5t24 51.5q0 30 -23 48t-64 18h-38l7 41l121 113h-157z" />
    <glyph glyph-name="acute" unicode="&#xb4;" horiz-adv-x="355" 
d="M231 582h-76l100 142h100z" />
    <glyph glyph-name="mu" unicode="&#xb5;" horiz-adv-x="586" 
d="M474 512h76l-90 -512h-72l16 87q-22 -44 -69 -71.5t-105 -27.5q-34 0 -65 13t-48 35l-36 -210h-76l121 686h76l-56 -319q-4 -20 -4 -37q0 -106 115 -106q63 0 107.5 46.5t58.5 126.5z" />
    <glyph glyph-name="paragraph" unicode="&#xb6;" horiz-adv-x="574" 
d="M402 -174h-53l146 828h-115l-81 -462q-98 0 -159 60t-61 157q0 139 78.5 215t230.5 76h168z" />
    <glyph glyph-name="periodcentered" unicode="&#xb7;" horiz-adv-x="237" 
d="M73 286q0 23 16.5 38t41.5 15q20 0 32.5 -12.5t12.5 -30.5q0 -23 -16.5 -39t-40.5 -16q-20 0 -33 13t-13 32z" />
    <glyph glyph-name="cedilla" unicode="&#xb8;" horiz-adv-x="349" 
d="M212 -111q0 -34 -28.5 -54.5t-75.5 -20.5q-37 0 -64 6l5 43q22 -5 51 -5q54 0 54 28q0 20 -42 25l-47 5l27 84h47l-13 -46l20 -2q28 -3 47 -18.5t19 -44.5z" />
    <glyph glyph-name="onesuperior" unicode="&#xb9;" horiz-adv-x="304" 
d="M163 465l55 313l-92 -34l10 53l102 40h48l-65 -372h-58z" />
    <glyph glyph-name="ordmasculine" unicode="&#xba;" horiz-adv-x="440" 
d="M82 262l8 45h277l-8 -45h-277zM120 534l7 40q24 135 154 135q62 0 101.5 -37.5t39.5 -96.5q0 -12 -3 -30l-6 -34q-11 -63 -52 -101.5t-104 -38.5q-62 0 -101 37.5t-39 97.5q0 4 3 28zM364 516l6 35q2 12 2 22q0 41 -25.5 68t-66.5 27q-86 0 -104 -100l-6 -34
q-3 -18 -3 -28q0 -43 24.5 -68.5t67.5 -25.5q42 0 69 28t36 76z" />
    <glyph glyph-name="guillemotright" unicode="&#xbb;" horiz-adv-x="613" 
d="M289 60l208 219l-133 205h86l135 -213l-206 -211h-90zM26 60l208 219l-133 205h86l135 -213l-206 -211h-90z" />
    <glyph glyph-name="onequarter" unicode="&#xbc;" horiz-adv-x="796" 
d="M404 84l7 40l169 248h54l-165 -246h134l15 82h52l-15 -82h51l-8 -42h-50l-15 -84h-52l15 84h-192zM118 0l485 700h62l-485 -700h-62zM166 328l55 313l-92 -34l10 53l102 40h48l-65 -372h-58z" />
    <glyph glyph-name="onehalf" unicode="&#xbd;" horiz-adv-x="815" 
d="M118 0l485 700h62l-485 -700h-62zM166 328l55 313l-92 -34l10 53l102 40h48l-65 -372h-58zM435 0l7 43l199 161q46 36 46 71q0 26 -19.5 41.5t-50.5 15.5q-69 0 -79 -63l-1 -6h-53l1 6q19 111 137 111q53 0 88 -28.5t35 -70.5q0 -35 -18.5 -61.5t-54.5 -54.5l-156 -118
h188l-8 -47h-261z" />
    <glyph glyph-name="threequarters" unicode="&#xbe;" horiz-adv-x="862" 
d="M168 656l8 44h228l-8 -44l-127 -116q48 -3 78.5 -29.5t30.5 -67.5q0 -53 -42.5 -87.5t-103.5 -34.5q-55 0 -92 30t-35 82h49q0 -32 22.5 -50.5t57.5 -18.5q40 0 64 20.5t24 51.5q0 30 -23 48t-64 18h-38l7 41l121 113h-157zM470 84l7 40l169 248h54l-165 -246h134l15 82
h52l-15 -82h51l-8 -42h-50l-15 -84h-52l15 84h-192zM184 0l485 700h62l-485 -700h-62z" />
    <glyph glyph-name="questiondown" unicode="&#xbf;" horiz-adv-x="506" 
d="M362 525l-9 -52q-11 -64 -34 -101t-64 -65l-56 -39q-28 -20 -43.5 -33.5t-31 -38t-15.5 -50.5q0 -44 35 -71.5t87 -27.5q118 0 140 119l3 16h72l-3 -17q-16 -92 -70.5 -135.5t-149.5 -43.5q-79 0 -134.5 44.5t-55.5 111.5q0 91 103 161l63 43q42 29 60 58t28 86l6 35h69z
M396 661q0 -23 -16.5 -38t-41.5 -15q-20 0 -32.5 12.5t-12.5 30.5q0 23 16.5 39t40.5 16q20 0 33 -13t13 -32z" />
    <glyph glyph-name="Agrave" unicode="&#xc0;" horiz-adv-x="670" 
d="M512 0l-32 183h-308l-94 -183h-84l379 700h79l135 -700h-75zM403 632l-199 -386h265zM443 760h-71l-67 126h87z" />
    <glyph glyph-name="Aacute" unicode="&#xc1;" horiz-adv-x="670" 
d="M512 0l-32 183h-308l-94 -183h-84l379 700h79l135 -700h-75zM403 632l-199 -386h265zM466 760h-76l91 126h94z" />
    <glyph glyph-name="Acircumflex" unicode="&#xc2;" horiz-adv-x="670" 
d="M512 0l-32 183h-308l-94 -183h-84l379 700h79l135 -700h-75zM403 632l-199 -386h265zM471 886l92 -126h-71l-61 83l-91 -83h-78l135 126h74z" />
    <glyph glyph-name="Atilde" unicode="&#xc3;" horiz-adv-x="670" 
d="M512 0l-32 183h-308l-94 -183h-84l379 700h79l135 -700h-75zM403 632l-199 -386h265zM517 764q-31 0 -86 31t-79 31q-25 0 -40.5 -16.5t-27.5 -49.5l-47 17q32 105 114 105q36 0 91 -31t72 -31q7 0 13.5 1.5t12 6.5t8.5 8t7.5 11.5l6 11.5t6 14t5.5 13l46 -18
q-10 -29 -20 -48.5t-32 -37.5t-50 -18z" />
    <glyph glyph-name="Adieresis" unicode="&#xc4;" horiz-adv-x="670" 
d="M512 0l-32 183h-308l-94 -183h-84l379 700h79l135 -700h-75zM403 632l-199 -386h265zM276 826q0 21 14.5 34.5t36.5 13.5q19 0 32 -12t13 -30q0 -21 -14.5 -35.5t-37.5 -14.5q-19 0 -31.5 13t-12.5 31zM498 826q0 21 14.5 34.5t36.5 13.5q19 0 32 -12t13 -30
q0 -21 -14.5 -35.5t-37.5 -14.5q-19 0 -31.5 13t-12.5 31z" />
    <glyph glyph-name="Aring" unicode="&#xc5;" horiz-adv-x="670" 
d="M331 743q0 39 26.5 63.5t68.5 24.5q37 0 62 -22t25 -57q0 -27 -15 -49.5t-40 -32.5l129 -670h-75l-32 183h-308l-94 -183h-84l368 680q-31 23 -31 63zM403 632l-199 -386h265zM471 751q0 20 -12 32t-34 12q-24 0 -38 -14.5t-14 -37.5q0 -19 12.5 -31t35.5 -12t36.5 15
t13.5 36z" />
    <glyph glyph-name="AE" unicode="&#xc6;" horiz-adv-x="1039" 
d="M477 0l32 183h-301l-154 -183h-90l599 700h492l-11 -65h-378l-43 -247h348l-11 -65h-349l-45 -258h379l-12 -65h-456zM261 246h259l68 388z" />
    <glyph glyph-name="Ccedilla" unicode="&#xc7;" horiz-adv-x="694" 
d="M400 -111q0 -34 -28.5 -54.5t-75.5 -20.5q-37 0 -64 6l5 43q23 -5 51 -5q54 0 54 28q0 20 -42 25l-47 5l24 75q-97 16 -152 85.5t-55 173.5q0 32 6 68l19 107q25 143 98 216t202 73q111 0 184 -64.5t80 -180.5h-73q-7 84 -57.5 132t-136.5 48q-94 0 -147.5 -56.5
t-73.5 -167.5l-20 -112q-7 -42 -7 -69q0 -90 48.5 -141.5t141.5 -51.5q86 0 139.5 51t72.5 129h73q-20 -106 -97.5 -175.5t-189.5 -69.5h-9l-9 -32l20 -2q28 -3 47 -18.5t19 -44.5z" />
    <glyph glyph-name="Egrave" unicode="&#xc8;" horiz-adv-x="608" 
d="M46 0l123 700h455l-11 -65h-378l-43 -247h348l-11 -65h-349l-45 -258h379l-12 -65h-456zM438 760h-71l-67 126h87z" />
    <glyph glyph-name="Eacute" unicode="&#xc9;" horiz-adv-x="608" 
d="M46 0l123 700h455l-11 -65h-378l-43 -247h348l-11 -65h-349l-45 -258h379l-12 -65h-456zM428 760h-76l91 126h94z" />
    <glyph glyph-name="Ecircumflex" unicode="&#xca;" horiz-adv-x="608" 
d="M46 0l123 700h455l-11 -65h-378l-43 -247h348l-11 -65h-349l-45 -258h379l-12 -65h-456zM460 886l92 -126h-71l-61 83l-91 -83h-78l135 126h74z" />
    <glyph glyph-name="Edieresis" unicode="&#xcb;" horiz-adv-x="608" 
d="M46 0l123 700h455l-11 -65h-378l-43 -247h348l-11 -65h-349l-45 -258h379l-12 -65h-456zM259 826q0 21 14.5 34.5t36.5 13.5q19 0 32 -12t13 -30q0 -21 -14.5 -35.5t-37.5 -14.5q-19 0 -31.5 13t-12.5 31zM481 826q0 21 14.5 34.5t36.5 13.5q19 0 32 -12t13 -30
q0 -21 -14.5 -35.5t-37.5 -14.5q-19 0 -31.5 13t-12.5 31z" />
    <glyph glyph-name="Igrave" unicode="&#xcc;" horiz-adv-x="270" 
d="M252 700l-123 -700h-78l123 700h78zM249 760h-71l-67 126h87z" />
    <glyph glyph-name="Iacute" unicode="&#xcd;" horiz-adv-x="270" 
d="M252 700l-123 -700h-78l123 700h78zM265 760h-76l91 126h94z" />
    <glyph glyph-name="Icircumflex" unicode="&#xce;" horiz-adv-x="270" 
d="M252 700l-123 -700h-78l123 700h78zM278 886l92 -126h-71l-61 83l-91 -83h-78l135 126h74z" />
    <glyph glyph-name="Idieresis" unicode="&#xcf;" horiz-adv-x="270" 
d="M252 700l-123 -700h-78l123 700h78zM76 826q0 21 14.5 34.5t36.5 13.5q19 0 32 -12t13 -30q0 -21 -14.5 -35.5t-37.5 -14.5q-19 0 -31.5 13t-12.5 31zM298 826q0 21 14.5 34.5t36.5 13.5q19 0 32 -12t13 -30q0 -21 -14.5 -35.5t-37.5 -14.5q-19 0 -31.5 13t-12.5 31z" />
    <glyph glyph-name="Eth" unicode="&#xd0;" horiz-adv-x="726" 
d="M49 318l11 64h86l56 318h261q106 0 167.5 -59.5t61.5 -157.5q0 -28 -5 -58l-30 -170q-22 -125 -96 -190t-212 -65h-270l56 318h-86zM167 64h177q103 0 160.5 45.5t75.5 145.5l30 170q5 27 5 52q0 76 -44 117.5t-126 41.5h-177l-45 -254h181l-11 -64h-181z" />
    <glyph glyph-name="Ntilde" unicode="&#xd1;" horiz-adv-x="712" 
d="M576 0h-73l-279 578l-102 -578h-76l123 700h73l279 -582l102 582h76zM539 764q-31 0 -86 31t-79 31q-25 0 -40.5 -16.5t-27.5 -49.5l-47 17q32 105 114 105q36 0 91 -31t72 -31q7 0 13.5 1.5t12 6.5t8.5 8t7.5 11.5l6 11.5t6 14t5.5 13l46 -18q-10 -29 -20 -48.5
t-32 -37.5t-50 -18z" />
    <glyph glyph-name="Ograve" unicode="&#xd2;" horiz-adv-x="713" 
d="M76 324l18 102q51 288 309 288q123 0 196 -75.5t73 -193.5q0 -28 -6 -64l-18 -104q-22 -129 -102 -210t-206 -81q-123 0 -196.5 77t-73.5 196q0 32 6 65zM572 278l20 114q5 25 5 53q0 90 -53 147t-145 57q-190 0 -229 -224l-19 -107q-5 -26 -5 -60q0 -93 51.5 -150
t146.5 -57q92 0 151 62.5t77 164.5zM466 760h-71l-67 126h87z" />
    <glyph glyph-name="Oacute" unicode="&#xd3;" horiz-adv-x="713" 
d="M76 324l18 102q51 288 309 288q123 0 196 -75.5t73 -193.5q0 -28 -6 -64l-18 -104q-22 -129 -102 -210t-206 -81q-123 0 -196.5 77t-73.5 196q0 32 6 65zM572 278l20 114q5 25 5 53q0 90 -53 147t-145 57q-190 0 -229 -224l-19 -107q-5 -26 -5 -60q0 -93 51.5 -150
t146.5 -57q92 0 151 62.5t77 164.5zM480 760h-76l91 126h94z" />
    <glyph glyph-name="Ocircumflex" unicode="&#xd4;" horiz-adv-x="713" 
d="M76 324l18 102q51 288 309 288q123 0 196 -75.5t73 -193.5q0 -28 -6 -64l-18 -104q-22 -129 -102 -210t-206 -81q-123 0 -196.5 77t-73.5 196q0 32 6 65zM572 278l20 114q5 25 5 53q0 90 -53 147t-145 57q-190 0 -229 -224l-19 -107q-5 -26 -5 -60q0 -93 51.5 -150
t146.5 -57q92 0 151 62.5t77 164.5zM495 885l92 -126h-71l-61 83l-91 -83h-78l135 126h74z" />
    <glyph glyph-name="Otilde" unicode="&#xd5;" horiz-adv-x="713" 
d="M76 324l18 102q51 288 309 288q123 0 196 -75.5t73 -193.5q0 -28 -6 -64l-18 -104q-22 -129 -102 -210t-206 -81q-123 0 -196.5 77t-73.5 196q0 32 6 65zM572 278l20 114q5 25 5 53q0 90 -53 147t-145 57q-190 0 -229 -224l-19 -107q-5 -26 -5 -60q0 -93 51.5 -150
t146.5 -57q92 0 151 62.5t77 164.5zM536 764q-31 0 -86 31t-79 31q-25 0 -40.5 -16.5t-27.5 -49.5l-47 17q32 105 114 105q36 0 91 -31t72 -31q7 0 13.5 1.5t12 6.5t8.5 8t7.5 11.5l6 11.5t6 14t5.5 13l46 -18q-10 -29 -20 -48.5t-32 -37.5t-50 -18z" />
    <glyph glyph-name="Odieresis" unicode="&#xd6;" horiz-adv-x="713" 
d="M76 324l18 102q51 288 309 288q123 0 196 -75.5t73 -193.5q0 -28 -6 -64l-18 -104q-22 -129 -102 -210t-206 -81q-123 0 -196.5 77t-73.5 196q0 32 6 65zM572 278l20 114q5 25 5 53q0 90 -53 147t-145 57q-190 0 -229 -224l-19 -107q-5 -26 -5 -60q0 -93 51.5 -150
t146.5 -57q92 0 151 62.5t77 164.5zM289 826q0 21 14.5 34.5t36.5 13.5q19 0 32 -12t13 -30q0 -21 -14.5 -35.5t-37.5 -14.5q-19 0 -31.5 13t-12.5 31zM511 826q0 21 14.5 34.5t36.5 13.5q19 0 32 -12t13 -30q0 -21 -14.5 -35.5t-37.5 -14.5q-19 0 -31.5 13t-12.5 31z" />
    <glyph glyph-name="multiply" unicode="&#xd7;" horiz-adv-x="574" 
d="M68 198l192 164l-132 161l52 44l132 -161l190 161l41 -50l-189 -161l136 -166l-52 -44l-137 166l-192 -164z" />
    <glyph glyph-name="Oslash" unicode="&#xd8;" horiz-adv-x="713" 
d="M76 324l18 102q51 288 309 288q111 0 183 -64l83 100h63l-112 -136q52 -70 52 -169q0 -28 -6 -64l-18 -104q-22 -129 -102 -210t-206 -81q-110 0 -184 64l-82 -100h-64l113 137q-53 72 -53 172q0 32 6 65zM146 258q0 -66 25 -113l370 450q-54 54 -142 54
q-190 0 -229 -224l-19 -107q-5 -26 -5 -60zM572 278l20 114q5 25 5 53q0 62 -26 109l-371 -450q51 -53 144 -53q92 0 151 62.5t77 164.5z" />
    <glyph glyph-name="Ugrave" unicode="&#xd9;" horiz-adv-x="704" 
d="M537 233l82 467h78l-82 -468q-20 -113 -97 -179.5t-195 -66.5q-100 0 -172 61t-72 155q0 20 4 41l80 457h78l-81 -462q-3 -18 -3 -36q0 -70 48.5 -110.5t123.5 -40.5q84 0 139 49t69 133zM480 760h-71l-67 126h87z" />
    <glyph glyph-name="Uacute" unicode="&#xda;" horiz-adv-x="704" 
d="M537 233l82 467h78l-82 -468q-20 -113 -97 -179.5t-195 -66.5q-100 0 -172 61t-72 155q0 20 4 41l80 457h78l-81 -462q-3 -18 -3 -36q0 -70 48.5 -110.5t123.5 -40.5q84 0 139 49t69 133zM451 760h-76l91 126h94z" />
    <glyph glyph-name="Ucircumflex" unicode="&#xdb;" horiz-adv-x="704" 
d="M537 233l82 467h78l-82 -468q-20 -113 -97 -179.5t-195 -66.5q-100 0 -172 61t-72 155q0 20 4 41l80 457h78l-81 -462q-3 -18 -3 -36q0 -70 48.5 -110.5t123.5 -40.5q84 0 139 49t69 133zM495 886l92 -126h-71l-61 83l-91 -83h-78l135 126h74z" />
    <glyph glyph-name="Udieresis" unicode="&#xdc;" horiz-adv-x="704" 
d="M537 233l82 467h78l-82 -468q-20 -113 -97 -179.5t-195 -66.5q-100 0 -172 61t-72 155q0 20 4 41l80 457h78l-81 -462q-3 -18 -3 -36q0 -70 48.5 -110.5t123.5 -40.5q84 0 139 49t69 133zM291 826q0 21 14.5 34.5t36.5 13.5q19 0 32 -12t13 -30q0 -21 -14.5 -35.5
t-37.5 -14.5q-19 0 -31.5 13t-12.5 31zM513 826q0 21 14.5 34.5t36.5 13.5q19 0 32 -12t13 -30q0 -21 -14.5 -35.5t-37.5 -14.5q-19 0 -31.5 13t-12.5 31z" />
    <glyph glyph-name="Yacute" unicode="&#xdd;" horiz-adv-x="598" 
d="M661 700l-322 -440l-46 -260h-78l47 267l-170 433h81l139 -365l260 365h89zM410 760h-76l91 126h94z" />
    <glyph glyph-name="Thorn" unicode="&#xde;" horiz-adv-x="630" 
d="M332 136h-184l-24 -136h-78l123 700h78l-21 -117h182q89 0 145 -57.5t56 -140.5q0 -107 -76 -178t-201 -71zM159 201h177q87 0 140.5 50.5t53.5 126.5q0 58 -37 99t-102 41h-176z" />
    <glyph glyph-name="germandbls" unicode="&#xdf;" horiz-adv-x="594" 
d="M319 395q71 5 118.5 49.5t47.5 105.5q0 54 -37 88.5t-95 34.5q-123 0 -146 -131l-95 -542h-76l96 543q34 191 229 191q85 0 143 -49.5t58 -126.5q0 -71 -43.5 -120.5t-109.5 -72.5q55 -11 93.5 -54.5t38.5 -103.5q0 -91 -67.5 -149t-179.5 -58h-44l10 60h33
q80 0 126.5 40t46.5 104q0 59 -43 94t-102 35h-12z" />
    <glyph glyph-name="agrave" unicode="&#xe0;" horiz-adv-x="576" 
d="M456 0h-73l10 60q-18 -28 -67 -50t-106 -22q-81 0 -131 43t-50 110q0 79 59 123.5t150 44.5q57 0 103.5 -22t69.5 -54l17 96q2 12 2 26q0 48 -30.5 79t-83.5 31q-97 0 -137 -78h-70q52 137 216 137q76 0 129 -47t53 -118q0 -15 -3 -30zM240 38q36 0 73 12t65.5 40.5
t28.5 67.5q0 42 -45.5 71.5t-104.5 29.5q-66 0 -106.5 -29.5t-40.5 -87.5q0 -48 33.5 -76t96.5 -28zM375 582h-72l-74 142h91z" />
    <glyph glyph-name="aacute" unicode="&#xe1;" horiz-adv-x="576" 
d="M456 0h-73l10 60q-18 -28 -67 -50t-106 -22q-81 0 -131 43t-50 110q0 79 59 123.5t150 44.5q57 0 103.5 -22t69.5 -54l17 96q2 12 2 26q0 48 -30.5 79t-83.5 31q-97 0 -137 -78h-70q52 137 216 137q76 0 129 -47t53 -118q0 -15 -3 -30zM240 38q36 0 73 12t65.5 40.5
t28.5 67.5q0 42 -45.5 71.5t-104.5 29.5q-66 0 -106.5 -29.5t-40.5 -87.5q0 -48 33.5 -76t96.5 -28zM372 582h-76l100 142h100z" />
    <glyph glyph-name="acircumflex" unicode="&#xe2;" horiz-adv-x="576" 
d="M456 0h-73l10 60q-18 -28 -67 -50t-106 -22q-81 0 -131 43t-50 110q0 79 59 123.5t150 44.5q57 0 103.5 -22t69.5 -54l17 96q2 12 2 26q0 48 -30.5 79t-83.5 31q-97 0 -137 -78h-70q52 137 216 137q76 0 129 -47t53 -118q0 -15 -3 -30zM240 38q36 0 73 12t65.5 40.5
t28.5 67.5q0 42 -45.5 71.5t-104.5 29.5q-66 0 -106.5 -29.5t-40.5 -87.5q0 -48 33.5 -76t96.5 -28zM419 724l84 -142h-69l-56 97l-90 -97h-75l133 142h73z" />
    <glyph glyph-name="atilde" unicode="&#xe3;" horiz-adv-x="576" 
d="M456 0h-73l10 60q-18 -28 -67 -50t-106 -22q-81 0 -131 43t-50 110q0 79 59 123.5t150 44.5q57 0 103.5 -22t69.5 -54l17 96q2 12 2 26q0 48 -30.5 79t-83.5 31q-97 0 -137 -78h-70q52 137 216 137q76 0 129 -47t53 -118q0 -15 -3 -30zM240 38q36 0 73 12t65.5 40.5
t28.5 67.5q0 42 -45.5 71.5t-104.5 29.5q-66 0 -106.5 -29.5t-40.5 -87.5q0 -48 33.5 -76t96.5 -28zM440 587q-27 0 -76 31t-71 31q-43 0 -68 -67l-47 17q32 106 114 106q31 0 80.5 -31t64.5 -31q7 0 13.5 1.5t12 6.5t8.5 8t7.5 11.5l6 11.5t6 14t5.5 13l46 -18
q-10 -29 -20 -48.5t-32 -37.5t-50 -18z" />
    <glyph glyph-name="adieresis" unicode="&#xe4;" horiz-adv-x="576" 
d="M456 0h-73l10 60q-18 -28 -67 -50t-106 -22q-81 0 -131 43t-50 110q0 79 59 123.5t150 44.5q57 0 103.5 -22t69.5 -54l17 96q2 12 2 26q0 48 -30.5 79t-83.5 31q-97 0 -137 -78h-70q52 137 216 137q76 0 129 -47t53 -118q0 -15 -3 -30zM240 38q36 0 73 12t65.5 40.5
t28.5 67.5q0 42 -45.5 71.5t-104.5 29.5q-66 0 -106.5 -29.5t-40.5 -87.5q0 -48 33.5 -76t96.5 -28zM223 649q0 21 14.5 34.5t36.5 13.5q19 0 32 -12t13 -30q0 -21 -14.5 -35.5t-37.5 -14.5q-19 0 -31.5 13t-12.5 31zM423 649q0 21 14.5 34.5t36.5 13.5q19 0 32 -12t13 -30
q0 -21 -14.5 -35.5t-37.5 -14.5q-19 0 -31.5 13t-12.5 31z" />
    <glyph glyph-name="aring" unicode="&#xe5;" horiz-adv-x="576" 
d="M456 0h-73l10 60q-18 -28 -67 -50t-106 -22q-81 0 -131 43t-50 110q0 79 59 123.5t150 44.5q57 0 103.5 -22t69.5 -54l17 96q2 12 2 26q0 48 -30.5 79t-83.5 31q-97 0 -137 -78h-70q52 137 216 137q76 0 129 -47t53 -118q0 -15 -3 -30zM240 38q36 0 73 12t65.5 40.5
t28.5 67.5q0 42 -45.5 71.5t-104.5 29.5q-66 0 -106.5 -29.5t-40.5 -87.5q0 -48 33.5 -76t96.5 -28zM279 662q0 39 26.5 63.5t68.5 24.5q37 0 62 -22t25 -57q0 -37 -26 -63t-68 -26q-39 0 -63.5 22t-24.5 58zM419 670q0 20 -12 32t-34 12q-24 0 -38 -14.5t-14 -37.5
q0 -19 12.5 -31t35.5 -12t36.5 15t13.5 36z" />
    <glyph glyph-name="ae" unicode="&#xe6;" horiz-adv-x="928" 
d="M862 228h-366q-4 -28 -4 -45q0 -65 37.5 -102.5t103.5 -37.5q52 0 89 27t52 73h69q-19 -70 -76 -112.5t-139 -42.5q-68 0 -116.5 28t-66.5 75q-30 -46 -85 -74.5t-127 -28.5q-88 0 -141 43t-53 110q0 77 58.5 122.5t149.5 45.5q54 0 102 -22t72 -55l17 97q2 12 2 26
q0 48 -30.5 78.5t-83.5 30.5q-94 0 -137 -77h-70q61 137 216 137q107 0 157 -90q55 90 182 90q92 0 147 -53.5t55 -139.5q0 -20 -4 -44zM244 38q59 0 111 32t52 88q0 42 -45.5 71.5t-104.5 29.5q-65 0 -107 -29.5t-42 -88.5q0 -47 36.5 -75t99.5 -28zM510 306l-4 -24h296
l2 12q3 21 3 39q0 63 -36.5 99t-99.5 36q-68 0 -108 -44t-53 -118z" />
    <glyph glyph-name="ccedilla" unicode="&#xe7;" horiz-adv-x="564" 
d="M327 -111q0 -34 -28.5 -54.5t-75.5 -20.5q-37 0 -64 6l5 43q22 -5 51 -5q54 0 54 28q0 20 -42 25l-47 5l25 78q-71 16 -114 68t-43 126q0 24 4 44l14 80q36 212 236 212q88 0 148 -52t61 -140h-66q-3 58 -43 95t-103 37q-131 0 -159 -158l-15 -85q-3 -19 -3 -35
q0 -61 38 -99.5t104 -38.5q59 0 99 36t54 92h69q-17 -84 -76.5 -136t-149.5 -52h-10l-9 -34l20 -2q28 -3 47 -18.5t19 -44.5z" />
    <glyph glyph-name="egrave" unicode="&#xe8;" horiz-adv-x="556" 
d="M490 228h-366q-4 -28 -4 -45q0 -65 37.5 -102.5t103.5 -37.5q52 0 89 27t52 73h69q-19 -70 -76 -112.5t-139 -42.5q-99 0 -153 58t-54 145q0 24 4 47l13 74q17 98 77 155t159 57q92 0 147 -53.5t55 -139.5q0 -20 -4 -44zM138 306l-4 -24h296l2 12q3 21 3 39
q0 63 -36.5 99t-99.5 36q-68 0 -108 -44t-53 -118zM356 582h-72l-74 142h91z" />
    <glyph glyph-name="eacute" unicode="&#xe9;" horiz-adv-x="556" 
d="M490 228h-366q-4 -28 -4 -45q0 -65 37.5 -102.5t103.5 -37.5q52 0 89 27t52 73h69q-19 -70 -76 -112.5t-139 -42.5q-99 0 -153 58t-54 145q0 24 4 47l13 74q17 98 77 155t159 57q92 0 147 -53.5t55 -139.5q0 -20 -4 -44zM138 306l-4 -24h296l2 12q3 21 3 39
q0 63 -36.5 99t-99.5 36q-68 0 -108 -44t-53 -118zM366 582h-76l100 142h100z" />
    <glyph glyph-name="ecircumflex" unicode="&#xea;" horiz-adv-x="556" 
d="M490 228h-366q-4 -28 -4 -45q0 -65 37.5 -102.5t103.5 -37.5q52 0 89 27t52 73h69q-19 -70 -76 -112.5t-139 -42.5q-99 0 -153 58t-54 145q0 24 4 47l13 74q17 98 77 155t159 57q92 0 147 -53.5t55 -139.5q0 -20 -4 -44zM138 306l-4 -24h296l2 12q3 21 3 39
q0 63 -36.5 99t-99.5 36q-68 0 -108 -44t-53 -118zM392 724l84 -142h-69l-56 97l-90 -97h-75l133 142h73z" />
    <glyph glyph-name="edieresis" unicode="&#xeb;" horiz-adv-x="556" 
d="M490 228h-366q-4 -28 -4 -45q0 -65 37.5 -102.5t103.5 -37.5q52 0 89 27t52 73h69q-19 -70 -76 -112.5t-139 -42.5q-99 0 -153 58t-54 145q0 24 4 47l13 74q17 98 77 155t159 57q92 0 147 -53.5t55 -139.5q0 -20 -4 -44zM138 306l-4 -24h296l2 12q3 21 3 39
q0 63 -36.5 99t-99.5 36q-68 0 -108 -44t-53 -118zM194 649q0 21 14.5 34.5t36.5 13.5q19 0 32 -12t13 -30q0 -21 -14.5 -35.5t-37.5 -14.5q-19 0 -31.5 13t-12.5 31zM394 649q0 21 14.5 34.5t36.5 13.5q19 0 32 -12t13 -30q0 -21 -14.5 -35.5t-37.5 -14.5q-19 0 -31.5 13
t-12.5 31z" />
    <glyph glyph-name="igrave" unicode="&#xec;" 
d="M117 0h-76l90 512h76zM208 582h-72l-74 142h91z" />
    <glyph glyph-name="iacute" unicode="&#xed;" 
d="M117 0h-76l90 512h76zM223 582h-76l100 142h100z" />
    <glyph glyph-name="icircumflex" unicode="&#xee;" 
d="M117 0h-76l90 512h76zM240 724l84 -142h-69l-56 97l-90 -97h-75l133 142h73z" />
    <glyph glyph-name="idieresis" unicode="&#xef;" 
d="M117 0h-76l90 512h76zM46 649q0 21 14.5 34.5t36.5 13.5q19 0 32 -12t13 -30q0 -21 -14.5 -35.5t-37.5 -14.5q-19 0 -31.5 13t-12.5 31zM246 649q0 21 14.5 34.5t36.5 13.5q19 0 32 -12t13 -30q0 -21 -14.5 -35.5t-37.5 -14.5q-19 0 -31.5 13t-12.5 31z" />
    <glyph glyph-name="eth" unicode="&#xf0;" horiz-adv-x="567" 
d="M214 555l-17 50l122 37q-50 49 -107 88h94q44 -30 80 -68l120 37l17 -49l-99 -31q95 -122 95 -274q0 -44 -7 -83l-13 -75q-15 -90 -78 -145.5t-161 -55.5q-93 0 -152 57.5t-59 149.5q0 25 4 46l11 61q36 202 223 202q54 0 98.5 -23.5t62.5 -58.5q-24 100 -90 179z
M427 198l11 62q3 17 3 32q0 64 -40.5 108.5t-104.5 44.5q-132 0 -159 -150l-12 -67q-4 -22 -4 -40q0 -65 40 -104t105 -39t106.5 40.5t54.5 112.5z" />
    <glyph glyph-name="ntilde" unicode="&#xf1;" horiz-adv-x="586" 
d="M112 0h-76l90 512h72l-16 -87q26 47 73.5 73t106.5 26q72 0 118 -44t46 -116q0 -16 -4 -40l-57 -324h-76l56 317q3 18 3 34q0 52 -31 79.5t-83 27.5q-64 0 -110.5 -46.5t-60.5 -122.5zM430 587q-27 0 -76 31t-71 31q-43 0 -68 -67l-47 17q32 106 114 106q31 0 80.5 -31
t64.5 -31q7 0 13.5 1.5t12 6.5t8.5 8t7.5 11.5l6 11.5t6 14t5.5 13l46 -18q-10 -29 -20 -48.5t-32 -37.5t-50 -18z" />
    <glyph glyph-name="ograve" unicode="&#xf2;" horiz-adv-x="566" 
d="M52 239l13 74q19 105 80 158t158 53q96 0 155 -57.5t59 -147.5q0 -17 -4 -45l-13 -76q-17 -97 -79 -153.5t-157 -56.5q-99 0 -157.5 56t-58.5 147q0 27 4 48zM426 199l15 85q4 20 4 38q0 64 -39.5 104t-104.5 40q-134 0 -163 -160l-14 -79q-4 -28 -4 -42
q0 -66 40.5 -102.5t104.5 -36.5q67 0 108 41t53 112zM358 582h-72l-74 142h91z" />
    <glyph glyph-name="oacute" unicode="&#xf3;" horiz-adv-x="566" 
d="M52 239l13 74q19 105 80 158t158 53q96 0 155 -57.5t59 -147.5q0 -17 -4 -45l-13 -76q-17 -97 -79 -153.5t-157 -56.5q-99 0 -157.5 56t-58.5 147q0 27 4 48zM426 199l15 85q4 20 4 38q0 64 -39.5 104t-104.5 40q-134 0 -163 -160l-14 -79q-4 -28 -4 -42
q0 -66 40.5 -102.5t104.5 -36.5q67 0 108 41t53 112zM369 582h-76l100 142h100z" />
    <glyph glyph-name="ocircumflex" unicode="&#xf4;" horiz-adv-x="566" 
d="M52 239l13 74q19 105 80 158t158 53q96 0 155 -57.5t59 -147.5q0 -17 -4 -45l-13 -76q-17 -97 -79 -153.5t-157 -56.5q-99 0 -157.5 56t-58.5 147q0 27 4 48zM426 199l15 85q4 20 4 38q0 64 -39.5 104t-104.5 40q-134 0 -163 -160l-14 -79q-4 -28 -4 -42
q0 -66 40.5 -102.5t104.5 -36.5q67 0 108 41t53 112zM400 724l84 -142h-69l-56 97l-90 -97h-75l133 142h73z" />
    <glyph glyph-name="otilde" unicode="&#xf5;" horiz-adv-x="566" 
d="M52 239l13 74q19 105 80 158t158 53q96 0 155 -57.5t59 -147.5q0 -17 -4 -45l-13 -76q-17 -97 -79 -153.5t-157 -56.5q-99 0 -157.5 56t-58.5 147q0 27 4 48zM426 199l15 85q4 20 4 38q0 64 -39.5 104t-104.5 40q-134 0 -163 -160l-14 -79q-4 -28 -4 -42
q0 -66 40.5 -102.5t104.5 -36.5q67 0 108 41t53 112zM428 587q-27 0 -76 31t-71 31q-43 0 -68 -67l-47 17q32 106 114 106q31 0 80.5 -31t64.5 -31q7 0 13.5 1.5t12 6.5t8.5 8t7.5 11.5l6 11.5t6 14t5.5 13l46 -18q-10 -29 -20 -48.5t-32 -37.5t-50 -18z" />
    <glyph glyph-name="odieresis" unicode="&#xf6;" horiz-adv-x="566" 
d="M52 239l13 74q19 105 80 158t158 53q96 0 155 -57.5t59 -147.5q0 -17 -4 -45l-13 -76q-17 -97 -79 -153.5t-157 -56.5q-99 0 -157.5 56t-58.5 147q0 27 4 48zM426 199l15 85q4 20 4 38q0 64 -39.5 104t-104.5 40q-134 0 -163 -160l-14 -79q-4 -28 -4 -42
q0 -66 40.5 -102.5t104.5 -36.5q67 0 108 41t53 112zM204 649q0 21 14.5 34.5t36.5 13.5q19 0 32 -12t13 -30q0 -21 -14.5 -35.5t-37.5 -14.5q-19 0 -31.5 13t-12.5 31zM404 649q0 21 14.5 34.5t36.5 13.5q19 0 32 -12t13 -30q0 -21 -14.5 -35.5t-37.5 -14.5q-19 0 -31.5 13
t-12.5 31z" />
    <glyph glyph-name="divide" unicode="&#xf7;" horiz-adv-x="594" 
d="M90 328l12 64h434l-12 -64h-434zM229 163q0 23 16 37.5t41 14.5q19 0 31.5 -12t12.5 -30q0 -23 -16.5 -38.5t-39.5 -15.5q-19 0 -32 12.5t-13 31.5zM297 549q0 23 16 37.5t41 14.5q19 0 31.5 -12t12.5 -30q0 -23 -16.5 -38.5t-39.5 -15.5q-19 0 -32 12.5t-13 31.5z" />
    <glyph glyph-name="oslash" unicode="&#xf8;" horiz-adv-x="566" 
d="M52 239l13 74q19 105 80 158t158 53q76 0 134 -40l65 79h62l-92 -112q45 -45 45 -132q0 -17 -4 -45l-13 -76q-17 -97 -79 -153.5t-157 -56.5q-82 0 -138 39l-63 -77h-62l90 110q-43 52 -43 131q0 27 4 48zM426 199l15 85q4 20 4 38q0 42 -18 74l-260 -319q37 -31 98 -31
q67 0 108 41t53 112zM120 185q0 -41 15 -71l261 320q-38 32 -95 32q-134 0 -163 -160l-14 -79q-4 -28 -4 -42z" />
    <glyph glyph-name="ugrave" unicode="&#xf9;" horiz-adv-x="581" 
d="M469 512h76l-90 -512h-72l16 87q-22 -44 -69 -71.5t-105 -27.5q-71 0 -117.5 43.5t-46.5 118.5q0 23 4 44l56 318h76l-56 -319q-4 -26 -4 -37q0 -52 30.5 -79t84.5 -27q63 0 107.5 46.5t58.5 126.5zM379 582h-72l-74 142h91z" />
    <glyph glyph-name="uacute" unicode="&#xfa;" horiz-adv-x="581" 
d="M469 512h76l-90 -512h-72l16 87q-22 -44 -69 -71.5t-105 -27.5q-71 0 -117.5 43.5t-46.5 118.5q0 23 4 44l56 318h76l-56 -319q-4 -26 -4 -37q0 -52 30.5 -79t84.5 -27q63 0 107.5 46.5t58.5 126.5zM367 582h-76l100 142h100z" />
    <glyph glyph-name="ucircumflex" unicode="&#xfb;" horiz-adv-x="581" 
d="M469 512h76l-90 -512h-72l16 87q-22 -44 -69 -71.5t-105 -27.5q-71 0 -117.5 43.5t-46.5 118.5q0 23 4 44l56 318h76l-56 -319q-4 -26 -4 -37q0 -52 30.5 -79t84.5 -27q63 0 107.5 46.5t58.5 126.5zM409 724l84 -142h-69l-56 97l-90 -97h-75l133 142h73z" />
    <glyph glyph-name="udieresis" unicode="&#xfc;" horiz-adv-x="581" 
d="M469 512h76l-90 -512h-72l16 87q-22 -44 -69 -71.5t-105 -27.5q-71 0 -117.5 43.5t-46.5 118.5q0 23 4 44l56 318h76l-56 -319q-4 -26 -4 -37q0 -52 30.5 -79t84.5 -27q63 0 107.5 46.5t58.5 126.5zM210 649q0 21 14.5 34.5t36.5 13.5q19 0 32 -12t13 -30
q0 -21 -14.5 -35.5t-37.5 -14.5q-19 0 -31.5 13t-12.5 31zM410 649q0 21 14.5 34.5t36.5 13.5q19 0 32 -12t13 -30q0 -21 -14.5 -35.5t-37.5 -14.5q-19 0 -31.5 13t-12.5 31z" />
    <glyph glyph-name="yacute" unicode="&#xfd;" horiz-adv-x="514" 
d="M159 -174h-75l96 179l-103 507h75l79 -433l215 433h79l-272 -513zM331 582h-76l100 142h100z" />
    <glyph glyph-name="thorn" unicode="&#xfe;" horiz-adv-x="591" 
d="M240 730l-51 -288q20 32 65 57t98 25q87 0 139 -55.5t52 -141.5q0 -21 -4 -49l-14 -79q-18 -101 -75.5 -156t-146.5 -55q-65 0 -113 34t-61 77l-48 -273h-76l160 904h75zM452 204l13 75q4 28 4 44q0 66 -36 104.5t-101 38.5q-67 0 -110.5 -46t-56.5 -119l-12 -68
q-3 -17 -3 -33q0 -65 41 -109.5t107 -44.5q62 0 101 40.5t53 117.5z" />
    <glyph glyph-name="ydieresis" unicode="&#xff;" horiz-adv-x="514" 
d="M159 -174h-75l96 179l-103 507h75l79 -433l215 433h79l-272 -513zM179 649q0 21 14.5 34.5t36.5 13.5q19 0 32 -12t13 -30q0 -21 -14.5 -35.5t-37.5 -14.5q-19 0 -31.5 13t-12.5 31zM379 649q0 21 14.5 34.5t36.5 13.5q19 0 32 -12t13 -30q0 -21 -14.5 -35.5t-37.5 -14.5
q-19 0 -31.5 13t-12.5 31z" />
    <glyph glyph-name="Amacron" unicode="&#x100;" horiz-adv-x="670" 
d="M512 0l-32 183h-308l-94 -183h-84l379 700h79l135 -700h-75zM403 632l-199 -386h265zM589 796h-327l11 58h326z" />
    <glyph glyph-name="amacron" unicode="&#x101;" horiz-adv-x="576" 
d="M456 0h-73l10 60q-18 -28 -67 -50t-106 -22q-81 0 -131 43t-50 110q0 79 59 123.5t150 44.5q57 0 103.5 -22t69.5 -54l17 96q2 12 2 26q0 48 -30.5 79t-83.5 31q-97 0 -137 -78h-70q52 137 216 137q76 0 129 -47t53 -118q0 -15 -3 -30zM240 38q36 0 73 12t65.5 40.5
t28.5 67.5q0 42 -45.5 71.5t-104.5 29.5q-66 0 -106.5 -29.5t-40.5 -87.5q0 -48 33.5 -76t96.5 -28zM511 617h-303l10 57h303z" />
    <glyph glyph-name="Abreve" unicode="&#x102;" horiz-adv-x="670" 
d="M512 0l-32 183h-308l-94 -183h-84l379 700h79l135 -700h-75zM403 632l-199 -386h265zM603 886q-9 -58 -55.5 -92t-117.5 -34q-70 0 -113 33t-35 93h59q-5 -38 20 -59t73 -21q44 0 73 21.5t36 58.5h60z" />
    <glyph glyph-name="abreve" unicode="&#x103;" horiz-adv-x="576" 
d="M456 0h-73l10 60q-18 -28 -67 -50t-106 -22q-81 0 -131 43t-50 110q0 79 59 123.5t150 44.5q57 0 103.5 -22t69.5 -54l17 96q2 12 2 26q0 48 -30.5 79t-83.5 31q-97 0 -137 -78h-70q52 137 216 137q76 0 129 -47t53 -118q0 -15 -3 -30zM240 38q36 0 73 12t65.5 40.5
t28.5 67.5q0 42 -45.5 71.5t-104.5 29.5q-66 0 -106.5 -29.5t-40.5 -87.5q0 -48 33.5 -76t96.5 -28zM532 724q-9 -64 -52 -103t-112 -39q-68 0 -110.5 37t-34.5 105h56q-6 -46 18 -71.5t75 -25.5q45 0 71.5 27t32.5 70h56z" />
    <glyph glyph-name="Aogonek" unicode="&#x104;" horiz-adv-x="670" 
d="M560 -130l-2 -50q-22 -6 -53 -6q-41 0 -64 21.5t-23 54.5q0 39 27.5 67t66.5 43l-32 183h-308l-94 -183h-84l379 700h79l135 -700q-28 -14 -46 -26t-35.5 -32.5t-17.5 -42.5q0 -32 45 -32q15 0 27 3zM403 632l-199 -386h265z" />
    <glyph glyph-name="aogonek" unicode="&#x105;" horiz-adv-x="576" 
d="M456 0q-99 -53 -99 -101q0 -32 45 -32q15 0 27 3l-2 -50q-22 -6 -53 -6q-41 0 -64 21.5t-23 54.5q0 39 29 67t67 43l10 60q-18 -28 -67 -50t-106 -22q-81 0 -131 43t-50 110q0 79 59 123.5t150 44.5q57 0 103.5 -22t69.5 -54l17 96q2 12 2 26q0 48 -30.5 79t-83.5 31
q-97 0 -137 -78h-70q52 137 216 137q76 0 129 -47t53 -118q0 -15 -3 -30zM240 38q36 0 73 12t65.5 40.5t28.5 67.5q0 42 -45.5 71.5t-104.5 29.5q-66 0 -106.5 -29.5t-40.5 -87.5q0 -48 33.5 -76t96.5 -28z" />
    <glyph glyph-name="Cacute" unicode="&#x106;" horiz-adv-x="694" 
d="M659 469h-73q-7 84 -57.5 132t-136.5 48q-94 0 -147.5 -56.5t-73.5 -167.5l-20 -112q-7 -42 -7 -69q0 -90 48.5 -141.5t141.5 -51.5q86 0 139.5 51t72.5 129h73q-20 -106 -97.5 -175.5t-189.5 -69.5q-121 0 -191.5 72.5t-70.5 191.5q0 32 6 68l19 107q25 143 98 216
t202 73q111 0 184 -64.5t80 -180.5zM459 760h-76l91 126h94z" />
    <glyph glyph-name="cacute" unicode="&#x107;" horiz-adv-x="564" 
d="M511 332h-66q-3 58 -43 95t-103 37q-131 0 -159 -158l-15 -85q-3 -19 -3 -35q0 -61 38 -99.5t104 -38.5q59 0 99 36t54 92h69q-17 -84 -76.5 -136t-149.5 -52q-92 0 -152 56t-60 144q0 24 4 44l14 80q36 212 236 212q88 0 148 -52t61 -140zM367 582h-76l100 142h100z" />
    <glyph glyph-name="Ccircumflex" unicode="&#x108;" horiz-adv-x="694" 
d="M659 469h-73q-7 84 -57.5 132t-136.5 48q-94 0 -147.5 -56.5t-73.5 -167.5l-20 -112q-7 -42 -7 -69q0 -90 48.5 -141.5t141.5 -51.5q86 0 139.5 51t72.5 129h73q-20 -106 -97.5 -175.5t-189.5 -69.5q-121 0 -191.5 72.5t-70.5 191.5q0 32 6 68l19 107q25 143 98 216
t202 73q111 0 184 -64.5t80 -180.5zM486 886l92 -126h-71l-61 83l-91 -83h-78l135 126h74z" />
    <glyph glyph-name="ccircumflex" unicode="&#x109;" horiz-adv-x="564" 
d="M511 332h-66q-3 58 -43 95t-103 37q-131 0 -159 -158l-15 -85q-3 -19 -3 -35q0 -61 38 -99.5t104 -38.5q59 0 99 36t54 92h69q-17 -84 -76.5 -136t-149.5 -52q-92 0 -152 56t-60 144q0 24 4 44l14 80q36 212 236 212q88 0 148 -52t61 -140zM396 724l84 -142h-69l-56 97
l-90 -97h-75l133 142h73z" />
    <glyph glyph-name="Cdotaccent" unicode="&#x10a;" horiz-adv-x="694" 
d="M659 469h-73q-7 84 -57.5 132t-136.5 48q-94 0 -147.5 -56.5t-73.5 -167.5l-20 -112q-7 -42 -7 -69q0 -90 48.5 -141.5t141.5 -51.5q86 0 139.5 51t72.5 129h73q-20 -106 -97.5 -175.5t-189.5 -69.5q-121 0 -191.5 72.5t-70.5 191.5q0 32 6 68l19 107q25 143 98 216
t202 73q111 0 184 -64.5t80 -180.5zM385 813q0 21 14.5 35.5t37.5 14.5q19 0 32 -11t13 -30q0 -22 -15 -36.5t-39 -14.5q-18 0 -30.5 12t-12.5 30z" />
    <glyph glyph-name="cdotaccent" unicode="&#x10b;" horiz-adv-x="564" 
d="M511 332h-66q-3 58 -43 95t-103 37q-131 0 -159 -158l-15 -85q-3 -19 -3 -35q0 -61 38 -99.5t104 -38.5q59 0 99 36t54 92h69q-17 -84 -76.5 -136t-149.5 -52q-92 0 -152 56t-60 144q0 24 4 44l14 80q36 212 236 212q88 0 148 -52t61 -140zM290 643q0 21 14 35.5t38 14.5
q19 0 32 -11t13 -30q0 -22 -15 -36.5t-39 -14.5q-18 0 -30.5 12t-12.5 30z" />
    <glyph glyph-name="Ccaron" unicode="&#x10c;" horiz-adv-x="694" 
d="M659 469h-73q-7 84 -57.5 132t-136.5 48q-94 0 -147.5 -56.5t-73.5 -167.5l-20 -112q-7 -42 -7 -69q0 -90 48.5 -141.5t141.5 -51.5q86 0 139.5 51t72.5 129h73q-20 -106 -97.5 -175.5t-189.5 -69.5q-121 0 -191.5 72.5t-70.5 191.5q0 32 6 68l19 107q25 143 98 216
t202 73q111 0 184 -64.5t80 -180.5zM392 760l-92 126h71l62 -84l89 84h79l-135 -126h-74z" />
    <glyph glyph-name="ccaron" unicode="&#x10d;" horiz-adv-x="564" 
d="M511 332h-66q-3 58 -43 95t-103 37q-131 0 -159 -158l-15 -85q-3 -19 -3 -35q0 -61 38 -99.5t104 -38.5q59 0 99 36t54 92h69q-17 -84 -76.5 -136t-149.5 -52q-92 0 -152 56t-60 144q0 24 4 44l14 80q36 212 236 212q88 0 148 -52t61 -140zM299 582l-84 142h69l56 -97
l90 97h75l-133 -142h-73z" />
    <glyph glyph-name="Dcaron" unicode="&#x10e;" horiz-adv-x="693" 
d="M169 700h261q106 0 167.5 -59.5t61.5 -157.5q0 -28 -5 -58l-30 -170q-22 -125 -96 -190t-212 -65h-270zM134 64h177q103 0 160.5 45.5t75.5 145.5l30 170q5 27 5 52q0 76 -44 117.5t-126 41.5h-177zM382 760l-92 126h71l62 -84l89 84h79l-135 -126h-74z" />
    <glyph glyph-name="dcaron" unicode="&#x10f;" horiz-adv-x="743" 
d="M661 534l74 196h82l-95 -196h-61zM393 0l13 76q-17 -34 -63.5 -61t-102.5 -27q-88 0 -140 57t-52 143q0 22 5 50l14 79q18 100 75.5 153.5t146.5 53.5q64 0 112 -34t62 -77l56 317h76l-129 -730h-73zM140 306l-13 -73q-4 -23 -4 -45q0 -65 36.5 -103.5t100.5 -38.5
q66 0 110 47.5t57 117.5l12 66q3 17 3 34q0 65 -41 110t-107 45q-62 0 -101 -41.5t-53 -118.5z" />
    <glyph glyph-name="Dcroat" unicode="&#x110;" horiz-adv-x="726" 
d="M49 318l11 64h86l56 318h261q106 0 167.5 -59.5t61.5 -157.5q0 -28 -5 -58l-30 -170q-22 -125 -96 -190t-212 -65h-270l56 318h-86zM167 64h177q103 0 160.5 45.5t75.5 145.5l30 170q5 27 5 52q0 76 -44 117.5t-126 41.5h-177l-45 -254h181l-11 -64h-181z" />
    <glyph glyph-name="dcroat" unicode="&#x111;" horiz-adv-x="613" 
d="M393 0l13 76q-17 -34 -63.5 -61t-102.5 -27q-88 0 -140 57t-52 143q0 22 5 50l14 79q18 100 75.5 153.5t146.5 53.5q64 0 112 -34t62 -77l30 173h-122l10 56h122l16 88h76l-16 -88h77l-10 -56h-77l-103 -586h-73zM140 306l-13 -73q-4 -23 -4 -45q0 -65 36.5 -103.5
t100.5 -38.5q66 0 110 47.5t57 117.5l12 66q3 17 3 34q0 65 -41 110t-107 45q-62 0 -101 -41.5t-53 -118.5z" />
    <glyph glyph-name="Emacron" unicode="&#x112;" horiz-adv-x="608" 
d="M46 0l123 700h455l-11 -65h-378l-43 -247h348l-11 -65h-349l-45 -258h379l-12 -65h-456zM573 796h-327l11 58h326z" />
    <glyph glyph-name="emacron" unicode="&#x113;" horiz-adv-x="556" 
d="M490 228h-366q-4 -28 -4 -45q0 -65 37.5 -102.5t103.5 -37.5q52 0 89 27t52 73h69q-19 -70 -76 -112.5t-139 -42.5q-99 0 -153 58t-54 145q0 24 4 47l13 74q17 98 77 155t159 57q92 0 147 -53.5t55 -139.5q0 -20 -4 -44zM138 306l-4 -24h296l2 12q3 21 3 39
q0 63 -36.5 99t-99.5 36q-68 0 -108 -44t-53 -118zM490 617h-303l10 57h303z" />
    <glyph glyph-name="Ebreve" unicode="&#x114;" horiz-adv-x="608" 
d="M46 0l123 700h455l-11 -65h-378l-43 -247h348l-11 -65h-349l-45 -258h379l-12 -65h-456zM589 886q-9 -58 -55.5 -92t-117.5 -34q-70 0 -113 33t-35 93h59q-5 -38 20 -59t73 -21q44 0 73 21.5t36 58.5h60z" />
    <glyph glyph-name="ebreve" unicode="&#x115;" horiz-adv-x="556" 
d="M490 228h-366q-4 -28 -4 -45q0 -65 37.5 -102.5t103.5 -37.5q52 0 89 27t52 73h69q-19 -70 -76 -112.5t-139 -42.5q-99 0 -153 58t-54 145q0 24 4 47l13 74q17 98 77 155t159 57q92 0 147 -53.5t55 -139.5q0 -20 -4 -44zM138 306l-4 -24h296l2 12q3 21 3 39
q0 63 -36.5 99t-99.5 36q-68 0 -108 -44t-53 -118zM509 724q-9 -64 -52 -103t-112 -39q-68 0 -110.5 37t-34.5 105h56q-6 -46 18 -71.5t75 -25.5q45 0 71.5 27t32.5 70h56z" />
    <glyph glyph-name="Edotaccent" unicode="&#x116;" horiz-adv-x="608" 
d="M46 0l123 700h455l-11 -65h-378l-43 -247h348l-11 -65h-349l-45 -258h379l-12 -65h-456zM367 813q0 21 14.5 35.5t37.5 14.5q19 0 32 -11t13 -30q0 -22 -15 -36.5t-39 -14.5q-18 0 -30.5 12t-12.5 30z" />
    <glyph glyph-name="edotaccent" unicode="&#x117;" horiz-adv-x="556" 
d="M490 228h-366q-4 -28 -4 -45q0 -65 37.5 -102.5t103.5 -37.5q52 0 89 27t52 73h69q-19 -70 -76 -112.5t-139 -42.5q-99 0 -153 58t-54 145q0 24 4 47l13 74q17 98 77 155t159 57q92 0 147 -53.5t55 -139.5q0 -20 -4 -44zM138 306l-4 -24h296l2 12q3 21 3 39
q0 63 -36.5 99t-99.5 36q-68 0 -108 -44t-53 -118zM292 643q0 21 14 35.5t38 14.5q19 0 32 -11t13 -30q0 -22 -15 -36.5t-39 -14.5q-18 0 -30.5 12t-12.5 30z" />
    <glyph glyph-name="Eogonek" unicode="&#x118;" horiz-adv-x="608" 
d="M46 0l123 700h455l-11 -65h-378l-43 -247h348l-11 -65h-349l-45 -258h379l-12 -65q-99 -53 -99 -101q0 -32 45 -32q15 0 27 3l-2 -50q-22 -6 -53 -6q-41 0 -64 21.5t-23 54.5q0 72 96 110h-383z" />
    <glyph glyph-name="eogonek" unicode="&#x119;" horiz-adv-x="556" 
d="M490 228h-366q-4 -28 -4 -45q0 -65 37.5 -102.5t103.5 -37.5q52 0 89 27t52 73h69q-21 -75 -84 -118q-5 -4 -24 -16t-25.5 -16.5t-21 -15.5t-20.5 -18l-14.5 -17.5t-11.5 -21t-3 -21.5q0 -32 45 -32q15 0 27 3l-2 -50q-22 -6 -53 -6q-41 0 -64 21.5t-23 54.5q0 32 21 58
t49 40h-11q-99 0 -153 58t-54 145q0 24 4 47l13 74q17 98 77 155t159 57q92 0 147 -53.5t55 -139.5q0 -20 -4 -44zM138 306l-4 -24h296l2 12q3 21 3 39q0 63 -36.5 99t-99.5 36q-68 0 -108 -44t-53 -118z" />
    <glyph glyph-name="Ecaron" unicode="&#x11a;" horiz-adv-x="608" 
d="M46 0l123 700h455l-11 -65h-378l-43 -247h348l-11 -65h-349l-45 -258h379l-12 -65h-456zM369 760l-92 126h71l62 -84l89 84h79l-135 -126h-74z" />
    <glyph glyph-name="ecaron" unicode="&#x11b;" horiz-adv-x="556" 
d="M490 228h-366q-4 -28 -4 -45q0 -65 37.5 -102.5t103.5 -37.5q52 0 89 27t52 73h69q-19 -70 -76 -112.5t-139 -42.5q-99 0 -153 58t-54 145q0 24 4 47l13 74q17 98 77 155t159 57q92 0 147 -53.5t55 -139.5q0 -20 -4 -44zM138 306l-4 -24h296l2 12q3 21 3 39
q0 63 -36.5 99t-99.5 36q-68 0 -108 -44t-53 -118zM298 582l-84 142h69l56 -97l90 97h75l-133 -142h-73z" />
    <glyph glyph-name="Gcircumflex" unicode="&#x11c;" horiz-adv-x="695" 
d="M75 323l19 108q50 283 296 283q114 0 186.5 -62.5t76.5 -181.5h-72q-8 85 -57 132t-136 47q-91 0 -145 -57t-73 -161l-20 -113q-6 -34 -6 -67q0 -94 51 -148t142 -54q89 0 141.5 53.5t68.5 146.5l4 24h-194l12 64h270l-14 -82q-20 -121 -95.5 -195t-197.5 -74t-192.5 76
t-70.5 194q0 32 6 67zM482 886l92 -126h-71l-61 83l-91 -83h-78l135 126h74z" />
    <glyph glyph-name="gcircumflex" unicode="&#x11d;" horiz-adv-x="593" 
d="M557 512l-91 -518q-14 -81 -77.5 -130.5t-150.5 -49.5q-74 0 -139 35.5t-85 96.5h74q17 -35 58 -54.5t95 -19.5q62 0 101 36t49 92l19 108q-19 -37 -63 -62t-97 -25q-88 0 -142.5 56t-54.5 143q0 19 4 42l11 61q37 201 223 201q64 0 112 -32t65 -74l17 94h72zM142 318
l-11 -62q-4 -24 -4 -40q0 -63 37.5 -99.5t101.5 -36.5q65 0 109.5 43t56.5 110l10 55q3 15 3 29q0 62 -42.5 105t-105.5 43q-64 0 -103.5 -38t-51.5 -109zM420 724l84 -142h-69l-56 97l-90 -97h-75l133 142h73z" />
    <glyph glyph-name="Gbreve" unicode="&#x11e;" horiz-adv-x="695" 
d="M75 323l19 108q50 283 296 283q114 0 186.5 -62.5t76.5 -181.5h-72q-8 85 -57 132t-136 47q-91 0 -145 -57t-73 -161l-20 -113q-6 -34 -6 -67q0 -94 51 -148t142 -54q89 0 141.5 53.5t68.5 146.5l4 24h-194l12 64h270l-14 -82q-20 -121 -95.5 -195t-197.5 -74t-192.5 76
t-70.5 194q0 32 6 67zM607 886q-9 -58 -55.5 -92t-117.5 -34q-70 0 -113 33t-35 93h59q-5 -38 20 -59t73 -21q44 0 73 21.5t36 58.5h60z" />
    <glyph glyph-name="gbreve" unicode="&#x11f;" horiz-adv-x="593" 
d="M557 512l-91 -518q-14 -81 -77.5 -130.5t-150.5 -49.5q-74 0 -139 35.5t-85 96.5h74q17 -35 58 -54.5t95 -19.5q62 0 101 36t49 92l19 108q-19 -37 -63 -62t-97 -25q-88 0 -142.5 56t-54.5 143q0 19 4 42l11 61q37 201 223 201q64 0 112 -32t65 -74l17 94h72zM142 318
l-11 -62q-4 -24 -4 -40q0 -63 37.5 -99.5t101.5 -36.5q65 0 109.5 43t56.5 110l10 55q3 15 3 29q0 62 -42.5 105t-105.5 43q-64 0 -103.5 -38t-51.5 -109zM533 724q-9 -64 -52 -103t-112 -39q-68 0 -110.5 37t-34.5 105h56q-6 -46 18 -71.5t75 -25.5q45 0 71.5 27t32.5 70
h56z" />
    <glyph glyph-name="Gdotaccent" unicode="&#x120;" horiz-adv-x="695" 
d="M75 323l19 108q50 283 296 283q114 0 186.5 -62.5t76.5 -181.5h-72q-8 85 -57 132t-136 47q-91 0 -145 -57t-73 -161l-20 -113q-6 -34 -6 -67q0 -94 51 -148t142 -54q89 0 141.5 53.5t68.5 146.5l4 24h-194l12 64h270l-14 -82q-20 -121 -95.5 -195t-197.5 -74t-192.5 76
t-70.5 194q0 32 6 67zM376 813q0 21 14 35.5t38 14.5q19 0 32 -11t13 -30q0 -22 -15 -36.5t-39 -14.5q-18 0 -30.5 12t-12.5 30z" />
    <glyph glyph-name="gdotaccent" unicode="&#x121;" horiz-adv-x="593" 
d="M557 512l-91 -518q-14 -81 -77.5 -130.5t-150.5 -49.5q-74 0 -139 35.5t-85 96.5h74q17 -35 58 -54.5t95 -19.5q62 0 101 36t49 92l19 108q-19 -37 -63 -62t-97 -25q-88 0 -142.5 56t-54.5 143q0 19 4 42l11 61q37 201 223 201q64 0 112 -32t65 -74l17 94h72zM142 318
l-11 -62q-4 -24 -4 -40q0 -63 37.5 -99.5t101.5 -36.5q65 0 109.5 43t56.5 110l10 55q3 15 3 29q0 62 -42.5 105t-105.5 43q-64 0 -103.5 -38t-51.5 -109zM306 643q0 21 14 35.5t38 14.5q19 0 32 -11t13 -30q0 -22 -15 -36.5t-39 -14.5q-18 0 -30.5 12t-12.5 30z" />
    <glyph glyph-name="Gcommaaccent" unicode="&#x122;" horiz-adv-x="695" 
d="M75 323l19 108q50 283 296 283q114 0 186.5 -62.5t76.5 -181.5h-72q-8 85 -57 132t-136 47q-91 0 -145 -57t-73 -161l-20 -113q-6 -34 -6 -67q0 -94 51 -148t142 -54q89 0 141.5 53.5t68.5 146.5l4 24h-194l12 64h270l-14 -82q-20 -121 -95.5 -195t-197.5 -74t-192.5 76
t-70.5 194q0 32 6 67zM195 -250l68 170h85l-90 -170h-63z" />
    <glyph glyph-name="gcommaaccent" unicode="&#x123;" horiz-adv-x="593" 
d="M557 512l-91 -518q-14 -81 -77.5 -130.5t-150.5 -49.5q-74 0 -139 35.5t-85 96.5h74q17 -35 58 -54.5t95 -19.5q62 0 101 36t49 92l19 108q-19 -37 -63 -62t-97 -25q-88 0 -142.5 56t-54.5 143q0 19 4 42l11 61q37 201 223 201q64 0 112 -32t65 -74l17 94h72zM142 318
l-11 -62q-4 -24 -4 -40q0 -63 37.5 -99.5t101.5 -36.5q65 0 109.5 43t56.5 110l10 55q3 15 3 29q0 62 -42.5 105t-105.5 43q-64 0 -103.5 -38t-51.5 -109zM375 724h74l-60 -142h-92z" />
    <glyph glyph-name="Hcircumflex" unicode="&#x124;" horiz-adv-x="705" 
d="M569 0h-78l56 318h-367l-56 -318h-78l123 700h78l-55 -312h367l55 312h78zM497 886l92 -126h-71l-61 83l-91 -83h-78l135 126h74z" />
    <glyph glyph-name="hcircumflex" unicode="&#x125;" horiz-adv-x="586" 
d="M112 0h-76l129 730h75l-53 -297q27 43 72.5 67t102.5 24q72 0 118 -44t46 -116q0 -16 -4 -40l-57 -324h-76l56 317q3 18 3 34q0 52 -31 79.5t-83 27.5q-64 0 -110.5 -46.5t-60.5 -122.5zM268 926l92 -126h-71l-61 83l-91 -83h-78l135 126h74z" />
    <glyph glyph-name="Hbar" unicode="&#x126;" horiz-adv-x="767" 
d="M600 0h-78l56 318h-367l-56 -318h-78l91 518h-85l9 47h84l24 135h78l-24 -135h367l24 135h78l-24 -135h85l-8 -47h-85zM223 388h367l23 130h-367z" />
    <glyph glyph-name="hbar" unicode="&#x127;" horiz-adv-x="608" 
d="M134 0h-76l103 586h-77l10 56h77l16 88h75l-16 -88h123l-10 -56h-123l-27 -153q27 43 72.5 67t102.5 24q72 0 118 -44t46 -116q0 -16 -4 -40l-57 -324h-76l56 317q3 18 3 34q0 52 -31 79.5t-83 27.5q-64 0 -110.5 -46.5t-60.5 -122.5z" />
    <glyph glyph-name="Itilde" unicode="&#x128;" horiz-adv-x="270" 
d="M252 700l-123 -700h-78l123 700h78zM321 764q-31 0 -86 31t-79 31q-25 0 -40.5 -16.5t-27.5 -49.5l-47 17q32 105 114 105q36 0 91 -31t72 -31q7 0 13.5 1.5t12 6.5t8.5 8t7.5 11.5l6 11.5t6 14t5.5 13l46 -18q-10 -29 -20 -48.5t-32 -37.5t-50 -18z" />
    <glyph glyph-name="itilde" unicode="&#x129;" 
d="M117 0h-76l90 512h76zM269 587q-27 0 -76 31t-71 31q-43 0 -68 -67l-47 17q32 106 114 106q31 0 80.5 -31t64.5 -31q7 0 13.5 1.5t12 6.5t8.5 8t7.5 11.5l6 11.5t6 14t5.5 13l46 -18q-10 -29 -20 -48.5t-32 -37.5t-50 -18z" />
    <glyph glyph-name="uni012A" unicode="&#x12a;" horiz-adv-x="270" 
d="M252 700l-123 -700h-78l123 700h78zM385 796h-327l11 58h326z" />
    <glyph glyph-name="imacron" unicode="&#x12b;" 
d="M117 0h-76l90 512h76zM337 617h-303l10 57h303z" />
    <glyph glyph-name="Ibreve" unicode="&#x12c;" horiz-adv-x="270" 
d="M252 700l-123 -700h-78l123 700h78zM407 886q-9 -58 -55.5 -92t-117.5 -34q-70 0 -113 33t-35 93h59q-5 -38 20 -59t73 -21q44 0 73 21.5t36 58.5h60z" />
    <glyph glyph-name="uni012D" unicode="&#x12d;" 
d="M117 0h-76l90 512h76zM353 724q-9 -64 -52 -103t-112 -39q-68 0 -110.5 37t-34.5 105h56q-6 -46 18 -71.5t75 -25.5q45 0 71.5 27t32.5 70h56z" />
    <glyph glyph-name="Iogonek" unicode="&#x12e;" horiz-adv-x="270" 
d="M252 700l-123 -700q-25 -19 -39 -31t-27.5 -32.5t-13.5 -40.5q0 -13 9 -21t24 -8q16 0 22 1l-9 -50q-15 -4 -39 -4q-35 0 -55.5 20t-20.5 50q0 64 71 116l123 700h78z" />
    <glyph glyph-name="iogonek" unicode="&#x12f;" 
d="M117 0q-26 -19 -39.5 -31t-27 -31.5t-13.5 -39.5q0 -32 34 -32q11 0 21 2l-9 -50q-15 -4 -39 -4q-35 0 -55.5 20t-20.5 50q0 68 73 116l90 512h76zM145 643q0 21 14.5 35.5t37.5 14.5q19 0 32 -11t13 -30q0 -22 -15 -36.5t-39 -14.5q-18 0 -30.5 12t-12.5 30z" />
    <glyph glyph-name="Idotaccent" unicode="&#x130;" horiz-adv-x="270" 
d="M252 700l-123 -700h-78l123 700h78zM185 813q0 21 14.5 35.5t37.5 14.5q19 0 32 -11t13 -30q0 -22 -15 -36.5t-39 -14.5q-18 0 -30.5 12t-12.5 30z" />
    <glyph glyph-name="dotlessi" unicode="&#x131;" 
d="M117 0h-76l90 512h76z" />
    <glyph glyph-name="IJ" unicode="&#x132;" horiz-adv-x="855" 
d="M252 700l-123 -700h-78l123 700h78zM768 700h78l-90 -513q-16 -92 -81 -146.5t-161 -54.5q-92 0 -156 58t-53 149h72q-7 -66 35 -104t110 -38q131 0 157 142z" />
    <glyph glyph-name="ij" unicode="&#x133;" horiz-adv-x="496" 
d="M145 643q0 21 14.5 35.5t37.5 14.5q19 0 32 -11t13 -30q0 -22 -15 -36.5t-39 -14.5q-18 0 -30.5 12t-12.5 30zM117 0h-76l90 512h76zM379 512h76l-101 -575q-20 -111 -131 -111h-56l10 60h27q65 0 75 57zM393 643q0 21 14.5 35.5t37.5 14.5q19 0 32 -11t13 -30
q0 -22 -15 -36.5t-39 -14.5q-18 0 -30.5 12t-12.5 30z" />
    <glyph glyph-name="Jcircumflex" unicode="&#x134;" horiz-adv-x="585" 
d="M498 700h78l-90 -513q-16 -92 -81 -146.5t-161 -54.5q-92 0 -156 58t-53 149h72q-7 -66 35 -104t110 -38q131 0 157 142zM596 886l92 -126h-71l-61 83l-91 -83h-78l135 126h74z" />
    <glyph glyph-name="jcircumflex" unicode="&#x135;" 
d="M131 512h76l-101 -574q-10 -57 -41 -84.5t-90 -27.5h-56l10 60h27q35 0 52.5 13t22.5 44zM236 724l84 -142h-69l-56 97l-90 -97h-75l133 142h73z" />
    <glyph glyph-name="Kcommaaccent" unicode="&#x136;" horiz-adv-x="605" 
d="M124 0h-78l123 700h78l-60 -342l364 342h99l-381 -354l270 -346h-90l-264 347zM171 -250l68 170h85l-90 -170h-63z" />
    <glyph glyph-name="kcommaaccent" unicode="&#x137;" horiz-adv-x="508" 
d="M112 0h-76l129 730h76l-81 -457l255 239h97l-276 -254l200 -258h-88l-191 257zM121 -250l68 170h85l-90 -170h-63z" />
    <glyph glyph-name="kgreenlandic" unicode="&#x138;" horiz-adv-x="508" 
d="M112 0h-76l90 512h76l-42 -239l255 239h97l-276 -254l200 -258h-88l-191 257z" />
    <glyph glyph-name="Lacute" unicode="&#x139;" horiz-adv-x="565" 
d="M169 700h78l-112 -635h355l-11 -65h-433zM261 760h-76l91 126h94z" />
    <glyph glyph-name="lacute" unicode="&#x13a;" 
d="M117 0h-76l129 730h76zM260 800h-76l91 126h94z" />
    <glyph glyph-name="Lcommaaccent" unicode="&#x13b;" horiz-adv-x="565" 
d="M169 700h78l-112 -635h355l-11 -65h-433zM159 -250l68 170h85l-90 -170h-63z" />
    <glyph glyph-name="lcommaaccent" unicode="&#x13c;" 
d="M117 0h-76l129 730h76zM-46 -250l68 170h85l-90 -170h-63z" />
    <glyph glyph-name="Lcaron" unicode="&#x13d;" horiz-adv-x="565" 
d="M364 504l74 196h82l-95 -196h-61zM169 700h78l-112 -635h355l-11 -65h-433z" />
    <glyph glyph-name="lcaron" unicode="&#x13e;" horiz-adv-x="381" 
d="M319 534l74 196h82l-95 -196h-61zM117 0h-76l129 730h76z" />
    <glyph glyph-name="Ldot" unicode="&#x13f;" horiz-adv-x="565" 
d="M169 700h78l-112 -635h355l-11 -65h-433zM325 343q0 23 16.5 38t41.5 15q20 0 32.5 -12.5t12.5 -30.5q0 -23 -16.5 -39t-40.5 -16q-20 0 -33 13t-13 32z" />
    <glyph glyph-name="ldot" unicode="&#x140;" horiz-adv-x="371" 
d="M117 0h-76l129 730h76zM258 296q0 23 16.5 38t41.5 15q20 0 32.5 -12.5t12.5 -30.5q0 -23 -16.5 -39t-40.5 -16q-20 0 -33 13t-13 32z" />
    <glyph glyph-name="Lslash" unicode="&#x141;" horiz-adv-x="585" 
d="M187 700h78l-49 -280l185 102l-13 -70l-185 -102l-50 -285h355l-11 -65h-433l53 303l-95 -52l12 70l96 52z" />
    <glyph glyph-name="lslash" unicode="&#x142;" horiz-adv-x="260" 
d="M30 273l12 72l74 55l58 330h76l-47 -265l76 57l-13 -72l-76 -57l-69 -393h-76l58 327z" />
    <glyph glyph-name="Nacute" unicode="&#x143;" horiz-adv-x="712" 
d="M576 0h-73l-279 578l-102 -578h-76l123 700h73l279 -582l102 582h76zM462 760h-76l91 126h94z" />
    <glyph glyph-name="nacute" unicode="&#x144;" horiz-adv-x="586" 
d="M112 0h-76l90 512h72l-16 -87q26 47 73.5 73t106.5 26q72 0 118 -44t46 -116q0 -16 -4 -40l-57 -324h-76l56 317q3 18 3 34q0 52 -31 79.5t-83 27.5q-64 0 -110.5 -46.5t-60.5 -122.5zM369 582h-76l100 142h100z" />
    <glyph glyph-name="Ncommaaccent" unicode="&#x145;" horiz-adv-x="712" 
d="M576 0h-73l-279 578l-102 -578h-76l123 700h73l279 -582l102 582h76zM194 -250l68 170h85l-90 -170h-63z" />
    <glyph glyph-name="ncommaaccent" unicode="&#x146;" horiz-adv-x="586" 
d="M112 0h-76l90 512h72l-16 -87q26 47 73.5 73t106.5 26q72 0 118 -44t46 -116q0 -16 -4 -40l-57 -324h-76l56 317q3 18 3 34q0 52 -31 79.5t-83 27.5q-64 0 -110.5 -46.5t-60.5 -122.5zM142 -250l68 170h85l-90 -170h-63z" />
    <glyph glyph-name="Ncaron" unicode="&#x147;" horiz-adv-x="712" 
d="M576 0h-73l-279 578l-102 -578h-76l123 700h73l279 -582l102 582h76zM404 760l-92 126h71l62 -84l89 84h79l-135 -126h-74z" />
    <glyph glyph-name="ncaron" unicode="&#x148;" horiz-adv-x="586" 
d="M112 0h-76l90 512h72l-16 -87q26 47 73.5 73t106.5 26q72 0 118 -44t46 -116q0 -16 -4 -40l-57 -324h-76l56 317q3 18 3 34q0 52 -31 79.5t-83 27.5q-64 0 -110.5 -46.5t-60.5 -122.5zM318 582l-84 142h69l56 -97l90 97h75l-133 -142h-73z" />
    <glyph glyph-name="napostrophe" unicode="&#x149;" horiz-adv-x="704" 
d="M68 534l74 196h82l-95 -196h-61zM230 0h-76l90 512h72l-16 -87q26 47 73.5 73t106.5 26q72 0 118 -44t46 -116q0 -16 -4 -40l-57 -324h-76l56 317q3 18 3 34q0 52 -31 79.5t-83 27.5q-64 0 -110.5 -46.5t-60.5 -122.5z" />
    <glyph glyph-name="Eng" unicode="&#x14a;" horiz-adv-x="712" 
d="M699 700l-124 -705q-30 -169 -204 -169h-42l11 63h26q117 0 134 105l1 9l-277 575l-102 -578h-76l123 700h73l279 -582l102 582h76z" />
    <glyph glyph-name="eng" unicode="&#x14b;" horiz-adv-x="586" 
d="M112 0h-76l90 512h72l-16 -87q26 47 73.5 73t106.5 26q72 0 118 -44t46 -116q0 -16 -4 -40l-59 -337q-15 -82 -62.5 -121.5t-138.5 -39.5h-26l11 61h21q101 0 119 101l58 329q3 18 3 34q0 52 -31 79.5t-83 27.5q-64 0 -110.5 -46.5t-60.5 -122.5z" />
    <glyph glyph-name="Omacron" unicode="&#x14c;" horiz-adv-x="713" 
d="M76 324l18 102q51 288 309 288q123 0 196 -75.5t73 -193.5q0 -28 -6 -64l-18 -104q-22 -129 -102 -210t-206 -81q-123 0 -196.5 77t-73.5 196q0 32 6 65zM572 278l20 114q5 25 5 53q0 90 -53 147t-145 57q-190 0 -229 -224l-19 -107q-5 -26 -5 -60q0 -93 51.5 -150
t146.5 -57q92 0 151 62.5t77 164.5zM609 796h-327l11 58h326z" />
    <glyph glyph-name="omacron" unicode="&#x14d;" horiz-adv-x="566" 
d="M52 239l13 74q19 105 80 158t158 53q96 0 155 -57.5t59 -147.5q0 -17 -4 -45l-13 -76q-17 -97 -79 -153.5t-157 -56.5q-99 0 -157.5 56t-58.5 147q0 27 4 48zM426 199l15 85q4 20 4 38q0 64 -39.5 104t-104.5 40q-134 0 -163 -160l-14 -79q-4 -28 -4 -42
q0 -66 40.5 -102.5t104.5 -36.5q67 0 108 41t53 112zM494 617h-303l10 57h303z" />
    <glyph glyph-name="Obreve" unicode="&#x14e;" horiz-adv-x="713" 
d="M76 324l18 102q51 288 309 288q123 0 196 -75.5t73 -193.5q0 -28 -6 -64l-18 -104q-22 -129 -102 -210t-206 -81q-123 0 -196.5 77t-73.5 196q0 32 6 65zM572 278l20 114q5 25 5 53q0 90 -53 147t-145 57q-190 0 -229 -224l-19 -107q-5 -26 -5 -60q0 -93 51.5 -150
t146.5 -57q92 0 151 62.5t77 164.5zM627 886q-9 -58 -55.5 -92t-117.5 -34q-70 0 -113 33t-35 93h59q-5 -38 20 -59t73 -21q44 0 73 21.5t36 58.5h60z" />
    <glyph glyph-name="obreve" unicode="&#x14f;" horiz-adv-x="566" 
d="M52 239l13 74q19 105 80 158t158 53q96 0 155 -57.5t59 -147.5q0 -17 -4 -45l-13 -76q-17 -97 -79 -153.5t-157 -56.5q-99 0 -157.5 56t-58.5 147q0 27 4 48zM426 199l15 85q4 20 4 38q0 64 -39.5 104t-104.5 40q-134 0 -163 -160l-14 -79q-4 -28 -4 -42
q0 -66 40.5 -102.5t104.5 -36.5q67 0 108 41t53 112zM515 724q-9 -64 -52 -103t-112 -39q-68 0 -110.5 37t-34.5 105h56q-6 -46 18 -71.5t75 -25.5q45 0 71.5 27t32.5 70h56z" />
    <glyph glyph-name="Ohungarumlaut" unicode="&#x150;" horiz-adv-x="713" 
d="M76 324l18 102q51 288 309 288q123 0 196 -75.5t73 -193.5q0 -28 -6 -64l-18 -104q-22 -129 -102 -210t-206 -81q-123 0 -196.5 77t-73.5 196q0 32 6 65zM572 278l20 114q5 25 5 53q0 90 -53 147t-145 57q-190 0 -229 -224l-19 -107q-5 -26 -5 -60q0 -93 51.5 -150
t146.5 -57q92 0 151 62.5t77 164.5zM461 886l-88 -126h-71l75 126h84zM671 886l-88 -126h-71l75 126h84z" />
    <glyph glyph-name="ohungarumlaut" unicode="&#x151;" horiz-adv-x="566" 
d="M52 239l13 74q19 105 80 158t158 53q96 0 155 -57.5t59 -147.5q0 -17 -4 -45l-13 -76q-17 -97 -79 -153.5t-157 -56.5q-99 0 -157.5 56t-58.5 147q0 27 4 48zM426 199l15 85q4 20 4 38q0 64 -39.5 104t-104.5 40q-134 0 -163 -160l-14 -79q-4 -28 -4 -42
q0 -66 40.5 -102.5t104.5 -36.5q67 0 108 41t53 112zM383 724l-99 -142h-71l86 142h84zM571 724l-99 -142h-71l86 142h84z" />
    <glyph glyph-name="OE" unicode="&#x152;" horiz-adv-x="1049" 
d="M363 0q-143 0 -218 74t-75 193q0 27 6 63l16 90q26 148 109.5 214t241.5 66h622l-11 -65h-378l-43 -247h348l-11 -65h-349l-45 -258h379l-12 -65h-580zM169 414l-16 -90q-5 -30 -5 -57q0 -91 57.5 -146.5t165.5 -55.5h127l100 570h-160q-124 0 -186 -52.5t-83 -168.5z
" />
    <glyph glyph-name="oe" unicode="&#x153;" horiz-adv-x="936" 
d="M870 228h-366q-4 -28 -4 -45q0 -65 37.5 -102.5t103.5 -37.5q52 0 89 27t52 73h69q-19 -70 -76 -112.5t-139 -42.5q-64 0 -111.5 28t-69.5 73q-26 -43 -78.5 -72t-112.5 -29q-102 0 -159 55.5t-57 147.5q0 27 4 48l13 74q19 105 80 158t158 53q63 0 112 -26t74 -72
q59 98 193 98q92 0 147 -53.5t55 -139.5q0 -20 -4 -44zM426 199l15 85q4 20 4 38q0 64 -39.5 104t-104.5 40q-134 0 -163 -160l-14 -79q-4 -28 -4 -42q0 -66 40.5 -102.5t104.5 -36.5q67 0 108 41t53 112zM518 306l-4 -24h296l2 12q3 21 3 39q0 63 -36.5 99t-99.5 36
q-68 0 -108 -44t-53 -118z" />
    <glyph glyph-name="Racute" unicode="&#x154;" horiz-adv-x="675" 
d="M386 256h-217l-45 -256h-78l123 700h282q96 0 151 -58.5t55 -142.5q0 -86 -49.5 -147.5t-143.5 -86.5l111 -265h-85zM180 318h195q95 0 149.5 50t54.5 126q0 60 -37 101.5t-104 41.5h-202zM431 760h-76l91 126h94z" />
    <glyph glyph-name="racute" unicode="&#x155;" horiz-adv-x="352" 
d="M373 515l-13 -74h-17q-71 0 -121 -49t-66 -141l-44 -251h-76l90 512h72l-19 -112q27 61 69 88t112 27h13zM286 582h-76l100 142h100z" />
    <glyph glyph-name="Rcommaaccent" unicode="&#x156;" horiz-adv-x="675" 
d="M386 256h-217l-45 -256h-78l123 700h282q96 0 151 -58.5t55 -142.5q0 -86 -49.5 -147.5t-143.5 -86.5l111 -265h-85zM180 318h195q95 0 149.5 50t54.5 126q0 60 -37 101.5t-104 41.5h-202zM187 -250l68 170h85l-90 -170h-63z" />
    <glyph glyph-name="rcommaaccent" unicode="&#x157;" horiz-adv-x="352" 
d="M373 515l-13 -74h-17q-71 0 -121 -49t-66 -141l-44 -251h-76l90 512h72l-19 -112q27 61 69 88t112 27h13zM-51 -250l68 170h85l-90 -170h-63z" />
    <glyph glyph-name="Rcaron" unicode="&#x158;" horiz-adv-x="675" 
d="M386 256h-217l-45 -256h-78l123 700h282q96 0 151 -58.5t55 -142.5q0 -86 -49.5 -147.5t-143.5 -86.5l111 -265h-85zM180 318h195q95 0 149.5 50t54.5 126q0 60 -37 101.5t-104 41.5h-202zM373 760l-92 126h71l62 -84l89 84h79l-135 -126h-74z" />
    <glyph glyph-name="rcaron" unicode="&#x159;" horiz-adv-x="352" 
d="M373 515l-13 -74h-17q-71 0 -121 -49t-66 -141l-44 -251h-76l90 512h72l-19 -112q27 61 69 88t112 27h13zM225 582l-84 142h69l56 -97l90 97h75l-133 -142h-73z" />
    <glyph glyph-name="Sacute" unicode="&#x15a;" horiz-adv-x="642" 
d="M581 207q0 -101 -76.5 -161t-193.5 -60q-103 0 -176 50t-73 136q0 16 3 33l2 11h73l-2 -11q-3 -15 -3 -28q0 -63 51.5 -96.5t131.5 -33.5q82 0 134 39t52 111q0 36 -22.5 64.5t-65.5 40.5l-164 46q-128 37 -128 149q0 105 68.5 161t182.5 56q95 0 165.5 -47.5
t70.5 -131.5q0 -15 -2 -31l-1 -6h-72l1 6q2 16 2 23q0 59 -51 92.5t-121 33.5q-74 0 -120.5 -38t-46.5 -107q0 -70 77 -93l166 -48q66 -19 102 -61t36 -99zM430 760h-76l91 126h94z" />
    <glyph glyph-name="sacute" unicode="&#x15b;" horiz-adv-x="517" 
d="M451 154q0 -76 -60 -121t-156 -45q-84 0 -141.5 38.5t-57.5 98.5q0 13 2 23l1 5h66l-1 -6q-8 -48 31 -76.5t107 -28.5q64 0 100.5 28.5t36.5 75.5q0 52 -58 67l-131 33q-50 13 -77.5 44.5t-27.5 72.5q0 80 52 120.5t147 40.5q76 0 133.5 -35.5t57.5 -101.5q0 -12 -2 -24
l-1 -6h-66l1 6q8 50 -32 78.5t-95 28.5q-57 0 -90 -25t-33 -72q0 -54 60 -70l133 -35q101 -27 101 -114zM342 582h-76l100 142h100z" />
    <glyph glyph-name="Scircumflex" unicode="&#x15c;" horiz-adv-x="642" 
d="M581 207q0 -101 -76.5 -161t-193.5 -60q-103 0 -176 50t-73 136q0 16 3 33l2 11h73l-2 -11q-3 -15 -3 -28q0 -63 51.5 -96.5t131.5 -33.5q82 0 134 39t52 111q0 36 -22.5 64.5t-65.5 40.5l-164 46q-128 37 -128 149q0 105 68.5 161t182.5 56q95 0 165.5 -47.5
t70.5 -131.5q0 -15 -2 -31l-1 -6h-72l1 6q2 16 2 23q0 59 -51 92.5t-121 33.5q-74 0 -120.5 -38t-46.5 -107q0 -70 77 -93l166 -48q66 -19 102 -61t36 -99zM458 886l92 -126h-71l-61 83l-91 -83h-78l135 126h74z" />
    <glyph glyph-name="scircumflex" unicode="&#x15d;" horiz-adv-x="517" 
d="M451 154q0 -76 -60 -121t-156 -45q-84 0 -141.5 38.5t-57.5 98.5q0 13 2 23l1 5h66l-1 -6q-8 -48 31 -76.5t107 -28.5q64 0 100.5 28.5t36.5 75.5q0 52 -58 67l-131 33q-50 13 -77.5 44.5t-27.5 72.5q0 80 52 120.5t147 40.5q76 0 133.5 -35.5t57.5 -101.5q0 -12 -2 -24
l-1 -6h-66l1 6q8 50 -32 78.5t-95 28.5q-57 0 -90 -25t-33 -72q0 -54 60 -70l133 -35q101 -27 101 -114zM373 724l84 -142h-69l-56 97l-90 -97h-75l133 142h73z" />
    <glyph glyph-name="Scedilla" unicode="&#x15e;" horiz-adv-x="642" 
d="M394 -111q0 -34 -28.5 -54.5t-75.5 -20.5q-37 0 -64 6l5 43q22 -5 51 -5q54 0 54 28q0 20 -42 25l-47 5l23 72q-89 9 -148.5 58t-59.5 126q0 16 3 33l2 11h73l-2 -11q-3 -15 -3 -28q0 -63 51.5 -96.5t131.5 -33.5q82 0 134 39t52 111q0 36 -22.5 64.5t-65.5 40.5l-164 46
q-128 37 -128 149q0 105 68.5 161t182.5 56q95 0 165.5 -47.5t70.5 -131.5q0 -15 -2 -31l-1 -6h-72l1 6q2 16 2 23q0 59 -51 92.5t-121 33.5q-74 0 -120.5 -38t-46.5 -107q0 -70 77 -93l166 -48q66 -19 102 -61t36 -99q0 -99 -75 -159t-189 -62l-9 -32l20 -2q28 -3 47 -18.5
t19 -44.5z" />
    <glyph glyph-name="Scedilla" unicode="&#xf6c1;" horiz-adv-x="642" 
d="M394 -111q0 -34 -28.5 -54.5t-75.5 -20.5q-37 0 -64 6l5 43q22 -5 51 -5q54 0 54 28q0 20 -42 25l-47 5l23 72q-89 9 -148.5 58t-59.5 126q0 16 3 33l2 11h73l-2 -11q-3 -15 -3 -28q0 -63 51.5 -96.5t131.5 -33.5q82 0 134 39t52 111q0 36 -22.5 64.5t-65.5 40.5l-164 46
q-128 37 -128 149q0 105 68.5 161t182.5 56q95 0 165.5 -47.5t70.5 -131.5q0 -15 -2 -31l-1 -6h-72l1 6q2 16 2 23q0 59 -51 92.5t-121 33.5q-74 0 -120.5 -38t-46.5 -107q0 -70 77 -93l166 -48q66 -19 102 -61t36 -99q0 -99 -75 -159t-189 -62l-9 -32l20 -2q28 -3 47 -18.5
t19 -44.5z" />
    <glyph glyph-name="scedilla" unicode="&#x15f;" horiz-adv-x="517" 
d="M321 -111q0 -34 -28.5 -54.5t-75.5 -20.5q-37 0 -64 6l5 43q23 -5 51 -5q54 0 54 28q0 20 -42 25l-47 5l24 74q-71 8 -116.5 45t-45.5 90q0 13 2 23l1 5h66l-1 -6q-8 -48 31 -76.5t107 -28.5q64 0 100.5 28.5t36.5 75.5q0 52 -58 67l-131 33q-50 13 -77.5 44.5
t-27.5 72.5q0 77 53.5 119t145.5 42q76 0 133.5 -35.5t57.5 -101.5q0 -12 -2 -24l-1 -6h-66l1 6q8 50 -32 78.5t-95 28.5q-57 0 -90 -25t-33 -72q0 -54 60 -70l133 -35q101 -27 101 -114q0 -75 -57.5 -119.5t-149.5 -46.5l-9 -34l20 -2q28 -3 47 -18.5t19 -44.5z" />
    <glyph glyph-name="scedilla" unicode="&#xf6c2;" horiz-adv-x="517" 
d="M321 -111q0 -34 -28.5 -54.5t-75.5 -20.5q-37 0 -64 6l5 43q23 -5 51 -5q54 0 54 28q0 20 -42 25l-47 5l24 74q-71 8 -116.5 45t-45.5 90q0 13 2 23l1 5h66l-1 -6q-8 -48 31 -76.5t107 -28.5q64 0 100.5 28.5t36.5 75.5q0 52 -58 67l-131 33q-50 13 -77.5 44.5
t-27.5 72.5q0 77 53.5 119t145.5 42q76 0 133.5 -35.5t57.5 -101.5q0 -12 -2 -24l-1 -6h-66l1 6q8 50 -32 78.5t-95 28.5q-57 0 -90 -25t-33 -72q0 -54 60 -70l133 -35q101 -27 101 -114q0 -75 -57.5 -119.5t-149.5 -46.5l-9 -34l20 -2q28 -3 47 -18.5t19 -44.5z" />
    <glyph glyph-name="Scaron" unicode="&#x160;" horiz-adv-x="642" 
d="M581 207q0 -101 -76.5 -161t-193.5 -60q-103 0 -176 50t-73 136q0 16 3 33l2 11h73l-2 -11q-3 -15 -3 -28q0 -63 51.5 -96.5t131.5 -33.5q82 0 134 39t52 111q0 36 -22.5 64.5t-65.5 40.5l-164 46q-128 37 -128 149q0 105 68.5 161t182.5 56q95 0 165.5 -47.5
t70.5 -131.5q0 -15 -2 -31l-1 -6h-72l1 6q2 16 2 23q0 59 -51 92.5t-121 33.5q-74 0 -120.5 -38t-46.5 -107q0 -70 77 -93l166 -48q66 -19 102 -61t36 -99zM369 760l-92 126h71l62 -84l89 84h79l-135 -126h-74z" />
    <glyph glyph-name="scaron" unicode="&#x161;" horiz-adv-x="517" 
d="M451 154q0 -76 -60 -121t-156 -45q-84 0 -141.5 38.5t-57.5 98.5q0 13 2 23l1 5h66l-1 -6q-8 -48 31 -76.5t107 -28.5q64 0 100.5 28.5t36.5 75.5q0 52 -58 67l-131 33q-50 13 -77.5 44.5t-27.5 72.5q0 80 52 120.5t147 40.5q76 0 133.5 -35.5t57.5 -101.5q0 -12 -2 -24
l-1 -6h-66l1 6q8 50 -32 78.5t-95 28.5q-57 0 -90 -25t-33 -72q0 -54 60 -70l133 -35q101 -27 101 -114zM269 582l-84 142h69l56 -97l90 97h75l-133 -142h-73z" />
    <glyph glyph-name="Tcommaaccent" unicode="&#x162;" horiz-adv-x="562" 
d="M108 700h503l-11 -66h-213l-112 -634h-78l112 634h-213zM107 -250l68 170h85l-90 -170h-63z" />
    <glyph glyph-name="Tcommaaccent" unicode="&#x21a;" horiz-adv-x="562" 
d="M108 700h503l-11 -66h-213l-112 -634h-78l112 634h-213zM107 -250l68 170h85l-90 -170h-63z" />
    <glyph glyph-name="tcommaaccent" unicode="&#x163;" horiz-adv-x="370" 
d="M191 657h76l-26 -145h131l-10 -60h-131l-56 -316q-2 -12 -2 -20q0 -55 71 -55h46l-11 -61h-60q-56 0 -89.5 28t-33.5 79q0 14 3 29l56 316h-87l11 60h86zM45 -250l68 170h85l-90 -170h-63z" />
    <glyph glyph-name="tcommaaccent" unicode="&#x21b;" horiz-adv-x="370" 
d="M191 657h76l-26 -145h131l-10 -60h-131l-56 -316q-2 -12 -2 -20q0 -55 71 -55h46l-11 -61h-60q-56 0 -89.5 28t-33.5 79q0 14 3 29l56 316h-87l11 60h86zM45 -250l68 170h85l-90 -170h-63z" />
    <glyph glyph-name="Tcaron" unicode="&#x164;" horiz-adv-x="562" 
d="M108 700h503l-11 -66h-213l-112 -634h-78l112 634h-213zM330 760l-92 126h71l62 -84l89 84h79l-135 -126h-74z" />
    <glyph glyph-name="tcaron" unicode="&#x165;" horiz-adv-x="373" 
d="M338 590l50 140h76l-65 -140h-61zM191 657h76l-26 -145h131l-10 -60h-131l-56 -316q-2 -12 -2 -20q0 -55 71 -55h46l-11 -61h-60q-56 0 -89.5 28t-33.5 79q0 14 3 29l56 316h-87l11 60h86z" />
    <glyph glyph-name="Tbar" unicode="&#x166;" horiz-adv-x="562" 
d="M108 700h503l-11 -66h-213l-48 -268h149l-11 -62h-149l-53 -304h-78l53 304h-148l11 62h148l48 268h-213z" />
    <glyph glyph-name="tbar" unicode="&#x167;" horiz-adv-x="372" 
d="M192 657h76l-26 -145h131l-10 -60h-131l-28 -157h112l-10 -56h-112l-18 -103q-2 -12 -2 -20q0 -55 71 -55h46l-11 -61h-60q-56 0 -89.5 28t-33.5 79q0 14 3 29l18 103h-86l10 56h86l28 157h-87l11 60h86z" />
    <glyph glyph-name="Utilde" unicode="&#x168;" horiz-adv-x="704" 
d="M537 233l82 467h78l-82 -468q-20 -113 -97 -179.5t-195 -66.5q-100 0 -172 61t-72 155q0 20 4 41l80 457h78l-81 -462q-3 -18 -3 -36q0 -70 48.5 -110.5t123.5 -40.5q84 0 139 49t69 133zM542 764q-31 0 -86 31t-79 31q-25 0 -40.5 -16.5t-27.5 -49.5l-47 17
q32 105 114 105q36 0 91 -31t72 -31q7 0 13.5 1.5t12 6.5t8.5 8t7.5 11.5l6 11.5t6 14t5.5 13l46 -18q-10 -29 -20 -48.5t-32 -37.5t-50 -18z" />
    <glyph glyph-name="utilde" unicode="&#x169;" horiz-adv-x="581" 
d="M469 512h76l-90 -512h-72l16 87q-22 -44 -69 -71.5t-105 -27.5q-71 0 -117.5 43.5t-46.5 118.5q0 23 4 44l56 318h76l-56 -319q-4 -26 -4 -37q0 -52 30.5 -79t84.5 -27q63 0 107.5 46.5t58.5 126.5zM443 587q-27 0 -76 31t-71 31q-43 0 -68 -67l-47 17q32 106 114 106
q31 0 80.5 -31t64.5 -31q7 0 13.5 1.5t12 6.5t8.5 8t7.5 11.5l6 11.5t6 14t5.5 13l46 -18q-10 -29 -20 -48.5t-32 -37.5t-50 -18z" />
    <glyph glyph-name="Umacron" unicode="&#x16a;" horiz-adv-x="704" 
d="M537 233l82 467h78l-82 -468q-20 -113 -97 -179.5t-195 -66.5q-100 0 -172 61t-72 155q0 20 4 41l80 457h78l-81 -462q-3 -18 -3 -36q0 -70 48.5 -110.5t123.5 -40.5q84 0 139 49t69 133zM610 796h-327l11 58h326z" />
    <glyph glyph-name="umacron" unicode="&#x16b;" horiz-adv-x="581" 
d="M469 512h76l-90 -512h-72l16 87q-22 -44 -69 -71.5t-105 -27.5q-71 0 -117.5 43.5t-46.5 118.5q0 23 4 44l56 318h76l-56 -319q-4 -26 -4 -37q0 -52 30.5 -79t84.5 -27q63 0 107.5 46.5t58.5 126.5zM504 617h-303l10 57h303z" />
    <glyph glyph-name="Ubreve" unicode="&#x16c;" horiz-adv-x="704" 
d="M537 233l82 467h78l-82 -468q-20 -113 -97 -179.5t-195 -66.5q-100 0 -172 61t-72 155q0 20 4 41l80 457h78l-81 -462q-3 -18 -3 -36q0 -70 48.5 -110.5t123.5 -40.5q84 0 139 49t69 133zM623 886q-9 -58 -55.5 -92t-117.5 -34q-70 0 -113 33t-35 93h59q-5 -38 20 -59
t73 -21q44 0 73 21.5t36 58.5h60z" />
    <glyph glyph-name="ubreve" unicode="&#x16d;" horiz-adv-x="581" 
d="M469 512h76l-90 -512h-72l16 87q-22 -44 -69 -71.5t-105 -27.5q-71 0 -117.5 43.5t-46.5 118.5q0 23 4 44l56 318h76l-56 -319q-4 -26 -4 -37q0 -52 30.5 -79t84.5 -27q63 0 107.5 46.5t58.5 126.5zM524 724q-9 -64 -52 -103t-112 -39q-68 0 -110.5 37t-34.5 105h56
q-6 -46 18 -71.5t75 -25.5q45 0 71.5 27t32.5 70h56z" />
    <glyph glyph-name="Uring" unicode="&#x16e;" horiz-adv-x="704" 
d="M537 233l82 467h78l-82 -468q-20 -113 -97 -179.5t-195 -66.5q-100 0 -172 61t-72 155q0 20 4 41l80 457h78l-81 -462q-3 -18 -3 -36q0 -70 48.5 -110.5t123.5 -40.5q84 0 139 49t69 133zM350 840q0 39 26.5 63.5t68.5 24.5q37 0 62 -22t25 -57q0 -37 -26 -63t-68 -26
q-39 0 -63.5 22t-24.5 58zM490 848q0 20 -12 32t-34 12q-24 0 -38 -14.5t-14 -37.5q0 -19 12.5 -31t35.5 -12t36.5 15t13.5 36z" />
    <glyph glyph-name="uring" unicode="&#x16f;" horiz-adv-x="581" 
d="M469 512h76l-90 -512h-72l16 87q-22 -44 -69 -71.5t-105 -27.5q-71 0 -117.5 43.5t-46.5 118.5q0 23 4 44l56 318h76l-56 -319q-4 -26 -4 -37q0 -52 30.5 -79t84.5 -27q63 0 107.5 46.5t58.5 126.5zM266 662q0 39 26.5 63.5t68.5 24.5q37 0 62 -22t25 -57q0 -37 -26 -63
t-68 -26q-39 0 -63.5 22t-24.5 58zM406 670q0 20 -12 32t-34 12q-24 0 -38 -14.5t-14 -37.5q0 -19 12.5 -31t35.5 -12t36.5 15t13.5 36z" />
    <glyph glyph-name="Uhungarumlaut" unicode="&#x170;" horiz-adv-x="704" 
d="M537 233l82 467h78l-82 -468q-20 -113 -97 -179.5t-195 -66.5q-100 0 -172 61t-72 155q0 20 4 41l80 457h78l-81 -462q-3 -18 -3 -36q0 -70 48.5 -110.5t123.5 -40.5q84 0 139 49t69 133zM455 886l-88 -126h-71l75 126h84zM665 886l-88 -126h-71l75 126h84z" />
    <glyph glyph-name="uhungarumlaut" unicode="&#x171;" horiz-adv-x="581" 
d="M469 512h76l-90 -512h-72l16 87q-22 -44 -69 -71.5t-105 -27.5q-71 0 -117.5 43.5t-46.5 118.5q0 23 4 44l56 318h76l-56 -319q-4 -26 -4 -37q0 -52 30.5 -79t84.5 -27q63 0 107.5 46.5t58.5 126.5zM379 724l-99 -142h-71l86 142h84zM567 724l-99 -142h-71l86 142h84z
" />
    <glyph glyph-name="Uogonek" unicode="&#x172;" horiz-adv-x="704" 
d="M537 233l82 467h78l-82 -468q-27 -149 -154 -217q-2 -1 -13 -7l-15.5 -8.5l-15.5 -9t-17 -10.5t-15.5 -11t-14.5 -12t-11.5 -12.5t-10 -14.5t-6 -15t-2.5 -16q0 -32 45 -32q15 0 27 3l-2 -50q-22 -6 -53 -6q-41 0 -64 21.5t-23 54.5q0 58 65 96h-12q-100 0 -172 61
t-72 155q0 20 4 41l80 457h78l-81 -462q-3 -18 -3 -36q0 -70 48.5 -110.5t123.5 -40.5q84 0 139 49t69 133z" />
    <glyph glyph-name="uogonek" unicode="&#x173;" horiz-adv-x="581" 
d="M469 512h76l-90 -512q-99 -53 -99 -101q0 -32 45 -32q15 0 27 3l-2 -50q-22 -6 -53 -6q-41 0 -64 21.5t-23 54.5q0 38 28 66t69 44l16 87q-22 -44 -69 -71.5t-105 -27.5q-71 0 -117.5 43.5t-46.5 118.5q0 23 4 44l56 318h76l-56 -319q-4 -26 -4 -37q0 -52 30.5 -79
t84.5 -27q63 0 107.5 46.5t58.5 126.5z" />
    <glyph glyph-name="Wcircumflex" unicode="&#x174;" horiz-adv-x="915" 
d="M571 700l76 -592l231 592h79l-288 -700h-74l-76 608l-289 -608h-74l-43 700h77l25 -592l279 592h77zM592 886l92 -126h-71l-61 83l-91 -83h-78l135 126h74z" />
    <glyph glyph-name="wcircumflex" unicode="&#x175;" horiz-adv-x="758" 
d="M457 512l60 -419l177 419h75l-230 -512h-70l-58 426l-210 -426h-70l-52 512h73l34 -419l200 419h71zM497 724l84 -142h-69l-56 97l-90 -97h-75l133 142h73z" />
    <glyph glyph-name="Ycircumflex" unicode="&#x176;" horiz-adv-x="598" 
d="M661 700l-322 -440l-46 -260h-78l47 267l-170 433h81l139 -365l260 365h89zM444 886l92 -126h-71l-61 83l-91 -83h-78l135 126h74z" />
    <glyph glyph-name="ycircumflex" unicode="&#x177;" horiz-adv-x="514" 
d="M159 -174h-75l96 179l-103 507h75l79 -433l215 433h79l-272 -513zM374 724l84 -142h-69l-56 97l-90 -97h-75l133 142h73z" />
    <glyph glyph-name="Ydieresis" unicode="&#x178;" horiz-adv-x="598" 
d="M661 700l-322 -440l-46 -260h-78l47 267l-170 433h81l139 -365l260 365h89zM228 826q0 21 14.5 34.5t36.5 13.5q19 0 32 -12t13 -30q0 -21 -14.5 -35.5t-37.5 -14.5q-19 0 -31.5 13t-12.5 31zM450 826q0 21 14.5 34.5t36.5 13.5q19 0 32 -12t13 -30q0 -21 -14.5 -35.5
t-37.5 -14.5q-19 0 -31.5 13t-12.5 31z" />
    <glyph glyph-name="Zacute" unicode="&#x179;" horiz-adv-x="621" 
d="M150 636l12 64h458l-12 -64l-487 -572h399l-11 -64h-486l12 64l487 572h-372zM414 760h-76l91 126h94z" />
    <glyph glyph-name="zacute" unicode="&#x17a;" horiz-adv-x="499" 
d="M403 0h-388l9 55l368 399h-286l10 58h372l-10 -55l-368 -399h303zM337 582h-76l100 142h100z" />
    <glyph glyph-name="Zdotaccent" unicode="&#x17b;" horiz-adv-x="621" 
d="M150 636l12 64h458l-12 -64l-487 -572h399l-11 -64h-486l12 64l487 572h-372zM355 813q0 21 14.5 35.5t37.5 14.5q19 0 32 -11t13 -30q0 -22 -15 -36.5t-39 -14.5q-18 0 -30.5 12t-12.5 30z" />
    <glyph glyph-name="zdotaccent" unicode="&#x17c;" horiz-adv-x="499" 
d="M403 0h-388l9 55l368 399h-286l10 58h372l-10 -55l-368 -399h303zM272 643q0 21 14 35.5t38 14.5q19 0 32 -11t13 -30q0 -22 -15 -36.5t-39 -14.5q-18 0 -30.5 12t-12.5 30z" />
    <glyph glyph-name="Zcaron" unicode="&#x17d;" horiz-adv-x="621" 
d="M150 636l12 64h458l-12 -64l-487 -572h399l-11 -64h-486l12 64l487 572h-372zM361 760l-92 126h71l62 -84l89 84h79l-135 -126h-74z" />
    <glyph glyph-name="zcaron" unicode="&#x17e;" horiz-adv-x="499" 
d="M403 0h-388l9 55l368 399h-286l10 58h372l-10 -55l-368 -399h303zM280 582l-84 142h69l56 -97l90 97h75l-133 -142h-73z" />
    <glyph glyph-name="florin" unicode="&#x192;" horiz-adv-x="500" 
d="M220 351h-98l11 62h104l42 159q18 67 53.5 97.5t100.5 30.5h79l-11 -62h-56q-42 0 -61 -16.5t-31 -59.5l-40 -149h115l-10 -62h-121l-107 -399q-34 -126 -157 -126h-69l11 62h49q73 0 93 77z" />
    <glyph glyph-name="Aringacute" unicode="&#x1fa;" horiz-adv-x="670" 
d="M488 862h-78l74 101h93zM510 0l-32 183h-308l-94 -183h-84l368 681q-29 21 -29 59q0 37 26.5 60t68.5 23q39 0 63 -20.5t24 -53.5q0 -28 -15.5 -49.5t-41.5 -30.5l129 -669h-75zM401 632l-199 -386h265zM471 748q0 17 -12 28t-34 11q-24 0 -38 -12.5t-14 -34.5
q0 -18 12.5 -29t35.5 -11q24 0 37 13.5t13 34.5z" />
    <glyph glyph-name="aringacute" unicode="&#x1fb;" horiz-adv-x="576" 
d="M278 646q0 39 26.5 63t68.5 24q38 0 62.5 -21.5t24.5 -56.5q0 -37 -26 -62.5t-68 -25.5q-39 0 -63.5 21.5t-24.5 57.5zM418 654q0 43 -46 43q-24 0 -38 -14t-14 -37q0 -42 48 -42q24 0 37 14.5t13 35.5zM436 767h-76l72 103h100zM456 0h-73l10 60q-18 -28 -67 -50
t-106 -22q-81 0 -131 43t-50 110q0 79 59 123.5t150 44.5q57 0 103.5 -22t69.5 -54l17 96q2 12 2 26q0 48 -30.5 79t-83.5 31q-97 0 -137 -78h-70q52 137 216 137q76 0 129 -47t53 -118q0 -15 -3 -30zM240 38q36 0 73 12t65.5 40.5t28.5 67.5q0 42 -45.5 71.5t-104.5 29.5
q-66 0 -106.5 -29.5t-40.5 -87.5q0 -48 33.5 -76t96.5 -28z" />
    <glyph glyph-name="AEacute" unicode="&#x1fc;" horiz-adv-x="1039" 
d="M685 760h-76l91 126h94zM477 0l32 183h-301l-154 -183h-90l599 700h492l-11 -65h-378l-43 -247h348l-11 -65h-349l-45 -258h379l-12 -65h-456zM261 246h259l68 388z" />
    <glyph glyph-name="aeacute" unicode="&#x1fd;" horiz-adv-x="928" 
d="M550 582h-76l100 142h100zM862 228h-366q-4 -28 -4 -45q0 -65 37.5 -102.5t103.5 -37.5q52 0 89 27t52 73h69q-19 -70 -76 -112.5t-139 -42.5q-68 0 -116.5 28t-66.5 75q-30 -46 -85 -74.5t-127 -28.5q-88 0 -141 43t-53 110q0 77 58.5 122.5t149.5 45.5q54 0 102 -22
t72 -55l17 97q2 12 2 26q0 48 -30.5 78.5t-83.5 30.5q-94 0 -137 -77h-70q61 137 216 137q107 0 157 -90q55 90 182 90q92 0 147 -53.5t55 -139.5q0 -20 -4 -44zM244 38q59 0 111 32t52 88q0 42 -45.5 71.5t-104.5 29.5q-65 0 -107 -29.5t-42 -88.5q0 -47 36.5 -75t99.5 -28
zM510 306l-4 -24h296l2 12q3 21 3 39q0 63 -36.5 99t-99.5 36q-68 0 -108 -44t-53 -118z" />
    <glyph glyph-name="Oslashacute" unicode="&#x1fe;" horiz-adv-x="713" 
d="M460 760h-76l91 126h94zM76 324l18 102q51 288 309 288q111 0 183 -64l83 100h63l-112 -136q52 -70 52 -169q0 -28 -6 -64l-18 -104q-22 -129 -102 -210t-206 -81q-110 0 -184 64l-82 -100h-64l113 137q-53 72 -53 172q0 32 6 65zM146 258q0 -66 25 -113l370 450
q-54 54 -142 54q-190 0 -229 -224l-19 -107q-5 -26 -5 -60zM572 278l20 114q5 25 5 53q0 62 -26 109l-371 -450q51 -53 144 -53q92 0 151 62.5t77 164.5z" />
    <glyph glyph-name="oslashacute" unicode="&#x1ff;" horiz-adv-x="566" 
d="M355 582h-76l100 142h100zM52 239l13 74q19 105 80 158t158 53q76 0 134 -40l65 79h62l-92 -112q45 -45 45 -132q0 -17 -4 -45l-13 -76q-17 -97 -79 -153.5t-157 -56.5q-82 0 -138 39l-63 -77h-62l90 110q-43 52 -43 131q0 27 4 48zM426 199l15 85q4 20 4 38q0 42 -18 74
l-260 -319q37 -31 98 -31q67 0 108 41t53 112zM120 185q0 -41 15 -71l261 320q-38 32 -95 32q-134 0 -163 -160l-14 -79q-4 -28 -4 -42z" />
    <glyph glyph-name="Scommaaccent" unicode="&#x218;" horiz-adv-x="642" 
d="M581 207q0 -101 -76.5 -161t-193.5 -60q-103 0 -176 50t-73 136q0 16 3 33l2 11h73l-2 -11q-3 -15 -3 -28q0 -63 51.5 -96.5t131.5 -33.5q82 0 134 39t52 111q0 36 -22.5 64.5t-65.5 40.5l-164 46q-128 37 -128 149q0 105 68.5 161t182.5 56q95 0 165.5 -47.5
t70.5 -131.5q0 -15 -2 -31l-1 -6h-72l1 6q2 16 2 23q0 59 -51 92.5t-121 33.5q-74 0 -120.5 -38t-46.5 -107q0 -70 77 -93l166 -48q66 -19 102 -61t36 -99zM188 -250l68 170h85l-90 -170h-63z" />
    <glyph glyph-name="scommaaccent" unicode="&#x219;" horiz-adv-x="517" 
d="M451 154q0 -76 -60 -121t-156 -45q-84 0 -141.5 38.5t-57.5 98.5q0 13 2 23l1 5h66l-1 -6q-8 -48 31 -76.5t107 -28.5q64 0 100.5 28.5t36.5 75.5q0 52 -58 67l-131 33q-50 13 -77.5 44.5t-27.5 72.5q0 80 52 120.5t147 40.5q76 0 133.5 -35.5t57.5 -101.5q0 -12 -2 -24
l-1 -6h-66l1 6q8 50 -32 78.5t-95 28.5q-57 0 -90 -25t-33 -72q0 -54 60 -70l133 -35q101 -27 101 -114zM110 -250l68 170h85l-90 -170h-63z" />
    <glyph glyph-name="circumflex" unicode="&#x2c6;" horiz-adv-x="476" 
d="M346 724l84 -142h-69l-56 97l-90 -97h-75l133 142h73z" />
    <glyph glyph-name="caron" unicode="&#x2c7;" horiz-adv-x="476" 
d="M248 582l-84 142h69l56 -97l90 97h75l-133 -142h-73z" />
    <glyph glyph-name="breve" unicode="&#x2d8;" horiz-adv-x="495" 
d="M467 724q-9 -64 -52 -103t-112 -39q-68 0 -110.5 37t-34.5 105h56q-6 -46 18 -71.5t75 -25.5q45 0 71.5 27t32.5 70h56z" />
    <glyph glyph-name="dotaccent" unicode="&#x2d9;" horiz-adv-x="258" 
d="M137 643q0 21 14.5 35.5t37.5 14.5q19 0 32 -11t13 -30q0 -22 -15 -36.5t-39 -14.5q-18 0 -30.5 12t-12.5 30z" />
    <glyph glyph-name="ring" unicode="&#x2da;" horiz-adv-x="365" 
d="M150 662q0 39 26.5 63.5t68.5 24.5q37 0 62 -22t25 -57q0 -37 -26 -63t-68 -26q-39 0 -63.5 22t-24.5 58zM290 670q0 20 -12 32t-34 12q-24 0 -38 -14.5t-14 -37.5q0 -19 12.5 -31t35.5 -12t36.5 15t13.5 36z" />
    <glyph glyph-name="ogonek" unicode="&#x2db;" horiz-adv-x="331" 
d="M167 -130l-2 -50q-22 -6 -53 -6q-41 0 -64 21.5t-23 54.5q0 72 96 110h73q-99 -53 -99 -101q0 -32 45 -32q15 0 27 3z" />
    <glyph glyph-name="tilde" unicode="&#x2dc;" horiz-adv-x="525" 
d="M410 587q-27 0 -76 31t-71 31q-43 0 -68 -67l-47 17q32 106 114 106q31 0 80.5 -31t64.5 -31q7 0 13.5 1.5t12 6.5t8.5 8t7.5 11.5l6 11.5t6 14t5.5 13l46 -18q-10 -29 -20 -48.5t-32 -37.5t-50 -18z" />
    <glyph glyph-name="hungarumlaut" unicode="&#x2dd;" horiz-adv-x="522" 
d="M324 724l-99 -142h-71l86 142h84zM512 724l-99 -142h-71l86 142h84z" />
    <glyph glyph-name="uni0312" unicode="&#x312;" horiz-adv-x="309" 
d="M207 724h74l-60 -142h-92z" />
    <glyph glyph-name="uni0315" unicode="&#x315;" horiz-adv-x="304" 
d="M137 534l74 196h82l-95 -196h-61z" />
    <glyph glyph-name="uni0326" unicode="&#x326;" horiz-adv-x="305" 
d="M9 -250l68 170h85l-90 -170h-63z" />
    <glyph glyph-name="Omega" unicode="&#x3a9;" horiz-adv-x="723" 
d="M672 436q0 -106 -46.5 -206.5t-124.5 -166.5h105l-11 -63h-186l10 63q79 62 127 163.5t48 203.5q0 97 -48 158.5t-141 61.5q-66 0 -115.5 -31t-76.5 -83t-39.5 -109.5t-12.5 -119.5q0 -135 65 -244l-11 -63h-186l11 63h111q-67 114 -67 251q0 76 18.5 144.5t56 127
t103 93.5t151.5 35q118 0 188.5 -78t70.5 -200z" />
    <glyph glyph-name="pi" unicode="&#x3c0;" horiz-adv-x="725" 
d="M699 452h-132l-55 -310q-2 -12 -2 -24q0 -57 64 -57h53l-10 -61h-67q-55 0 -86 30t-31 80q0 14 3 31l55 311h-210l-80 -452h-76l80 452h-110l11 60h603z" />
    <glyph glyph-name="Wgrave" unicode="&#x1e80;" horiz-adv-x="915" 
d="M571 700l76 -592l231 592h79l-288 -700h-74l-76 608l-289 -608h-74l-43 700h77l25 -592l279 592h77zM565 760h-71l-67 126h87z" />
    <glyph glyph-name="wgrave" unicode="&#x1e81;" horiz-adv-x="758" 
d="M457 512l60 -419l177 419h75l-230 -512h-70l-58 426l-210 -426h-70l-52 512h73l34 -419l200 419h71zM452 582h-72l-74 142h91z" />
    <glyph glyph-name="Wacute" unicode="&#x1e82;" horiz-adv-x="915" 
d="M571 700l76 -592l231 592h79l-288 -700h-74l-76 608l-289 -608h-74l-43 700h77l25 -592l279 592h77zM587 760h-76l91 126h94z" />
    <glyph glyph-name="wacute" unicode="&#x1e83;" horiz-adv-x="758" 
d="M457 512l60 -419l177 419h75l-230 -512h-70l-58 426l-210 -426h-70l-52 512h73l34 -419l200 419h71zM481 582h-76l100 142h100z" />
    <glyph glyph-name="Wdieresis" unicode="&#x1e84;" horiz-adv-x="915" 
d="M571 700l76 -592l231 592h79l-288 -700h-74l-76 608l-289 -608h-74l-43 700h77l25 -592l279 592h77zM392 826q0 21 14.5 34.5t36.5 13.5q19 0 32 -12t13 -30q0 -21 -14.5 -35.5t-37.5 -14.5q-19 0 -31.5 13t-12.5 31zM614 826q0 21 14.5 34.5t36.5 13.5q19 0 32 -12
t13 -30q0 -21 -14.5 -35.5t-37.5 -14.5q-19 0 -31.5 13t-12.5 31z" />
    <glyph glyph-name="wdieresis" unicode="&#x1e85;" horiz-adv-x="758" 
d="M457 512l60 -419l177 419h75l-230 -512h-70l-58 426l-210 -426h-70l-52 512h73l34 -419l200 419h71zM302 649q0 21 14.5 34.5t36.5 13.5q19 0 32 -12t13 -30q0 -21 -14.5 -35.5t-37.5 -14.5q-19 0 -31.5 13t-12.5 31zM502 649q0 21 14.5 34.5t36.5 13.5q19 0 32 -12
t13 -30q0 -21 -14.5 -35.5t-37.5 -14.5q-19 0 -31.5 13t-12.5 31z" />
    <glyph glyph-name="Ygrave" unicode="&#x1ef2;" horiz-adv-x="598" 
d="M661 700l-322 -440l-46 -260h-78l47 267l-170 433h81l139 -365l260 365h89zM412 760h-71l-67 126h87z" />
    <glyph glyph-name="ygrave" unicode="&#x1ef3;" horiz-adv-x="514" 
d="M159 -174h-75l96 179l-103 507h75l79 -433l215 433h79l-272 -513zM345 582h-72l-74 142h91z" />
    <glyph glyph-name="endash" unicode="&#x2013;" horiz-adv-x="612" 
d="M539 279h-478l12 66h478z" />
    <glyph glyph-name="emdash" unicode="&#x2014;" horiz-adv-x="911" 
d="M838 279h-777l12 66h777z" />
    <glyph glyph-name="quoteleft" unicode="&#x2018;" horiz-adv-x="228" 
d="M252 700l-87 -224h-86l109 224h64z" />
    <glyph glyph-name="quoteright" unicode="&#x2019;" horiz-adv-x="228" 
d="M82 476l87 224h86l-109 -224h-64z" />
    <glyph glyph-name="quotesinglbase" unicode="&#x201a;" horiz-adv-x="238" 
d="M-25 -114l87 224h86l-109 -224h-64z" />
    <glyph glyph-name="quotedblleft" unicode="&#x201c;" horiz-adv-x="434" 
d="M252 700l-87 -224h-86l109 224h64zM458 700l-87 -224h-86l109 224h64z" />
    <glyph glyph-name="quotedblright" unicode="&#x201d;" horiz-adv-x="434" 
d="M79 476l87 224h86l-109 -224h-64zM285 476l87 224h86l-109 -224h-64z" />
    <glyph glyph-name="quotedblbase" unicode="&#x201e;" horiz-adv-x="444" 
d="M-25 -114l87 224h86l-109 -224h-64zM181 -114l87 224h86l-109 -224h-64z" />
    <glyph glyph-name="dagger" unicode="&#x2020;" horiz-adv-x="491" 
d="M106 466l9 52h144l32 182h61l-32 -182h144l-9 -52h-145l-99 -566h-61l100 566h-144z" />
    <glyph glyph-name="daggerdbl" unicode="&#x2021;" horiz-adv-x="491" 
d="M37 82l10 52h144l58 332h-144l9 52h145l31 182h61l-31 -182h144l-9 -52h-145l-58 -332h144l-9 -52h-145l-31 -182h-61l32 182h-145z" />
    <glyph glyph-name="bullet" unicode="&#x2022;" horiz-adv-x="418" 
d="M216 472q46 0 80 -31.5t34 -78.5q0 -50 -35 -86t-88 -36q-46 0 -79 33t-33 79q0 51 33.5 85.5t87.5 34.5z" />
    <glyph glyph-name="ellipsis" unicode="&#x2026;" horiz-adv-x="714" 
d="M27 39q0 23 16.5 38t41.5 15q20 0 32.5 -12.5t12.5 -30.5q0 -23 -16.5 -39t-40.5 -16q-20 0 -33 13t-13 32zM265 39q0 23 16.5 38t41.5 15q20 0 32.5 -12.5t12.5 -30.5q0 -23 -16.5 -39t-40.5 -16q-20 0 -33 13t-13 32zM503 39q0 23 16.5 38t41.5 15q20 0 32.5 -12.5
t12.5 -30.5q0 -23 -16.5 -39t-40.5 -16q-20 0 -33 13t-13 32z" />
    <glyph glyph-name="perthousand" unicode="&#x2030;" horiz-adv-x="1230" 
d="M414 545l-15 -85q-12 -64 -52.5 -101.5t-105.5 -37.5q-62 0 -101.5 37t-39.5 95q0 15 3 30l16 90q24 135 157 135q62 0 101.5 -36.5t39.5 -95.5q0 -14 -3 -31zM346 465l14 80q2 14 2 27q0 41 -22.5 65.5t-67.5 24.5t-68.5 -24.5t-32.5 -75.5l-14 -79q-3 -18 -3 -30
q0 -42 24.5 -64.5t66.5 -22.5q40 0 66.5 26t34.5 73zM171 0l485 700h62l-485 -700h-62zM790 216l-15 -85q-12 -64 -52.5 -101.5t-105.5 -37.5q-62 0 -101.5 37t-39.5 95q0 15 3 30l16 90q24 135 157 135q62 0 101.5 -36.5t39.5 -95.5q0 -15 -3 -31zM722 136l14 80q2 14 2 27
q0 41 -22.5 65.5t-67.5 24.5t-68.5 -24.5t-32.5 -75.5l-14 -79q-3 -18 -3 -30q0 -42 24.5 -64.5t66.5 -22.5q40 0 66.5 26t34.5 73zM1170 216l-15 -85q-12 -64 -52.5 -101.5t-105.5 -37.5q-62 0 -101.5 37t-39.5 95q0 15 3 30l16 90q24 135 157 135q62 0 101.5 -36.5
t39.5 -95.5q0 -15 -3 -31zM1102 136l14 80q2 14 2 27q0 41 -22.5 65.5t-67.5 24.5t-68.5 -24.5t-32.5 -75.5l-14 -79q-3 -18 -3 -30q0 -42 24.5 -64.5t66.5 -22.5q40 0 66.5 26t34.5 73z" />
    <glyph glyph-name="guilsinglleft" unicode="&#x2039;" horiz-adv-x="350" 
d="M334 484l-208 -219l133 -205h-86l-135 213l206 211h90z" />
    <glyph glyph-name="guilsinglright" unicode="&#x203a;" horiz-adv-x="350" 
d="M26 60l208 219l-133 205h86l135 -213l-206 -211h-90z" />
    <glyph glyph-name="fraction" unicode="&#x2044;" horiz-adv-x="371" 
d="M-63 0l485 700h62l-485 -700h-62z" />
    <glyph glyph-name="Euro" unicode="&#x20ac;" horiz-adv-x="670" 
d="M650 497h-68q0 70 -40.5 113.5t-111.5 43.5q-148 0 -178 -171l-4 -21h198l-9 -51h-198l-21 -122h198l-9 -51h-198l-1 -5q-4 -23 -4 -43q0 -66 38.5 -105t109.5 -39t116.5 44.5t62.5 112.5h68q-21 -93 -87.5 -155t-164.5 -62q-97 0 -157 58t-60 149q0 20 4 40l1 5h-87
l9 51h87l21 122h-87l9 51h87l5 26q19 108 83.5 167t166.5 59q99 0 160 -58t61 -159z" />
    <glyph glyph-name="published" unicode="&#x2117;" horiz-adv-x="862" 
d="M463 295h-94v-124h-46v354h140q55 0 88.5 -32.5t33.5 -82.5q0 -51 -33.5 -83t-88.5 -32zM369 333h86q41 0 62.5 21.5t21.5 54.5t-21.5 55.5t-62.5 22.5h-86v-154zM431 -12q-160 0 -260.5 105.5t-100.5 256.5t100.5 256.5t260.5 105.5t260.5 -105.5t100.5 -256.5
t-100.5 -256.5t-260.5 -105.5zM431 14q150 0 241 98t91 238t-91 238t-241 98t-241 -98t-91 -238t91 -238t241 -98z" />
    <glyph glyph-name="trademark" unicode="&#x2122;" horiz-adv-x="654" 
d="M116 700h219l-5 -31h-92l-45 -257h-36l45 257h-92zM595 626l-99 -147h-33l-49 154l-39 -221h-35l51 288h34l59 -189l125 189h34l-50 -288h-35z" />
    <glyph glyph-name="partialdiff" unicode="&#x2202;" horiz-adv-x="584" 
d="M446 252q0 66 -42 110t-108 44q-78 0 -122 -58.5t-44 -141.5q0 -69 37.5 -115.5t104.5 -46.5q86 0 130 64.5t44 143.5zM198 637h-16l11 63h19q157 0 239.5 -86t82.5 -243q0 -110 -27 -194.5t-88.5 -137.5t-152.5 -53q-95 0 -152.5 63.5t-57.5 156.5q0 107 63 182.5
t167 75.5q69 0 115 -27.5t65 -66.5q-5 132 -66 199.5t-202 67.5z" />
    <glyph glyph-name="Delta" unicode="&#x2206;" horiz-adv-x="669" 
d="M448 700l126 -643l-10 -57h-548l10 57l352 643h70zM99 60h408l-102 571z" />
    <glyph glyph-name="product" unicode="&#x220f;" horiz-adv-x="799" 
d="M331 638l-143 -812h-75l144 812h-134l11 62h687l-11 -62h-133l-143 -812h-75l143 812h-271z" />
    <glyph glyph-name="summation" unicode="&#x2211;" horiz-adv-x="610" 
d="M394 258l-296 -370h381l-11 -62h-468l11 62l302 375l-169 375l10 62h468l-11 -62h-387z" />
    <glyph glyph-name="minus" unicode="&#x2212;" horiz-adv-x="594" 
d="M79 330l11 60h437l-11 -60h-437z" />
    <glyph glyph-name="radical" unicode="&#x221a;" horiz-adv-x="706" 
d="M68 263l13 69h179l59 -355l329 773h77l-368 -850h-90l-67 363h-132z" />
    <glyph glyph-name="infinity" unicode="&#x221e;" horiz-adv-x="882" 
d="M446 302q-33 -48 -88.5 -81.5t-122.5 -33.5t-112 45.5t-45 112.5q0 83 52 135.5t146 52.5q69 0 110.5 -32t71.5 -88q86 120 207 120q70 0 114.5 -46t44.5 -110q0 -77 -54.5 -133.5t-140.5 -56.5q-112 0 -183 115zM248 246q103 0 170 114q-24 52 -56 83t-87 31
q-60 0 -94.5 -35t-34.5 -91q0 -46 28 -74t74 -28zM628 246q58 0 93 35t35 89q0 45 -29 74.5t-75 29.5q-93 0 -168 -116q25 -52 58 -82t86 -30z" />
    <glyph glyph-name="integral" unicode="&#x222b;" horiz-adv-x="438" 
d="M128 -22l102 578q13 74 52.5 109t109.5 35h62l-11 -62h-47q-40 0 -62 -21t-30 -67l-102 -579q-25 -145 -165 -145h-56l11 62h33q88 0 103 90z" />
    <glyph glyph-name="approxequal" unicode="&#x2248;" horiz-adv-x="600" 
d="M408 195q-36 0 -102.5 35t-97.5 35q-49 0 -97 -52l-38 35q31 38 62 56.5t76 18.5q39 0 105.5 -34.5t95.5 -34.5q47 0 86 39l33 -39q-52 -59 -123 -59zM442 397q-36 0 -102.5 35t-97.5 35q-49 0 -97 -52l-38 35q31 38 62 56.5t76 18.5q39 0 105.5 -34.5t95.5 -34.5
q47 0 86 39l33 -39q-52 -59 -123 -59z" />
    <glyph glyph-name="notequal" unicode="&#x2260;" horiz-adv-x="624" 
d="M121 449l10 60h264l83 122h67l-83 -122h103l-10 -60h-133l-120 -178h221l-10 -60h-252l-82 -122h-67l82 122h-115l10 60h146l120 178h-234z" />
    <glyph glyph-name="lessequal" unicode="&#x2264;" horiz-adv-x="611" 
d="M505 163l-414 185l11 61l479 185l-12 -66l-389 -151l336 -148zM476 0h-446l10 60h447z" />
    <glyph glyph-name="greaterequal" unicode="&#x2265;" horiz-adv-x="612" 
d="M555 348l-479 -185l12 67l390 152l-337 147l11 65l414 -185zM494 0h-446l10 60h447z" />
    <glyph glyph-name="lozenge" unicode="&#x25ca;" horiz-adv-x="653" 
d="M432 700l169 -352l-284 -348h-67l-168 353l283 347h67zM162 347l129 -281l230 286l-129 283z" />
    <glyph glyph-name="apple" unicode="&#xf8ff;" horiz-adv-x="853" 
d="M137 163v362q0 74 50.5 124.5t124.5 50.5h350q74 0 124.5 -50t50.5 -124t-50.5 -124t-124.5 -50h-175v-189q0 -74 -50.5 -124.5t-124.5 -50.5t-124.5 50.5t-50.5 124.5z" />
    <glyph glyph-name="fi" unicode="&#xfb01;" horiz-adv-x="600" 
d="M148 0h-76l80 452h-75l10 60h75l15 84q12 67 49.5 100.5t105.5 33.5h80l-11 -60h-56q-43 0 -64 -18.5t-29 -61.5l-14 -78h129l-10 -60h-129zM497 643q0 21 14.5 35.5t37.5 14.5q19 0 32 -11t13 -30q0 -22 -15 -36.5t-39 -14.5q-18 0 -30.5 12t-12.5 30zM469 0h-76l90 512
h76z" />
    <glyph glyph-name="fl" unicode="&#xfb02;" horiz-adv-x="600" 
d="M148 0h-76l80 452h-75l10 60h75l15 84q12 67 49.5 100.5t105.5 33.5h80l-11 -60h-56q-43 0 -64 -18.5t-29 -61.5l-14 -78h129l-10 -60h-129zM469 0h-76l129 730h76z" />
    <glyph glyph-name="acute.case" horiz-adv-x="346" 
d="M252 760h-76l91 126h94z" />
    <glyph glyph-name="breve.case" horiz-adv-x="504" 
d="M511 886q-9 -58 -55.5 -92t-117.5 -34q-70 0 -113 33t-35 93h59q-5 -38 20 -59t73 -21q44 0 73 21.5t36 58.5h60z" />
    <glyph glyph-name="caron.case" horiz-adv-x="484" 
d="M274 760l-92 126h71l62 -84l89 84h79l-135 -126h-74z" />
    <glyph glyph-name="circumflex.case" horiz-adv-x="484" 
d="M377 886l92 -126h-71l-61 83l-91 -83h-78l135 126h74z" />
    <glyph glyph-name="dieresis.case" horiz-adv-x="479" 
d="M166 826q0 21 14.5 34.5t36.5 13.5q19 0 32 -12t13 -30q0 -21 -14.5 -35.5t-37.5 -14.5q-19 0 -31.5 13t-12.5 31zM388 826q0 21 14.5 34.5t36.5 13.5q19 0 32 -12t13 -30q0 -21 -14.5 -35.5t-37.5 -14.5q-19 0 -31.5 13t-12.5 31z" />
    <glyph glyph-name="dotaccent.case" horiz-adv-x="258" 
d="M164 813q0 21 14 35.5t38 14.5q19 0 32 -11t13 -30q0 -22 -15 -36.5t-39 -14.5q-18 0 -30.5 12t-12.5 30z" />
    <glyph glyph-name="grave.case" horiz-adv-x="346" 
d="M282 760h-71l-67 126h87z" />
    <glyph glyph-name="hungarumlaut.case" horiz-adv-x="536" 
d="M346 886l-88 -126h-71l75 126h84zM556 886l-88 -126h-71l75 126h84z" />
    <glyph glyph-name="macron.case" horiz-adv-x="492" 
d="M498 796h-327l11 58h326z" />
    <glyph glyph-name="ring.case" horiz-adv-x="365" 
d="M172 840q0 39 26.5 63.5t68.5 24.5q37 0 62 -22t25 -57q0 -37 -26 -63t-68 -26q-39 0 -63.5 22t-24.5 58zM312 848q0 20 -12 32t-34 12q-24 0 -38 -14.5t-14 -37.5q0 -19 12.5 -31t35.5 -12t36.5 15t13.5 36z" />
    <glyph glyph-name="tilde.case" horiz-adv-x="543" 
d="M444 764q-31 0 -86 31t-79 31q-25 0 -40.5 -16.5t-27.5 -49.5l-47 17q32 105 114 105q36 0 91 -31t72 -31q7 0 13.5 1.5t12 6.5t8.5 8t7.5 11.5l6 11.5t6 14t5.5 13l46 -18q-10 -29 -20 -48.5t-32 -37.5t-50 -18z" />
    <glyph glyph-name="J.salt" horiz-adv-x="600" 
d="M183 636l11 64h397l-90 -513q-16 -92 -81 -146.5t-161 -54.5q-92 0 -156 58t-53 149h72q-7 -66 35 -104t110 -38q131 0 157 142l78 443h-319z" />
    <glyph glyph-name="IJ.salt" horiz-adv-x="865" 
d="M252 700l-123 -700h-78l123 700h78zM447 636l11 64h397l-90 -513q-16 -92 -81 -146.5t-161 -54.5q-92 0 -156 58t-53 149h72q-7 -66 35 -104t110 -38q131 0 157 142l78 443h-319z" />
    <glyph glyph-name="Jcircumflex.salt" horiz-adv-x="595" 
d="M459 886l92 -126h-71l-61 83l-91 -83h-78l135 126h74zM178 636l11 64h397l-90 -513q-16 -92 -81 -146.5t-161 -54.5q-92 0 -156 58t-53 149h72q-7 -66 35 -104t110 -38q131 0 157 142l78 443h-319z" />
    <glyph glyph-name="ornm01.ornm" horiz-adv-x="1044" 
d="M111 319v62h555v-62h-555zM545 700h88l350 -350l-350 -350h-88l350 350z" />
    <glyph glyph-name="ornm02.ornm" horiz-adv-x="1044" 
d="M81 350l350 350h88l-350 -350l350 -350h-88zM398 381h555v-62h-555v62z" />
    <glyph glyph-name="ornm03.ornm" horiz-adv-x="863" 
d="M675 638h-494l62 62h499v-494l-67 -63v495zM536 452l-379 -379l-46 47l378 379z" />
    <glyph glyph-name="ornm04.ornm" horiz-adv-x="863" 
d="M772 120l-47 -47l-379 379l48 47zM639 700l63 -62h-495v-495l-66 63v494h498z" />
    <glyph glyph-name="ornm05.ornm" horiz-adv-x="863" 
d="M111 580l46 47l379 -379l-47 -47zM243 0l-62 62h494v495l67 -63v-494h-499z" />
    <glyph glyph-name="ornm06.ornm" horiz-adv-x="863" 
d="M207 62h495l-63 -62h-498v494l66 63v-495zM346 248l379 379l47 -47l-378 -379z" />
    <glyph glyph-name="ornm07.ornm" horiz-adv-x="902" 
d="M495 -141h-68v536h68v-536zM811 364v-88l-350 350l-350 -350v88l350 350z" />
    <glyph glyph-name="ornm08.ornm" horiz-adv-x="902" 
d="M461 -66l350 350v-88l-350 -350l-350 350v88zM427 165v535h68v-535h-68z" />
    <glyph glyph-name="ornm09.ornm" horiz-adv-x="914" 
d="M101 267v62h446v-62h-446zM498 575h88l277 -277l-277 -277h-88l277 277z" />
    <glyph glyph-name="ornm10.ornm" horiz-adv-x="914" 
d="M71 298l277 277h88l-277 -277l277 -277h-88zM387 329h446v-62h-446v62z" />
    <glyph glyph-name="ornm11.ornm" horiz-adv-x="774" 
d="M144 -47l-43 43l315 315l43 -43zM207 452l62 60h394v-390l-64 -62v392h-392z" />
    <glyph glyph-name="ornm12.ornm" horiz-adv-x="774" 
d="M131 512h394l62 -60h-392v-392l-64 62v390zM378 311l315 -315l-43 -43l-315 315z" />
    <glyph glyph-name="ornm13.ornm" horiz-adv-x="774" 
d="M663 0h-394l-62 59h392v393l64 -63v-389zM416 201l-315 315l43 43l315 -315z" />
    <glyph glyph-name="ornm14.ornm" horiz-adv-x="774" 
d="M650 559l43 -43l-315 -315l-43 43zM587 59l-62 -59h-394v389l64 63v-393h392z" />
    <glyph glyph-name="ornm15.ornm" horiz-adv-x="756" 
d="M388 598l277 -278v-88l-277 278l-277 -278v88zM421 281v-409h-66v409h66z" />
    <glyph glyph-name="ornm16.ornm" horiz-adv-x="756" 
d="M355 588h66v-410h-66v410zM665 227v-88l-277 -277l-277 277v88l277 -277z" />
    <glyph glyph-name="ornm17.ornm" horiz-adv-x="786" 
d="M287 742h21q8 -7 12.5 -21t7 -33t3.5 -24q9 -5 40 -12t41 -17q21 14 44.5 14t46.5 -10q-5 -8 -3.5 -10t13.5 -2q0 -13 6 -23q2 1 7.5 9.5t15.5 4.5q7 -6 24.5 -17.5t24.5 -19.5q15 0 32 11.5t24 13.5q5 -16 37.5 -14.5t43.5 -10.5q3 0 11.5 1t15.5 1t11 -2
q-15 -17 -50 -30t-45 -20q-13 -8 -23.5 -19.5t-21.5 -26.5t-19 -24q-5 -5 -35 -28.5t-39 -39.5q0 -9 3 -31t2 -36q-5 -5 -19.5 -14t-22 -18.5t-8.5 -23.5q19 -21 20 -26q-10 -14 -10 -40t-2 -45q7 -5 33.5 -22.5t42 -31t25.5 -30.5q13 12 27.5 4t18.5 -21q-5 -24 -2 -58
h-481q0 159 6 233q-27 15 -35 41q2 2 13.5 10.5t12.5 17.5q5 19 -5 51.5t-11 39.5q-2 16 0 59.5t-2 63.5q-1 14 -11.5 39.5t-11.5 35.5q-1 14 2 38.5t2 41.5t-10 29q29 1 88.5 -1.5t86.5 -0.5q3 4 3.5 11t-0.5 18t-1 15z" />
    <glyph glyph-name="ornm18.ornm" horiz-adv-x="925" 
d="M89 111q-6 -1 -8 4.5t3 8.5q41 12 66 34l16 15q17 24 28 52q2 7 6 17.5t6.5 18t3.5 14.5l-2 58q-3 36 -3 41q0 31 11.5 54.5t34.5 39t33 20.5t32 14q69 23 138 23q23 0 69 -4l60 -4q9 0 21 2q6 1 11.5 6.5t9.5 12t8 16t6.5 16l5.5 15t3 9.5q9 32 41 68q1 2 2.5 18t4.5 20
q4 1 15 0t13 -2q3 0 28 -5q12 0 14 -3q2 -1 4.5 -5t5.5 -6q8 -1 12 -6q1 -3 13 -15q8 -8 8 -16q0 -5 25 -21q5 -4 11 -7.5t13 -8l12 -7.5q17 -8 14 -18q-3 -7 -20 -12.5t-27 -5.5q-9 0 -24 3q-40 10 -55 1q-3 -1 -8.5 -13t-6.5 -17q-3 -31 -7 -50q-5 -21 -14.5 -51.5
t-10.5 -36.5q-1 -5 -2.5 -16.5t-3.5 -22t-5 -19.5q-18 -31 -19 -34q-5 -7 -13 -55t-10 -73q-5 -46 -3 -109q0 -8 9.5 -20t17.5 -11q5 0 9 -1.5t5 -2.5l2 -2q2 -2 1.5 -9t-3.5 -8l-4 -2l-20 1l6 -6q1 -2 0 -4l-4 -4h-42q-5 2 -12 15q0 1 -2 9t-4 18t-3 13q-2 4 -6 7t-4 5
t1.5 13t1.5 24q0 2 -3 5t-5 7q-1 3 -1 23v44t-1 34q0 4 -2.5 25.5t-2.5 29.5q-2 8 0.5 15.5t2.5 8.5q-1 3 -3 4t-5 1h-6.5t-8 -0.5t-7.5 -0.5q-49 0 -95 34q-12 9 -26.5 25.5t-25.5 26.5t-22 10q-26 0 -41 -17q-8 -7 -16 -35q-1 -4 -1 -21q-1 -13 -10 -48q-3 -12 -14 -43
q-2 -6 -8.5 -15.5l-11.5 -16.5l-5 -6q-4 -5 -10.5 -11.5t-10.5 -11t-4 -7.5q-3 -4 -5.5 -11.5t-3.5 -12.5l-1 -5q-1 -54 0 -62q0 -6 1.5 -10.5t1.5 -5.5q3 -2 7 -5t7 -5q12 -3 13 -6q2 -12 -4 -14h-26q-7 2 -14 7l-10 9q-1 1 -2.5 16l-3 31.5t-1.5 17.5v4q-1 4 -1.5 9.5
t-0.5 12.5v14t1 13q0 9 -3 9q-2 0 -5 -5t-9 -12t-8 -10q-2 -4 -11.5 -35t-10.5 -39v-41l8 -8q8 -3 8 -10t-7 -12h-19q-8 0 -19 14q-3 6 0 51q0 4 1 14.5t1 18.5q0 22 2 38q-28 -20 -58 -23z" />
    </font>
</defs>
</svg>
